<?xml version="1.0" encoding="UTF-8" standalone="no"?><svg xmlns="http://www.w3.org/2000/svg" xmlns:xlink="http://www.w3.org/1999/xlink" contentScriptType="application/ecmascript" contentStyleType="text/css" height="465px" preserveAspectRatio="none" style="width:774px;height:465px;background:#FFFFFF;" version="1.1" viewBox="0 0 774 465" width="774px" zoomAndPan="magnify"><defs><filter height="300%" id="f6zscbqjhoizx" width="300%" x="-1" y="-1"><feGaussianBlur result="blurOut" stdDeviation="2.0"/><feColorMatrix in="blurOut" result="blurOut2" type="matrix" values="0 0 0 0 0 0 0 0 0 0 0 0 0 0 0 0 0 0 .4 0"/><feOffset dx="4.0" dy="4.0" in="blurOut2" result="blurOut3"/><feBlend in="SourceGraphic" in2="blurOut3" mode="normal"/></filter></defs><g><!--MD5=[7ab70f099b05dfec2904f89aeec269f4]
cluster Firebase--><polygon fill="#FFFFFF" filter="url(#f6zscbqjhoizx)" points="292,216,302,206,495,206,495,314,485,324,292,324,292,216" style="stroke:#000000;stroke-width:1.5;"/><line style="stroke:#000000;stroke-width:1.5;" x1="485" x2="495" y1="216" y2="206"/><line style="stroke:#000000;stroke-width:1.5;" x1="292" x2="485" y1="216" y2="216"/><line style="stroke:#000000;stroke-width:1.5;" x1="485" x2="485" y1="216" y2="324"/><text fill="#000000" font-family="sans-serif" font-size="14" font-weight="bold" lengthAdjust="spacing" textLength="68" x="355.5" y="231.9951">Firebase</text><!--MD5=[7d9013862d2121ae5aefd75a286d825b]
cluster Heroku--><polygon fill="#FFFFFF" filter="url(#f6zscbqjhoizx)" points="535,216,545,206,736,206,736,314,726,324,535,324,535,216" style="stroke:#000000;stroke-width:1.5;"/><line style="stroke:#000000;stroke-width:1.5;" x1="726" x2="736" y1="216" y2="206"/><line style="stroke:#000000;stroke-width:1.5;" x1="535" x2="726" y1="216" y2="216"/><line style="stroke:#000000;stroke-width:1.5;" x1="726" x2="726" y1="216" y2="324"/><text fill="#000000" font-family="sans-serif" font-size="14" font-weight="bold" lengthAdjust="spacing" textLength="56" x="603.5" y="231.9951">Heroku</text><!--MD5=[d3d2b2c1c05dad145f52bbf833e8f233]
cluster MongoDBAtlas--><polygon fill="#FFFFFF" filter="url(#f6zscbqjhoizx)" points="562,366,572,356,757,356,757,448,747,458,562,458,562,366" style="stroke:#000000;stroke-width:1.5;"/><line style="stroke:#000000;stroke-width:1.5;" x1="747" x2="757" y1="366" y2="356"/><line style="stroke:#000000;stroke-width:1.5;" x1="562" x2="747" y1="366" y2="366"/><line style="stroke:#000000;stroke-width:1.5;" x1="747" x2="747" y1="366" y2="458"/><text fill="#000000" font-family="sans-serif" font-size="14" font-weight="bold" lengthAdjust="spacing" textLength="119" x="596" y="381.9951">MongoDBAtlas</text><!--MD5=[52bd4819656a6938484a4a042299c7b0]
cluster GitHub--><polygon fill="#FFFFFF" filter="url(#f6zscbqjhoizx)" points="16,82,26,72,496,72,496,164,486,174,16,174,16,82" style="stroke:#000000;stroke-width:1.5;"/><line style="stroke:#000000;stroke-width:1.5;" x1="486" x2="496" y1="82" y2="72"/><line style="stroke:#000000;stroke-width:1.5;" x1="16" x2="486" y1="82" y2="82"/><line style="stroke:#000000;stroke-width:1.5;" x1="486" x2="486" y1="82" y2="174"/><text fill="#000000" font-family="sans-serif" font-size="14" font-weight="bold" lengthAdjust="spacing" textLength="56" x="224" y="97.9951">GitHub</text><!--MD5=[eae7271b97cd89b1036f59bc0af90589]
entity front--><rect fill="#FEFECE" filter="url(#f6zscbqjhoizx)" height="46.2969" style="stroke:#A80036;stroke-width:1.5;" width="136" x="335" y="254"/><rect fill="#FEFECE" height="10" style="stroke:#A80036;stroke-width:1.5;" width="15" x="451" y="259"/><rect fill="#FEFECE" height="2" style="stroke:#A80036;stroke-width:1.5;" width="4" x="449" y="261"/><rect fill="#FEFECE" height="2" style="stroke:#A80036;stroke-width:1.5;" width="4" x="449" y="265"/><text fill="#000000" font-family="sans-serif" font-size="14" lengthAdjust="spacing" textLength="96" x="350" y="286.9951">ust-uml:front</text><!--MD5=[6217af0d48b18cf331178f0810d9ee1e]
entity back--><rect fill="#FEFECE" filter="url(#f6zscbqjhoizx)" height="46.2969" style="stroke:#A80036;stroke-width:1.5;" width="134" x="578" y="254"/><rect fill="#FEFECE" height="10" style="stroke:#A80036;stroke-width:1.5;" width="15" x="692" y="259"/><rect fill="#FEFECE" height="2" style="stroke:#A80036;stroke-width:1.5;" width="4" x="690" y="261"/><rect fill="#FEFECE" height="2" style="stroke:#A80036;stroke-width:1.5;" width="4" x="690" y="265"/><text fill="#000000" font-family="sans-serif" font-size="14" lengthAdjust="spacing" textLength="94" x="593" y="286.9951">ust-uml:back</text><!--MD5=[ba72416187da2a396e219ea5b5d73a26]
entity MongoDB--><rect fill="#FEFECE" filter="url(#f6zscbqjhoizx)" height="46.2969" style="stroke:#A80036;stroke-width:1.5;" width="109" x="590.5" y="396"/><rect fill="#FEFECE" height="10" style="stroke:#A80036;stroke-width:1.5;" width="15" x="679.5" y="401"/><rect fill="#FEFECE" height="2" style="stroke:#A80036;stroke-width:1.5;" width="4" x="677.5" y="403"/><rect fill="#FEFECE" height="2" style="stroke:#A80036;stroke-width:1.5;" width="4" x="677.5" y="407"/><text fill="#000000" font-family="sans-serif" font-size="14" lengthAdjust="spacing" textLength="69" x="605.5" y="428.9951">MongoDB</text><!--MD5=[fcc9808df0fef7877a993d5e7e38b434]
entity SonarCloud--><polygon fill="#FFFFFF" filter="url(#f6zscbqjhoizx)" points="200.5,16,210.5,6,321.5,6,321.5,42.2969,311.5,52.2969,200.5,52.2969,200.5,16" style="stroke:#000000;stroke-width:1.5;"/><line style="stroke:#000000;stroke-width:1.5;" x1="311.5" x2="321.5" y1="16" y2="6"/><line style="stroke:#000000;stroke-width:1.5;" x1="200.5" x2="311.5" y1="16" y2="16"/><line style="stroke:#000000;stroke-width:1.5;" x1="311.5" x2="311.5" y1="16" y2="52.2969"/><text fill="#000000" font-family="sans-serif" font-size="14" lengthAdjust="spacing" textLength="81" x="215.5" y="38.9951">SonarCloud</text><!--MD5=[ddb1b04a35a1555981cff38840447819]
entity GitActions--><rect fill="#FEFECE" filter="url(#f6zscbqjhoizx)" height="46.2969" style="stroke:#A80036;stroke-width:1.5;" width="116" x="364" y="112"/><rect fill="#FEFECE" height="10" style="stroke:#A80036;stroke-width:1.5;" width="15" x="460" y="117"/><rect fill="#FEFECE" height="2" style="stroke:#A80036;stroke-width:1.5;" width="4" x="458" y="119"/><rect fill="#FEFECE" height="2" style="stroke:#A80036;stroke-width:1.5;" width="4" x="458" y="123"/><text fill="#000000" font-family="sans-serif" font-size="14" lengthAdjust="spacing" textLength="76" x="379" y="144.9951">GitActions</text><!--MD5=[f1186b413cedc25fc1877378ee9157f4]
entity frontRepository--><rect fill="#FEFECE" filter="url(#f6zscbqjhoizx)" height="46.2969" style="stroke:#A80036;stroke-width:1.5;" width="135" x="193.5" y="112"/><rect fill="#FEFECE" height="10" style="stroke:#A80036;stroke-width:1.5;" width="15" x="308.5" y="117"/><rect fill="#FEFECE" height="2" style="stroke:#A80036;stroke-width:1.5;" width="4" x="306.5" y="119"/><rect fill="#FEFECE" height="2" style="stroke:#A80036;stroke-width:1.5;" width="4" x="306.5" y="123"/><text fill="#000000" font-family="sans-serif" font-size="14" lengthAdjust="spacing" textLength="95" x="208.5" y="144.9951">front-angular</text><!--MD5=[580c8a31d7c3a2cfc99dbfa7febfb9fb]
entity backRepository--><rect fill="#FEFECE" filter="url(#f6zscbqjhoizx)" height="46.2969" style="stroke:#A80036;stroke-width:1.5;" width="126" x="32" y="112"/><rect fill="#FEFECE" height="10" style="stroke:#A80036;stroke-width:1.5;" width="15" x="138" y="117"/><rect fill="#FEFECE" height="2" style="stroke:#A80036;stroke-width:1.5;" width="4" x="136" y="119"/><rect fill="#FEFECE" height="2" style="stroke:#A80036;stroke-width:1.5;" width="4" x="136" y="123"/><text fill="#000000" font-family="sans-serif" font-size="14" lengthAdjust="spacing" textLength="86" x="47" y="144.9951">back-spring</text><!--MD5=[dab2da0add6051f50c699c619e99da4e]
link back to MongoDB--><path d="M645,300.183 C645,326.398 645,369.751 645,395.9204 " fill="none" id="back-MongoDB" style="stroke:#A80036;stroke-width:1.0;"/><!--MD5=[a16950207ffb0a9f1b712a821e3c4ca2]
link GitActions to SonarCloud--><path d="M402.104,111.832 C387.687,96.79 367.094,77.296 346,64 C339.882,60.144 333.254,56.584 326.49,53.338 " fill="none" id="GitActions-to-SonarCloud" style="stroke:#A80036;stroke-width:1.0;"/><polygon fill="#A80036" points="321.79,51.141,328.2499,58.5754,326.3197,53.258,331.6371,51.3278,321.79,51.141" style="stroke:#A80036;stroke-width:1.0;"/><!--MD5=[b31bb2941b4ea0b5ee42c308cbf4028c]
link SonarCloud to frontRepository--><path d="M261,52.056 C261,68.05 261,89.778 261,106.842 " fill="none" id="SonarCloud-to-frontRepository" style="stroke:#A80036;stroke-width:1.0;"/><polygon fill="#A80036" points="261,111.976,265,102.976,261,106.976,257,102.976,261,111.976" style="stroke:#A80036;stroke-width:1.0;"/><!--MD5=[836baac20288beb3d97d132db2d1cdde]
link SonarCloud to backRepository--><path d="M200.345,51.36 C191.948,55.144 183.604,59.374 176,64 C155.654,76.379 135.381,93.904 120.207,108.322 " fill="none" id="SonarCloud-to-backRepository" style="stroke:#A80036;stroke-width:1.0;"/><polygon fill="#A80036" points="116.462,111.915,125.7253,108.5697,120.0697,108.4531,120.1862,102.7974,116.462,111.915" style="stroke:#A80036;stroke-width:1.0;"/><!--MD5=[afa318a5395f7e16aa3c4a8bdc1f3ced]
link GitActions to Firebase--><path d="M389.701,158.064 C376.553,166.368 360.953,175.391 346,182 C334.553,187.06 327.532,180.843 319,190 C315.7686,193.468 313.0412,197.3572 310.7432,201.5147 C310.1686,202.554 309.6209,203.6102 309.0989,204.6807 C308.9684,204.9483 308.8395,205.2169 308.7122,205.4862 C308.6485,205.6209 308.5853,205.7559 308.5224,205.891 " fill="none" id="GitActions-to-Firebase" style="stroke:#A80036;stroke-width:1.0;"/><polygon fill="#A80036" points="308.5224,205.891,315.9457,199.4183,310.6316,201.3576,308.6923,196.0436,308.5224,205.891" style="stroke:#A80036;stroke-width:1.0;"/><!--MD5=[9486d69e8dccb0da2643edfa9314d491]
link GitActions to Heroku--><path d="M452.475,158.19 C463.982,167.342 476.757,178.494 487,190 C501.69,206.5015 515.2878,227.1945 525.4047,244.1469 C527.934,248.385 530.2457,252.3893 532.3025,256.0358 C532.8167,256.9475 533.315,257.8368 533.7968,258.7018 C534.0377,259.1343 534.2744,259.5607 534.507,259.9808 C534.6233,260.1908 534.7385,260.3993 534.8527,260.6062 " fill="none" id="GitActions-to-Heroku" style="stroke:#A80036;stroke-width:1.0;"/><polygon fill="#A80036" points="534.8527,260.6062,534.006,250.7938,532.4367,256.2286,527.0019,254.6593,534.8527,260.6062" style="stroke:#A80036;stroke-width:1.0;"/><!--MD5=[f18df4f33fc8659ac3619f7876a3a8c6]
@startuml
node Firebase {
    component front as "ust-uml:front"
}

node Heroku {
    component back as "ust-uml:back"
}

node MongoDBAtlas {
    component MongoDB
}

node SonarCloud {
}

node GitHub {
      component GitActions
      component "front-angular" as frontRepository
      component "back-spring" as backRepository
}

back -down- MongoDB
GitActions -down-> SonarCloud
SonarCloud -down-> frontRepository
SonarCloud -down-> backRepository
GitActions -down-> Firebase
GitActions -down-> Heroku
@enduml

PlantUML version 1.2021.7(Sun May 23 12:40:07 UTC 2021)
(GPL source distribution)
Java Runtime: Java(TM) SE Runtime Environment
JVM: Java HotSpot(TM) 64-Bit Server VM
Default Encoding: UTF-8
Language: en
Country: US
--></g></svg>