<?xml version="1.0" encoding="UTF-8" standalone="no"?><svg xmlns="http://www.w3.org/2000/svg" xmlns:xlink="http://www.w3.org/1999/xlink" contentScriptType="application/ecmascript" contentStyleType="text/css" height="652px" preserveAspectRatio="none" style="width:1782px;height:652px;background:#FFFFFF;" version="1.1" viewBox="0 0 1782 652" width="1782px" zoomAndPan="magnify"><defs><filter height="300%" id="fhkpdz8k1v1m" width="300%" x="-1" y="-1"><feGaussianBlur result="blurOut" stdDeviation="2.0"/><feColorMatrix in="blurOut" result="blurOut2" type="matrix" values="0 0 0 0 0 0 0 0 0 0 0 0 0 0 0 0 0 0 .4 0"/><feOffset dx="4.0" dy="4.0" in="blurOut2" result="blurOut3"/><feBlend in="SourceGraphic" in2="blurOut3" mode="normal"/></filter></defs><g><!--MD5=[e2a75efa8a0f57c2afae8bf75386f79c]
cluster views--><polygon fill="#FFFFFF" filter="url(#fhkpdz8k1v1m)" points="16,6,67,6,74,28.2969,648,28.2969,648,236,16,236,16,6" style="stroke:#000000;stroke-width:1.5;"/><line style="stroke:#000000;stroke-width:1.5;" x1="16" x2="74" y1="28.2969" y2="28.2969"/><text fill="#000000" font-family="sans-serif" font-size="14" font-weight="bold" lengthAdjust="spacing" textLength="45" x="20" y="20.9951">views</text><!--MD5=[f4e70ef68289585296b9045165e58692]
cluster controllers--><polygon fill="#FFFFFF" filter="url(#fhkpdz8k1v1m)" points="688,121,783,121,790,143.2969,1118,143.2969,1118,391,688,391,688,121" style="stroke:#000000;stroke-width:1.5;"/><line style="stroke:#000000;stroke-width:1.5;" x1="688" x2="790" y1="143.2969" y2="143.2969"/><text fill="#000000" font-family="sans-serif" font-size="14" font-weight="bold" lengthAdjust="spacing" textLength="89" x="692" y="135.9951">controllers</text><!--MD5=[a60570e4b426f702ccbb0d459e3b9417]
cluster models--><polygon fill="#FFFFFF" filter="url(#fhkpdz8k1v1m)" points="1158,276,1222,276,1229,298.2969,1765,298.2969,1765,645,1158,645,1158,276" style="stroke:#000000;stroke-width:1.5;"/><line style="stroke:#000000;stroke-width:1.5;" x1="1158" x2="1229" y1="298.2969" y2="298.2969"/><text fill="#000000" font-family="sans-serif" font-size="14" font-weight="bold" lengthAdjust="spacing" textLength="58" x="1162" y="290.9951">models</text><!--MD5=[85c34399a5c698d8ba010b21b979f516]
class UserView--><rect codeLine="2" fill="#FEFECE" filter="url(#fhkpdz8k1v1m)" height="48" id="UserView" style="stroke:#A80036;stroke-width:1.5;" width="90" x="284" y="49"/><ellipse cx="299" cy="65" fill="#ADD1B2" rx="11" ry="11" style="stroke:#A80036;stroke-width:1.0;"/><path d="M301.3438,60.6719 C300.4063,60.2344 299.8125,60.0938 298.9375,60.0938 C296.3125,60.0938 294.3125,62.1719 294.3125,64.8906 L294.3125,66.0156 C294.3125,68.5938 296.4219,70.4844 299.3125,70.4844 C300.5313,70.4844 301.6875,70.1875 302.4375,69.6406 C303.0156,69.2344 303.3438,68.7813 303.3438,68.3906 C303.3438,67.9375 302.9531,67.5469 302.4844,67.5469 C302.2656,67.5469 302.0625,67.625 301.875,67.8125 C301.4219,68.2969 301.4219,68.2969 301.2344,68.3906 C300.8125,68.6563 300.125,68.7813 299.3594,68.7813 C297.3125,68.7813 296.0156,67.6875 296.0156,65.9844 L296.0156,64.8906 C296.0156,63.1094 297.2656,61.7969 299,61.7969 C299.5781,61.7969 300.1875,61.9531 300.6563,62.2031 C301.1406,62.4844 301.3125,62.7031 301.4063,63.1094 C301.4688,63.5156 301.5,63.6406 301.6406,63.7656 C301.7813,63.9063 302.0156,64.0156 302.2344,64.0156 C302.5,64.0156 302.7656,63.875 302.9375,63.6563 C303.0469,63.5 303.0781,63.3125 303.0781,62.8906 L303.0781,61.4688 C303.0781,61.0313 303.0625,60.9063 302.9688,60.75 C302.8125,60.4844 302.5313,60.3438 302.2344,60.3438 C301.9375,60.3438 301.7344,60.4375 301.5156,60.75 L301.3438,60.6719 Z " fill="#000000"/><text fill="#000000" font-family="sans-serif" font-size="12" lengthAdjust="spacing" textLength="58" x="313" y="69.1543">UserView</text><line style="stroke:#A80036;stroke-width:1.5;" x1="285" x2="373" y1="81" y2="81"/><line style="stroke:#A80036;stroke-width:1.5;" x1="285" x2="373" y1="89" y2="89"/><!--MD5=[c565ad57ffb732561f3f84fb6a1fbba9]
class CommandView--><rect codeLine="3" fill="#FEFECE" filter="url(#fhkpdz8k1v1m)" height="48" id="CommandView" style="stroke:#A80036;stroke-width:1.5;" width="121" x="348.5" y="164"/><ellipse cx="363.5" cy="180" fill="#ADD1B2" rx="11" ry="11" style="stroke:#A80036;stroke-width:1.0;"/><path d="M365.8438,175.6719 C364.9063,175.2344 364.3125,175.0938 363.4375,175.0938 C360.8125,175.0938 358.8125,177.1719 358.8125,179.8906 L358.8125,181.0156 C358.8125,183.5938 360.9219,185.4844 363.8125,185.4844 C365.0313,185.4844 366.1875,185.1875 366.9375,184.6406 C367.5156,184.2344 367.8438,183.7813 367.8438,183.3906 C367.8438,182.9375 367.4531,182.5469 366.9844,182.5469 C366.7656,182.5469 366.5625,182.625 366.375,182.8125 C365.9219,183.2969 365.9219,183.2969 365.7344,183.3906 C365.3125,183.6563 364.625,183.7813 363.8594,183.7813 C361.8125,183.7813 360.5156,182.6875 360.5156,180.9844 L360.5156,179.8906 C360.5156,178.1094 361.7656,176.7969 363.5,176.7969 C364.0781,176.7969 364.6875,176.9531 365.1563,177.2031 C365.6406,177.4844 365.8125,177.7031 365.9063,178.1094 C365.9688,178.5156 366,178.6406 366.1406,178.7656 C366.2813,178.9063 366.5156,179.0156 366.7344,179.0156 C367,179.0156 367.2656,178.875 367.4375,178.6563 C367.5469,178.5 367.5781,178.3125 367.5781,177.8906 L367.5781,176.4688 C367.5781,176.0313 367.5625,175.9063 367.4688,175.75 C367.3125,175.4844 367.0313,175.3438 366.7344,175.3438 C366.4375,175.3438 366.2344,175.4375 366.0156,175.75 L365.8438,175.6719 Z " fill="#000000"/><text fill="#000000" font-family="sans-serif" font-size="12" lengthAdjust="spacing" textLength="89" x="377.5" y="184.1543">CommandView</text><line style="stroke:#A80036;stroke-width:1.5;" x1="349.5" x2="468.5" y1="196" y2="196"/><line style="stroke:#A80036;stroke-width:1.5;" x1="349.5" x2="468.5" y1="204" y2="204"/><!--MD5=[aab07ea4e92799e410aa234f93fa2e7a]
class PackageView--><rect codeLine="4" fill="#FEFECE" filter="url(#fhkpdz8k1v1m)" height="48" id="PackageView" style="stroke:#A80036;stroke-width:1.5;" width="111" x="504.5" y="164"/><ellipse cx="519.5" cy="180" fill="#ADD1B2" rx="11" ry="11" style="stroke:#A80036;stroke-width:1.0;"/><path d="M521.8438,175.6719 C520.9063,175.2344 520.3125,175.0938 519.4375,175.0938 C516.8125,175.0938 514.8125,177.1719 514.8125,179.8906 L514.8125,181.0156 C514.8125,183.5938 516.9219,185.4844 519.8125,185.4844 C521.0313,185.4844 522.1875,185.1875 522.9375,184.6406 C523.5156,184.2344 523.8438,183.7813 523.8438,183.3906 C523.8438,182.9375 523.4531,182.5469 522.9844,182.5469 C522.7656,182.5469 522.5625,182.625 522.375,182.8125 C521.9219,183.2969 521.9219,183.2969 521.7344,183.3906 C521.3125,183.6563 520.625,183.7813 519.8594,183.7813 C517.8125,183.7813 516.5156,182.6875 516.5156,180.9844 L516.5156,179.8906 C516.5156,178.1094 517.7656,176.7969 519.5,176.7969 C520.0781,176.7969 520.6875,176.9531 521.1563,177.2031 C521.6406,177.4844 521.8125,177.7031 521.9063,178.1094 C521.9688,178.5156 522,178.6406 522.1406,178.7656 C522.2813,178.9063 522.5156,179.0156 522.7344,179.0156 C523,179.0156 523.2656,178.875 523.4375,178.6563 C523.5469,178.5 523.5781,178.3125 523.5781,177.8906 L523.5781,176.4688 C523.5781,176.0313 523.5625,175.9063 523.4688,175.75 C523.3125,175.4844 523.0313,175.3438 522.7344,175.3438 C522.4375,175.3438 522.2344,175.4375 522.0156,175.75 L521.8438,175.6719 Z " fill="#000000"/><text fill="#000000" font-family="sans-serif" font-size="12" lengthAdjust="spacing" textLength="79" x="533.5" y="184.1543">PackageView</text><line style="stroke:#A80036;stroke-width:1.5;" x1="505.5" x2="614.5" y1="196" y2="196"/><line style="stroke:#A80036;stroke-width:1.5;" x1="505.5" x2="614.5" y1="204" y2="204"/><!--MD5=[5e1fa4944e282261b1fa02149e9b8b41]
class DiagramView--><rect codeLine="5" fill="#FEFECE" filter="url(#fhkpdz8k1v1m)" height="48" id="DiagramView" style="stroke:#A80036;stroke-width:1.5;" width="111" x="40.5" y="164"/><ellipse cx="55.5" cy="180" fill="#ADD1B2" rx="11" ry="11" style="stroke:#A80036;stroke-width:1.0;"/><path d="M57.8438,175.6719 C56.9063,175.2344 56.3125,175.0938 55.4375,175.0938 C52.8125,175.0938 50.8125,177.1719 50.8125,179.8906 L50.8125,181.0156 C50.8125,183.5938 52.9219,185.4844 55.8125,185.4844 C57.0313,185.4844 58.1875,185.1875 58.9375,184.6406 C59.5156,184.2344 59.8438,183.7813 59.8438,183.3906 C59.8438,182.9375 59.4531,182.5469 58.9844,182.5469 C58.7656,182.5469 58.5625,182.625 58.375,182.8125 C57.9219,183.2969 57.9219,183.2969 57.7344,183.3906 C57.3125,183.6563 56.625,183.7813 55.8594,183.7813 C53.8125,183.7813 52.5156,182.6875 52.5156,180.9844 L52.5156,179.8906 C52.5156,178.1094 53.7656,176.7969 55.5,176.7969 C56.0781,176.7969 56.6875,176.9531 57.1563,177.2031 C57.6406,177.4844 57.8125,177.7031 57.9063,178.1094 C57.9688,178.5156 58,178.6406 58.1406,178.7656 C58.2813,178.9063 58.5156,179.0156 58.7344,179.0156 C59,179.0156 59.2656,178.875 59.4375,178.6563 C59.5469,178.5 59.5781,178.3125 59.5781,177.8906 L59.5781,176.4688 C59.5781,176.0313 59.5625,175.9063 59.4688,175.75 C59.3125,175.4844 59.0313,175.3438 58.7344,175.3438 C58.4375,175.3438 58.2344,175.4375 58.0156,175.75 L57.8438,175.6719 Z " fill="#000000"/><text fill="#000000" font-family="sans-serif" font-size="12" lengthAdjust="spacing" textLength="79" x="69.5" y="184.1543">DiagramView</text><line style="stroke:#A80036;stroke-width:1.5;" x1="41.5" x2="150.5" y1="196" y2="196"/><line style="stroke:#A80036;stroke-width:1.5;" x1="41.5" x2="150.5" y1="204" y2="204"/><!--MD5=[410a24c0115a07ba9d26128dd0aa4892]
class RepositoryView--><rect codeLine="6" fill="#FEFECE" filter="url(#fhkpdz8k1v1m)" height="48" id="RepositoryView" style="stroke:#A80036;stroke-width:1.5;" width="126" x="187" y="164"/><ellipse cx="202" cy="180" fill="#ADD1B2" rx="11" ry="11" style="stroke:#A80036;stroke-width:1.0;"/><path d="M204.3438,175.6719 C203.4063,175.2344 202.8125,175.0938 201.9375,175.0938 C199.3125,175.0938 197.3125,177.1719 197.3125,179.8906 L197.3125,181.0156 C197.3125,183.5938 199.4219,185.4844 202.3125,185.4844 C203.5313,185.4844 204.6875,185.1875 205.4375,184.6406 C206.0156,184.2344 206.3438,183.7813 206.3438,183.3906 C206.3438,182.9375 205.9531,182.5469 205.4844,182.5469 C205.2656,182.5469 205.0625,182.625 204.875,182.8125 C204.4219,183.2969 204.4219,183.2969 204.2344,183.3906 C203.8125,183.6563 203.125,183.7813 202.3594,183.7813 C200.3125,183.7813 199.0156,182.6875 199.0156,180.9844 L199.0156,179.8906 C199.0156,178.1094 200.2656,176.7969 202,176.7969 C202.5781,176.7969 203.1875,176.9531 203.6563,177.2031 C204.1406,177.4844 204.3125,177.7031 204.4063,178.1094 C204.4688,178.5156 204.5,178.6406 204.6406,178.7656 C204.7813,178.9063 205.0156,179.0156 205.2344,179.0156 C205.5,179.0156 205.7656,178.875 205.9375,178.6563 C206.0469,178.5 206.0781,178.3125 206.0781,177.8906 L206.0781,176.4688 C206.0781,176.0313 206.0625,175.9063 205.9688,175.75 C205.8125,175.4844 205.5313,175.3438 205.2344,175.3438 C204.9375,175.3438 204.7344,175.4375 204.5156,175.75 L204.3438,175.6719 Z " fill="#000000"/><text fill="#000000" font-family="sans-serif" font-size="12" lengthAdjust="spacing" textLength="94" x="216" y="184.1543">RepositoryView</text><line style="stroke:#A80036;stroke-width:1.5;" x1="188" x2="312" y1="196" y2="196"/><line style="stroke:#A80036;stroke-width:1.5;" x1="188" x2="312" y1="204" y2="204"/><!--MD5=[8c5d39f868650b2a6dad357daec7ff6d]
class AddMemberController--><rect codeLine="15" fill="#FEFECE" filter="url(#fhkpdz8k1v1m)" height="48" id="AddMemberController" style="stroke:#A80036;stroke-width:1.5;" width="165" x="909.5" y="164"/><ellipse cx="924.5" cy="180" fill="#ADD1B2" rx="11" ry="11" style="stroke:#A80036;stroke-width:1.0;"/><path d="M926.8438,175.6719 C925.9063,175.2344 925.3125,175.0938 924.4375,175.0938 C921.8125,175.0938 919.8125,177.1719 919.8125,179.8906 L919.8125,181.0156 C919.8125,183.5938 921.9219,185.4844 924.8125,185.4844 C926.0313,185.4844 927.1875,185.1875 927.9375,184.6406 C928.5156,184.2344 928.8438,183.7813 928.8438,183.3906 C928.8438,182.9375 928.4531,182.5469 927.9844,182.5469 C927.7656,182.5469 927.5625,182.625 927.375,182.8125 C926.9219,183.2969 926.9219,183.2969 926.7344,183.3906 C926.3125,183.6563 925.625,183.7813 924.8594,183.7813 C922.8125,183.7813 921.5156,182.6875 921.5156,180.9844 L921.5156,179.8906 C921.5156,178.1094 922.7656,176.7969 924.5,176.7969 C925.0781,176.7969 925.6875,176.9531 926.1563,177.2031 C926.6406,177.4844 926.8125,177.7031 926.9063,178.1094 C926.9688,178.5156 927,178.6406 927.1406,178.7656 C927.2813,178.9063 927.5156,179.0156 927.7344,179.0156 C928,179.0156 928.2656,178.875 928.4375,178.6563 C928.5469,178.5 928.5781,178.3125 928.5781,177.8906 L928.5781,176.4688 C928.5781,176.0313 928.5625,175.9063 928.4688,175.75 C928.3125,175.4844 928.0313,175.3438 927.7344,175.3438 C927.4375,175.3438 927.2344,175.4375 927.0156,175.75 L926.8438,175.6719 Z " fill="#000000"/><text fill="#000000" font-family="sans-serif" font-size="12" lengthAdjust="spacing" textLength="133" x="938.5" y="184.1543">AddMemberController</text><line style="stroke:#A80036;stroke-width:1.5;" x1="910.5" x2="1073.5" y1="196" y2="196"/><line style="stroke:#A80036;stroke-width:1.5;" x1="910.5" x2="1073.5" y1="204" y2="204"/><!--MD5=[bbe039b5990b61f85fe69b528acc0d85]
class AddRelationController--><rect codeLine="16" fill="#FEFECE" filter="url(#fhkpdz8k1v1m)" height="48" id="AddRelationController" style="stroke:#A80036;stroke-width:1.5;" width="162" x="712" y="164"/><ellipse cx="727" cy="180" fill="#ADD1B2" rx="11" ry="11" style="stroke:#A80036;stroke-width:1.0;"/><path d="M729.3438,175.6719 C728.4063,175.2344 727.8125,175.0938 726.9375,175.0938 C724.3125,175.0938 722.3125,177.1719 722.3125,179.8906 L722.3125,181.0156 C722.3125,183.5938 724.4219,185.4844 727.3125,185.4844 C728.5313,185.4844 729.6875,185.1875 730.4375,184.6406 C731.0156,184.2344 731.3438,183.7813 731.3438,183.3906 C731.3438,182.9375 730.9531,182.5469 730.4844,182.5469 C730.2656,182.5469 730.0625,182.625 729.875,182.8125 C729.4219,183.2969 729.4219,183.2969 729.2344,183.3906 C728.8125,183.6563 728.125,183.7813 727.3594,183.7813 C725.3125,183.7813 724.0156,182.6875 724.0156,180.9844 L724.0156,179.8906 C724.0156,178.1094 725.2656,176.7969 727,176.7969 C727.5781,176.7969 728.1875,176.9531 728.6563,177.2031 C729.1406,177.4844 729.3125,177.7031 729.4063,178.1094 C729.4688,178.5156 729.5,178.6406 729.6406,178.7656 C729.7813,178.9063 730.0156,179.0156 730.2344,179.0156 C730.5,179.0156 730.7656,178.875 730.9375,178.6563 C731.0469,178.5 731.0781,178.3125 731.0781,177.8906 L731.0781,176.4688 C731.0781,176.0313 731.0625,175.9063 730.9688,175.75 C730.8125,175.4844 730.5313,175.3438 730.2344,175.3438 C729.9375,175.3438 729.7344,175.4375 729.5156,175.75 L729.3438,175.6719 Z " fill="#000000"/><text fill="#000000" font-family="sans-serif" font-size="12" lengthAdjust="spacing" textLength="130" x="741" y="184.1543">AddRelationController</text><line style="stroke:#A80036;stroke-width:1.5;" x1="713" x2="873" y1="196" y2="196"/><line style="stroke:#A80036;stroke-width:1.5;" x1="713" x2="873" y1="204" y2="204"/><!--MD5=[b8cfd8c4119a3b0a7a46bfc5fc780f85]
class Error--><rect codeLine="17" fill="#FEFECE" filter="url(#fhkpdz8k1v1m)" height="48" id="Error" style="stroke:#A80036;stroke-width:1.5;" width="62" x="861" y="319"/><ellipse cx="876" cy="335" fill="#EB937F" rx="11" ry="11" style="stroke:#A80036;stroke-width:1.0;"/><path d="M874.7969,335.875 L876.25,335.875 L876.25,335.9844 C876.25,336.3906 876.2813,336.5469 876.3594,336.7031 C876.5156,336.9531 876.7969,337.1094 877.0938,337.1094 C877.3438,337.1094 877.6094,336.9688 877.7656,336.75 C877.8906,336.5938 877.9219,336.4375 877.9219,335.9844 L877.9219,334.0625 C877.9219,333.9063 877.9219,333.8594 877.9063,333.7031 C877.8438,333.2344 877.5313,332.9219 877.0781,332.9219 C876.8281,332.9219 876.5625,333.0625 876.3906,333.2813 C876.2813,333.4531 876.25,333.6094 876.25,334.0625 L876.25,334.1875 L874.7969,334.1875 L874.7969,331.7813 L878.7813,331.7813 L878.7813,332.6406 C878.7813,333.0469 878.8125,333.2188 878.8906,333.375 C879.0625,333.625 879.3438,333.7813 879.625,333.7813 C879.8906,333.7813 880.1563,333.6406 880.3281,333.4219 C880.4375,333.25 880.4688,333.1094 880.4688,332.6406 L880.4688,330.0938 L872.8438,330.0938 C872.4063,330.0938 872.2813,330.1094 872.125,330.2031 C871.875,330.3594 871.7188,330.6563 871.7188,330.9375 C871.7188,331.2188 871.8594,331.4688 872.0781,331.6406 C872.2344,331.75 872.4219,331.7813 872.8438,331.7813 L873.0938,331.7813 L873.0938,338.2969 L872.8438,338.2969 C872.4375,338.2969 872.2813,338.3125 872.125,338.4219 C871.875,338.5938 871.7188,338.8594 871.7188,339.1563 C871.7188,339.4219 871.8594,339.6719 872.0781,339.8281 C872.2188,339.9531 872.4531,340 872.8438,340 L880.8438,340 L880.8438,337.4219 C880.8438,336.9844 880.8125,336.8438 880.7344,336.6875 C880.5625,336.4375 880.2813,336.2813 880,336.2813 C879.7344,336.2813 879.4688,336.3906 879.2969,336.6406 C879.1875,336.7969 879.1563,336.9375 879.1563,337.4219 L879.1563,338.2969 L874.7969,338.2969 L874.7969,335.875 Z " fill="#000000"/><text fill="#000000" font-family="sans-serif" font-size="12" lengthAdjust="spacing" textLength="30" x="890" y="339.1543">Error</text><line style="stroke:#A80036;stroke-width:1.5;" x1="862" x2="922" y1="351" y2="351"/><line style="stroke:#A80036;stroke-width:1.5;" x1="862" x2="922" y1="359" y2="359"/><!--MD5=[f58fd777f29c17413488bea9e7cfcca3]
class Member--><rect codeLine="23" fill="#FEFECE" filter="url(#fhkpdz8k1v1m)" height="48" id="Member" style="stroke:#A80036;stroke-width:1.5;" width="81" x="1539.5" y="319"/><ellipse cx="1554.5" cy="335" fill="#A9DCDF" rx="11" ry="11" style="stroke:#A80036;stroke-width:1.0;"/><path d="M1556.5781,336.8125 L1556.9688,337.7969 L1556.5781,337.7969 C1556.125,337.7969 1556.0156,337.8125 1555.8594,337.9219 C1555.6094,338.0781 1555.4531,338.3594 1555.4531,338.6563 C1555.4531,338.9219 1555.5938,339.1719 1555.8125,339.3281 C1555.9531,339.4531 1556.1563,339.5 1556.5781,339.5 L1558.9375,339.5 C1559.2969,339.5 1559.5156,339.4688 1559.6563,339.375 C1559.9063,339.2344 1560.0625,338.9375 1560.0625,338.6563 C1560.0625,338.375 1559.9219,338.125 1559.7031,337.9688 C1559.5313,337.8281 1559.375,337.7969 1558.9063,337.7969 L1555.5156,329.5938 L1551.8438,329.5938 C1551.3906,329.5938 1551.2656,329.6094 1551.1094,329.7031 C1550.8594,329.875 1550.7031,330.1563 1550.7031,330.4375 C1550.7031,330.7188 1550.8438,330.9688 1551.0625,331.1406 C1551.2344,331.25 1551.4063,331.2813 1551.8438,331.2813 L1552.9219,331.2813 L1550.2813,337.7969 C1549.8594,337.7969 1549.7031,337.8125 1549.5469,337.9219 C1549.2969,338.0781 1549.1406,338.3594 1549.1406,338.6563 C1549.1406,339.2188 1549.5156,339.5 1550.2656,339.5 L1552.5313,339.5 C1552.8906,339.5 1553.1094,339.4688 1553.2344,339.375 C1553.5,339.2344 1553.6406,338.9375 1553.6406,338.6563 C1553.6406,338.375 1553.5156,338.125 1553.2969,337.9531 C1553.125,337.8281 1552.9844,337.7969 1552.5313,337.7969 L1552.1406,337.7969 L1552.5313,336.8125 L1556.5781,336.8125 Z M1555.875,335.1094 L1553.2031,335.1094 L1554.5469,331.8438 L1555.875,335.1094 Z " fill="#000000"/><text fill="#000000" font-family="sans-serif" font-size="12" font-style="italic" lengthAdjust="spacing" textLength="49" x="1568.5" y="339.1543">Member</text><line style="stroke:#A80036;stroke-width:1.5;" x1="1540.5" x2="1619.5" y1="351" y2="351"/><line style="stroke:#A80036;stroke-width:1.5;" x1="1540.5" x2="1619.5" y1="359" y2="359"/><!--MD5=[4e2ad48a1abc117fdc6f339da0f64213]
class Package--><rect codeLine="24" fill="#FEFECE" filter="url(#fhkpdz8k1v1m)" height="48" id="Package" style="stroke:#A80036;stroke-width:1.5;" width="82" x="1539" y="427"/><ellipse cx="1554" cy="443" fill="#ADD1B2" rx="11" ry="11" style="stroke:#A80036;stroke-width:1.0;"/><path d="M1556.3438,438.6719 C1555.4063,438.2344 1554.8125,438.0938 1553.9375,438.0938 C1551.3125,438.0938 1549.3125,440.1719 1549.3125,442.8906 L1549.3125,444.0156 C1549.3125,446.5938 1551.4219,448.4844 1554.3125,448.4844 C1555.5313,448.4844 1556.6875,448.1875 1557.4375,447.6406 C1558.0156,447.2344 1558.3438,446.7813 1558.3438,446.3906 C1558.3438,445.9375 1557.9531,445.5469 1557.4844,445.5469 C1557.2656,445.5469 1557.0625,445.625 1556.875,445.8125 C1556.4219,446.2969 1556.4219,446.2969 1556.2344,446.3906 C1555.8125,446.6563 1555.125,446.7813 1554.3594,446.7813 C1552.3125,446.7813 1551.0156,445.6875 1551.0156,443.9844 L1551.0156,442.8906 C1551.0156,441.1094 1552.2656,439.7969 1554,439.7969 C1554.5781,439.7969 1555.1875,439.9531 1555.6563,440.2031 C1556.1406,440.4844 1556.3125,440.7031 1556.4063,441.1094 C1556.4688,441.5156 1556.5,441.6406 1556.6406,441.7656 C1556.7813,441.9063 1557.0156,442.0156 1557.2344,442.0156 C1557.5,442.0156 1557.7656,441.875 1557.9375,441.6563 C1558.0469,441.5 1558.0781,441.3125 1558.0781,440.8906 L1558.0781,439.4688 C1558.0781,439.0313 1558.0625,438.9063 1557.9688,438.75 C1557.8125,438.4844 1557.5313,438.3438 1557.2344,438.3438 C1556.9375,438.3438 1556.7344,438.4375 1556.5156,438.75 L1556.3438,438.6719 Z " fill="#000000"/><text fill="#000000" font-family="sans-serif" font-size="12" lengthAdjust="spacing" textLength="50" x="1568" y="447.1543">Package</text><line style="stroke:#A80036;stroke-width:1.5;" x1="1540" x2="1620" y1="459" y2="459"/><line style="stroke:#A80036;stroke-width:1.5;" x1="1540" x2="1620" y1="467" y2="467"/><!--MD5=[41e1c6cf192918703501b24b2053926c]
class Class--><rect codeLine="25" fill="#FEFECE" filter="url(#fhkpdz8k1v1m)" height="48" id="Class" style="stroke:#A80036;stroke-width:1.5;" width="64" x="1656" y="427"/><ellipse cx="1671" cy="443" fill="#ADD1B2" rx="11" ry="11" style="stroke:#A80036;stroke-width:1.0;"/><path d="M1673.3438,438.6719 C1672.4063,438.2344 1671.8125,438.0938 1670.9375,438.0938 C1668.3125,438.0938 1666.3125,440.1719 1666.3125,442.8906 L1666.3125,444.0156 C1666.3125,446.5938 1668.4219,448.4844 1671.3125,448.4844 C1672.5313,448.4844 1673.6875,448.1875 1674.4375,447.6406 C1675.0156,447.2344 1675.3438,446.7813 1675.3438,446.3906 C1675.3438,445.9375 1674.9531,445.5469 1674.4844,445.5469 C1674.2656,445.5469 1674.0625,445.625 1673.875,445.8125 C1673.4219,446.2969 1673.4219,446.2969 1673.2344,446.3906 C1672.8125,446.6563 1672.125,446.7813 1671.3594,446.7813 C1669.3125,446.7813 1668.0156,445.6875 1668.0156,443.9844 L1668.0156,442.8906 C1668.0156,441.1094 1669.2656,439.7969 1671,439.7969 C1671.5781,439.7969 1672.1875,439.9531 1672.6563,440.2031 C1673.1406,440.4844 1673.3125,440.7031 1673.4063,441.1094 C1673.4688,441.5156 1673.5,441.6406 1673.6406,441.7656 C1673.7813,441.9063 1674.0156,442.0156 1674.2344,442.0156 C1674.5,442.0156 1674.7656,441.875 1674.9375,441.6563 C1675.0469,441.5 1675.0781,441.3125 1675.0781,440.8906 L1675.0781,439.4688 C1675.0781,439.0313 1675.0625,438.9063 1674.9688,438.75 C1674.8125,438.4844 1674.5313,438.3438 1674.2344,438.3438 C1673.9375,438.3438 1673.7344,438.4375 1673.5156,438.75 L1673.3438,438.6719 Z " fill="#000000"/><text fill="#000000" font-family="sans-serif" font-size="12" lengthAdjust="spacing" textLength="32" x="1685" y="447.1543">Class</text><line style="stroke:#A80036;stroke-width:1.5;" x1="1657" x2="1719" y1="459" y2="459"/><line style="stroke:#A80036;stroke-width:1.5;" x1="1657" x2="1719" y1="467" y2="467"/><!--MD5=[af22135d5be6ed11ccd2d02fa51653b3]
class Definition--><rect codeLine="26" fill="#FEFECE" filter="url(#fhkpdz8k1v1m)" height="48" id="Definition" style="stroke:#A80036;stroke-width:1.5;" width="88" x="1416" y="427"/><ellipse cx="1431" cy="443" fill="#ADD1B2" rx="11" ry="11" style="stroke:#A80036;stroke-width:1.0;"/><path d="M1433.3438,438.6719 C1432.4063,438.2344 1431.8125,438.0938 1430.9375,438.0938 C1428.3125,438.0938 1426.3125,440.1719 1426.3125,442.8906 L1426.3125,444.0156 C1426.3125,446.5938 1428.4219,448.4844 1431.3125,448.4844 C1432.5313,448.4844 1433.6875,448.1875 1434.4375,447.6406 C1435.0156,447.2344 1435.3438,446.7813 1435.3438,446.3906 C1435.3438,445.9375 1434.9531,445.5469 1434.4844,445.5469 C1434.2656,445.5469 1434.0625,445.625 1433.875,445.8125 C1433.4219,446.2969 1433.4219,446.2969 1433.2344,446.3906 C1432.8125,446.6563 1432.125,446.7813 1431.3594,446.7813 C1429.3125,446.7813 1428.0156,445.6875 1428.0156,443.9844 L1428.0156,442.8906 C1428.0156,441.1094 1429.2656,439.7969 1431,439.7969 C1431.5781,439.7969 1432.1875,439.9531 1432.6563,440.2031 C1433.1406,440.4844 1433.3125,440.7031 1433.4063,441.1094 C1433.4688,441.5156 1433.5,441.6406 1433.6406,441.7656 C1433.7813,441.9063 1434.0156,442.0156 1434.2344,442.0156 C1434.5,442.0156 1434.7656,441.875 1434.9375,441.6563 C1435.0469,441.5 1435.0781,441.3125 1435.0781,440.8906 L1435.0781,439.4688 C1435.0781,439.0313 1435.0625,438.9063 1434.9688,438.75 C1434.8125,438.4844 1434.5313,438.3438 1434.2344,438.3438 C1433.9375,438.3438 1433.7344,438.4375 1433.5156,438.75 L1433.3438,438.6719 Z " fill="#000000"/><text fill="#000000" font-family="sans-serif" font-size="12" lengthAdjust="spacing" textLength="56" x="1445" y="447.1543">Definition</text><line style="stroke:#A80036;stroke-width:1.5;" x1="1417" x2="1503" y1="459" y2="459"/><line style="stroke:#A80036;stroke-width:1.5;" x1="1417" x2="1503" y1="467" y2="467"/><!--MD5=[787494ff879e99315e413996e631a796]
class Attribute--><rect codeLine="27" fill="#FEFECE" filter="url(#fhkpdz8k1v1m)" height="48" id="Attribute" style="stroke:#A80036;stroke-width:1.5;" width="83" x="1657.5" y="554"/><ellipse cx="1672.5" cy="570" fill="#ADD1B2" rx="11" ry="11" style="stroke:#A80036;stroke-width:1.0;"/><path d="M1674.8438,565.6719 C1673.9063,565.2344 1673.3125,565.0938 1672.4375,565.0938 C1669.8125,565.0938 1667.8125,567.1719 1667.8125,569.8906 L1667.8125,571.0156 C1667.8125,573.5938 1669.9219,575.4844 1672.8125,575.4844 C1674.0313,575.4844 1675.1875,575.1875 1675.9375,574.6406 C1676.5156,574.2344 1676.8438,573.7813 1676.8438,573.3906 C1676.8438,572.9375 1676.4531,572.5469 1675.9844,572.5469 C1675.7656,572.5469 1675.5625,572.625 1675.375,572.8125 C1674.9219,573.2969 1674.9219,573.2969 1674.7344,573.3906 C1674.3125,573.6563 1673.625,573.7813 1672.8594,573.7813 C1670.8125,573.7813 1669.5156,572.6875 1669.5156,570.9844 L1669.5156,569.8906 C1669.5156,568.1094 1670.7656,566.7969 1672.5,566.7969 C1673.0781,566.7969 1673.6875,566.9531 1674.1563,567.2031 C1674.6406,567.4844 1674.8125,567.7031 1674.9063,568.1094 C1674.9688,568.5156 1675,568.6406 1675.1406,568.7656 C1675.2813,568.9063 1675.5156,569.0156 1675.7344,569.0156 C1676,569.0156 1676.2656,568.875 1676.4375,568.6563 C1676.5469,568.5 1676.5781,568.3125 1676.5781,567.8906 L1676.5781,566.4688 C1676.5781,566.0313 1676.5625,565.9063 1676.4688,565.75 C1676.3125,565.4844 1676.0313,565.3438 1675.7344,565.3438 C1675.4375,565.3438 1675.2344,565.4375 1675.0156,565.75 L1674.8438,565.6719 Z " fill="#000000"/><text fill="#000000" font-family="sans-serif" font-size="12" lengthAdjust="spacing" textLength="51" x="1686.5" y="574.1543">Attribute</text><line style="stroke:#A80036;stroke-width:1.5;" x1="1658.5" x2="1739.5" y1="586" y2="586"/><line style="stroke:#A80036;stroke-width:1.5;" x1="1658.5" x2="1739.5" y1="594" y2="594"/><!--MD5=[ed17eb27918d6d975aac91b8ab0bf633]
class Method--><rect codeLine="28" fill="#FEFECE" filter="url(#fhkpdz8k1v1m)" height="48" id="Method" style="stroke:#A80036;stroke-width:1.5;" width="77" x="1423.5" y="554"/><ellipse cx="1438.5" cy="570" fill="#ADD1B2" rx="11" ry="11" style="stroke:#A80036;stroke-width:1.0;"/><path d="M1440.8438,565.6719 C1439.9063,565.2344 1439.3125,565.0938 1438.4375,565.0938 C1435.8125,565.0938 1433.8125,567.1719 1433.8125,569.8906 L1433.8125,571.0156 C1433.8125,573.5938 1435.9219,575.4844 1438.8125,575.4844 C1440.0313,575.4844 1441.1875,575.1875 1441.9375,574.6406 C1442.5156,574.2344 1442.8438,573.7813 1442.8438,573.3906 C1442.8438,572.9375 1442.4531,572.5469 1441.9844,572.5469 C1441.7656,572.5469 1441.5625,572.625 1441.375,572.8125 C1440.9219,573.2969 1440.9219,573.2969 1440.7344,573.3906 C1440.3125,573.6563 1439.625,573.7813 1438.8594,573.7813 C1436.8125,573.7813 1435.5156,572.6875 1435.5156,570.9844 L1435.5156,569.8906 C1435.5156,568.1094 1436.7656,566.7969 1438.5,566.7969 C1439.0781,566.7969 1439.6875,566.9531 1440.1563,567.2031 C1440.6406,567.4844 1440.8125,567.7031 1440.9063,568.1094 C1440.9688,568.5156 1441,568.6406 1441.1406,568.7656 C1441.2813,568.9063 1441.5156,569.0156 1441.7344,569.0156 C1442,569.0156 1442.2656,568.875 1442.4375,568.6563 C1442.5469,568.5 1442.5781,568.3125 1442.5781,567.8906 L1442.5781,566.4688 C1442.5781,566.0313 1442.5625,565.9063 1442.4688,565.75 C1442.3125,565.4844 1442.0313,565.3438 1441.7344,565.3438 C1441.4375,565.3438 1441.2344,565.4375 1441.0156,565.75 L1440.8438,565.6719 Z " fill="#000000"/><text fill="#000000" font-family="sans-serif" font-size="12" lengthAdjust="spacing" textLength="45" x="1452.5" y="574.1543">Method</text><line style="stroke:#A80036;stroke-width:1.5;" x1="1424.5" x2="1499.5" y1="586" y2="586"/><line style="stroke:#A80036;stroke-width:1.5;" x1="1424.5" x2="1499.5" y1="594" y2="594"/><!--MD5=[a79137c130dde824eea5efec03801a72]
class Modifier--><rect codeLine="29" fill="#FEFECE" filter="url(#fhkpdz8k1v1m)" height="86.4141" id="Modifier" style="stroke:#A80036;stroke-width:1.5;" width="87" x="1535.5" y="535"/><ellipse cx="1553.2" cy="551" fill="#EB937F" rx="11" ry="11" style="stroke:#A80036;stroke-width:1.0;"/><path d="M1551.9969,551.875 L1553.45,551.875 L1553.45,551.9844 C1553.45,552.3906 1553.4813,552.5469 1553.5594,552.7031 C1553.7156,552.9531 1553.9969,553.1094 1554.2938,553.1094 C1554.5438,553.1094 1554.8094,552.9688 1554.9656,552.75 C1555.0906,552.5938 1555.1219,552.4375 1555.1219,551.9844 L1555.1219,550.0625 C1555.1219,549.9063 1555.1219,549.8594 1555.1063,549.7031 C1555.0438,549.2344 1554.7313,548.9219 1554.2781,548.9219 C1554.0281,548.9219 1553.7625,549.0625 1553.5906,549.2813 C1553.4813,549.4531 1553.45,549.6094 1553.45,550.0625 L1553.45,550.1875 L1551.9969,550.1875 L1551.9969,547.7813 L1555.9813,547.7813 L1555.9813,548.6406 C1555.9813,549.0469 1556.0125,549.2188 1556.0906,549.375 C1556.2625,549.625 1556.5438,549.7813 1556.825,549.7813 C1557.0906,549.7813 1557.3563,549.6406 1557.5281,549.4219 C1557.6375,549.25 1557.6688,549.1094 1557.6688,548.6406 L1557.6688,546.0938 L1550.0438,546.0938 C1549.6063,546.0938 1549.4813,546.1094 1549.325,546.2031 C1549.075,546.3594 1548.9188,546.6563 1548.9188,546.9375 C1548.9188,547.2188 1549.0594,547.4688 1549.2781,547.6406 C1549.4344,547.75 1549.6219,547.7813 1550.0438,547.7813 L1550.2938,547.7813 L1550.2938,554.2969 L1550.0438,554.2969 C1549.6375,554.2969 1549.4813,554.3125 1549.325,554.4219 C1549.075,554.5938 1548.9188,554.8594 1548.9188,555.1563 C1548.9188,555.4219 1549.0594,555.6719 1549.2781,555.8281 C1549.4188,555.9531 1549.6531,556 1550.0438,556 L1558.0438,556 L1558.0438,553.4219 C1558.0438,552.9844 1558.0125,552.8438 1557.9344,552.6875 C1557.7625,552.4375 1557.4813,552.2813 1557.2,552.2813 C1556.9344,552.2813 1556.6688,552.3906 1556.4969,552.6406 C1556.3875,552.7969 1556.3563,552.9375 1556.3563,553.4219 L1556.3563,554.2969 L1551.9969,554.2969 L1551.9969,551.875 Z " fill="#000000"/><text fill="#000000" font-family="sans-serif" font-size="12" lengthAdjust="spacing" textLength="49" x="1567.8" y="555.1543">Modifier</text><line style="stroke:#A80036;stroke-width:1.5;" x1="1536.5" x2="1621.5" y1="567" y2="567"/><ellipse cx="1546.5" cy="578" rx="3" ry="3" style="stroke:#038048;stroke-width:1.0;fill:none;"/><text fill="#000000" font-family="sans-serif" font-size="11" lengthAdjust="spacing" textLength="61" x="1555.5" y="581.2104">ABSTRACT</text><ellipse cx="1546.5" cy="590.8047" rx="3" ry="3" style="stroke:#038048;stroke-width:1.0;fill:none;"/><text fill="#000000" font-family="sans-serif" font-size="11" lengthAdjust="spacing" textLength="31" x="1555.5" y="594.0151">FINAL</text><ellipse cx="1546.5" cy="603.6094" rx="3" ry="3" style="stroke:#038048;stroke-width:1.0;fill:none;"/><text fill="#000000" font-family="sans-serif" font-size="11" lengthAdjust="spacing" textLength="41" x="1555.5" y="606.8198">STATIC</text><line style="stroke:#A80036;stroke-width:1.5;" x1="1536.5" x2="1621.5" y1="613.4141" y2="613.4141"/><!--MD5=[534474e9f05b14d7c70186ae077f30e0]
class Relation--><rect codeLine="34" fill="#FEFECE" filter="url(#fhkpdz8k1v1m)" height="48" id="Relation" style="stroke:#A80036;stroke-width:1.5;" width="80" x="1297" y="427"/><ellipse cx="1312" cy="443" fill="#A9DCDF" rx="11" ry="11" style="stroke:#A80036;stroke-width:1.0;"/><path d="M1314.0781,444.8125 L1314.4688,445.7969 L1314.0781,445.7969 C1313.625,445.7969 1313.5156,445.8125 1313.3594,445.9219 C1313.1094,446.0781 1312.9531,446.3594 1312.9531,446.6563 C1312.9531,446.9219 1313.0938,447.1719 1313.3125,447.3281 C1313.4531,447.4531 1313.6563,447.5 1314.0781,447.5 L1316.4375,447.5 C1316.7969,447.5 1317.0156,447.4688 1317.1563,447.375 C1317.4063,447.2344 1317.5625,446.9375 1317.5625,446.6563 C1317.5625,446.375 1317.4219,446.125 1317.2031,445.9688 C1317.0313,445.8281 1316.875,445.7969 1316.4063,445.7969 L1313.0156,437.5938 L1309.3438,437.5938 C1308.8906,437.5938 1308.7656,437.6094 1308.6094,437.7031 C1308.3594,437.875 1308.2031,438.1563 1308.2031,438.4375 C1308.2031,438.7188 1308.3438,438.9688 1308.5625,439.1406 C1308.7344,439.25 1308.9063,439.2813 1309.3438,439.2813 L1310.4219,439.2813 L1307.7813,445.7969 C1307.3594,445.7969 1307.2031,445.8125 1307.0469,445.9219 C1306.7969,446.0781 1306.6406,446.3594 1306.6406,446.6563 C1306.6406,447.2188 1307.0156,447.5 1307.7656,447.5 L1310.0313,447.5 C1310.3906,447.5 1310.6094,447.4688 1310.7344,447.375 C1311,447.2344 1311.1406,446.9375 1311.1406,446.6563 C1311.1406,446.375 1311.0156,446.125 1310.7969,445.9531 C1310.625,445.8281 1310.4844,445.7969 1310.0313,445.7969 L1309.6406,445.7969 L1310.0313,444.8125 L1314.0781,444.8125 Z M1313.375,443.1094 L1310.7031,443.1094 L1312.0469,439.8438 L1313.375,443.1094 Z " fill="#000000"/><text fill="#000000" font-family="sans-serif" font-size="12" font-style="italic" lengthAdjust="spacing" textLength="48" x="1326" y="447.1543">Relation</text><line style="stroke:#A80036;stroke-width:1.5;" x1="1298" x2="1376" y1="459" y2="459"/><line style="stroke:#A80036;stroke-width:1.5;" x1="1298" x2="1376" y1="467" y2="467"/><!--MD5=[251454e98c15f29849fb35b1904d0020]
class Composition--><rect codeLine="35" fill="#FEFECE" filter="url(#fhkpdz8k1v1m)" height="48" id="Composition" style="stroke:#A80036;stroke-width:1.5;" width="107" x="1281.5" y="554"/><ellipse cx="1296.5" cy="570" fill="#ADD1B2" rx="11" ry="11" style="stroke:#A80036;stroke-width:1.0;"/><path d="M1298.8438,565.6719 C1297.9063,565.2344 1297.3125,565.0938 1296.4375,565.0938 C1293.8125,565.0938 1291.8125,567.1719 1291.8125,569.8906 L1291.8125,571.0156 C1291.8125,573.5938 1293.9219,575.4844 1296.8125,575.4844 C1298.0313,575.4844 1299.1875,575.1875 1299.9375,574.6406 C1300.5156,574.2344 1300.8438,573.7813 1300.8438,573.3906 C1300.8438,572.9375 1300.4531,572.5469 1299.9844,572.5469 C1299.7656,572.5469 1299.5625,572.625 1299.375,572.8125 C1298.9219,573.2969 1298.9219,573.2969 1298.7344,573.3906 C1298.3125,573.6563 1297.625,573.7813 1296.8594,573.7813 C1294.8125,573.7813 1293.5156,572.6875 1293.5156,570.9844 L1293.5156,569.8906 C1293.5156,568.1094 1294.7656,566.7969 1296.5,566.7969 C1297.0781,566.7969 1297.6875,566.9531 1298.1563,567.2031 C1298.6406,567.4844 1298.8125,567.7031 1298.9063,568.1094 C1298.9688,568.5156 1299,568.6406 1299.1406,568.7656 C1299.2813,568.9063 1299.5156,569.0156 1299.7344,569.0156 C1300,569.0156 1300.2656,568.875 1300.4375,568.6563 C1300.5469,568.5 1300.5781,568.3125 1300.5781,567.8906 L1300.5781,566.4688 C1300.5781,566.0313 1300.5625,565.9063 1300.4688,565.75 C1300.3125,565.4844 1300.0313,565.3438 1299.7344,565.3438 C1299.4375,565.3438 1299.2344,565.4375 1299.0156,565.75 L1298.8438,565.6719 Z " fill="#000000"/><text fill="#000000" font-family="sans-serif" font-size="12" lengthAdjust="spacing" textLength="75" x="1310.5" y="574.1543">Composition</text><line style="stroke:#A80036;stroke-width:1.5;" x1="1282.5" x2="1387.5" y1="586" y2="586"/><line style="stroke:#A80036;stroke-width:1.5;" x1="1282.5" x2="1387.5" y1="594" y2="594"/><!--MD5=[9d06c415c4dccde5b8d2bcaff05509ba]
class Use--><rect codeLine="36" fill="#FEFECE" filter="url(#fhkpdz8k1v1m)" height="48" id="Use" style="stroke:#A80036;stroke-width:1.5;" width="56" x="1190" y="554"/><ellipse cx="1205" cy="570" fill="#ADD1B2" rx="11" ry="11" style="stroke:#A80036;stroke-width:1.0;"/><path d="M1207.3438,565.6719 C1206.4063,565.2344 1205.8125,565.0938 1204.9375,565.0938 C1202.3125,565.0938 1200.3125,567.1719 1200.3125,569.8906 L1200.3125,571.0156 C1200.3125,573.5938 1202.4219,575.4844 1205.3125,575.4844 C1206.5313,575.4844 1207.6875,575.1875 1208.4375,574.6406 C1209.0156,574.2344 1209.3438,573.7813 1209.3438,573.3906 C1209.3438,572.9375 1208.9531,572.5469 1208.4844,572.5469 C1208.2656,572.5469 1208.0625,572.625 1207.875,572.8125 C1207.4219,573.2969 1207.4219,573.2969 1207.2344,573.3906 C1206.8125,573.6563 1206.125,573.7813 1205.3594,573.7813 C1203.3125,573.7813 1202.0156,572.6875 1202.0156,570.9844 L1202.0156,569.8906 C1202.0156,568.1094 1203.2656,566.7969 1205,566.7969 C1205.5781,566.7969 1206.1875,566.9531 1206.6563,567.2031 C1207.1406,567.4844 1207.3125,567.7031 1207.4063,568.1094 C1207.4688,568.5156 1207.5,568.6406 1207.6406,568.7656 C1207.7813,568.9063 1208.0156,569.0156 1208.2344,569.0156 C1208.5,569.0156 1208.7656,568.875 1208.9375,568.6563 C1209.0469,568.5 1209.0781,568.3125 1209.0781,567.8906 L1209.0781,566.4688 C1209.0781,566.0313 1209.0625,565.9063 1208.9688,565.75 C1208.8125,565.4844 1208.5313,565.3438 1208.2344,565.3438 C1207.9375,565.3438 1207.7344,565.4375 1207.5156,565.75 L1207.3438,565.6719 Z " fill="#000000"/><text fill="#000000" font-family="sans-serif" font-size="12" lengthAdjust="spacing" textLength="24" x="1219" y="574.1543">Use</text><line style="stroke:#A80036;stroke-width:1.5;" x1="1191" x2="1245" y1="586" y2="586"/><line style="stroke:#A80036;stroke-width:1.5;" x1="1191" x2="1245" y1="594" y2="594"/><!--MD5=[c2274747823191c895c00ee5af1c2623]
link UserView to PackageView--><path codeLine="9" d="M386.0034,97.865 C386.0034,97.865 468.197,95.723 487,105 C508.313,115.515 526.182,135.24 538.906,152.709 " fill="none" id="UserView-PackageView" style="stroke:#A80036;stroke-width:1.0;"/><polygon fill="#A80036" points="546.509,163.743,544.696,154.0625,543.6719,159.6258,538.1085,158.6018,546.509,163.743" style="stroke:#A80036;stroke-width:1.0;"/><line style="stroke:#A80036;stroke-width:1.0;" x1="543.6719" x2="539.133" y1="159.6258" y2="153.038"/><polygon fill="#A80036" points="374.164,95.908,379.4314,100.8329,386.0034,97.865,380.736,92.94,374.164,95.908" style="stroke:#A80036;stroke-width:1.0;"/><!--MD5=[531a39a9de6e9b72a08b7ea0389be8ce]
link UserView to CommandView--><path codeLine="10" d="M352.3158,106.934 C352.3158,106.934 374.815,138.713 384.935,153.008 " fill="none" id="UserView-CommandView" style="stroke:#A80036;stroke-width:1.0;"/><polygon fill="#A80036" points="392.64,163.891,390.705,154.2341,389.7512,159.81,384.1753,158.8562,392.64,163.891" style="stroke:#A80036;stroke-width:1.0;"/><line style="stroke:#A80036;stroke-width:1.0;" x1="389.7512" x2="385.128" y1="159.81" y2="153.281"/><polygon fill="#A80036" points="345.382,97.14,345.5842,104.3483,352.3158,106.934,352.1136,99.7258,345.382,97.14" style="stroke:#A80036;stroke-width:1.0;"/><!--MD5=[9abe33bfdfc895969f5152a21cdd1627]
link UserView to DiagramView--><path codeLine="11" d="M271.9542,76.1482 C271.9542,76.1482 199.877,87.428 169,105 C148.617,116.6 130.963,135.993 118.124,153.008 " fill="none" id="UserView-DiagramView" style="stroke:#A80036;stroke-width:1.0;"/><polygon fill="#A80036" points="110.402,163.74,118.9056,158.7712,113.3225,159.6816,112.4121,154.0984,110.402,163.74" style="stroke:#A80036;stroke-width:1.0;"/><line style="stroke:#A80036;stroke-width:1.0;" x1="113.3225" x2="117.995" y1="159.6816" y2="153.1875"/><polygon fill="#A80036" points="283.905,75.063,277.5678,71.622,271.9542,76.1482,278.2913,79.5892,283.905,75.063" style="stroke:#A80036;stroke-width:1.0;"/><!--MD5=[261976f9a1a3d2e6d76ea780256dc20c]
link UserView to RepositoryView--><path codeLine="12" d="M305.9473,106.9749 C305.9473,106.9749 283.758,138.713 273.764,153.008 " fill="none" id="UserView-RepositoryView" style="stroke:#A80036;stroke-width:1.0;"/><polygon fill="#A80036" points="266.156,163.891,274.5907,158.8062,269.0206,159.793,268.0339,154.2228,266.156,163.891" style="stroke:#A80036;stroke-width:1.0;"/><line style="stroke:#A80036;stroke-width:1.0;" x1="269.0206" x2="273.6045" y1="159.793" y2="153.237"/><polygon fill="#A80036" points="312.823,97.14,306.1069,99.7655,305.9473,106.9749,312.6634,104.3493,312.823,97.14" style="stroke:#A80036;stroke-width:1.0;"/><!--MD5=[f47290a6757b8f085894cdaa33540e6d]
reverse link Member to Class--><path codeLine="39" d="M1617.98,381.28 C1633.38,396.391 1650.68,413.375 1664.24,426.678 " fill="none" id="Member-backto-Class" style="stroke:#A80036;stroke-width:1.0;"/><polygon fill="none" points="1612.8,386.006,1603.43,367,1622.61,376.014,1612.8,386.006" style="stroke:#A80036;stroke-width:1.0;"/><!--MD5=[22e421874de4e53630ce7003e19627e8]
reverse link Member to Package--><path codeLine="40" d="M1567.45,387.024 C1566.9,400.579 1567.49,415.038 1569.23,426.678 " fill="none" id="Member-backto-Package" style="stroke:#A80036;stroke-width:1.0;"/><polygon fill="none" points="1560.49,386.284,1569.27,367,1574.43,387.552,1560.49,386.284" style="stroke:#A80036;stroke-width:1.0;"/><!--MD5=[87b8b8c56d4ac355f36a7f23a7a27ce0]
link Member to Package--><path codeLine="41" d="M1592.89,380.338 C1593.71,391.126 1592.7685,414.7551 1592.7685,414.7551 " fill="none" id="Member-Package" style="stroke:#A80036;stroke-width:1.0;"/><polygon fill="#A80036" points="1591.41,426.678,1596.0635,421.1694,1592.7685,414.7551,1588.1149,420.2637,1591.41,426.678" style="stroke:#A80036;stroke-width:1.0;"/><polygon fill="#A80036" points="1591.36,367,1588.4138,376.3979,1591.9309,371.9673,1596.3615,375.4844,1591.36,367" style="stroke:#A80036;stroke-width:1.0;"/><line style="stroke:#A80036;stroke-width:1.0;" x1="1591.9309" x2="1592.84" y1="371.9673" y2="379.9155"/><text fill="#000000" font-family="sans-serif" font-size="13" lengthAdjust="spacing" textLength="24" x="1567.196" y="387.1558">0..n</text><!--MD5=[7507684d658538f0b7f5c7200993d625]
link Class to Attribute--><path codeLine="42" d="M1691.0904,487.1729 C1691.0904,487.1729 1694.37,524.354 1695.82,540.871 " fill="none" id="Class-Attribute" style="stroke:#A80036;stroke-width:1.0;"/><polygon fill="#A80036" points="1696.97,553.906,1700.1649,544.5898,1696.5313,548.9253,1692.1958,545.2917,1696.97,553.906" style="stroke:#A80036;stroke-width:1.0;"/><line style="stroke:#A80036;stroke-width:1.0;" x1="1696.5313" x2="1695.83" y1="548.9253" y2="540.956"/><polygon fill="#A80036" points="1690.04,475.219,1686.5806,481.5461,1691.0904,487.1729,1694.5499,480.8458,1690.04,475.219" style="stroke:#A80036;stroke-width:1.0;"/><text fill="#000000" font-family="sans-serif" font-size="13" lengthAdjust="spacing" textLength="24" x="1669.3748" y="542.8939">0..n</text><!--MD5=[a8e4b54cf7ab76a62f88d8b4dd9c7c1d]
link Class to Method--><path codeLine="43" d="M1644.8306,472.5514 C1644.8306,472.5514 1529.61,527.902 1518,535 C1512.52,538.35 1506.92,542.107 1501.48,545.96 " fill="none" id="Class-Method" style="stroke:#A80036;stroke-width:1.0;"/><polygon fill="#A80036" points="1490.62,553.903,1500.2441,551.8111,1494.6535,550.9482,1495.5164,545.3575,1490.62,553.903" style="stroke:#A80036;stroke-width:1.0;"/><line style="stroke:#A80036;stroke-width:1.0;" x1="1494.6535" x2="1501.11" y1="550.9482" y2="546.226"/><polygon fill="#A80036" points="1655.66,467.382,1648.5221,466.3569,1644.8306,472.5514,1651.9684,473.5765,1655.66,467.382" style="stroke:#A80036;stroke-width:1.0;"/><text fill="#000000" font-family="sans-serif" font-size="13" lengthAdjust="spacing" textLength="24" x="1470.8789" y="542.8902">0..n</text><!--MD5=[3984abe552088c41f0061493ffb1022e]
reverse link Definition to Method--><path codeLine="44" d="M1460.69,495.406 C1461.01,515.075 1461.37,537.536 1461.63,553.906 " fill="none" id="Definition-backto-Method" style="stroke:#A80036;stroke-width:1.0;"/><polygon fill="none" points="1453.69,495.328,1460.37,475.219,1467.69,495.104,1453.69,495.328" style="stroke:#A80036;stroke-width:1.0;"/><!--MD5=[bbd7cde5e0bf48ae3f8245ce7262a635]
reverse link Definition to Attribute--><path codeLine="45" d="M1522.62,477.447 C1557.9,492.626 1602.32,513.157 1640,535 C1649.68,540.612 1659.76,547.398 1668.79,553.864 " fill="none" id="Definition-backto-Attribute" style="stroke:#A80036;stroke-width:1.0;"/><polygon fill="none" points="1519.75,483.833,1504.06,469.591,1525.2,470.94,1519.75,483.833" style="stroke:#A80036;stroke-width:1.0;"/><!--MD5=[cd34d0d34e66afad119ba52289ec1240]
link Class to Modifier--><path codeLine="46" d="M1659.864,484.264 C1659.864,484.264 1636.16,511.448 1624.47,524.854 " fill="none" id="Class-Modifier" style="stroke:#A80036;stroke-width:1.0;"/><polygon fill="#A80036" points="1615.68,534.936,1624.6095,530.7809,1618.9658,531.1673,1618.5795,525.5236,1615.68,534.936" style="stroke:#A80036;stroke-width:1.0;"/><line style="stroke:#A80036;stroke-width:1.0;" x1="1618.9658" x2="1624.22" y1="531.1673" y2="525.1375"/><polygon fill="#A80036" points="1667.75,475.219,1660.792,477.1128,1659.864,484.264,1666.822,482.3701,1667.75,475.219" style="stroke:#A80036;stroke-width:1.0;"/><text fill="#000000" font-family="sans-serif" font-size="13" lengthAdjust="spacing" textLength="24" x="1595.6134" y="523.9218">1..2</text><!--MD5=[cf0aff3de8a3a7a6fab9c29f3c83f9d2]
link Definition to Modifier--><path codeLine="47" d="M1490.3743,483.9101 C1490.3743,483.9101 1516.64,511.496 1529.64,525.153 " fill="none" id="Definition-Modifier" style="stroke:#A80036;stroke-width:1.0;"/><polygon fill="#A80036" points="1538.95,534.936,1535.6405,525.6598,1535.5021,531.315,1529.8469,531.1765,1538.95,534.936" style="stroke:#A80036;stroke-width:1.0;"/><line style="stroke:#A80036;stroke-width:1.0;" x1="1535.5021" x2="1529.995" y1="531.315" y2="525.5205"/><polygon fill="#A80036" points="1482.1,475.219,1483.3401,482.3227,1490.3743,483.9101,1489.1342,476.8064,1482.1,475.219" style="stroke:#A80036;stroke-width:1.0;"/><text fill="#000000" font-family="sans-serif" font-size="13" lengthAdjust="spacing" textLength="24" x="1506.6545" y="523.9218">1..3</text><!--MD5=[c431c88d3b3da536555b00649ca60643]
link Member to Relation--><path codeLine="48" d="M1547.7249,376.9222 C1547.7249,376.9222 1529.45,400.018 1518,407 C1469.16,436.792 1444.22,415.175 1389.88,425.215 " fill="none" id="Member-Relation" style="stroke:#A80036;stroke-width:1.0;"/><polygon fill="#A80036" points="1377.03,428.073,1386.6847,430.0192,1381.9102,426.9852,1384.9442,422.2108,1377.03,428.073" style="stroke:#A80036;stroke-width:1.0;"/><line style="stroke:#A80036;stroke-width:1.0;" x1="1381.9102" x2="1389.72" y1="426.9852" y2="425.2515"/><polygon fill="#A80036" points="1554.77,367.208,1548.0094,369.7167,1547.7249,376.9222,1554.4855,374.4135,1554.77,367.208" style="stroke:#A80036;stroke-width:1.0;"/><text fill="#000000" font-family="sans-serif" font-size="13" lengthAdjust="spacing" textLength="24" x="1384.9971" y="420.4909">0..n</text><!--MD5=[61935a37ca7ccb370c938de24478c4ff]
link Relation to Member--><path codeLine="49" d="M1377.03,439.716 C1389.81,435.227 1403.4,430.255 1416,427 C1475.58,411.611 1500.47,439.045 1553,407 C1566.47,398.781 1577.05,384.849 1582.82,372.173 " fill="none" id="Relation-to-Member" style="stroke:#A80036;stroke-width:1.0;"/><polygon fill="#A80036" points="1584.86,367.208,1577.7419,374.0148,1582.9613,371.8335,1585.1427,377.0528,1584.86,367.208" style="stroke:#A80036;stroke-width:1.0;"/><!--MD5=[aac130c8b5f905729b18e85e231f7b50]
reverse link Relation to Composition--><path codeLine="50" d="M1336.31,495.406 C1335.99,515.075 1335.63,537.536 1335.37,553.906 " fill="none" id="Relation-backto-Composition" style="stroke:#A80036;stroke-width:1.0;"/><polygon fill="none" points="1329.31,495.104,1336.63,475.219,1343.31,495.328,1329.31,495.104" style="stroke:#A80036;stroke-width:1.0;"/><!--MD5=[f560e3701e68eb886d2a798919f208f3]
reverse link Relation to Use--><path codeLine="51" d="M1301,489.811 C1281.12,510.695 1257.07,535.96 1239.99,553.906 " fill="none" id="Relation-backto-Use" style="stroke:#A80036;stroke-width:1.0;"/><polygon fill="none" points="1296.04,484.878,1314.9,475.219,1306.18,494.531,1296.04,484.878" style="stroke:#A80036;stroke-width:1.0;"/><!--MD5=[f3845aed0433f0a66e6402b3ab593413]
link AddMemberController to Error--><path codeLine="52" d="M976.812,212.237 C958.971,239.534 929.391,284.792 910.301,313.999 " fill="none" id="AddMemberController-to-Error" style="stroke:#A80036;stroke-width:1.0;stroke-dasharray:7.0,7.0;"/><polygon fill="#A80036" points="907.331,318.544,915.6031,313.1987,910.0665,314.3586,908.9066,308.822,907.331,318.544" style="stroke:#A80036;stroke-width:1.0;"/><!--MD5=[e3768ac89fb1e2cffc82811663694fc1]
link AddRelationController to Error--><path codeLine="53" d="M808.036,212.237 C825.699,239.534 854.983,284.792 873.882,313.999 " fill="none" id="AddRelationController-to-Error" style="stroke:#A80036;stroke-width:1.0;stroke-dasharray:7.0,7.0;"/><polygon fill="#A80036" points="876.823,318.544,875.2898,308.8152,874.1058,314.3468,868.5742,313.1627,876.823,318.544" style="stroke:#A80036;stroke-width:1.0;"/><!--MD5=[fd4dadafb7dfafd89665a9151015bafc]
link views to controllers--><path d="M648.5266,73.9878 C649.5298,73.9876 650.616,73.9878 651.7824,73.9885 C654.1151,73.9898 656.7684,73.9931 659.7187,73.9994 C671.5198,74.0247 688.0735,74.098 707.8779,74.2878 C747.4866,74.6673 800.0977,75.5121 853.6957,77.368 C960.8917,81.0798 1072.035,88.8355 1091,105 C1094.4475,107.9386 1097.3386,111.368 1099.7575,115.1261 C1100.967,117.0052 1102.0584,118.9664 1103.0422,120.9896 " fill="none" id="views-to-controllers" style="stroke:#A80036;stroke-width:1.0;stroke-dasharray:7.0,7.0;"/><polygon fill="#A80036" points="1103.0422,120.9896,1102.7035,111.1466,1100.8556,116.4931,1095.5091,114.6452,1103.0422,120.9896" style="stroke:#A80036;stroke-width:1.0;"/><!--MD5=[6bfde5656e7ece32836aeea1e9e8a819]
link controllers to models--><path d="M1118.0643,211.0326 C1118.1414,211.2432 1118.2189,211.455 1118.2968,211.6679 C1118.6085,212.5195 1118.9269,213.3892 1119.2514,214.2758 C1124.4441,228.4621 1131.2281,246.9963 1138.0113,265.5283 C1144.7944,284.0603 1151.5766,302.5901 1156.7655,316.7676 C1157.0898,317.6537 1157.4079,318.5227 1157.7193,319.3738 C1157.7972,319.5865 1157.8747,319.7982 1157.9517,320.0086 " fill="none" id="controllers-to-models" style="stroke:#A80036;stroke-width:1.0;stroke-dasharray:7.0,7.0;"/><polygon fill="#A80036" points="1157.9517,320.0086,1158.6147,310.1821,1156.2332,315.3132,1151.1021,312.9317,1157.9517,320.0086" style="stroke:#A80036;stroke-width:1.0;"/><!--MD5=[44989e6b0f16439874dd48ef0eb75cf2]
@startuml
package views {
    class UserView
    class CommandView
    class PackageView
    class DiagramView
    class RepositoryView
}

UserView *-down-> PackageView
UserView *-down-> CommandView
UserView *-down-> DiagramView
UserView *-down-> RepositoryView

package controllers {
    class AddMemberController
    class AddRelationController
    enum Error
}



package models {
    abstract Member
    class Package
    class Class
    class Definition
    class Attribute
    class Method
    enum Modifier{
        +ABSTRACT
        +FINAL
        +STATIC
    }
    abstract Relation
    class Composition
    class Use
}

Member <|-down- Class
Member <|-down- Package
Package *-up-> "0..n" Member
Class *-down-> "0..n" Attribute
Class *-down-> "0..n" Method
Definition <|-down- Method
Definition <|-down- Attribute
Class *-down-> "1..2" Modifier
Definition *-down-> "1..3" Modifier
Member *-down-> "0..n" Relation
Relation -down-> Member
Relation <|-down- Composition
Relation <|-down- Use
AddMemberController .down.> Error
AddRelationController .down.> Error

views .down.> controllers
controllers .down.> models
@enduml

PlantUML version 1.2021.6beta6(Unknown compile time)
(GPL source distribution)
Java Runtime: Java(TM) SE Runtime Environment
JVM: Java HotSpot(TM) 64-Bit Server VM
Default Encoding: UTF-8
Language: en
Country: US
--></g></svg>