<?xml version="1.0" encoding="UTF-8" standalone="no"?><svg xmlns="http://www.w3.org/2000/svg" xmlns:xlink="http://www.w3.org/1999/xlink" contentScriptType="application/ecmascript" contentStyleType="text/css" height="405px" preserveAspectRatio="none" style="width:896px;height:405px;background:#FFFFFF;" version="1.1" viewBox="0 0 896 405" width="896px" zoomAndPan="magnify"><defs><filter height="300%" id="fac7utd83byqm" width="300%" x="-1" y="-1"><feGaussianBlur result="blurOut" stdDeviation="2.0"/><feColorMatrix in="blurOut" result="blurOut2" type="matrix" values="0 0 0 0 0 0 0 0 0 0 0 0 0 0 0 0 0 0 .4 0"/><feOffset dx="4.0" dy="4.0" in="blurOut2" result="blurOut3"/><feBlend in="SourceGraphic" in2="blurOut3" mode="normal"/></filter></defs><g><g id="INITIAL"><rect fill="#FEFECE" filter="url(#fac7utd83byqm)" height="50" rx="12.5" ry="12.5" style="stroke:#A80036;stroke-width:1.5;" width="69" x="117.2532" y="87"/><line style="stroke:#A80036;stroke-width:1.5;" x1="117.2532" x2="186.2532" y1="113.2969" y2="113.2969"/><text fill="#000000" font-family="sans-serif" font-size="14" lengthAdjust="spacing" textLength="49" x="127.2532" y="104.9951">INITIAL</text></g><g id="LOGGED"><rect fill="#FEFECE" filter="url(#fac7utd83byqm)" height="50" rx="12.5" ry="12.5" style="stroke:#A80036;stroke-width:1.5;" width="81" x="25.2528" y="214"/><line style="stroke:#A80036;stroke-width:1.5;" x1="25.2528" x2="106.2528" y1="240.2969" y2="240.2969"/><text fill="#000000" font-family="sans-serif" font-size="14" lengthAdjust="spacing" textLength="61" x="35.2528" y="231.9951">LOGGED</text></g><g id="ON_MEMBER"><rect fill="#FEFECE" filter="url(#fac7utd83byqm)" height="50" rx="12.5" ry="12.5" style="stroke:#A80036;stroke-width:1.5;" width="110" x="134.7532" y="341"/><line style="stroke:#A80036;stroke-width:1.5;" x1="134.7532" x2="244.7532" y1="367.2969" y2="367.2969"/><text fill="#000000" font-family="sans-serif" font-size="14" lengthAdjust="spacing" textLength="90" x="144.7532" y="358.9951">ON_MEMBER</text></g><ellipse cx="151.7532" cy="16" fill="#000000" filter="url(#fac7utd83byqm)" rx="10" ry="10" style="stroke:none;stroke-width:1.0;"/><!--MD5=[06c3f2024f4ea60966e79307ee69ec5f]
link *start to INITIAL--><path d="M151.7532,26.013 C151.7532,38.698 151.7532,62.409 151.7532,81.57 " fill="none" id="*start-to-INITIAL" style="stroke:#A80036;stroke-width:1.0;"/><polygon fill="#A80036" points="151.7532,86.84,155.7532,77.84,151.7532,81.84,147.7532,77.84,151.7532,86.84" style="stroke:#A80036;stroke-width:1.0;"/><!--MD5=[db78a651e3054cd913662bb029a6d87e]
link INITIAL to LOGGED--><path d="M117.1332,116.082 C84.819,121.005 38.2978,133.791 15.7527,167 C6,181.366 15.1426,197.176 28.1529,210.223 " fill="none" id="INITIAL-to-LOGGED" style="stroke:#A80036;stroke-width:1.0;"/><polygon fill="#A80036" points="31.9126,213.827,28.1823,204.7119,28.3026,210.3675,22.6471,210.4878,31.9126,213.827" style="stroke:#A80036;stroke-width:1.0;"/><text fill="#000000" font-family="sans-serif" font-size="13" lengthAdjust="spacing" textLength="53" x="16.7527" y="180.0669">Register</text><!--MD5=[db78a651e3054cd913662bb029a6d87e]
link INITIAL to LOGGED--><path d="M132.7352,137.14 C125.6582,146.356 117.6702,157.043 110.7528,167 C101.2525,180.676 91.2814,196.265 83.1464,209.346 " fill="none" id="INITIAL-to-LOGGED-1" style="stroke:#A80036;stroke-width:1.0;"/><polygon fill="#A80036" points="80.4614,213.679,88.6026,208.1364,83.0954,209.4291,81.8028,203.9219,80.4614,213.679" style="stroke:#A80036;stroke-width:1.0;"/><text fill="#000000" font-family="sans-serif" font-size="13" lengthAdjust="spacing" textLength="34" x="111.7528" y="180.0669">Login</text><!--MD5=[a4c44dbccb53427ef47fa332d72cda79]
link LOGGED to INITIAL--><path d="M106.6701,222.42 C123.4272,213.79 141.1182,201.247 150.7532,184 C157.7062,171.554 158.5812,155.863 157.4502,142.399 " fill="none" id="LOGGED-to-INITIAL" style="stroke:#A80036;stroke-width:1.0;"/><polygon fill="#A80036" points="156.9032,137.168,153.8609,146.5352,157.4232,142.1409,161.8175,145.7032,156.9032,137.168" style="stroke:#A80036;stroke-width:1.0;"/><text fill="#000000" font-family="sans-serif" font-size="13" lengthAdjust="spacing" textLength="44" x="157.7532" y="180.0669">Logout</text><!--MD5=[c451783d2602026d914a204a04c2662d]
link LOGGED to LOGGED--><path d="M106.5288,233.29 C125.1052,232.707 141.2532,234.61 141.2532,239 C141.2532,242.978 127.9912,244.914 111.6782,244.808 " fill="none" id="LOGGED-to-LOGGED" style="stroke:#A80036;stroke-width:1.0;"/><polygon fill="#A80036" points="106.5288,244.71,115.4506,248.8816,111.5279,244.8057,115.6037,240.883,106.5288,244.71" style="stroke:#A80036;stroke-width:1.0;"/><text fill="#000000" font-family="sans-serif" font-size="13" lengthAdjust="spacing" textLength="90" x="147.2532" y="243.5669">Delete Project</text><!--MD5=[c451783d2602026d914a204a04c2662d]
link LOGGED to LOGGED--><path d="M106.4613,230.56 C161.6362,224.38 243.2532,227.193 243.2532,239 C243.2532,250.438 166.6572,253.435 111.7082,247.993 " fill="none" id="LOGGED-to-LOGGED-1" style="stroke:#A80036;stroke-width:1.0;"/><polygon fill="#A80036" points="106.4613,247.44,114.9923,252.3616,111.4337,247.9642,115.8311,244.4057,106.4613,247.44" style="stroke:#A80036;stroke-width:1.0;"/><text fill="#000000" font-family="sans-serif" font-size="13" lengthAdjust="spacing" textLength="73" x="249.2532" y="243.5669">Add Project</text><!--MD5=[6d7cea7cef70b99873d0234841185951]
link LOGGED to ON_MEMBER--><path d="M57.9994,264.276 C54.8468,278.965 53.7684,297.4171 62.7528,311 C77.8086,333.762 104.6094,346.959 129.7232,354.5965 " fill="none" id="LOGGED-to-ON_MEMBER" style="stroke:#A80036;stroke-width:1.0;"/><polygon fill="#A80036" points="134.7192,356.0511,127.1954,349.6955,129.9184,354.6539,124.96,357.3768,134.7192,356.0511" style="stroke:#A80036;stroke-width:1.0;"/><text fill="#000000" font-family="sans-serif" font-size="13" lengthAdjust="spacing" textLength="82" x="63.7528" y="307.0669">Open Project</text><!--MD5=[5bea02390266986a1f67a13b1a8ea6dc]
link ON_MEMBER to LOGGED--><path d="M180.1072,340.6922 C173.4272,325.9915 163.4552,307.5378 150.7532,294 C139.3692,281.868 124.7052,271.294 110.7707,262.796 " fill="none" id="ON_MEMBER-to-LOGGED" style="stroke:#A80036;stroke-width:1.0;"/><polygon fill="#A80036" points="106.4742,260.226,112.1455,268.2781,110.7654,262.7922,116.2514,261.4121,106.4742,260.226" style="stroke:#A80036;stroke-width:1.0;"/><text fill="#000000" font-family="sans-serif" font-size="13" lengthAdjust="spacing" textLength="83" x="164.7532" y="307.0669">Close Project</text><!--MD5=[4135a6e513aaa90591c8a790229b02be]
link ON_MEMBER to INITIAL--><path d="M244.8712,342.7427 C302.2992,316.0628 379.6702,268.12 346.7532,214 C313.0132,158.529 237.8722,132.164 191.3412,120.729 " fill="none" id="ON_MEMBER-to-INITIAL" style="stroke:#A80036;stroke-width:1.0;"/><polygon fill="#A80036" points="186.3722,119.538,194.1914,125.5263,191.2344,120.7039,196.0568,117.7469,186.3722,119.538" style="stroke:#A80036;stroke-width:1.0;"/><text fill="#000000" font-family="sans-serif" font-size="13" lengthAdjust="spacing" textLength="44" x="355.7532" y="243.5669">Logout</text><!--MD5=[5149c30ec22c067011b2e50621ecae18]
link ON_MEMBER to ON_MEMBER--><path d="M245.1212,363.0945 C264.2802,363.0637 279.7532,364.0322 279.7532,366 C279.7532,367.7833 267.0452,368.7459 250.4032,368.8878 " fill="none" id="ON_MEMBER-to-ON_MEMBER" style="stroke:#A80036;stroke-width:1.0;"/><polygon fill="#A80036" points="245.1212,368.9055,254.1349,372.8746,250.1212,368.8884,254.1074,364.8747,245.1212,368.9055" style="stroke:#A80036;stroke-width:1.0;"/><text fill="#000000" font-family="sans-serif" font-size="13" lengthAdjust="spacing" textLength="90" x="285.7532" y="370.5669">Modify Project</text><!--MD5=[5149c30ec22c067011b2e50621ecae18]
link ON_MEMBER to ON_MEMBER--><path d="M244.9342,361.3 C304.0902,358.863 381.7532,360.4297 381.7532,366 C381.7532,371.4071 308.5742,373.0417 250.1782,370.9038 " fill="none" id="ON_MEMBER-to-ON_MEMBER-1" style="stroke:#A80036;stroke-width:1.0;"/><polygon fill="#A80036" points="244.9342,370.7,253.772,375.0467,249.9304,370.8943,254.0828,367.0527,244.9342,370.7" style="stroke:#A80036;stroke-width:1.0;"/><text fill="#000000" font-family="sans-serif" font-size="13" lengthAdjust="spacing" textLength="158" x="387.7532" y="370.5669">Add, Delete, Modify User</text><!--MD5=[5149c30ec22c067011b2e50621ecae18]
link ON_MEMBER to ON_MEMBER--><path d="M244.8682,360.5814 C350.4262,354.8053 551.7532,356.6115 551.7532,366 C551.7532,375.2419 356.6682,377.1365 249.8862,371.6838 " fill="none" id="ON_MEMBER-to-ON_MEMBER-2" style="stroke:#A80036;stroke-width:1.0;"/><polygon fill="#A80036" points="244.8682,371.4186,253.6442,375.8887,249.8612,371.6829,254.067,367.8999,244.8682,371.4186" style="stroke:#A80036;stroke-width:1.0;"/><text fill="#000000" font-family="sans-serif" font-size="13" lengthAdjust="spacing" textLength="181" x="557.7532" y="370.5669">Add, Delete, Modify Member</text><!--MD5=[5149c30ec22c067011b2e50621ecae18]
link ON_MEMBER to ON_MEMBER--><path d="M244.8042,360.0585 C391.0532,350.8506 744.7532,352.8311 744.7532,366 C744.7532,379.0146 399.2942,381.1015 250.0302,372.2606 " fill="none" id="ON_MEMBER-to-ON_MEMBER-3" style="stroke:#A80036;stroke-width:1.0;"/><polygon fill="#A80036" points="244.8042,371.9415,253.5441,376.4818,249.7949,372.2458,254.0309,368.4966,244.8042,371.9415" style="stroke:#A80036;stroke-width:1.0;"/><text fill="#000000" font-family="sans-serif" font-size="13" lengthAdjust="spacing" textLength="133" x="750.7532" y="370.5669">Open, Close Member</text><!--MD5=[cb3f950feab9e7b215f1e2f33a7b1e47]
@startuml
state INITIAL
state LOGGED
state ON_MEMBER

[*] - -> INITIAL
INITIAL - -> LOGGED: Register
INITIAL - -> LOGGED: Login
LOGGED - -> INITIAL: Logout
LOGGED - -> LOGGED: Delete Project
LOGGED - -> LOGGED: Add Project
LOGGED - -> ON_MEMBER: Open Project
ON_MEMBER - -> LOGGED: Close Project
ON_MEMBER - -> INITIAL: Logout
ON_MEMBER - -> ON_MEMBER: Modify Project
ON_MEMBER - -> ON_MEMBER: Add, Delete, Modify User
ON_MEMBER - -> ON_MEMBER: Add, Delete, Modify Member
ON_MEMBER - -> ON_MEMBER: Open, Close Member
@enduml

PlantUML version 1.2021.6beta6(Unknown compile time)
(GPL source distribution)
Java Runtime: Java(TM) SE Runtime Environment
JVM: Java HotSpot(TM) 64-Bit Server VM
Default Encoding: UTF-8
Language: en
Country: US
--></g></svg>