<?xml version="1.0" encoding="UTF-8" standalone="no"?><svg xmlns="http://www.w3.org/2000/svg" xmlns:xlink="http://www.w3.org/1999/xlink" contentScriptType="application/ecmascript" contentStyleType="text/css" height="405px" preserveAspectRatio="none" style="width:829px;height:405px;background:#FFFFFF;" version="1.1" viewBox="0 0 829 405" width="829px" zoomAndPan="magnify"><defs><filter height="300%" id="fa3x22fm6qgmg" width="300%" x="-1" y="-1"><feGaussianBlur result="blurOut" stdDeviation="2.0"/><feColorMatrix in="blurOut" result="blurOut2" type="matrix" values="0 0 0 0 0 0 0 0 0 0 0 0 0 0 0 0 0 0 .4 0"/><feOffset dx="4.0" dy="4.0" in="blurOut2" result="blurOut3"/><feBlend in="SourceGraphic" in2="blurOut3" mode="normal"/></filter></defs><g><g id="INITIAL"><rect fill="#FEFECE" filter="url(#fa3x22fm6qgmg)" height="50" rx="12.5" ry="12.5" style="stroke:#A80036;stroke-width:1.5;" width="69" x="214.3648" y="87"/><line style="stroke:#A80036;stroke-width:1.5;" x1="214.3648" x2="283.3648" y1="113.2969" y2="113.2969"/><text fill="#000000" font-family="sans-serif" font-size="14" lengthAdjust="spacing" textLength="49" x="224.3648" y="104.9951">INITIAL</text></g><g id="LOGGED"><rect fill="#FEFECE" filter="url(#fa3x22fm6qgmg)" height="50" rx="12.5" ry="12.5" style="stroke:#A80036;stroke-width:1.5;" width="81" x="122.3644" y="214"/><line style="stroke:#A80036;stroke-width:1.5;" x1="122.3644" x2="203.3644" y1="240.2969" y2="240.2969"/><text fill="#000000" font-family="sans-serif" font-size="14" lengthAdjust="spacing" textLength="61" x="132.3644" y="231.9951">LOGGED</text></g><g id="ON_MEMBER"><rect fill="#FEFECE" filter="url(#fa3x22fm6qgmg)" height="50" rx="12.5" ry="12.5" style="stroke:#A80036;stroke-width:1.5;" width="110" x="169.8648" y="341"/><line style="stroke:#A80036;stroke-width:1.5;" x1="169.8648" x2="279.8648" y1="367.2969" y2="367.2969"/><text fill="#000000" font-family="sans-serif" font-size="14" lengthAdjust="spacing" textLength="90" x="179.8648" y="358.9951">ON_MEMBER</text></g><ellipse cx="248.8648" cy="16" fill="#000000" filter="url(#fa3x22fm6qgmg)" rx="10" ry="10" style="stroke:none;stroke-width:1.0;"/><!--MD5=[06c3f2024f4ea60966e79307ee69ec5f]
link *start to INITIAL--><path d="M248.8648,26.013 C248.8648,38.698 248.8648,62.409 248.8648,81.57 " fill="none" id="*start-to-INITIAL" style="stroke:#A80036;stroke-width:1.0;"/><polygon fill="#A80036" points="248.8648,86.84,252.8648,77.84,248.8648,81.84,244.8648,77.84,248.8648,86.84" style="stroke:#A80036;stroke-width:1.0;"/><!--MD5=[db78a651e3054cd913662bb029a6d87e]
link INITIAL to LOGGED--><path d="M214.2448,116.082 C181.9308,121.005 135.4098,133.791 112.8644,167 C103.1117,181.366 112.2543,197.176 125.2646,210.223 " fill="none" id="INITIAL-to-LOGGED" style="stroke:#A80036;stroke-width:1.0;"/><polygon fill="#A80036" points="129.0238,213.827,125.2928,204.7122,125.4136,210.3678,119.758,210.4886,129.0238,213.827" style="stroke:#A80036;stroke-width:1.0;"/><text fill="#000000" font-family="sans-serif" font-size="13" lengthAdjust="spacing" textLength="53" x="113.8644" y="180.0669">Register</text><!--MD5=[db78a651e3054cd913662bb029a6d87e]
link INITIAL to LOGGED--><path d="M229.8468,137.14 C222.7698,146.356 214.7818,157.043 207.8648,167 C198.3638,180.676 188.3928,196.265 180.2578,209.346 " fill="none" id="INITIAL-to-LOGGED-1" style="stroke:#A80036;stroke-width:1.0;"/><polygon fill="#A80036" points="177.5728,213.679,185.7142,208.1366,180.207,209.4292,178.9145,203.922,177.5728,213.679" style="stroke:#A80036;stroke-width:1.0;"/><text fill="#000000" font-family="sans-serif" font-size="13" lengthAdjust="spacing" textLength="34" x="208.8648" y="180.0669">Login</text><!--MD5=[a4c44dbccb53427ef47fa332d72cda79]
link LOGGED to INITIAL--><path d="M203.7818,222.42 C220.5388,213.79 238.2298,201.247 247.8648,184 C254.8178,171.554 255.6928,155.863 254.5618,142.399 " fill="none" id="LOGGED-to-INITIAL" style="stroke:#A80036;stroke-width:1.0;"/><polygon fill="#A80036" points="254.0158,137.168,250.9735,146.5352,254.5358,142.1409,258.9301,145.7032,254.0158,137.168" style="stroke:#A80036;stroke-width:1.0;"/><text fill="#000000" font-family="sans-serif" font-size="13" lengthAdjust="spacing" textLength="44" x="254.8648" y="180.0669">Logout</text><!--MD5=[c451783d2602026d914a204a04c2662d]
link LOGGED to LOGGED--><path d="M203.6408,227.58 C222.2168,226.414 238.3648,230.221 238.3648,239 C238.3648,246.956 225.1028,250.828 208.7898,250.617 " fill="none" id="LOGGED-to-LOGGED" style="stroke:#A80036;stroke-width:1.0;"/><polygon fill="#A80036" points="203.6408,250.42,212.4811,254.7616,208.6371,250.6114,212.7873,246.7674,203.6408,250.42" style="stroke:#A80036;stroke-width:1.0;"/><text fill="#000000" font-family="sans-serif" font-size="13" lengthAdjust="spacing" textLength="98" x="244.3648" y="243.5669">Delete Member</text><!--MD5=[6d7cea7cef70b99873d0234841185951]
link LOGGED to ON_MEMBER--><path d="M122.2578,246.367 C74.813,255.581 6,275.538 32.8644,311 C48.8846,332.1475 114.5199,347.3262 164.6328,356.1046 " fill="none" id="LOGGED-to-ON_MEMBER" style="stroke:#A80036;stroke-width:1.0;"/><polygon fill="#A80036" points="169.7388,356.9864,161.5498,351.5146,164.8116,356.1364,160.1898,359.3981,169.7388,356.9864" style="stroke:#A80036;stroke-width:1.0;"/><text fill="#000000" font-family="sans-serif" font-size="13" lengthAdjust="spacing" textLength="81" x="33.8644" y="307.0669">Add Member</text><!--MD5=[6d7cea7cef70b99873d0234841185951]
link LOGGED to ON_MEMBER--><path d="M154.3208,264.148 C150.7268,278.442 148.8118,296.5247 155.8648,311 C160.7888,321.1065 168.6208,329.8783 177.2708,337.2436 " fill="none" id="LOGGED-to-ON_MEMBER-1" style="stroke:#A80036;stroke-width:1.0;"/><polygon fill="#A80036" points="181.5738,340.746,177.1198,331.9618,177.6964,337.5892,172.069,338.1657,181.5738,340.746" style="stroke:#A80036;stroke-width:1.0;"/><text fill="#000000" font-family="sans-serif" font-size="13" lengthAdjust="spacing" textLength="90" x="156.8648" y="307.0669">Open Member</text><!--MD5=[5bea02390266986a1f67a13b1a8ea6dc]
link ON_MEMBER to LOGGED--><path d="M244.3678,340.8613 C253.2888,326.7371 260.2098,308.8245 251.8648,294 C242.3018,277.013 224.9988,264.754 208.1748,256.255 " fill="none" id="ON_MEMBER-to-LOGGED" style="stroke:#A80036;stroke-width:1.0;"/><polygon fill="#A80036" points="203.4488,253.957,209.792,261.4912,207.945,256.1444,213.2918,254.2973,203.4488,253.957" style="stroke:#A80036;stroke-width:1.0;"/><text fill="#000000" font-family="sans-serif" font-size="13" lengthAdjust="spacing" textLength="91" x="256.8648" y="307.0669">Close Member</text><!--MD5=[4135a6e513aaa90591c8a790229b02be]
link ON_MEMBER to INITIAL--><path d="M279.9698,357.1522 C307.9918,350.0653 339.6818,336.5936 356.8648,311 C380.9758,275.085 366.0478,253.698 348.8648,214 C335.9458,184.154 309.8238,158.27 287.5178,140.178 " fill="none" id="ON_MEMBER-to-INITIAL" style="stroke:#A80036;stroke-width:1.0;"/><polygon fill="#A80036" points="283.4008,136.891,287.9376,145.6327,287.3079,140.011,292.9296,139.3813,283.4008,136.891" style="stroke:#A80036;stroke-width:1.0;"/><text fill="#000000" font-family="sans-serif" font-size="13" lengthAdjust="spacing" textLength="44" x="369.8648" y="243.5669">Logout</text><!--MD5=[5149c30ec22c067011b2e50621ecae18]
link ON_MEMBER to ON_MEMBER--><path d="M280.2328,362.1259 C299.3918,362.085 314.8648,363.3763 314.8648,366 C314.8648,368.3777 302.1568,369.6612 285.5148,369.8505 " fill="none" id="ON_MEMBER-to-ON_MEMBER" style="stroke:#A80036;stroke-width:1.0;"/><polygon fill="#A80036" points="280.2328,369.8741,289.251,373.8329,285.2327,369.8512,289.2144,365.833,280.2328,369.8741" style="stroke:#A80036;stroke-width:1.0;"/><text fill="#000000" font-family="sans-serif" font-size="13" lengthAdjust="spacing" textLength="158" x="320.8648" y="370.5669">Add, Delete, Modify User</text><!--MD5=[5149c30ec22c067011b2e50621ecae18]
link ON_MEMBER to ON_MEMBER--><path d="M280.0048,360.3418 C358.8328,356.263 484.8648,358.1491 484.8648,366 C484.8648,373.6822 364.1898,375.6532 285.1488,371.9128 " fill="none" id="ON_MEMBER-to-ON_MEMBER-1" style="stroke:#A80036;stroke-width:1.0;"/><polygon fill="#A80036" points="280.0048,371.6582,288.7961,376.0982,284.9987,371.9053,289.1915,368.1079,280.0048,371.6582" style="stroke:#A80036;stroke-width:1.0;"/><text fill="#000000" font-family="sans-serif" font-size="13" lengthAdjust="spacing" textLength="181" x="490.8648" y="370.5669">Add, Delete, Modify Member</text><!--MD5=[5149c30ec22c067011b2e50621ecae18]
link ON_MEMBER to ON_MEMBER--><path d="M280.1528,359.322 C405.0678,350.9684 677.8648,353.1943 677.8648,366 C677.8648,378.6306 412.4758,380.9688 285.3588,373.0147 " fill="none" id="ON_MEMBER-to-ON_MEMBER-2" style="stroke:#A80036;stroke-width:1.0;"/><polygon fill="#A80036" points="280.1528,372.678,288.8757,377.2508,285.1424,373.0009,289.3923,369.2675,280.1528,372.678" style="stroke:#A80036;stroke-width:1.0;"/><text fill="#000000" font-family="sans-serif" font-size="13" lengthAdjust="spacing" textLength="133" x="683.8648" y="370.5669">Open, Close Member</text><!--MD5=[5a85d62f8e8de007dde659aa3d6f822a]
@startuml
state INITIAL
state LOGGED
state ON_MEMBER
state ON_MEMBER

[*] - -> INITIAL
INITIAL - -> LOGGED: Register
INITIAL - -> LOGGED: Login
LOGGED - -> INITIAL: Logout
LOGGED - -> LOGGED: Delete Member
LOGGED - -> ON_MEMBER: Add Member
LOGGED - -> ON_MEMBER: Open Member
ON_MEMBER - -> LOGGED: Close Member
ON_MEMBER - -> INITIAL: Logout
ON_MEMBER - -> ON_MEMBER: Add, Delete, Modify User
ON_MEMBER - -> ON_MEMBER: Add, Delete, Modify Member
ON_MEMBER - -> ON_MEMBER: Open, Close Member
@enduml

PlantUML version 1.2021.6beta6(Unknown compile time)
(GPL source distribution)
Java Runtime: Java(TM) SE Runtime Environment
JVM: Java HotSpot(TM) 64-Bit Server VM
Default Encoding: UTF-8
Language: en
Country: US
--></g></svg>