<?xml version="1.0" encoding="UTF-8" standalone="no"?><svg xmlns="http://www.w3.org/2000/svg" xmlns:xlink="http://www.w3.org/1999/xlink" contentScriptType="application/ecmascript" contentStyleType="text/css" height="1068px" preserveAspectRatio="none" style="width:264px;height:1068px;background:#FFFFFF;" version="1.1" viewBox="0 0 264 1068" width="264px" zoomAndPan="magnify"><defs><filter height="300%" id="fkf1xdgh09wc0" width="300%" x="-1" y="-1"><feGaussianBlur result="blurOut" stdDeviation="2.0"/><feColorMatrix in="blurOut" result="blurOut2" type="matrix" values="0 0 0 0 0 0 0 0 0 0 0 0 0 0 0 0 0 0 .4 0"/><feOffset dx="4.0" dy="4.0" in="blurOut2" result="blurOut3"/><feBlend in="SourceGraphic" in2="blurOut3" mode="normal"/></filter></defs><g><!--MD5=[fee662a292a0353a69bd162820bae93b]
entity User--><ellipse cx="21.5" cy="516" fill="#FEFECE" filter="url(#fkf1xdgh09wc0)" rx="8" ry="8" style="stroke:#A80036;stroke-width:1.5;"/><path d="M21.5,524 L21.5,551 M8.5,532 L34.5,532 M21.5,551 L8.5,566 M21.5,551 L34.5,566 " fill="none" filter="url(#fkf1xdgh09wc0)" style="stroke:#A80036;stroke-width:1.5;"/><text fill="#000000" font-family="sans-serif" font-size="14" lengthAdjust="spacing" textLength="31" x="6" y="584.4951">User</text><ellipse cx="175.0868" cy="715.2397" fill="#FEFECE" filter="url(#fkf1xdgh09wc0)" rx="55.5868" ry="14.7397" style="stroke:#A80036;stroke-width:1.5;"/><text fill="#000000" font-family="sans-serif" font-size="14" lengthAdjust="spacing" textLength="61" x="141.5868" y="718.9873">Register</text><ellipse cx="175.1869" cy="779.0634" fill="#FEFECE" filter="url(#fkf1xdgh09wc0)" rx="39.1869" ry="14.5634" style="stroke:#A80036;stroke-width:1.5;"/><text fill="#000000" font-family="sans-serif" font-size="14" lengthAdjust="spacing" textLength="39" x="153.5666" y="782.5876">Login</text><ellipse cx="174.8761" cy="843.1644" fill="#FEFECE" filter="url(#fkf1xdgh09wc0)" rx="47.3761" ry="14.6644" style="stroke:#A80036;stroke-width:1.5;"/><text fill="#000000" font-family="sans-serif" font-size="14" lengthAdjust="spacing" textLength="50" x="146.8761" y="846.9119">Logout</text><ellipse cx="175.1952" cy="580.839" fill="#FEFECE" filter="url(#fkf1xdgh09wc0)" rx="69.6952" ry="16.339" style="stroke:#A80036;stroke-width:1.5;"/><text fill="#000000" font-family="sans-serif" font-size="14" lengthAdjust="spacing" textLength="92" x="126.1952" y="584.5866">Add Member</text><ellipse cx="174.8536" cy="441.8707" fill="#FEFECE" filter="url(#fkf1xdgh09wc0)" rx="77.3536" ry="17.8707" style="stroke:#A80036;stroke-width:1.5;"/><text fill="#000000" font-family="sans-serif" font-size="14" lengthAdjust="spacing" textLength="112" x="116.1333" y="445.5454">Modify Member</text><ellipse cx="174.7532" cy="299.9506" fill="#FEFECE" filter="url(#fkf1xdgh09wc0)" rx="77.7532" ry="17.9506" style="stroke:#A80036;stroke-width:1.5;"/><text fill="#000000" font-family="sans-serif" font-size="14" lengthAdjust="spacing" textLength="113" x="115.6994" y="303.5809">Delete Member</text><ellipse cx="174.8343" cy="161.1669" fill="#FEFECE" filter="url(#fkf1xdgh09wc0)" rx="73.8343" ry="17.1669" style="stroke:#A80036;stroke-width:1.5;"/><text fill="#000000" font-family="sans-serif" font-size="14" lengthAdjust="spacing" textLength="103" x="120.3343" y="164.9144">Open Member</text><ellipse cx="174.8343" cy="23.1669" fill="#FEFECE" filter="url(#fkf1xdgh09wc0)" rx="73.8343" ry="17.1669" style="stroke:#A80036;stroke-width:1.5;"/><text fill="#000000" font-family="sans-serif" font-size="14" lengthAdjust="spacing" textLength="103" x="120.3343" y="26.9144">Close Member</text><ellipse cx="174.8142" cy="648.7628" fill="#FEFECE" filter="url(#fkf1xdgh09wc0)" rx="66.8142" ry="15.7628" style="stroke:#A80036;stroke-width:1.5;"/><text fill="#000000" font-family="sans-serif" font-size="14" lengthAdjust="spacing" textLength="84" x="129.8142" y="652.5104">Add Project</text><ellipse cx="175.2198" cy="512.244" fill="#FEFECE" filter="url(#fkf1xdgh09wc0)" rx="74.2198" ry="17.244" style="stroke:#A80036;stroke-width:1.5;"/><text fill="#000000" font-family="sans-serif" font-size="14" lengthAdjust="spacing" textLength="104" x="120.2198" y="515.9915">Modify Project</text><ellipse cx="175.1066" cy="370.8213" fill="#FEFECE" filter="url(#fkf1xdgh09wc0)" rx="74.6066" ry="17.3213" style="stroke:#A80036;stroke-width:1.5;"/><text fill="#000000" font-family="sans-serif" font-size="14" lengthAdjust="spacing" textLength="105" x="119.6066" y="374.5689">Delete Project</text><ellipse cx="174.8049" cy="230.061" fill="#FEFECE" filter="url(#fkf1xdgh09wc0)" rx="70.8049" ry="16.561" style="stroke:#A80036;stroke-width:1.5;"/><text fill="#000000" font-family="sans-serif" font-size="14" lengthAdjust="spacing" textLength="95" x="124.3049" y="233.8085">Open Project</text><ellipse cx="174.8049" cy="92.061" fill="#FEFECE" filter="url(#fkf1xdgh09wc0)" rx="70.8049" ry="16.561" style="stroke:#A80036;stroke-width:1.5;"/><text fill="#000000" font-family="sans-serif" font-size="14" lengthAdjust="spacing" textLength="95" x="124.3049" y="95.8085">Close Project</text><ellipse cx="175.0799" cy="907.7511" fill="#FEFECE" filter="url(#fkf1xdgh09wc0)" rx="57.0799" ry="14.7511" style="stroke:#A80036;stroke-width:1.5;"/><text fill="#000000" font-family="sans-serif" font-size="14" lengthAdjust="spacing" textLength="63" x="140.5799" y="911.4987">Add User</text><ellipse cx="174.8142" cy="973.7628" fill="#FEFECE" filter="url(#fkf1xdgh09wc0)" rx="66.8142" ry="15.7628" style="stroke:#A80036;stroke-width:1.5;"/><text fill="#000000" font-family="sans-serif" font-size="14" lengthAdjust="spacing" textLength="84" x="129.8142" y="977.5104">Delete User</text><ellipse cx="174.9626" cy="1041.1925" fill="#FEFECE" filter="url(#fkf1xdgh09wc0)" rx="66.4626" ry="15.6925" style="stroke:#A80036;stroke-width:1.5;"/><text fill="#000000" font-family="sans-serif" font-size="14" lengthAdjust="spacing" textLength="83" x="130.4626" y="1044.9401">Modify User</text><!--MD5=[e0ebca121273885364fa8679885dc51a]
link User to Register--><path d="M36.6439,587.672 C48.7004,617.196 68.6207,656.309 97,682 C106.804,690.875 119.358,697.609 131.472,702.603 " fill="none" id="User-to-Register" style="stroke:#A80036;stroke-width:1.0;"/><polygon fill="#A80036" points="136.265,704.501,129.3689,697.4694,131.6159,702.6608,126.4246,704.9079,136.265,704.501" style="stroke:#A80036;stroke-width:1.0;"/><!--MD5=[5af6d7c3e037f74f83175e2986cdce5e]
link User to Login--><path d="M27.8975,587.755 C35.7822,632.187 54.4543,702.837 97,747 C107.466,757.864 122.169,765.185 135.927,770.048 " fill="none" id="User-to-Login" style="stroke:#A80036;stroke-width:1.0;"/><polygon fill="#A80036" points="140.943,771.731,133.6824,765.0764,136.2026,770.1409,131.1382,772.6611,140.943,771.731" style="stroke:#A80036;stroke-width:1.0;"/><!--MD5=[b99f21e5dbb51e0046b46b1515675713]
link User to Logout--><path d="M23.3608,587.935 C26.6889,644.736 40.7237,747.606 97,811 C105.9085,821.035 118.461,827.999 130.851,832.799 " fill="none" id="User-to-Logout" style="stroke:#A80036;stroke-width:1.0;"/><polygon fill="#A80036" points="135.767,834.599,128.6907,827.7487,131.0718,832.8801,125.9404,835.2611,135.767,834.599" style="stroke:#A80036;stroke-width:1.0;"/><!--MD5=[08c95fca7301fb7965ffef686652f382]
link User to cElement--><path d="M37.0265,550.26 C55.7893,554.471 89.5205,562.041 118.813,568.615 " fill="none" id="User-to-cElement" style="stroke:#A80036;stroke-width:1.0;"/><polygon fill="#A80036" points="123.849,569.745,115.9427,563.8722,118.9702,568.6507,114.1917,571.6782,123.849,569.745" style="stroke:#A80036;stroke-width:1.0;"/><!--MD5=[dbb96ea7dcbd05a0f7a0d4009f41405e]
link User to mElement--><path d="M37.1943,530.357 C51.3675,515.036 74.0012,492.414 97,477 C106.819,470.419 118.077,464.516 128.898,459.515 " fill="none" id="User-to-mElement" style="stroke:#A80036;stroke-width:1.0;"/><polygon fill="#A80036" points="133.503,457.428,123.6544,457.5003,128.949,459.4922,126.9571,464.7867,133.503,457.428" style="stroke:#A80036;stroke-width:1.0;"/><!--MD5=[0c4ea270998b859563a07745b5a87672]
link User to dElement--><path d="M27.3181,506.484 C34.7786,460.113 53.1645,384.353 97,336 C104.1549,328.108 113.397,321.804 122.981,316.82 " fill="none" id="User-to-dElement" style="stroke:#A80036;stroke-width:1.0;"/><polygon fill="#A80036" points="127.705,314.479,117.8649,314.8935,123.2255,316.7002,121.4188,322.0608,127.705,314.479" style="stroke:#A80036;stroke-width:1.0;"/><!--MD5=[a6ac0649ad3f395b1c25484ab6424272]
link User to oElement--><path d="M26.5253,506.352 C35.3503,424.522 58.7229,243.659 97,196 C103.6377,187.735 112.655,181.349 122.181,176.438 " fill="none" id="User-to-oElement" style="stroke:#A80036;stroke-width:1.0;"/><polygon fill="#A80036" points="126.89,174.144,117.0472,174.4894,122.395,176.3337,120.5507,181.6814,126.89,174.144" style="stroke:#A80036;stroke-width:1.0;"/><!--MD5=[2f093c211731e5571317761fed631408]
link User to clElement--><path d="M23.8084,506.398 C27.9134,402.193 43.6338,128.539 97,58 C103.3955,49.55 112.307,43.08 121.806,38.15 " fill="none" id="User-to-clElement" style="stroke:#A80036;stroke-width:1.0;"/><polygon fill="#A80036" points="126.509,35.85,116.6665,36.2043,122.016,38.0437,120.1765,43.3932,126.509,35.85" style="stroke:#A80036;stroke-width:1.0;"/><!--MD5=[fd51c00abb523a9c8a84d9f044d13cf8]
reverse link cElement to cProject--><path d="M175,617.669 C175,622.712 175,627.754 175,632.797 " fill="none" id="cElement-backto-cProject" style="stroke:#A80036;stroke-width:1.0;"/><polygon fill="none" points="168,617.591,175,597.591,182,617.591,168,617.591" style="stroke:#A80036;stroke-width:1.0;"/><!--MD5=[2bd61118854d31101e97e771a85f6ada]
link User to cProject--><path d="M37.2471,563.191 C51.4577,578.092 74.1166,600.079 97,615 C108.023,622.187 120.818,628.525 132.775,633.722 " fill="none" id="User-to-cProject" style="stroke:#A80036;stroke-width:1.0;"/><polygon fill="#A80036" points="137.486,635.73,130.7761,628.5205,132.8867,633.7689,127.6383,635.8794,137.486,635.73" style="stroke:#A80036;stroke-width:1.0;"/><!--MD5=[d6237a9423ce844e8446971b16c60dfd]
reverse link mElement to mProject--><path d="M175,480.163 C175,485.033 175,489.903 175,494.773 " fill="none" id="mElement-backto-mProject" style="stroke:#A80036;stroke-width:1.0;"/><polygon fill="none" points="168,480.141,175,460.141,182,480.141,168,480.141" style="stroke:#A80036;stroke-width:1.0;"/><!--MD5=[97687079cfddea5be520a0d911bedbd7]
link User to mProject--><path d="M37.0265,543.644 C55.4393,539.39 88.2671,531.806 117.169,525.129 " fill="none" id="User-to-mProject" style="stroke:#A80036;stroke-width:1.0;"/><polygon fill="#A80036" points="122.142,523.98,112.4725,522.1091,117.2704,525.1058,114.2737,529.9037,122.142,523.98" style="stroke:#A80036;stroke-width:1.0;"/><!--MD5=[2a9c2d5fa47b6b943c72a8b4667e5948]
reverse link dElement to dProject--><path d="M175,338.507 C175,343.422 175,348.336 175,353.25 " fill="none" id="dElement-backto-dProject" style="stroke:#A80036;stroke-width:1.0;"/><polygon fill="none" points="168,338.305,175,318.305,182,338.305,168,338.305" style="stroke:#A80036;stroke-width:1.0;"/><!--MD5=[ebff75df41f02cd6f33744b8800513ba]
link User to dProject--><path d="M35.7711,506.309 C47.6239,475.396 67.6814,433.625 97,406 C105.1558,398.315 115.291,392.102 125.502,387.166 " fill="none" id="User-to-dProject" style="stroke:#A80036;stroke-width:1.0;"/><polygon fill="#A80036" points="130.192,384.987,120.3445,385.1524,125.6577,387.0942,123.716,392.4073,130.192,384.987" style="stroke:#A80036;stroke-width:1.0;"/><!--MD5=[77c233775b2d7abb29a80123cb75b2f1]
reverse link oElement to oProject--><path d="M175,198.193 C175,203.225 175,208.257 175,213.289 " fill="none" id="oElement-backto-oProject" style="stroke:#A80036;stroke-width:1.0;"/><polygon fill="none" points="168,198.157,175,178.157,182,198.157,168,198.157" style="stroke:#A80036;stroke-width:1.0;"/><!--MD5=[8568b5517cf10d3eaf2e79c1529c6990]
link User to oProject--><path d="M22.5703,506.378 C24.7915,446.465 37.3239,333.965 97,264 C104.0724,255.708 113.559,249.362 123.453,244.532 " fill="none" id="User-to-oProject" style="stroke:#A80036;stroke-width:1.0;"/><polygon fill="#A80036" points="128.02,242.417,118.1723,242.5673,123.4825,244.5172,121.5326,249.8274,128.02,242.417" style="stroke:#A80036;stroke-width:1.0;"/><!--MD5=[7b0f1e087d96e9d79863264fd1028fac]
reverse link clElement to clProject--><path d="M175,60.193 C175,65.225 175,70.257 175,75.289 " fill="none" id="clElement-backto-clProject" style="stroke:#A80036;stroke-width:1.0;"/><polygon fill="none" points="168,60.157,175,40.16,182,60.157,168,60.157" style="stroke:#A80036;stroke-width:1.0;"/><!--MD5=[9cf9bb7eaf347c1a8adb7cffc25b3bba]
link User to clProject--><path d="M24.8938,506.232 C31.146,412.445 50.7936,184.918 97,126 C103.5099,117.699 112.471,111.376 121.983,106.576 " fill="none" id="User-to-clProject" style="stroke:#A80036;stroke-width:1.0;"/><polygon fill="#A80036" points="126.689,104.34,116.8433,104.5897,122.1729,106.4859,120.2767,111.8155,126.689,104.34" style="stroke:#A80036;stroke-width:1.0;"/><!--MD5=[194300c75237525b33fd8a5488ffddcd]
link User to addDeveloper--><path d="M27.1128,587.74 C36.6542,665.557 60.743,831.482 97,875 C104.82,884.386 115.798,891.166 127.021,896.039 " fill="none" id="User-to-addDeveloper" style="stroke:#A80036;stroke-width:1.0;"/><polygon fill="#A80036" points="131.837,898.012,125.0279,890.8961,127.211,896.1147,121.9923,898.2977,131.837,898.012" style="stroke:#A80036;stroke-width:1.0;"/><!--MD5=[b097e9cf9294025858a1e9b2c12d67f2]
link User to dDeveloper--><path d="M25.4625,587.717 C32.6874,676.863 53.8667,885.686 97,940 C103.9353,948.733 113.578,955.281 123.698,960.1699 " fill="none" id="User-to-dDeveloper" style="stroke:#A80036;stroke-width:1.0;"/><polygon fill="#A80036" points="128.373,962.3015,121.8435,954.9282,123.8236,960.2272,118.5246,962.2073,128.373,962.3015" style="stroke:#A80036;stroke-width:1.0;"/><!--MD5=[a97e21f704c5ba791dd9fdf81d2bcccc]
link User to mDeveloper--><path d="M24.2101,587.777 C29.1544,687.745 46.4892,941.618 97,1007 C103.9726,1016.0256 113.851,1022.708 124.214,1027.6372 " fill="none" id="User-to-mDeveloper" style="stroke:#A80036;stroke-width:1.0;"/><polygon fill="#A80036" points="129.002,1029.7807,122.4218,1022.4526,124.4384,1027.7378,119.1532,1029.7544,129.002,1029.7807" style="stroke:#A80036;stroke-width:1.0;"/><!--MD5=[aa44b5628b7d94e31f213c0c0ef76ddd]
@startuml
left to right direction
actor User
usecase Register
User - -> Register
usecase Login
User - -> Login
usecase Logout
User - -> Logout
usecase cElement as "Add Member"
User - -> cElement
usecase mElement as "Modify Member"
User - -> mElement
usecase dElement as "Delete Member"
User - -> dElement
usecase oElement as "Open Member"
User - -> oElement
usecase clElement as "Close Member"
User - -> clElement
usecase cProject as "Add Project"
cProject -left-|> cElement
User - -> cProject
usecase mProject as "Modify Project"
mProject -left-|> mElement
User - -> mProject
usecase dProject as "Delete Project"
dProject -left-|> dElement
User - -> dProject
usecase oProject as "Open Project"
oProject -left-|> oElement
User - -> oProject
usecase clProject as "Close Project"
clProject -left-|> clElement
User - -> clProject
usecase addDeveloper as "Add User"
User - -> addDeveloper
usecase dDeveloper as "Delete User"
User - -> dDeveloper
usecase mDeveloper as "Modify User"
User - -> mDeveloper
@enduml

PlantUML version 1.2021.6beta6(Unknown compile time)
(GPL source distribution)
Java Runtime: Java(TM) SE Runtime Environment
JVM: Java HotSpot(TM) 64-Bit Server VM
Default Encoding: UTF-8
Language: en
Country: US
--></g></svg>