<?xml version="1.0" encoding="UTF-8" standalone="no"?><svg xmlns="http://www.w3.org/2000/svg" xmlns:xlink="http://www.w3.org/1999/xlink" contentScriptType="application/ecmascript" contentStyleType="text/css" height="722px" preserveAspectRatio="none" style="width:264px;height:722px;background:#FFFFFF;" version="1.1" viewBox="0 0 264 722" width="264px" zoomAndPan="magnify"><defs><filter height="300%" id="f6d57sk9py1ii" width="300%" x="-1" y="-1"><feGaussianBlur result="blurOut" stdDeviation="2.0"/><feColorMatrix in="blurOut" result="blurOut2" type="matrix" values="0 0 0 0 0 0 0 0 0 0 0 0 0 0 0 0 0 0 .4 0"/><feOffset dx="4.0" dy="4.0" in="blurOut2" result="blurOut3"/><feBlend in="SourceGraphic" in2="blurOut3" mode="normal"/></filter></defs><g><!--MD5=[fee662a292a0353a69bd162820bae93b]
entity User--><ellipse cx="21.5" cy="324.5" fill="#FEFECE" filter="url(#f6d57sk9py1ii)" rx="8" ry="8" style="stroke:#A80036;stroke-width:1.5;"/><path d="M21.5,332.5 L21.5,359.5 M8.5,340.5 L34.5,340.5 M21.5,359.5 L8.5,374.5 M21.5,359.5 L34.5,374.5 " fill="none" filter="url(#f6d57sk9py1ii)" style="stroke:#A80036;stroke-width:1.5;"/><text fill="#000000" font-family="sans-serif" font-size="14" lengthAdjust="spacing" textLength="31" x="6" y="392.9951">User</text><ellipse cx="175.0868" cy="20.7397" fill="#FEFECE" filter="url(#f6d57sk9py1ii)" rx="55.5868" ry="14.7397" style="stroke:#A80036;stroke-width:1.5;"/><text fill="#000000" font-family="sans-serif" font-size="14" lengthAdjust="spacing" textLength="61" x="141.5868" y="24.4873">Register</text><ellipse cx="175.1869" cy="84.5634" fill="#FEFECE" filter="url(#f6d57sk9py1ii)" rx="39.1869" ry="14.5634" style="stroke:#A80036;stroke-width:1.5;"/><text fill="#000000" font-family="sans-serif" font-size="14" lengthAdjust="spacing" textLength="39" x="153.5666" y="88.0876">Login</text><ellipse cx="174.8761" cy="148.6644" fill="#FEFECE" filter="url(#f6d57sk9py1ii)" rx="47.3761" ry="14.6644" style="stroke:#A80036;stroke-width:1.5;"/><text fill="#000000" font-family="sans-serif" font-size="14" lengthAdjust="spacing" textLength="50" x="146.8761" y="152.4119">Logout</text><ellipse cx="175.1952" cy="214.339" fill="#FEFECE" filter="url(#f6d57sk9py1ii)" rx="69.6952" ry="16.339" style="stroke:#A80036;stroke-width:1.5;"/><text fill="#000000" font-family="sans-serif" font-size="14" lengthAdjust="spacing" textLength="92" x="126.1952" y="218.0866">Add Member</text><ellipse cx="174.8536" cy="284.3707" fill="#FEFECE" filter="url(#f6d57sk9py1ii)" rx="77.3536" ry="17.8707" style="stroke:#A80036;stroke-width:1.5;"/><text fill="#000000" font-family="sans-serif" font-size="14" lengthAdjust="spacing" textLength="112" x="116.1333" y="288.0454">Modify Member</text><ellipse cx="174.7532" cy="355.4506" fill="#FEFECE" filter="url(#f6d57sk9py1ii)" rx="77.7532" ry="17.9506" style="stroke:#A80036;stroke-width:1.5;"/><text fill="#000000" font-family="sans-serif" font-size="14" lengthAdjust="spacing" textLength="113" x="115.6994" y="359.0809">Delete Member</text><ellipse cx="174.8343" cy="425.6669" fill="#FEFECE" filter="url(#f6d57sk9py1ii)" rx="73.8343" ry="17.1669" style="stroke:#A80036;stroke-width:1.5;"/><text fill="#000000" font-family="sans-serif" font-size="14" lengthAdjust="spacing" textLength="103" x="120.3343" y="429.4144">Open Member</text><ellipse cx="174.8343" cy="494.6669" fill="#FEFECE" filter="url(#f6d57sk9py1ii)" rx="73.8343" ry="17.1669" style="stroke:#A80036;stroke-width:1.5;"/><text fill="#000000" font-family="sans-serif" font-size="14" lengthAdjust="spacing" textLength="103" x="120.3343" y="498.4144">Close Member</text><ellipse cx="175.0799" cy="561.2511" fill="#FEFECE" filter="url(#f6d57sk9py1ii)" rx="57.0799" ry="14.7511" style="stroke:#A80036;stroke-width:1.5;"/><text fill="#000000" font-family="sans-serif" font-size="14" lengthAdjust="spacing" textLength="63" x="140.5799" y="564.9987">Add User</text><ellipse cx="174.8142" cy="627.2628" fill="#FEFECE" filter="url(#f6d57sk9py1ii)" rx="66.8142" ry="15.7628" style="stroke:#A80036;stroke-width:1.5;"/><text fill="#000000" font-family="sans-serif" font-size="14" lengthAdjust="spacing" textLength="84" x="129.8142" y="631.0104">Delete User</text><ellipse cx="174.9626" cy="694.6925" fill="#FEFECE" filter="url(#f6d57sk9py1ii)" rx="66.4626" ry="15.6925" style="stroke:#A80036;stroke-width:1.5;"/><text fill="#000000" font-family="sans-serif" font-size="14" lengthAdjust="spacing" textLength="83" x="130.4626" y="698.4401">Modify User</text><!--MD5=[e0ebca121273885364fa8679885dc51a]
link User to Register--><path d="M27.8734,314.986 C38.2944,241.889 63.2292,91.869 97,52.5 C104.9998,43.174 116.159,36.515 127.503,31.779 " fill="none" id="User-to-Register" style="stroke:#A80036;stroke-width:1.0;"/><polygon fill="#A80036" points="132.368,29.864,122.5283,29.4383,127.7154,31.6953,125.4584,36.8824,132.368,29.864" style="stroke:#A80036;stroke-width:1.0;"/><!--MD5=[5af6d7c3e037f74f83175e2986cdce5e]
link User to Login--><path d="M24.8466,314.841 C29.9319,262.703 46.0327,172.369 97,116.5 C107.167,105.356 121.814,97.982 135.611,93.156 " fill="none" id="User-to-Login" style="stroke:#A80036;stroke-width:1.0;"/><polygon fill="#A80036" points="140.645,91.49,130.8442,90.5183,135.8979,93.06,133.3562,98.1137,140.645,91.49" style="stroke:#A80036;stroke-width:1.0;"/><!--MD5=[b99f21e5dbb51e0046b46b1515675713]
link User to Logout--><path d="M30.5143,314.718 C40.1307,275.652 59.8329,217.349 97,180.5 C106.711,170.872 119.739,163.993 132.314,159.144 " fill="none" id="User-to-Logout" style="stroke:#A80036;stroke-width:1.0;"/><polygon fill="#A80036" points="137.29,157.319,127.4631,156.6621,132.5957,159.0404,130.2174,164.1731,137.29,157.319" style="stroke:#A80036;stroke-width:1.0;"/><!--MD5=[08c95fca7301fb7965ffef686652f382]
link User to cElement--><path d="M37.0236,326.288 C50.0037,302.676 70.9709,269.948 97,248.5 C106.177,240.938 117.301,234.748 128.205,229.822 " fill="none" id="User-to-cElement" style="stroke:#A80036;stroke-width:1.0;"/><polygon fill="#A80036" points="132.859,227.788,123.0103,227.7254,128.2771,229.7896,126.2129,235.0564,132.859,227.788" style="stroke:#A80036;stroke-width:1.0;"/><!--MD5=[dbb96ea7dcbd05a0f7a0d4009f41405e]
link User to mElement--><path d="M37.0127,348.362 C51.9917,341.025 76.0594,329.317 97,319.5 C108.855,313.942 121.793,308.01 133.621,302.639 " fill="none" id="User-to-mElement" style="stroke:#A80036;stroke-width:1.0;"/><polygon fill="#A80036" points="138.268,300.531,128.4194,300.607,133.7147,302.5969,131.7249,307.8922,138.268,300.531" style="stroke:#A80036;stroke-width:1.0;"/><!--MD5=[0c4ea270998b859563a07745b5a87672]
link User to dElement--><path d="M37.0265,355.5 C50.1222,355.5 70.5098,355.5 91.5906,355.5 " fill="none" id="User-to-dElement" style="stroke:#A80036;stroke-width:1.0;"/><polygon fill="#A80036" points="96.6706,355.5,87.6706,351.5,91.6706,355.5,87.6706,359.5,96.6706,355.5" style="stroke:#A80036;stroke-width:1.0;"/><!--MD5=[a6ac0649ad3f395b1c25484ab6424272]
link User to oElement--><path d="M37.0357,362.395 C52.0331,369.493 76.1151,380.848 97,390.5 C109.591,396.319 123.374,402.609 135.755,408.23 " fill="none" id="User-to-oElement" style="stroke:#A80036;stroke-width:1.0;"/><polygon fill="#A80036" points="140.605,410.431,134.061,403.0706,136.0515,408.3656,130.7564,410.3562,140.605,410.431" style="stroke:#A80036;stroke-width:1.0;"/><!--MD5=[2f093c211731e5571317761fed631408]
link User to clElement--><path d="M37.0026,383.346 C50.1077,406.277 71.2614,438.347 97,459.5 C106.133,467.005 117.135,473.251 127.929,478.288 " fill="none" id="User-to-clElement" style="stroke:#A80036;stroke-width:1.0;"/><polygon fill="#A80036" points="132.536,480.372,125.9854,473.0174,127.9807,478.3107,122.6874,480.306,132.536,480.372" style="stroke:#A80036;stroke-width:1.0;"/><!--MD5=[194300c75237525b33fd8a5488ffddcd]
link User to addDeveloper--><path d="M30.8181,396.099 C40.6251,434.653 60.4334,491.997 97,528.5 C105.9164,537.401 117.615,544.057 129.192,548.967 " fill="none" id="User-to-addDeveloper" style="stroke:#A80036;stroke-width:1.0;"/><polygon fill="#A80036" points="134.138,550.967,127.2935,543.8851,129.5025,549.0928,124.2948,551.3018,134.138,550.967" style="stroke:#A80036;stroke-width:1.0;"/><!--MD5=[b097e9cf9294025858a1e9b2c12d67f2]
link User to dDeveloper--><path d="M25.1313,396.268 C30.5225,448.075 46.9514,537.482 97,593.5 C104.5988,602.005 114.721,608.485 125.122,613.3828 " fill="none" id="User-to-dDeveloper" style="stroke:#A80036;stroke-width:1.0;"/><polygon fill="#A80036" points="129.912,615.5237,123.3291,608.198,125.3476,613.4825,120.0632,615.501,129.912,615.5237" style="stroke:#A80036;stroke-width:1.0;"/><!--MD5=[a97e21f704c5ba791dd9fdf81d2bcccc]
link User to mDeveloper--><path d="M21.5813,396.062 C22.2866,459.688 32.5972,583.615 97,660.5 C104.405,669.3403 114.562,675.9612 125.069,680.8909 " fill="none" id="User-to-mDeveloper" style="stroke:#A80036;stroke-width:1.0;"/><polygon fill="#A80036" points="129.914,683.0389,123.3084,675.7337,125.3433,681.0118,120.0651,683.0467,129.914,683.0389" style="stroke:#A80036;stroke-width:1.0;"/><!--MD5=[1190191906540f7c9b1d7ec1a8ab69be]
@startuml
left to right direction
actor User
usecase Register
User - -> Register
usecase Login
User - -> Login
usecase Logout
User - -> Logout
usecase cElement as "Add Member"
User - -> cElement
usecase mElement as "Modify Member"
User - -> mElement
usecase dElement as "Delete Member"
User - -> dElement
usecase oElement as "Open Member"
User - -> oElement
usecase clElement as "Close Member"
User - -> clElement
usecase addDeveloper as "Add User"
User - -> addDeveloper
usecase dDeveloper as "Delete User"
User - -> dDeveloper
usecase mDeveloper as "Modify User"
User - -> mDeveloper
@enduml

PlantUML version 1.2021.6beta6(Unknown compile time)
(GPL source distribution)
Java Runtime: Java(TM) SE Runtime Environment
JVM: Java HotSpot(TM) 64-Bit Server VM
Default Encoding: UTF-8
Language: en
Country: US
--></g></svg>