<?xml version="1.0" encoding="UTF-8" standalone="no"?><svg xmlns="http://www.w3.org/2000/svg" xmlns:xlink="http://www.w3.org/1999/xlink" contentScriptType="application/ecmascript" contentStyleType="text/css" height="609px" preserveAspectRatio="none" style="width:1485px;height:609px;background:#FFFFFF;" version="1.1" viewBox="0 0 1485 609" width="1485px" zoomAndPan="magnify"><defs><filter height="300%" id="f1uo95se2nurdm" width="300%" x="-1" y="-1"><feGaussianBlur result="blurOut" stdDeviation="2.0"/><feColorMatrix in="blurOut" result="blurOut2" type="matrix" values="0 0 0 0 0 0 0 0 0 0 0 0 0 0 0 0 0 0 .4 0"/><feOffset dx="4.0" dy="4.0" in="blurOut2" result="blurOut3"/><feBlend in="SourceGraphic" in2="blurOut3" mode="normal"/></filter></defs><g><!--MD5=[2068477c1bcfd126da64998201cd0a11]
class UST_UML--><rect codeLine="1" fill="#FEFECE" filter="url(#f1uo95se2nurdm)" height="48" id="UST_UML" style="stroke:#A80036;stroke-width:1.5;" width="87" x="7" y="7"/><ellipse cx="22" cy="23" fill="#ADD1B2" rx="11" ry="11" style="stroke:#A80036;stroke-width:1.0;"/><path d="M24.3438,18.6719 C23.4063,18.2344 22.8125,18.0938 21.9375,18.0938 C19.3125,18.0938 17.3125,20.1719 17.3125,22.8906 L17.3125,24.0156 C17.3125,26.5938 19.4219,28.4844 22.3125,28.4844 C23.5313,28.4844 24.6875,28.1875 25.4375,27.6406 C26.0156,27.2344 26.3438,26.7813 26.3438,26.3906 C26.3438,25.9375 25.9531,25.5469 25.4844,25.5469 C25.2656,25.5469 25.0625,25.625 24.875,25.8125 C24.4219,26.2969 24.4219,26.2969 24.2344,26.3906 C23.8125,26.6563 23.125,26.7813 22.3594,26.7813 C20.3125,26.7813 19.0156,25.6875 19.0156,23.9844 L19.0156,22.8906 C19.0156,21.1094 20.2656,19.7969 22,19.7969 C22.5781,19.7969 23.1875,19.9531 23.6563,20.2031 C24.1406,20.4844 24.3125,20.7031 24.4063,21.1094 C24.4688,21.5156 24.5,21.6406 24.6406,21.7656 C24.7813,21.9063 25.0156,22.0156 25.2344,22.0156 C25.5,22.0156 25.7656,21.875 25.9375,21.6563 C26.0469,21.5 26.0781,21.3125 26.0781,20.8906 L26.0781,19.4688 C26.0781,19.0313 26.0625,18.9063 25.9688,18.75 C25.8125,18.4844 25.5313,18.3438 25.2344,18.3438 C24.9375,18.3438 24.7344,18.4375 24.5156,18.75 L24.3438,18.6719 Z " fill="#000000"/><text fill="#000000" font-family="sans-serif" font-size="12" lengthAdjust="spacing" textLength="55" x="36" y="27.1543">UST_UML</text><line style="stroke:#A80036;stroke-width:1.5;" x1="8" x2="93" y1="39" y2="39"/><line style="stroke:#A80036;stroke-width:1.5;" x1="8" x2="93" y1="47" y2="47"/><!--MD5=[3fd616f346a44cd59a91eb10b19e157c]
class User--><rect codeLine="2" fill="#FEFECE" filter="url(#f1uo95se2nurdm)" height="48" id="User" style="stroke:#A80036;stroke-width:1.5;" width="61" x="20" y="115"/><ellipse cx="35" cy="131" fill="#ADD1B2" rx="11" ry="11" style="stroke:#A80036;stroke-width:1.0;"/><path d="M37.3438,126.6719 C36.4063,126.2344 35.8125,126.0938 34.9375,126.0938 C32.3125,126.0938 30.3125,128.1719 30.3125,130.8906 L30.3125,132.0156 C30.3125,134.5938 32.4219,136.4844 35.3125,136.4844 C36.5313,136.4844 37.6875,136.1875 38.4375,135.6406 C39.0156,135.2344 39.3438,134.7813 39.3438,134.3906 C39.3438,133.9375 38.9531,133.5469 38.4844,133.5469 C38.2656,133.5469 38.0625,133.625 37.875,133.8125 C37.4219,134.2969 37.4219,134.2969 37.2344,134.3906 C36.8125,134.6563 36.125,134.7813 35.3594,134.7813 C33.3125,134.7813 32.0156,133.6875 32.0156,131.9844 L32.0156,130.8906 C32.0156,129.1094 33.2656,127.7969 35,127.7969 C35.5781,127.7969 36.1875,127.9531 36.6563,128.2031 C37.1406,128.4844 37.3125,128.7031 37.4063,129.1094 C37.4688,129.5156 37.5,129.6406 37.6406,129.7656 C37.7813,129.9063 38.0156,130.0156 38.2344,130.0156 C38.5,130.0156 38.7656,129.875 38.9375,129.6563 C39.0469,129.5 39.0781,129.3125 39.0781,128.8906 L39.0781,127.4688 C39.0781,127.0313 39.0625,126.9063 38.9688,126.75 C38.8125,126.4844 38.5313,126.3438 38.2344,126.3438 C37.9375,126.3438 37.7344,126.4375 37.5156,126.75 L37.3438,126.6719 Z " fill="#000000"/><text fill="#000000" font-family="sans-serif" font-size="12" lengthAdjust="spacing" textLength="29" x="49" y="135.1543">User</text><line style="stroke:#A80036;stroke-width:1.5;" x1="21" x2="80" y1="147" y2="147"/><line style="stroke:#A80036;stroke-width:1.5;" x1="21" x2="80" y1="155" y2="155"/><!--MD5=[79d378210367c0c6ec62ef762ddfbd1b]
class Project--><rect codeLine="3" fill="#FEFECE" filter="url(#f1uo95se2nurdm)" height="48" id="Project" style="stroke:#A80036;stroke-width:1.5;" width="73" x="25" y="331"/><ellipse cx="40" cy="347" fill="#ADD1B2" rx="11" ry="11" style="stroke:#A80036;stroke-width:1.0;"/><path d="M42.3438,342.6719 C41.4063,342.2344 40.8125,342.0938 39.9375,342.0938 C37.3125,342.0938 35.3125,344.1719 35.3125,346.8906 L35.3125,348.0156 C35.3125,350.5938 37.4219,352.4844 40.3125,352.4844 C41.5313,352.4844 42.6875,352.1875 43.4375,351.6406 C44.0156,351.2344 44.3438,350.7813 44.3438,350.3906 C44.3438,349.9375 43.9531,349.5469 43.4844,349.5469 C43.2656,349.5469 43.0625,349.625 42.875,349.8125 C42.4219,350.2969 42.4219,350.2969 42.2344,350.3906 C41.8125,350.6563 41.125,350.7813 40.3594,350.7813 C38.3125,350.7813 37.0156,349.6875 37.0156,347.9844 L37.0156,346.8906 C37.0156,345.1094 38.2656,343.7969 40,343.7969 C40.5781,343.7969 41.1875,343.9531 41.6563,344.2031 C42.1406,344.4844 42.3125,344.7031 42.4063,345.1094 C42.4688,345.5156 42.5,345.6406 42.6406,345.7656 C42.7813,345.9063 43.0156,346.0156 43.2344,346.0156 C43.5,346.0156 43.7656,345.875 43.9375,345.6563 C44.0469,345.5 44.0781,345.3125 44.0781,344.8906 L44.0781,343.4688 C44.0781,343.0313 44.0625,342.9063 43.9688,342.75 C43.8125,342.4844 43.5313,342.3438 43.2344,342.3438 C42.9375,342.3438 42.7344,342.4375 42.5156,342.75 L42.3438,342.6719 Z " fill="#000000"/><text fill="#000000" font-family="sans-serif" font-size="12" lengthAdjust="spacing" textLength="41" x="54" y="351.1543">Project</text><line style="stroke:#A80036;stroke-width:1.5;" x1="26" x2="97" y1="363" y2="363"/><line style="stroke:#A80036;stroke-width:1.5;" x1="26" x2="97" y1="371" y2="371"/><!--MD5=[b4bc4c4995d85ff340c5dfb9b55d4a45]
class Visbility--><rect codeLine="4" fill="#FEFECE" filter="url(#f1uo95se2nurdm)" height="48" id="Visbility" style="stroke:#A80036;stroke-width:1.5;" width="78" x="22.5" y="439"/><ellipse cx="37.5" cy="455" fill="#ADD1B2" rx="11" ry="11" style="stroke:#A80036;stroke-width:1.0;"/><path d="M39.8438,450.6719 C38.9063,450.2344 38.3125,450.0938 37.4375,450.0938 C34.8125,450.0938 32.8125,452.1719 32.8125,454.8906 L32.8125,456.0156 C32.8125,458.5938 34.9219,460.4844 37.8125,460.4844 C39.0313,460.4844 40.1875,460.1875 40.9375,459.6406 C41.5156,459.2344 41.8438,458.7813 41.8438,458.3906 C41.8438,457.9375 41.4531,457.5469 40.9844,457.5469 C40.7656,457.5469 40.5625,457.625 40.375,457.8125 C39.9219,458.2969 39.9219,458.2969 39.7344,458.3906 C39.3125,458.6563 38.625,458.7813 37.8594,458.7813 C35.8125,458.7813 34.5156,457.6875 34.5156,455.9844 L34.5156,454.8906 C34.5156,453.1094 35.7656,451.7969 37.5,451.7969 C38.0781,451.7969 38.6875,451.9531 39.1563,452.2031 C39.6406,452.4844 39.8125,452.7031 39.9063,453.1094 C39.9688,453.5156 40,453.6406 40.1406,453.7656 C40.2813,453.9063 40.5156,454.0156 40.7344,454.0156 C41,454.0156 41.2656,453.875 41.4375,453.6563 C41.5469,453.5 41.5781,453.3125 41.5781,452.8906 L41.5781,451.4688 C41.5781,451.0313 41.5625,450.9063 41.4688,450.75 C41.3125,450.4844 41.0313,450.3438 40.7344,450.3438 C40.4375,450.3438 40.2344,450.4375 40.0156,450.75 L39.8438,450.6719 Z " fill="#000000"/><text fill="#000000" font-family="sans-serif" font-size="12" lengthAdjust="spacing" textLength="46" x="51.5" y="459.1543">Visbility</text><line style="stroke:#A80036;stroke-width:1.5;" x1="23.5" x2="99.5" y1="471" y2="471"/><line style="stroke:#A80036;stroke-width:1.5;" x1="23.5" x2="99.5" y1="479" y2="479"/><!--MD5=[4e2ad48a1abc117fdc6f339da0f64213]
class Package--><rect codeLine="5" fill="#FEFECE" filter="url(#f1uo95se2nurdm)" height="48" id="Package" style="stroke:#A80036;stroke-width:1.5;" width="82" x="206.5" y="223"/><ellipse cx="221.5" cy="239" fill="#ADD1B2" rx="11" ry="11" style="stroke:#A80036;stroke-width:1.0;"/><path d="M223.8438,234.6719 C222.9063,234.2344 222.3125,234.0938 221.4375,234.0938 C218.8125,234.0938 216.8125,236.1719 216.8125,238.8906 L216.8125,240.0156 C216.8125,242.5938 218.9219,244.4844 221.8125,244.4844 C223.0313,244.4844 224.1875,244.1875 224.9375,243.6406 C225.5156,243.2344 225.8438,242.7813 225.8438,242.3906 C225.8438,241.9375 225.4531,241.5469 224.9844,241.5469 C224.7656,241.5469 224.5625,241.625 224.375,241.8125 C223.9219,242.2969 223.9219,242.2969 223.7344,242.3906 C223.3125,242.6563 222.625,242.7813 221.8594,242.7813 C219.8125,242.7813 218.5156,241.6875 218.5156,239.9844 L218.5156,238.8906 C218.5156,237.1094 219.7656,235.7969 221.5,235.7969 C222.0781,235.7969 222.6875,235.9531 223.1563,236.2031 C223.6406,236.4844 223.8125,236.7031 223.9063,237.1094 C223.9688,237.5156 224,237.6406 224.1406,237.7656 C224.2813,237.9063 224.5156,238.0156 224.7344,238.0156 C225,238.0156 225.2656,237.875 225.4375,237.6563 C225.5469,237.5 225.5781,237.3125 225.5781,236.8906 L225.5781,235.4688 C225.5781,235.0313 225.5625,234.9063 225.4688,234.75 C225.3125,234.4844 225.0313,234.3438 224.7344,234.3438 C224.4375,234.3438 224.2344,234.4375 224.0156,234.75 L223.8438,234.6719 Z " fill="#000000"/><text fill="#000000" font-family="sans-serif" font-size="12" lengthAdjust="spacing" textLength="50" x="235.5" y="243.1543">Package</text><line style="stroke:#A80036;stroke-width:1.5;" x1="207.5" x2="287.5" y1="255" y2="255"/><line style="stroke:#A80036;stroke-width:1.5;" x1="207.5" x2="287.5" y1="263" y2="263"/><!--MD5=[f58fd777f29c17413488bea9e7cfcca3]
class Member--><rect codeLine="6" fill="#FEFECE" filter="url(#f1uo95se2nurdm)" height="48" id="Member" style="stroke:#A80036;stroke-width:1.5;" width="81" x="634" y="115"/><ellipse cx="649" cy="131" fill="#A9DCDF" rx="11" ry="11" style="stroke:#A80036;stroke-width:1.0;"/><path d="M651.0781,132.8125 L651.4688,133.7969 L651.0781,133.7969 C650.625,133.7969 650.5156,133.8125 650.3594,133.9219 C650.1094,134.0781 649.9531,134.3594 649.9531,134.6563 C649.9531,134.9219 650.0938,135.1719 650.3125,135.3281 C650.4531,135.4531 650.6563,135.5 651.0781,135.5 L653.4375,135.5 C653.7969,135.5 654.0156,135.4688 654.1563,135.375 C654.4063,135.2344 654.5625,134.9375 654.5625,134.6563 C654.5625,134.375 654.4219,134.125 654.2031,133.9688 C654.0313,133.8281 653.875,133.7969 653.4063,133.7969 L650.0156,125.5938 L646.3438,125.5938 C645.8906,125.5938 645.7656,125.6094 645.6094,125.7031 C645.3594,125.875 645.2031,126.1563 645.2031,126.4375 C645.2031,126.7188 645.3438,126.9688 645.5625,127.1406 C645.7344,127.25 645.9063,127.2813 646.3438,127.2813 L647.4219,127.2813 L644.7813,133.7969 C644.3594,133.7969 644.2031,133.8125 644.0469,133.9219 C643.7969,134.0781 643.6406,134.3594 643.6406,134.6563 C643.6406,135.2188 644.0156,135.5 644.7656,135.5 L647.0313,135.5 C647.3906,135.5 647.6094,135.4688 647.7344,135.375 C648,135.2344 648.1406,134.9375 648.1406,134.6563 C648.1406,134.375 648.0156,134.125 647.7969,133.9531 C647.625,133.8281 647.4844,133.7969 647.0313,133.7969 L646.6406,133.7969 L647.0313,132.8125 L651.0781,132.8125 Z M650.375,131.1094 L647.7031,131.1094 L649.0469,127.8438 L650.375,131.1094 Z " fill="#000000"/><text fill="#000000" font-family="sans-serif" font-size="12" font-style="italic" lengthAdjust="spacing" textLength="49" x="663" y="135.1543">Member</text><line style="stroke:#A80036;stroke-width:1.5;" x1="635" x2="714" y1="147" y2="147"/><line style="stroke:#A80036;stroke-width:1.5;" x1="635" x2="714" y1="155" y2="155"/><!--MD5=[41e1c6cf192918703501b24b2053926c]
class Class--><rect codeLine="7" fill="#FEFECE" filter="url(#f1uo95se2nurdm)" height="48" id="Class" style="stroke:#A80036;stroke-width:1.5;" width="64" x="323.5" y="223"/><ellipse cx="338.5" cy="239" fill="#ADD1B2" rx="11" ry="11" style="stroke:#A80036;stroke-width:1.0;"/><path d="M340.8438,234.6719 C339.9063,234.2344 339.3125,234.0938 338.4375,234.0938 C335.8125,234.0938 333.8125,236.1719 333.8125,238.8906 L333.8125,240.0156 C333.8125,242.5938 335.9219,244.4844 338.8125,244.4844 C340.0313,244.4844 341.1875,244.1875 341.9375,243.6406 C342.5156,243.2344 342.8438,242.7813 342.8438,242.3906 C342.8438,241.9375 342.4531,241.5469 341.9844,241.5469 C341.7656,241.5469 341.5625,241.625 341.375,241.8125 C340.9219,242.2969 340.9219,242.2969 340.7344,242.3906 C340.3125,242.6563 339.625,242.7813 338.8594,242.7813 C336.8125,242.7813 335.5156,241.6875 335.5156,239.9844 L335.5156,238.8906 C335.5156,237.1094 336.7656,235.7969 338.5,235.7969 C339.0781,235.7969 339.6875,235.9531 340.1563,236.2031 C340.6406,236.4844 340.8125,236.7031 340.9063,237.1094 C340.9688,237.5156 341,237.6406 341.1406,237.7656 C341.2813,237.9063 341.5156,238.0156 341.7344,238.0156 C342,238.0156 342.2656,237.875 342.4375,237.6563 C342.5469,237.5 342.5781,237.3125 342.5781,236.8906 L342.5781,235.4688 C342.5781,235.0313 342.5625,234.9063 342.4688,234.75 C342.3125,234.4844 342.0313,234.3438 341.7344,234.3438 C341.4375,234.3438 341.2344,234.4375 341.0156,234.75 L340.8438,234.6719 Z " fill="#000000"/><text fill="#000000" font-family="sans-serif" font-size="12" lengthAdjust="spacing" textLength="32" x="352.5" y="243.1543">Class</text><line style="stroke:#A80036;stroke-width:1.5;" x1="324.5" x2="386.5" y1="255" y2="255"/><line style="stroke:#A80036;stroke-width:1.5;" x1="324.5" x2="386.5" y1="263" y2="263"/><!--MD5=[44201db48fb57df1a9c7f5b6b15426b0]
class Actor--><rect codeLine="8" fill="#FEFECE" filter="url(#f1uo95se2nurdm)" height="48" id="Actor" style="stroke:#A80036;stroke-width:1.5;" width="64" x="422.5" y="223"/><ellipse cx="437.5" cy="239" fill="#ADD1B2" rx="11" ry="11" style="stroke:#A80036;stroke-width:1.0;"/><path d="M439.8438,234.6719 C438.9063,234.2344 438.3125,234.0938 437.4375,234.0938 C434.8125,234.0938 432.8125,236.1719 432.8125,238.8906 L432.8125,240.0156 C432.8125,242.5938 434.9219,244.4844 437.8125,244.4844 C439.0313,244.4844 440.1875,244.1875 440.9375,243.6406 C441.5156,243.2344 441.8438,242.7813 441.8438,242.3906 C441.8438,241.9375 441.4531,241.5469 440.9844,241.5469 C440.7656,241.5469 440.5625,241.625 440.375,241.8125 C439.9219,242.2969 439.9219,242.2969 439.7344,242.3906 C439.3125,242.6563 438.625,242.7813 437.8594,242.7813 C435.8125,242.7813 434.5156,241.6875 434.5156,239.9844 L434.5156,238.8906 C434.5156,237.1094 435.7656,235.7969 437.5,235.7969 C438.0781,235.7969 438.6875,235.9531 439.1563,236.2031 C439.6406,236.4844 439.8125,236.7031 439.9063,237.1094 C439.9688,237.5156 440,237.6406 440.1406,237.7656 C440.2813,237.9063 440.5156,238.0156 440.7344,238.0156 C441,238.0156 441.2656,237.875 441.4375,237.6563 C441.5469,237.5 441.5781,237.3125 441.5781,236.8906 L441.5781,235.4688 C441.5781,235.0313 441.5625,234.9063 441.4688,234.75 C441.3125,234.4844 441.0313,234.3438 440.7344,234.3438 C440.4375,234.3438 440.2344,234.4375 440.0156,234.75 L439.8438,234.6719 Z " fill="#000000"/><text fill="#000000" font-family="sans-serif" font-size="12" lengthAdjust="spacing" textLength="32" x="451.5" y="243.1543">Actor</text><line style="stroke:#A80036;stroke-width:1.5;" x1="423.5" x2="485.5" y1="255" y2="255"/><line style="stroke:#A80036;stroke-width:1.5;" x1="423.5" x2="485.5" y1="263" y2="263"/><!--MD5=[bfd2418b046a7d4e4bea09e7ac87d703]
class UseCase--><rect codeLine="9" fill="#FEFECE" filter="url(#f1uo95se2nurdm)" height="48" id="UseCase" style="stroke:#A80036;stroke-width:1.5;" width="86" x="521.5" y="223"/><ellipse cx="536.5" cy="239" fill="#ADD1B2" rx="11" ry="11" style="stroke:#A80036;stroke-width:1.0;"/><path d="M538.8438,234.6719 C537.9063,234.2344 537.3125,234.0938 536.4375,234.0938 C533.8125,234.0938 531.8125,236.1719 531.8125,238.8906 L531.8125,240.0156 C531.8125,242.5938 533.9219,244.4844 536.8125,244.4844 C538.0313,244.4844 539.1875,244.1875 539.9375,243.6406 C540.5156,243.2344 540.8438,242.7813 540.8438,242.3906 C540.8438,241.9375 540.4531,241.5469 539.9844,241.5469 C539.7656,241.5469 539.5625,241.625 539.375,241.8125 C538.9219,242.2969 538.9219,242.2969 538.7344,242.3906 C538.3125,242.6563 537.625,242.7813 536.8594,242.7813 C534.8125,242.7813 533.5156,241.6875 533.5156,239.9844 L533.5156,238.8906 C533.5156,237.1094 534.7656,235.7969 536.5,235.7969 C537.0781,235.7969 537.6875,235.9531 538.1563,236.2031 C538.6406,236.4844 538.8125,236.7031 538.9063,237.1094 C538.9688,237.5156 539,237.6406 539.1406,237.7656 C539.2813,237.9063 539.5156,238.0156 539.7344,238.0156 C540,238.0156 540.2656,237.875 540.4375,237.6563 C540.5469,237.5 540.5781,237.3125 540.5781,236.8906 L540.5781,235.4688 C540.5781,235.0313 540.5625,234.9063 540.4688,234.75 C540.3125,234.4844 540.0313,234.3438 539.7344,234.3438 C539.4375,234.3438 539.2344,234.4375 539.0156,234.75 L538.8438,234.6719 Z " fill="#000000"/><text fill="#000000" font-family="sans-serif" font-size="12" lengthAdjust="spacing" textLength="54" x="550.5" y="243.1543">UseCase</text><line style="stroke:#A80036;stroke-width:1.5;" x1="522.5" x2="606.5" y1="255" y2="255"/><line style="stroke:#A80036;stroke-width:1.5;" x1="522.5" x2="606.5" y1="263" y2="263"/><!--MD5=[60d6b92408f98aed8df94d5c6e04aa63]
class State--><rect codeLine="10" fill="#FEFECE" filter="url(#f1uo95se2nurdm)" height="48" id="State" style="stroke:#A80036;stroke-width:1.5;" width="63" x="643" y="223"/><ellipse cx="658" cy="239" fill="#ADD1B2" rx="11" ry="11" style="stroke:#A80036;stroke-width:1.0;"/><path d="M660.3438,234.6719 C659.4063,234.2344 658.8125,234.0938 657.9375,234.0938 C655.3125,234.0938 653.3125,236.1719 653.3125,238.8906 L653.3125,240.0156 C653.3125,242.5938 655.4219,244.4844 658.3125,244.4844 C659.5313,244.4844 660.6875,244.1875 661.4375,243.6406 C662.0156,243.2344 662.3438,242.7813 662.3438,242.3906 C662.3438,241.9375 661.9531,241.5469 661.4844,241.5469 C661.2656,241.5469 661.0625,241.625 660.875,241.8125 C660.4219,242.2969 660.4219,242.2969 660.2344,242.3906 C659.8125,242.6563 659.125,242.7813 658.3594,242.7813 C656.3125,242.7813 655.0156,241.6875 655.0156,239.9844 L655.0156,238.8906 C655.0156,237.1094 656.2656,235.7969 658,235.7969 C658.5781,235.7969 659.1875,235.9531 659.6563,236.2031 C660.1406,236.4844 660.3125,236.7031 660.4063,237.1094 C660.4688,237.5156 660.5,237.6406 660.6406,237.7656 C660.7813,237.9063 661.0156,238.0156 661.2344,238.0156 C661.5,238.0156 661.7656,237.875 661.9375,237.6563 C662.0469,237.5 662.0781,237.3125 662.0781,236.8906 L662.0781,235.4688 C662.0781,235.0313 662.0625,234.9063 661.9688,234.75 C661.8125,234.4844 661.5313,234.3438 661.2344,234.3438 C660.9375,234.3438 660.7344,234.4375 660.5156,234.75 L660.3438,234.6719 Z " fill="#000000"/><text fill="#000000" font-family="sans-serif" font-size="12" lengthAdjust="spacing" textLength="31" x="672" y="243.1543">State</text><line style="stroke:#A80036;stroke-width:1.5;" x1="644" x2="705" y1="255" y2="255"/><line style="stroke:#A80036;stroke-width:1.5;" x1="644" x2="705" y1="263" y2="263"/><!--MD5=[aa7f586532e18719e6cefa70fc650583]
class Object--><rect codeLine="11" fill="#FEFECE" filter="url(#f1uo95se2nurdm)" height="48" id="Object" style="stroke:#A80036;stroke-width:1.5;" width="72" x="741.5" y="223"/><ellipse cx="756.5" cy="239" fill="#ADD1B2" rx="11" ry="11" style="stroke:#A80036;stroke-width:1.0;"/><path d="M758.8438,234.6719 C757.9063,234.2344 757.3125,234.0938 756.4375,234.0938 C753.8125,234.0938 751.8125,236.1719 751.8125,238.8906 L751.8125,240.0156 C751.8125,242.5938 753.9219,244.4844 756.8125,244.4844 C758.0313,244.4844 759.1875,244.1875 759.9375,243.6406 C760.5156,243.2344 760.8438,242.7813 760.8438,242.3906 C760.8438,241.9375 760.4531,241.5469 759.9844,241.5469 C759.7656,241.5469 759.5625,241.625 759.375,241.8125 C758.9219,242.2969 758.9219,242.2969 758.7344,242.3906 C758.3125,242.6563 757.625,242.7813 756.8594,242.7813 C754.8125,242.7813 753.5156,241.6875 753.5156,239.9844 L753.5156,238.8906 C753.5156,237.1094 754.7656,235.7969 756.5,235.7969 C757.0781,235.7969 757.6875,235.9531 758.1563,236.2031 C758.6406,236.4844 758.8125,236.7031 758.9063,237.1094 C758.9688,237.5156 759,237.6406 759.1406,237.7656 C759.2813,237.9063 759.5156,238.0156 759.7344,238.0156 C760,238.0156 760.2656,237.875 760.4375,237.6563 C760.5469,237.5 760.5781,237.3125 760.5781,236.8906 L760.5781,235.4688 C760.5781,235.0313 760.5625,234.9063 760.4688,234.75 C760.3125,234.4844 760.0313,234.3438 759.7344,234.3438 C759.4375,234.3438 759.2344,234.4375 759.0156,234.75 L758.8438,234.6719 Z " fill="#000000"/><text fill="#000000" font-family="sans-serif" font-size="12" lengthAdjust="spacing" textLength="40" x="770.5" y="243.1543">Object</text><line style="stroke:#A80036;stroke-width:1.5;" x1="742.5" x2="812.5" y1="255" y2="255"/><line style="stroke:#A80036;stroke-width:1.5;" x1="742.5" x2="812.5" y1="263" y2="263"/><!--MD5=[4e13963c9dc916a21a8436ef39422b32]
class Component--><rect codeLine="12" fill="#FEFECE" filter="url(#f1uo95se2nurdm)" height="48" id="Component" style="stroke:#A80036;stroke-width:1.5;" width="101" x="849" y="223"/><ellipse cx="864" cy="239" fill="#ADD1B2" rx="11" ry="11" style="stroke:#A80036;stroke-width:1.0;"/><path d="M866.3438,234.6719 C865.4063,234.2344 864.8125,234.0938 863.9375,234.0938 C861.3125,234.0938 859.3125,236.1719 859.3125,238.8906 L859.3125,240.0156 C859.3125,242.5938 861.4219,244.4844 864.3125,244.4844 C865.5313,244.4844 866.6875,244.1875 867.4375,243.6406 C868.0156,243.2344 868.3438,242.7813 868.3438,242.3906 C868.3438,241.9375 867.9531,241.5469 867.4844,241.5469 C867.2656,241.5469 867.0625,241.625 866.875,241.8125 C866.4219,242.2969 866.4219,242.2969 866.2344,242.3906 C865.8125,242.6563 865.125,242.7813 864.3594,242.7813 C862.3125,242.7813 861.0156,241.6875 861.0156,239.9844 L861.0156,238.8906 C861.0156,237.1094 862.2656,235.7969 864,235.7969 C864.5781,235.7969 865.1875,235.9531 865.6563,236.2031 C866.1406,236.4844 866.3125,236.7031 866.4063,237.1094 C866.4688,237.5156 866.5,237.6406 866.6406,237.7656 C866.7813,237.9063 867.0156,238.0156 867.2344,238.0156 C867.5,238.0156 867.7656,237.875 867.9375,237.6563 C868.0469,237.5 868.0781,237.3125 868.0781,236.8906 L868.0781,235.4688 C868.0781,235.0313 868.0625,234.9063 867.9688,234.75 C867.8125,234.4844 867.5313,234.3438 867.2344,234.3438 C866.9375,234.3438 866.7344,234.4375 866.5156,234.75 L866.3438,234.6719 Z " fill="#000000"/><text fill="#000000" font-family="sans-serif" font-size="12" lengthAdjust="spacing" textLength="69" x="878" y="243.1543">Component</text><line style="stroke:#A80036;stroke-width:1.5;" x1="850" x2="949" y1="255" y2="255"/><line style="stroke:#A80036;stroke-width:1.5;" x1="850" x2="949" y1="263" y2="263"/><!--MD5=[3fee75583bb7a64f68d843a3c9534ab3]
class Node--><rect codeLine="13" fill="#FEFECE" filter="url(#f1uo95se2nurdm)" height="48" id="Node" style="stroke:#A80036;stroke-width:1.5;" width="64" x="985.5" y="223"/><ellipse cx="1000.5" cy="239" fill="#ADD1B2" rx="11" ry="11" style="stroke:#A80036;stroke-width:1.0;"/><path d="M1002.8438,234.6719 C1001.9063,234.2344 1001.3125,234.0938 1000.4375,234.0938 C997.8125,234.0938 995.8125,236.1719 995.8125,238.8906 L995.8125,240.0156 C995.8125,242.5938 997.9219,244.4844 1000.8125,244.4844 C1002.0313,244.4844 1003.1875,244.1875 1003.9375,243.6406 C1004.5156,243.2344 1004.8438,242.7813 1004.8438,242.3906 C1004.8438,241.9375 1004.4531,241.5469 1003.9844,241.5469 C1003.7656,241.5469 1003.5625,241.625 1003.375,241.8125 C1002.9219,242.2969 1002.9219,242.2969 1002.7344,242.3906 C1002.3125,242.6563 1001.625,242.7813 1000.8594,242.7813 C998.8125,242.7813 997.5156,241.6875 997.5156,239.9844 L997.5156,238.8906 C997.5156,237.1094 998.7656,235.7969 1000.5,235.7969 C1001.0781,235.7969 1001.6875,235.9531 1002.1563,236.2031 C1002.6406,236.4844 1002.8125,236.7031 1002.9063,237.1094 C1002.9688,237.5156 1003,237.6406 1003.1406,237.7656 C1003.2813,237.9063 1003.5156,238.0156 1003.7344,238.0156 C1004,238.0156 1004.2656,237.875 1004.4375,237.6563 C1004.5469,237.5 1004.5781,237.3125 1004.5781,236.8906 L1004.5781,235.4688 C1004.5781,235.0313 1004.5625,234.9063 1004.4688,234.75 C1004.3125,234.4844 1004.0313,234.3438 1003.7344,234.3438 C1003.4375,234.3438 1003.2344,234.4375 1003.0156,234.75 L1002.8438,234.6719 Z " fill="#000000"/><text fill="#000000" font-family="sans-serif" font-size="12" lengthAdjust="spacing" textLength="32" x="1014.5" y="243.1543">Node</text><line style="stroke:#A80036;stroke-width:1.5;" x1="986.5" x2="1048.5" y1="255" y2="255"/><line style="stroke:#A80036;stroke-width:1.5;" x1="986.5" x2="1048.5" y1="263" y2="263"/><!--MD5=[c881b25adf3665c6568c9693d41a70f3]
class Activity--><rect codeLine="14" fill="#FEFECE" filter="url(#f1uo95se2nurdm)" height="48" id="Activity" style="stroke:#A80036;stroke-width:1.5;" width="75" x="1085" y="223"/><ellipse cx="1100" cy="239" fill="#ADD1B2" rx="11" ry="11" style="stroke:#A80036;stroke-width:1.0;"/><path d="M1102.3438,234.6719 C1101.4063,234.2344 1100.8125,234.0938 1099.9375,234.0938 C1097.3125,234.0938 1095.3125,236.1719 1095.3125,238.8906 L1095.3125,240.0156 C1095.3125,242.5938 1097.4219,244.4844 1100.3125,244.4844 C1101.5313,244.4844 1102.6875,244.1875 1103.4375,243.6406 C1104.0156,243.2344 1104.3438,242.7813 1104.3438,242.3906 C1104.3438,241.9375 1103.9531,241.5469 1103.4844,241.5469 C1103.2656,241.5469 1103.0625,241.625 1102.875,241.8125 C1102.4219,242.2969 1102.4219,242.2969 1102.2344,242.3906 C1101.8125,242.6563 1101.125,242.7813 1100.3594,242.7813 C1098.3125,242.7813 1097.0156,241.6875 1097.0156,239.9844 L1097.0156,238.8906 C1097.0156,237.1094 1098.2656,235.7969 1100,235.7969 C1100.5781,235.7969 1101.1875,235.9531 1101.6563,236.2031 C1102.1406,236.4844 1102.3125,236.7031 1102.4063,237.1094 C1102.4688,237.5156 1102.5,237.6406 1102.6406,237.7656 C1102.7813,237.9063 1103.0156,238.0156 1103.2344,238.0156 C1103.5,238.0156 1103.7656,237.875 1103.9375,237.6563 C1104.0469,237.5 1104.0781,237.3125 1104.0781,236.8906 L1104.0781,235.4688 C1104.0781,235.0313 1104.0625,234.9063 1103.9688,234.75 C1103.8125,234.4844 1103.5313,234.3438 1103.2344,234.3438 C1102.9375,234.3438 1102.7344,234.4375 1102.5156,234.75 L1102.3438,234.6719 Z " fill="#000000"/><text fill="#000000" font-family="sans-serif" font-size="12" lengthAdjust="spacing" textLength="43" x="1114" y="243.1543">Activity</text><line style="stroke:#A80036;stroke-width:1.5;" x1="1086" x2="1159" y1="255" y2="255"/><line style="stroke:#A80036;stroke-width:1.5;" x1="1086" x2="1159" y1="263" y2="263"/><!--MD5=[4298d0dcfa55ecd56071adba7add2166]
class Enum--><rect codeLine="15" fill="#FEFECE" filter="url(#f1uo95se2nurdm)" height="48" id="Enum" style="stroke:#A80036;stroke-width:1.5;" width="64" x="168.5" y="331"/><ellipse cx="183.5" cy="347" fill="#ADD1B2" rx="11" ry="11" style="stroke:#A80036;stroke-width:1.0;"/><path d="M185.8438,342.6719 C184.9063,342.2344 184.3125,342.0938 183.4375,342.0938 C180.8125,342.0938 178.8125,344.1719 178.8125,346.8906 L178.8125,348.0156 C178.8125,350.5938 180.9219,352.4844 183.8125,352.4844 C185.0313,352.4844 186.1875,352.1875 186.9375,351.6406 C187.5156,351.2344 187.8438,350.7813 187.8438,350.3906 C187.8438,349.9375 187.4531,349.5469 186.9844,349.5469 C186.7656,349.5469 186.5625,349.625 186.375,349.8125 C185.9219,350.2969 185.9219,350.2969 185.7344,350.3906 C185.3125,350.6563 184.625,350.7813 183.8594,350.7813 C181.8125,350.7813 180.5156,349.6875 180.5156,347.9844 L180.5156,346.8906 C180.5156,345.1094 181.7656,343.7969 183.5,343.7969 C184.0781,343.7969 184.6875,343.9531 185.1563,344.2031 C185.6406,344.4844 185.8125,344.7031 185.9063,345.1094 C185.9688,345.5156 186,345.6406 186.1406,345.7656 C186.2813,345.9063 186.5156,346.0156 186.7344,346.0156 C187,346.0156 187.2656,345.875 187.4375,345.6563 C187.5469,345.5 187.5781,345.3125 187.5781,344.8906 L187.5781,343.4688 C187.5781,343.0313 187.5625,342.9063 187.4688,342.75 C187.3125,342.4844 187.0313,342.3438 186.7344,342.3438 C186.4375,342.3438 186.2344,342.4375 186.0156,342.75 L185.8438,342.6719 Z " fill="#000000"/><text fill="#000000" font-family="sans-serif" font-size="12" lengthAdjust="spacing" textLength="32" x="197.5" y="351.1543">Enum</text><line style="stroke:#A80036;stroke-width:1.5;" x1="169.5" x2="231.5" y1="363" y2="363"/><line style="stroke:#A80036;stroke-width:1.5;" x1="169.5" x2="231.5" y1="371" y2="371"/><!--MD5=[713bb781b1b579324fb36ad0db6385cf]
class Interface--><rect codeLine="16" fill="#FEFECE" filter="url(#f1uo95se2nurdm)" height="48" id="Interface" style="stroke:#A80036;stroke-width:1.5;" width="85" x="268" y="331"/><ellipse cx="283" cy="347" fill="#ADD1B2" rx="11" ry="11" style="stroke:#A80036;stroke-width:1.0;"/><path d="M285.3438,342.6719 C284.4063,342.2344 283.8125,342.0938 282.9375,342.0938 C280.3125,342.0938 278.3125,344.1719 278.3125,346.8906 L278.3125,348.0156 C278.3125,350.5938 280.4219,352.4844 283.3125,352.4844 C284.5313,352.4844 285.6875,352.1875 286.4375,351.6406 C287.0156,351.2344 287.3438,350.7813 287.3438,350.3906 C287.3438,349.9375 286.9531,349.5469 286.4844,349.5469 C286.2656,349.5469 286.0625,349.625 285.875,349.8125 C285.4219,350.2969 285.4219,350.2969 285.2344,350.3906 C284.8125,350.6563 284.125,350.7813 283.3594,350.7813 C281.3125,350.7813 280.0156,349.6875 280.0156,347.9844 L280.0156,346.8906 C280.0156,345.1094 281.2656,343.7969 283,343.7969 C283.5781,343.7969 284.1875,343.9531 284.6563,344.2031 C285.1406,344.4844 285.3125,344.7031 285.4063,345.1094 C285.4688,345.5156 285.5,345.6406 285.6406,345.7656 C285.7813,345.9063 286.0156,346.0156 286.2344,346.0156 C286.5,346.0156 286.7656,345.875 286.9375,345.6563 C287.0469,345.5 287.0781,345.3125 287.0781,344.8906 L287.0781,343.4688 C287.0781,343.0313 287.0625,342.9063 286.9688,342.75 C286.8125,342.4844 286.5313,342.3438 286.2344,342.3438 C285.9375,342.3438 285.7344,342.4375 285.5156,342.75 L285.3438,342.6719 Z " fill="#000000"/><text fill="#000000" font-family="sans-serif" font-size="12" lengthAdjust="spacing" textLength="53" x="297" y="351.1543">Interface</text><line style="stroke:#A80036;stroke-width:1.5;" x1="269" x2="352" y1="363" y2="363"/><line style="stroke:#A80036;stroke-width:1.5;" x1="269" x2="352" y1="371" y2="371"/><!--MD5=[af22135d5be6ed11ccd2d02fa51653b3]
class Definition--><rect codeLine="17" fill="#FEFECE" filter="url(#f1uo95se2nurdm)" height="48" id="Definition" style="stroke:#A80036;stroke-width:1.5;" width="88" x="388.5" y="331"/><ellipse cx="403.5" cy="347" fill="#ADD1B2" rx="11" ry="11" style="stroke:#A80036;stroke-width:1.0;"/><path d="M405.8438,342.6719 C404.9063,342.2344 404.3125,342.0938 403.4375,342.0938 C400.8125,342.0938 398.8125,344.1719 398.8125,346.8906 L398.8125,348.0156 C398.8125,350.5938 400.9219,352.4844 403.8125,352.4844 C405.0313,352.4844 406.1875,352.1875 406.9375,351.6406 C407.5156,351.2344 407.8438,350.7813 407.8438,350.3906 C407.8438,349.9375 407.4531,349.5469 406.9844,349.5469 C406.7656,349.5469 406.5625,349.625 406.375,349.8125 C405.9219,350.2969 405.9219,350.2969 405.7344,350.3906 C405.3125,350.6563 404.625,350.7813 403.8594,350.7813 C401.8125,350.7813 400.5156,349.6875 400.5156,347.9844 L400.5156,346.8906 C400.5156,345.1094 401.7656,343.7969 403.5,343.7969 C404.0781,343.7969 404.6875,343.9531 405.1563,344.2031 C405.6406,344.4844 405.8125,344.7031 405.9063,345.1094 C405.9688,345.5156 406,345.6406 406.1406,345.7656 C406.2813,345.9063 406.5156,346.0156 406.7344,346.0156 C407,346.0156 407.2656,345.875 407.4375,345.6563 C407.5469,345.5 407.5781,345.3125 407.5781,344.8906 L407.5781,343.4688 C407.5781,343.0313 407.5625,342.9063 407.4688,342.75 C407.3125,342.4844 407.0313,342.3438 406.7344,342.3438 C406.4375,342.3438 406.2344,342.4375 406.0156,342.75 L405.8438,342.6719 Z " fill="#000000"/><text fill="#000000" font-family="sans-serif" font-size="12" lengthAdjust="spacing" textLength="56" x="417.5" y="351.1543">Definition</text><line style="stroke:#A80036;stroke-width:1.5;" x1="389.5" x2="475.5" y1="363" y2="363"/><line style="stroke:#A80036;stroke-width:1.5;" x1="389.5" x2="475.5" y1="371" y2="371"/><!--MD5=[787494ff879e99315e413996e631a796]
class Attribute--><rect codeLine="18" fill="#FEFECE" filter="url(#f1uo95se2nurdm)" height="48" id="Attribute" style="stroke:#A80036;stroke-width:1.5;" width="83" x="148" y="439"/><ellipse cx="163" cy="455" fill="#ADD1B2" rx="11" ry="11" style="stroke:#A80036;stroke-width:1.0;"/><path d="M165.3438,450.6719 C164.4063,450.2344 163.8125,450.0938 162.9375,450.0938 C160.3125,450.0938 158.3125,452.1719 158.3125,454.8906 L158.3125,456.0156 C158.3125,458.5938 160.4219,460.4844 163.3125,460.4844 C164.5313,460.4844 165.6875,460.1875 166.4375,459.6406 C167.0156,459.2344 167.3438,458.7813 167.3438,458.3906 C167.3438,457.9375 166.9531,457.5469 166.4844,457.5469 C166.2656,457.5469 166.0625,457.625 165.875,457.8125 C165.4219,458.2969 165.4219,458.2969 165.2344,458.3906 C164.8125,458.6563 164.125,458.7813 163.3594,458.7813 C161.3125,458.7813 160.0156,457.6875 160.0156,455.9844 L160.0156,454.8906 C160.0156,453.1094 161.2656,451.7969 163,451.7969 C163.5781,451.7969 164.1875,451.9531 164.6563,452.2031 C165.1406,452.4844 165.3125,452.7031 165.4063,453.1094 C165.4688,453.5156 165.5,453.6406 165.6406,453.7656 C165.7813,453.9063 166.0156,454.0156 166.2344,454.0156 C166.5,454.0156 166.7656,453.875 166.9375,453.6563 C167.0469,453.5 167.0781,453.3125 167.0781,452.8906 L167.0781,451.4688 C167.0781,451.0313 167.0625,450.9063 166.9688,450.75 C166.8125,450.4844 166.5313,450.3438 166.2344,450.3438 C165.9375,450.3438 165.7344,450.4375 165.5156,450.75 L165.3438,450.6719 Z " fill="#000000"/><text fill="#000000" font-family="sans-serif" font-size="12" lengthAdjust="spacing" textLength="51" x="177" y="459.1543">Attribute</text><line style="stroke:#A80036;stroke-width:1.5;" x1="149" x2="230" y1="471" y2="471"/><line style="stroke:#A80036;stroke-width:1.5;" x1="149" x2="230" y1="479" y2="479"/><!--MD5=[ed17eb27918d6d975aac91b8ab0bf633]
class Method--><rect codeLine="19" fill="#FEFECE" filter="url(#f1uo95se2nurdm)" height="48" id="Method" style="stroke:#A80036;stroke-width:1.5;" width="77" x="266" y="439"/><ellipse cx="281" cy="455" fill="#ADD1B2" rx="11" ry="11" style="stroke:#A80036;stroke-width:1.0;"/><path d="M283.3438,450.6719 C282.4063,450.2344 281.8125,450.0938 280.9375,450.0938 C278.3125,450.0938 276.3125,452.1719 276.3125,454.8906 L276.3125,456.0156 C276.3125,458.5938 278.4219,460.4844 281.3125,460.4844 C282.5313,460.4844 283.6875,460.1875 284.4375,459.6406 C285.0156,459.2344 285.3438,458.7813 285.3438,458.3906 C285.3438,457.9375 284.9531,457.5469 284.4844,457.5469 C284.2656,457.5469 284.0625,457.625 283.875,457.8125 C283.4219,458.2969 283.4219,458.2969 283.2344,458.3906 C282.8125,458.6563 282.125,458.7813 281.3594,458.7813 C279.3125,458.7813 278.0156,457.6875 278.0156,455.9844 L278.0156,454.8906 C278.0156,453.1094 279.2656,451.7969 281,451.7969 C281.5781,451.7969 282.1875,451.9531 282.6563,452.2031 C283.1406,452.4844 283.3125,452.7031 283.4063,453.1094 C283.4688,453.5156 283.5,453.6406 283.6406,453.7656 C283.7813,453.9063 284.0156,454.0156 284.2344,454.0156 C284.5,454.0156 284.7656,453.875 284.9375,453.6563 C285.0469,453.5 285.0781,453.3125 285.0781,452.8906 L285.0781,451.4688 C285.0781,451.0313 285.0625,450.9063 284.9688,450.75 C284.8125,450.4844 284.5313,450.3438 284.2344,450.3438 C283.9375,450.3438 283.7344,450.4375 283.5156,450.75 L283.3438,450.6719 Z " fill="#000000"/><text fill="#000000" font-family="sans-serif" font-size="12" lengthAdjust="spacing" textLength="45" x="295" y="459.1543">Method</text><line style="stroke:#A80036;stroke-width:1.5;" x1="267" x2="342" y1="471" y2="471"/><line style="stroke:#A80036;stroke-width:1.5;" x1="267" x2="342" y1="479" y2="479"/><!--MD5=[4296a1ab0576a383a1a509d52c22ebf0]
class Type--><rect codeLine="20" fill="#FEFECE" filter="url(#f1uo95se2nurdm)" height="48" id="Type" style="stroke:#A80036;stroke-width:1.5;" width="62" x="378.5" y="439"/><ellipse cx="393.5" cy="455" fill="#ADD1B2" rx="11" ry="11" style="stroke:#A80036;stroke-width:1.0;"/><path d="M395.8438,450.6719 C394.9063,450.2344 394.3125,450.0938 393.4375,450.0938 C390.8125,450.0938 388.8125,452.1719 388.8125,454.8906 L388.8125,456.0156 C388.8125,458.5938 390.9219,460.4844 393.8125,460.4844 C395.0313,460.4844 396.1875,460.1875 396.9375,459.6406 C397.5156,459.2344 397.8438,458.7813 397.8438,458.3906 C397.8438,457.9375 397.4531,457.5469 396.9844,457.5469 C396.7656,457.5469 396.5625,457.625 396.375,457.8125 C395.9219,458.2969 395.9219,458.2969 395.7344,458.3906 C395.3125,458.6563 394.625,458.7813 393.8594,458.7813 C391.8125,458.7813 390.5156,457.6875 390.5156,455.9844 L390.5156,454.8906 C390.5156,453.1094 391.7656,451.7969 393.5,451.7969 C394.0781,451.7969 394.6875,451.9531 395.1563,452.2031 C395.6406,452.4844 395.8125,452.7031 395.9063,453.1094 C395.9688,453.5156 396,453.6406 396.1406,453.7656 C396.2813,453.9063 396.5156,454.0156 396.7344,454.0156 C397,454.0156 397.2656,453.875 397.4375,453.6563 C397.5469,453.5 397.5781,453.3125 397.5781,452.8906 L397.5781,451.4688 C397.5781,451.0313 397.5625,450.9063 397.4688,450.75 C397.3125,450.4844 397.0313,450.3438 396.7344,450.3438 C396.4375,450.3438 396.2344,450.4375 396.0156,450.75 L395.8438,450.6719 Z " fill="#000000"/><text fill="#000000" font-family="sans-serif" font-size="12" lengthAdjust="spacing" textLength="30" x="407.5" y="459.1543">Type</text><line style="stroke:#A80036;stroke-width:1.5;" x1="379.5" x2="439.5" y1="471" y2="471"/><line style="stroke:#A80036;stroke-width:1.5;" x1="379.5" x2="439.5" y1="479" y2="479"/><!--MD5=[a79137c130dde824eea5efec03801a72]
class Modifier--><rect codeLine="21" fill="#FEFECE" filter="url(#f1uo95se2nurdm)" height="48" id="Modifier" style="stroke:#A80036;stroke-width:1.5;" width="81" x="615" y="439"/><ellipse cx="630" cy="455" fill="#ADD1B2" rx="11" ry="11" style="stroke:#A80036;stroke-width:1.0;"/><path d="M632.3438,450.6719 C631.4063,450.2344 630.8125,450.0938 629.9375,450.0938 C627.3125,450.0938 625.3125,452.1719 625.3125,454.8906 L625.3125,456.0156 C625.3125,458.5938 627.4219,460.4844 630.3125,460.4844 C631.5313,460.4844 632.6875,460.1875 633.4375,459.6406 C634.0156,459.2344 634.3438,458.7813 634.3438,458.3906 C634.3438,457.9375 633.9531,457.5469 633.4844,457.5469 C633.2656,457.5469 633.0625,457.625 632.875,457.8125 C632.4219,458.2969 632.4219,458.2969 632.2344,458.3906 C631.8125,458.6563 631.125,458.7813 630.3594,458.7813 C628.3125,458.7813 627.0156,457.6875 627.0156,455.9844 L627.0156,454.8906 C627.0156,453.1094 628.2656,451.7969 630,451.7969 C630.5781,451.7969 631.1875,451.9531 631.6563,452.2031 C632.1406,452.4844 632.3125,452.7031 632.4063,453.1094 C632.4688,453.5156 632.5,453.6406 632.6406,453.7656 C632.7813,453.9063 633.0156,454.0156 633.2344,454.0156 C633.5,454.0156 633.7656,453.875 633.9375,453.6563 C634.0469,453.5 634.0781,453.3125 634.0781,452.8906 L634.0781,451.4688 C634.0781,451.0313 634.0625,450.9063 633.9688,450.75 C633.8125,450.4844 633.5313,450.3438 633.2344,450.3438 C632.9375,450.3438 632.7344,450.4375 632.5156,450.75 L632.3438,450.6719 Z " fill="#000000"/><text fill="#000000" font-family="sans-serif" font-size="12" lengthAdjust="spacing" textLength="49" x="644" y="459.1543">Modifier</text><line style="stroke:#A80036;stroke-width:1.5;" x1="616" x2="695" y1="471" y2="471"/><line style="stroke:#A80036;stroke-width:1.5;" x1="616" x2="695" y1="479" y2="479"/><!--MD5=[534474e9f05b14d7c70186ae077f30e0]
class Relation--><rect codeLine="22" fill="#FEFECE" filter="url(#f1uo95se2nurdm)" height="48" id="Relation" style="stroke:#A80036;stroke-width:1.5;" width="79" x="1195" y="223"/><ellipse cx="1210" cy="239" fill="#ADD1B2" rx="11" ry="11" style="stroke:#A80036;stroke-width:1.0;"/><path d="M1212.3438,234.6719 C1211.4063,234.2344 1210.8125,234.0938 1209.9375,234.0938 C1207.3125,234.0938 1205.3125,236.1719 1205.3125,238.8906 L1205.3125,240.0156 C1205.3125,242.5938 1207.4219,244.4844 1210.3125,244.4844 C1211.5313,244.4844 1212.6875,244.1875 1213.4375,243.6406 C1214.0156,243.2344 1214.3438,242.7813 1214.3438,242.3906 C1214.3438,241.9375 1213.9531,241.5469 1213.4844,241.5469 C1213.2656,241.5469 1213.0625,241.625 1212.875,241.8125 C1212.4219,242.2969 1212.4219,242.2969 1212.2344,242.3906 C1211.8125,242.6563 1211.125,242.7813 1210.3594,242.7813 C1208.3125,242.7813 1207.0156,241.6875 1207.0156,239.9844 L1207.0156,238.8906 C1207.0156,237.1094 1208.2656,235.7969 1210,235.7969 C1210.5781,235.7969 1211.1875,235.9531 1211.6563,236.2031 C1212.1406,236.4844 1212.3125,236.7031 1212.4063,237.1094 C1212.4688,237.5156 1212.5,237.6406 1212.6406,237.7656 C1212.7813,237.9063 1213.0156,238.0156 1213.2344,238.0156 C1213.5,238.0156 1213.7656,237.875 1213.9375,237.6563 C1214.0469,237.5 1214.0781,237.3125 1214.0781,236.8906 L1214.0781,235.4688 C1214.0781,235.0313 1214.0625,234.9063 1213.9688,234.75 C1213.8125,234.4844 1213.5313,234.3438 1213.2344,234.3438 C1212.9375,234.3438 1212.7344,234.4375 1212.5156,234.75 L1212.3438,234.6719 Z " fill="#000000"/><text fill="#000000" font-family="sans-serif" font-size="12" lengthAdjust="spacing" textLength="47" x="1224" y="243.1543">Relation</text><line style="stroke:#A80036;stroke-width:1.5;" x1="1196" x2="1273" y1="255" y2="255"/><line style="stroke:#A80036;stroke-width:1.5;" x1="1196" x2="1273" y1="263" y2="263"/><!--MD5=[251454e98c15f29849fb35b1904d0020]
class Composition--><rect codeLine="23" fill="#FEFECE" filter="url(#f1uo95se2nurdm)" height="48" id="Composition" style="stroke:#A80036;stroke-width:1.5;" width="107" x="907" y="331"/><ellipse cx="922" cy="347" fill="#ADD1B2" rx="11" ry="11" style="stroke:#A80036;stroke-width:1.0;"/><path d="M924.3438,342.6719 C923.4063,342.2344 922.8125,342.0938 921.9375,342.0938 C919.3125,342.0938 917.3125,344.1719 917.3125,346.8906 L917.3125,348.0156 C917.3125,350.5938 919.4219,352.4844 922.3125,352.4844 C923.5313,352.4844 924.6875,352.1875 925.4375,351.6406 C926.0156,351.2344 926.3438,350.7813 926.3438,350.3906 C926.3438,349.9375 925.9531,349.5469 925.4844,349.5469 C925.2656,349.5469 925.0625,349.625 924.875,349.8125 C924.4219,350.2969 924.4219,350.2969 924.2344,350.3906 C923.8125,350.6563 923.125,350.7813 922.3594,350.7813 C920.3125,350.7813 919.0156,349.6875 919.0156,347.9844 L919.0156,346.8906 C919.0156,345.1094 920.2656,343.7969 922,343.7969 C922.5781,343.7969 923.1875,343.9531 923.6563,344.2031 C924.1406,344.4844 924.3125,344.7031 924.4063,345.1094 C924.4688,345.5156 924.5,345.6406 924.6406,345.7656 C924.7813,345.9063 925.0156,346.0156 925.2344,346.0156 C925.5,346.0156 925.7656,345.875 925.9375,345.6563 C926.0469,345.5 926.0781,345.3125 926.0781,344.8906 L926.0781,343.4688 C926.0781,343.0313 926.0625,342.9063 925.9688,342.75 C925.8125,342.4844 925.5313,342.3438 925.2344,342.3438 C924.9375,342.3438 924.7344,342.4375 924.5156,342.75 L924.3438,342.6719 Z " fill="#000000"/><text fill="#000000" font-family="sans-serif" font-size="12" lengthAdjust="spacing" textLength="75" x="936" y="351.1543">Composition</text><line style="stroke:#A80036;stroke-width:1.5;" x1="908" x2="1013" y1="363" y2="363"/><line style="stroke:#A80036;stroke-width:1.5;" x1="908" x2="1013" y1="371" y2="371"/><!--MD5=[b9be2c694e35ab9e85e666b830f85409]
class Association--><rect codeLine="24" fill="#FEFECE" filter="url(#f1uo95se2nurdm)" height="48" id="Association" style="stroke:#A80036;stroke-width:1.5;" width="101" x="1049" y="331"/><ellipse cx="1064" cy="347" fill="#ADD1B2" rx="11" ry="11" style="stroke:#A80036;stroke-width:1.0;"/><path d="M1066.3438,342.6719 C1065.4063,342.2344 1064.8125,342.0938 1063.9375,342.0938 C1061.3125,342.0938 1059.3125,344.1719 1059.3125,346.8906 L1059.3125,348.0156 C1059.3125,350.5938 1061.4219,352.4844 1064.3125,352.4844 C1065.5313,352.4844 1066.6875,352.1875 1067.4375,351.6406 C1068.0156,351.2344 1068.3438,350.7813 1068.3438,350.3906 C1068.3438,349.9375 1067.9531,349.5469 1067.4844,349.5469 C1067.2656,349.5469 1067.0625,349.625 1066.875,349.8125 C1066.4219,350.2969 1066.4219,350.2969 1066.2344,350.3906 C1065.8125,350.6563 1065.125,350.7813 1064.3594,350.7813 C1062.3125,350.7813 1061.0156,349.6875 1061.0156,347.9844 L1061.0156,346.8906 C1061.0156,345.1094 1062.2656,343.7969 1064,343.7969 C1064.5781,343.7969 1065.1875,343.9531 1065.6563,344.2031 C1066.1406,344.4844 1066.3125,344.7031 1066.4063,345.1094 C1066.4688,345.5156 1066.5,345.6406 1066.6406,345.7656 C1066.7813,345.9063 1067.0156,346.0156 1067.2344,346.0156 C1067.5,346.0156 1067.7656,345.875 1067.9375,345.6563 C1068.0469,345.5 1068.0781,345.3125 1068.0781,344.8906 L1068.0781,343.4688 C1068.0781,343.0313 1068.0625,342.9063 1067.9688,342.75 C1067.8125,342.4844 1067.5313,342.3438 1067.2344,342.3438 C1066.9375,342.3438 1066.7344,342.4375 1066.5156,342.75 L1066.3438,342.6719 Z " fill="#000000"/><text fill="#000000" font-family="sans-serif" font-size="12" lengthAdjust="spacing" textLength="69" x="1078" y="351.1543">Association</text><line style="stroke:#A80036;stroke-width:1.5;" x1="1050" x2="1149" y1="363" y2="363"/><line style="stroke:#A80036;stroke-width:1.5;" x1="1050" x2="1149" y1="371" y2="371"/><!--MD5=[532b2e50aa8f8bd9096bf678c71e2dff]
class Agregation--><rect codeLine="25" fill="#FEFECE" filter="url(#f1uo95se2nurdm)" height="48" id="Agregation" style="stroke:#A80036;stroke-width:1.5;" width="98" x="1185.5" y="331"/><ellipse cx="1200.5" cy="347" fill="#ADD1B2" rx="11" ry="11" style="stroke:#A80036;stroke-width:1.0;"/><path d="M1202.8438,342.6719 C1201.9063,342.2344 1201.3125,342.0938 1200.4375,342.0938 C1197.8125,342.0938 1195.8125,344.1719 1195.8125,346.8906 L1195.8125,348.0156 C1195.8125,350.5938 1197.9219,352.4844 1200.8125,352.4844 C1202.0313,352.4844 1203.1875,352.1875 1203.9375,351.6406 C1204.5156,351.2344 1204.8438,350.7813 1204.8438,350.3906 C1204.8438,349.9375 1204.4531,349.5469 1203.9844,349.5469 C1203.7656,349.5469 1203.5625,349.625 1203.375,349.8125 C1202.9219,350.2969 1202.9219,350.2969 1202.7344,350.3906 C1202.3125,350.6563 1201.625,350.7813 1200.8594,350.7813 C1198.8125,350.7813 1197.5156,349.6875 1197.5156,347.9844 L1197.5156,346.8906 C1197.5156,345.1094 1198.7656,343.7969 1200.5,343.7969 C1201.0781,343.7969 1201.6875,343.9531 1202.1563,344.2031 C1202.6406,344.4844 1202.8125,344.7031 1202.9063,345.1094 C1202.9688,345.5156 1203,345.6406 1203.1406,345.7656 C1203.2813,345.9063 1203.5156,346.0156 1203.7344,346.0156 C1204,346.0156 1204.2656,345.875 1204.4375,345.6563 C1204.5469,345.5 1204.5781,345.3125 1204.5781,344.8906 L1204.5781,343.4688 C1204.5781,343.0313 1204.5625,342.9063 1204.4688,342.75 C1204.3125,342.4844 1204.0313,342.3438 1203.7344,342.3438 C1203.4375,342.3438 1203.2344,342.4375 1203.0156,342.75 L1202.8438,342.6719 Z " fill="#000000"/><text fill="#000000" font-family="sans-serif" font-size="12" lengthAdjust="spacing" textLength="66" x="1214.5" y="351.1543">Agregation</text><line style="stroke:#A80036;stroke-width:1.5;" x1="1186.5" x2="1282.5" y1="363" y2="363"/><line style="stroke:#A80036;stroke-width:1.5;" x1="1186.5" x2="1282.5" y1="371" y2="371"/><!--MD5=[9d06c415c4dccde5b8d2bcaff05509ba]
class Use--><rect codeLine="26" fill="#FEFECE" filter="url(#f1uo95se2nurdm)" height="48" id="Use" style="stroke:#A80036;stroke-width:1.5;" width="56" x="1318.5" y="331"/><ellipse cx="1333.5" cy="347" fill="#ADD1B2" rx="11" ry="11" style="stroke:#A80036;stroke-width:1.0;"/><path d="M1335.8438,342.6719 C1334.9063,342.2344 1334.3125,342.0938 1333.4375,342.0938 C1330.8125,342.0938 1328.8125,344.1719 1328.8125,346.8906 L1328.8125,348.0156 C1328.8125,350.5938 1330.9219,352.4844 1333.8125,352.4844 C1335.0313,352.4844 1336.1875,352.1875 1336.9375,351.6406 C1337.5156,351.2344 1337.8438,350.7813 1337.8438,350.3906 C1337.8438,349.9375 1337.4531,349.5469 1336.9844,349.5469 C1336.7656,349.5469 1336.5625,349.625 1336.375,349.8125 C1335.9219,350.2969 1335.9219,350.2969 1335.7344,350.3906 C1335.3125,350.6563 1334.625,350.7813 1333.8594,350.7813 C1331.8125,350.7813 1330.5156,349.6875 1330.5156,347.9844 L1330.5156,346.8906 C1330.5156,345.1094 1331.7656,343.7969 1333.5,343.7969 C1334.0781,343.7969 1334.6875,343.9531 1335.1563,344.2031 C1335.6406,344.4844 1335.8125,344.7031 1335.9063,345.1094 C1335.9688,345.5156 1336,345.6406 1336.1406,345.7656 C1336.2813,345.9063 1336.5156,346.0156 1336.7344,346.0156 C1337,346.0156 1337.2656,345.875 1337.4375,345.6563 C1337.5469,345.5 1337.5781,345.3125 1337.5781,344.8906 L1337.5781,343.4688 C1337.5781,343.0313 1337.5625,342.9063 1337.4688,342.75 C1337.3125,342.4844 1337.0313,342.3438 1336.7344,342.3438 C1336.4375,342.3438 1336.2344,342.4375 1336.0156,342.75 L1335.8438,342.6719 Z " fill="#000000"/><text fill="#000000" font-family="sans-serif" font-size="12" lengthAdjust="spacing" textLength="24" x="1347.5" y="351.1543">Use</text><line style="stroke:#A80036;stroke-width:1.5;" x1="1319.5" x2="1373.5" y1="363" y2="363"/><line style="stroke:#A80036;stroke-width:1.5;" x1="1319.5" x2="1373.5" y1="371" y2="371"/><!--MD5=[ae336da5efe52b168083e063e86251c2]
class Base--><rect codeLine="27" fill="#FEFECE" filter="url(#f1uo95se2nurdm)" height="48" id="Base" style="stroke:#A80036;stroke-width:1.5;" width="62" x="1409.5" y="331"/><ellipse cx="1424.5" cy="347" fill="#ADD1B2" rx="11" ry="11" style="stroke:#A80036;stroke-width:1.0;"/><path d="M1426.8438,342.6719 C1425.9063,342.2344 1425.3125,342.0938 1424.4375,342.0938 C1421.8125,342.0938 1419.8125,344.1719 1419.8125,346.8906 L1419.8125,348.0156 C1419.8125,350.5938 1421.9219,352.4844 1424.8125,352.4844 C1426.0313,352.4844 1427.1875,352.1875 1427.9375,351.6406 C1428.5156,351.2344 1428.8438,350.7813 1428.8438,350.3906 C1428.8438,349.9375 1428.4531,349.5469 1427.9844,349.5469 C1427.7656,349.5469 1427.5625,349.625 1427.375,349.8125 C1426.9219,350.2969 1426.9219,350.2969 1426.7344,350.3906 C1426.3125,350.6563 1425.625,350.7813 1424.8594,350.7813 C1422.8125,350.7813 1421.5156,349.6875 1421.5156,347.9844 L1421.5156,346.8906 C1421.5156,345.1094 1422.7656,343.7969 1424.5,343.7969 C1425.0781,343.7969 1425.6875,343.9531 1426.1563,344.2031 C1426.6406,344.4844 1426.8125,344.7031 1426.9063,345.1094 C1426.9688,345.5156 1427,345.6406 1427.1406,345.7656 C1427.2813,345.9063 1427.5156,346.0156 1427.7344,346.0156 C1428,346.0156 1428.2656,345.875 1428.4375,345.6563 C1428.5469,345.5 1428.5781,345.3125 1428.5781,344.8906 L1428.5781,343.4688 C1428.5781,343.0313 1428.5625,342.9063 1428.4688,342.75 C1428.3125,342.4844 1428.0313,342.3438 1427.7344,342.3438 C1427.4375,342.3438 1427.2344,342.4375 1427.0156,342.75 L1426.8438,342.6719 Z " fill="#000000"/><text fill="#000000" font-family="sans-serif" font-size="12" lengthAdjust="spacing" textLength="30" x="1438.5" y="351.1543">Base</text><line style="stroke:#A80036;stroke-width:1.5;" x1="1410.5" x2="1470.5" y1="363" y2="363"/><line style="stroke:#A80036;stroke-width:1.5;" x1="1410.5" x2="1470.5" y1="371" y2="371"/><!--MD5=[76dc6fa8498586f5cbb93ce2ad8e6cdd]
class EnumObject--><rect codeLine="28" fill="#FEFECE" filter="url(#f1uo95se2nurdm)" height="48" id="EnumObject" style="stroke:#A80036;stroke-width:1.5;" width="104" x="475.5" y="439"/><ellipse cx="490.5" cy="455" fill="#ADD1B2" rx="11" ry="11" style="stroke:#A80036;stroke-width:1.0;"/><path d="M492.8438,450.6719 C491.9063,450.2344 491.3125,450.0938 490.4375,450.0938 C487.8125,450.0938 485.8125,452.1719 485.8125,454.8906 L485.8125,456.0156 C485.8125,458.5938 487.9219,460.4844 490.8125,460.4844 C492.0313,460.4844 493.1875,460.1875 493.9375,459.6406 C494.5156,459.2344 494.8438,458.7813 494.8438,458.3906 C494.8438,457.9375 494.4531,457.5469 493.9844,457.5469 C493.7656,457.5469 493.5625,457.625 493.375,457.8125 C492.9219,458.2969 492.9219,458.2969 492.7344,458.3906 C492.3125,458.6563 491.625,458.7813 490.8594,458.7813 C488.8125,458.7813 487.5156,457.6875 487.5156,455.9844 L487.5156,454.8906 C487.5156,453.1094 488.7656,451.7969 490.5,451.7969 C491.0781,451.7969 491.6875,451.9531 492.1563,452.2031 C492.6406,452.4844 492.8125,452.7031 492.9063,453.1094 C492.9688,453.5156 493,453.6406 493.1406,453.7656 C493.2813,453.9063 493.5156,454.0156 493.7344,454.0156 C494,454.0156 494.2656,453.875 494.4375,453.6563 C494.5469,453.5 494.5781,453.3125 494.5781,452.8906 L494.5781,451.4688 C494.5781,451.0313 494.5625,450.9063 494.4688,450.75 C494.3125,450.4844 494.0313,450.3438 493.7344,450.3438 C493.4375,450.3438 493.2344,450.4375 493.0156,450.75 L492.8438,450.6719 Z " fill="#000000"/><text fill="#000000" font-family="sans-serif" font-size="12" lengthAdjust="spacing" textLength="72" x="504.5" y="459.1543">EnumObject</text><line style="stroke:#A80036;stroke-width:1.5;" x1="476.5" x2="578.5" y1="471" y2="471"/><line style="stroke:#A80036;stroke-width:1.5;" x1="476.5" x2="578.5" y1="479" y2="479"/><!--MD5=[bcf36559a79562a0967a10297fba1c26]
class Privilege--><rect codeLine="29" fill="#FEFECE" filter="url(#f1uo95se2nurdm)" height="48" id="Privilege" style="stroke:#A80036;stroke-width:1.5;" width="83" x="88" y="223"/><ellipse cx="103" cy="239" fill="#ADD1B2" rx="11" ry="11" style="stroke:#A80036;stroke-width:1.0;"/><path d="M105.3438,234.6719 C104.4063,234.2344 103.8125,234.0938 102.9375,234.0938 C100.3125,234.0938 98.3125,236.1719 98.3125,238.8906 L98.3125,240.0156 C98.3125,242.5938 100.4219,244.4844 103.3125,244.4844 C104.5313,244.4844 105.6875,244.1875 106.4375,243.6406 C107.0156,243.2344 107.3438,242.7813 107.3438,242.3906 C107.3438,241.9375 106.9531,241.5469 106.4844,241.5469 C106.2656,241.5469 106.0625,241.625 105.875,241.8125 C105.4219,242.2969 105.4219,242.2969 105.2344,242.3906 C104.8125,242.6563 104.125,242.7813 103.3594,242.7813 C101.3125,242.7813 100.0156,241.6875 100.0156,239.9844 L100.0156,238.8906 C100.0156,237.1094 101.2656,235.7969 103,235.7969 C103.5781,235.7969 104.1875,235.9531 104.6563,236.2031 C105.1406,236.4844 105.3125,236.7031 105.4063,237.1094 C105.4688,237.5156 105.5,237.6406 105.6406,237.7656 C105.7813,237.9063 106.0156,238.0156 106.2344,238.0156 C106.5,238.0156 106.7656,237.875 106.9375,237.6563 C107.0469,237.5 107.0781,237.3125 107.0781,236.8906 L107.0781,235.4688 C107.0781,235.0313 107.0625,234.9063 106.9688,234.75 C106.8125,234.4844 106.5313,234.3438 106.2344,234.3438 C105.9375,234.3438 105.7344,234.4375 105.5156,234.75 L105.3438,234.6719 Z " fill="#000000"/><text fill="#000000" font-family="sans-serif" font-size="12" lengthAdjust="spacing" textLength="51" x="117" y="243.1543">Privilege</text><line style="stroke:#A80036;stroke-width:1.5;" x1="89" x2="170" y1="255" y2="255"/><line style="stroke:#A80036;stroke-width:1.5;" x1="89" x2="170" y1="263" y2="263"/><!--MD5=[3833dfc58284d688f88001bd4346281f]
class Public--><rect codeLine="30" fill="#FEFECE" filter="url(#f1uo95se2nurdm)" height="48" id="Public" style="stroke:#A80036;stroke-width:1.5;" width="66" x="317.5" y="547"/><ellipse cx="332.5" cy="563" fill="#ADD1B2" rx="11" ry="11" style="stroke:#A80036;stroke-width:1.0;"/><path d="M334.8438,558.6719 C333.9063,558.2344 333.3125,558.0938 332.4375,558.0938 C329.8125,558.0938 327.8125,560.1719 327.8125,562.8906 L327.8125,564.0156 C327.8125,566.5938 329.9219,568.4844 332.8125,568.4844 C334.0313,568.4844 335.1875,568.1875 335.9375,567.6406 C336.5156,567.2344 336.8438,566.7813 336.8438,566.3906 C336.8438,565.9375 336.4531,565.5469 335.9844,565.5469 C335.7656,565.5469 335.5625,565.625 335.375,565.8125 C334.9219,566.2969 334.9219,566.2969 334.7344,566.3906 C334.3125,566.6563 333.625,566.7813 332.8594,566.7813 C330.8125,566.7813 329.5156,565.6875 329.5156,563.9844 L329.5156,562.8906 C329.5156,561.1094 330.7656,559.7969 332.5,559.7969 C333.0781,559.7969 333.6875,559.9531 334.1563,560.2031 C334.6406,560.4844 334.8125,560.7031 334.9063,561.1094 C334.9688,561.5156 335,561.6406 335.1406,561.7656 C335.2813,561.9063 335.5156,562.0156 335.7344,562.0156 C336,562.0156 336.2656,561.875 336.4375,561.6563 C336.5469,561.5 336.5781,561.3125 336.5781,560.8906 L336.5781,559.4688 C336.5781,559.0313 336.5625,558.9063 336.4688,558.75 C336.3125,558.4844 336.0313,558.3438 335.7344,558.3438 C335.4375,558.3438 335.2344,558.4375 335.0156,558.75 L334.8438,558.6719 Z " fill="#000000"/><text fill="#000000" font-family="sans-serif" font-size="12" lengthAdjust="spacing" textLength="34" x="346.5" y="567.1543">Public</text><line style="stroke:#A80036;stroke-width:1.5;" x1="318.5" x2="382.5" y1="579" y2="579"/><line style="stroke:#A80036;stroke-width:1.5;" x1="318.5" x2="382.5" y1="587" y2="587"/><!--MD5=[ef4909638ff2d1fcae1e69e5309aa67d]
class Private--><rect codeLine="31" fill="#FEFECE" filter="url(#f1uo95se2nurdm)" height="48" id="Private" style="stroke:#A80036;stroke-width:1.5;" width="72" x="418.5" y="547"/><ellipse cx="433.5" cy="563" fill="#ADD1B2" rx="11" ry="11" style="stroke:#A80036;stroke-width:1.0;"/><path d="M435.8438,558.6719 C434.9063,558.2344 434.3125,558.0938 433.4375,558.0938 C430.8125,558.0938 428.8125,560.1719 428.8125,562.8906 L428.8125,564.0156 C428.8125,566.5938 430.9219,568.4844 433.8125,568.4844 C435.0313,568.4844 436.1875,568.1875 436.9375,567.6406 C437.5156,567.2344 437.8438,566.7813 437.8438,566.3906 C437.8438,565.9375 437.4531,565.5469 436.9844,565.5469 C436.7656,565.5469 436.5625,565.625 436.375,565.8125 C435.9219,566.2969 435.9219,566.2969 435.7344,566.3906 C435.3125,566.6563 434.625,566.7813 433.8594,566.7813 C431.8125,566.7813 430.5156,565.6875 430.5156,563.9844 L430.5156,562.8906 C430.5156,561.1094 431.7656,559.7969 433.5,559.7969 C434.0781,559.7969 434.6875,559.9531 435.1563,560.2031 C435.6406,560.4844 435.8125,560.7031 435.9063,561.1094 C435.9688,561.5156 436,561.6406 436.1406,561.7656 C436.2813,561.9063 436.5156,562.0156 436.7344,562.0156 C437,562.0156 437.2656,561.875 437.4375,561.6563 C437.5469,561.5 437.5781,561.3125 437.5781,560.8906 L437.5781,559.4688 C437.5781,559.0313 437.5625,558.9063 437.4688,558.75 C437.3125,558.4844 437.0313,558.3438 436.7344,558.3438 C436.4375,558.3438 436.2344,558.4375 436.0156,558.75 L435.8438,558.6719 Z " fill="#000000"/><text fill="#000000" font-family="sans-serif" font-size="12" lengthAdjust="spacing" textLength="40" x="447.5" y="567.1543">Private</text><line style="stroke:#A80036;stroke-width:1.5;" x1="419.5" x2="489.5" y1="579" y2="579"/><line style="stroke:#A80036;stroke-width:1.5;" x1="419.5" x2="489.5" y1="587" y2="587"/><!--MD5=[7dab72a4c54d5eb07b2022a7517e8e34]
class PackagePrivate--><rect codeLine="32" fill="#FEFECE" filter="url(#f1uo95se2nurdm)" height="48" id="PackagePrivate" style="stroke:#A80036;stroke-width:1.5;" width="122" x="525.5" y="547"/><ellipse cx="540.5" cy="563" fill="#ADD1B2" rx="11" ry="11" style="stroke:#A80036;stroke-width:1.0;"/><path d="M542.8438,558.6719 C541.9063,558.2344 541.3125,558.0938 540.4375,558.0938 C537.8125,558.0938 535.8125,560.1719 535.8125,562.8906 L535.8125,564.0156 C535.8125,566.5938 537.9219,568.4844 540.8125,568.4844 C542.0313,568.4844 543.1875,568.1875 543.9375,567.6406 C544.5156,567.2344 544.8438,566.7813 544.8438,566.3906 C544.8438,565.9375 544.4531,565.5469 543.9844,565.5469 C543.7656,565.5469 543.5625,565.625 543.375,565.8125 C542.9219,566.2969 542.9219,566.2969 542.7344,566.3906 C542.3125,566.6563 541.625,566.7813 540.8594,566.7813 C538.8125,566.7813 537.5156,565.6875 537.5156,563.9844 L537.5156,562.8906 C537.5156,561.1094 538.7656,559.7969 540.5,559.7969 C541.0781,559.7969 541.6875,559.9531 542.1563,560.2031 C542.6406,560.4844 542.8125,560.7031 542.9063,561.1094 C542.9688,561.5156 543,561.6406 543.1406,561.7656 C543.2813,561.9063 543.5156,562.0156 543.7344,562.0156 C544,562.0156 544.2656,561.875 544.4375,561.6563 C544.5469,561.5 544.5781,561.3125 544.5781,560.8906 L544.5781,559.4688 C544.5781,559.0313 544.5625,558.9063 544.4688,558.75 C544.3125,558.4844 544.0313,558.3438 543.7344,558.3438 C543.4375,558.3438 543.2344,558.4375 543.0156,558.75 L542.8438,558.6719 Z " fill="#000000"/><text fill="#000000" font-family="sans-serif" font-size="12" lengthAdjust="spacing" textLength="90" x="554.5" y="567.1543">PackagePrivate</text><line style="stroke:#A80036;stroke-width:1.5;" x1="526.5" x2="646.5" y1="579" y2="579"/><line style="stroke:#A80036;stroke-width:1.5;" x1="526.5" x2="646.5" y1="587" y2="587"/><!--MD5=[33915678e6473693955530c9f7f65b56]
class Abstract--><rect codeLine="33" fill="#FEFECE" filter="url(#f1uo95se2nurdm)" height="48" id="Abstract" style="stroke:#A80036;stroke-width:1.5;" width="82" x="682.5" y="547"/><ellipse cx="697.5" cy="563" fill="#ADD1B2" rx="11" ry="11" style="stroke:#A80036;stroke-width:1.0;"/><path d="M699.8438,558.6719 C698.9063,558.2344 698.3125,558.0938 697.4375,558.0938 C694.8125,558.0938 692.8125,560.1719 692.8125,562.8906 L692.8125,564.0156 C692.8125,566.5938 694.9219,568.4844 697.8125,568.4844 C699.0313,568.4844 700.1875,568.1875 700.9375,567.6406 C701.5156,567.2344 701.8438,566.7813 701.8438,566.3906 C701.8438,565.9375 701.4531,565.5469 700.9844,565.5469 C700.7656,565.5469 700.5625,565.625 700.375,565.8125 C699.9219,566.2969 699.9219,566.2969 699.7344,566.3906 C699.3125,566.6563 698.625,566.7813 697.8594,566.7813 C695.8125,566.7813 694.5156,565.6875 694.5156,563.9844 L694.5156,562.8906 C694.5156,561.1094 695.7656,559.7969 697.5,559.7969 C698.0781,559.7969 698.6875,559.9531 699.1563,560.2031 C699.6406,560.4844 699.8125,560.7031 699.9063,561.1094 C699.9688,561.5156 700,561.6406 700.1406,561.7656 C700.2813,561.9063 700.5156,562.0156 700.7344,562.0156 C701,562.0156 701.2656,561.875 701.4375,561.6563 C701.5469,561.5 701.5781,561.3125 701.5781,560.8906 L701.5781,559.4688 C701.5781,559.0313 701.5625,558.9063 701.4688,558.75 C701.3125,558.4844 701.0313,558.3438 700.7344,558.3438 C700.4375,558.3438 700.2344,558.4375 700.0156,558.75 L699.8438,558.6719 Z " fill="#000000"/><text fill="#000000" font-family="sans-serif" font-size="12" lengthAdjust="spacing" textLength="50" x="711.5" y="567.1543">Abstract</text><line style="stroke:#A80036;stroke-width:1.5;" x1="683.5" x2="763.5" y1="579" y2="579"/><line style="stroke:#A80036;stroke-width:1.5;" x1="683.5" x2="763.5" y1="587" y2="587"/><!--MD5=[f0dc41ad8d5d9ec817c92fbbf8ed8036]
class Final--><rect codeLine="34" fill="#FEFECE" filter="url(#f1uo95se2nurdm)" height="48" id="Final" style="stroke:#A80036;stroke-width:1.5;" width="59" x="800" y="547"/><ellipse cx="815" cy="563" fill="#ADD1B2" rx="11" ry="11" style="stroke:#A80036;stroke-width:1.0;"/><path d="M817.3438,558.6719 C816.4063,558.2344 815.8125,558.0938 814.9375,558.0938 C812.3125,558.0938 810.3125,560.1719 810.3125,562.8906 L810.3125,564.0156 C810.3125,566.5938 812.4219,568.4844 815.3125,568.4844 C816.5313,568.4844 817.6875,568.1875 818.4375,567.6406 C819.0156,567.2344 819.3438,566.7813 819.3438,566.3906 C819.3438,565.9375 818.9531,565.5469 818.4844,565.5469 C818.2656,565.5469 818.0625,565.625 817.875,565.8125 C817.4219,566.2969 817.4219,566.2969 817.2344,566.3906 C816.8125,566.6563 816.125,566.7813 815.3594,566.7813 C813.3125,566.7813 812.0156,565.6875 812.0156,563.9844 L812.0156,562.8906 C812.0156,561.1094 813.2656,559.7969 815,559.7969 C815.5781,559.7969 816.1875,559.9531 816.6563,560.2031 C817.1406,560.4844 817.3125,560.7031 817.4063,561.1094 C817.4688,561.5156 817.5,561.6406 817.6406,561.7656 C817.7813,561.9063 818.0156,562.0156 818.2344,562.0156 C818.5,562.0156 818.7656,561.875 818.9375,561.6563 C819.0469,561.5 819.0781,561.3125 819.0781,560.8906 L819.0781,559.4688 C819.0781,559.0313 819.0625,558.9063 818.9688,558.75 C818.8125,558.4844 818.5313,558.3438 818.2344,558.3438 C817.9375,558.3438 817.7344,558.4375 817.5156,558.75 L817.3438,558.6719 Z " fill="#000000"/><text fill="#000000" font-family="sans-serif" font-size="12" lengthAdjust="spacing" textLength="27" x="829" y="567.1543">Final</text><line style="stroke:#A80036;stroke-width:1.5;" x1="801" x2="858" y1="579" y2="579"/><line style="stroke:#A80036;stroke-width:1.5;" x1="801" x2="858" y1="587" y2="587"/><!--MD5=[e48af0b17b05f0068f976e6ef5f92c21]
class Static--><rect codeLine="35" fill="#FEFECE" filter="url(#f1uo95se2nurdm)" height="48" id="Static" style="stroke:#A80036;stroke-width:1.5;" width="65" x="894" y="547"/><ellipse cx="909" cy="563" fill="#ADD1B2" rx="11" ry="11" style="stroke:#A80036;stroke-width:1.0;"/><path d="M911.3438,558.6719 C910.4063,558.2344 909.8125,558.0938 908.9375,558.0938 C906.3125,558.0938 904.3125,560.1719 904.3125,562.8906 L904.3125,564.0156 C904.3125,566.5938 906.4219,568.4844 909.3125,568.4844 C910.5313,568.4844 911.6875,568.1875 912.4375,567.6406 C913.0156,567.2344 913.3438,566.7813 913.3438,566.3906 C913.3438,565.9375 912.9531,565.5469 912.4844,565.5469 C912.2656,565.5469 912.0625,565.625 911.875,565.8125 C911.4219,566.2969 911.4219,566.2969 911.2344,566.3906 C910.8125,566.6563 910.125,566.7813 909.3594,566.7813 C907.3125,566.7813 906.0156,565.6875 906.0156,563.9844 L906.0156,562.8906 C906.0156,561.1094 907.2656,559.7969 909,559.7969 C909.5781,559.7969 910.1875,559.9531 910.6563,560.2031 C911.1406,560.4844 911.3125,560.7031 911.4063,561.1094 C911.4688,561.5156 911.5,561.6406 911.6406,561.7656 C911.7813,561.9063 912.0156,562.0156 912.2344,562.0156 C912.5,562.0156 912.7656,561.875 912.9375,561.6563 C913.0469,561.5 913.0781,561.3125 913.0781,560.8906 L913.0781,559.4688 C913.0781,559.0313 913.0625,558.9063 912.9688,558.75 C912.8125,558.4844 912.5313,558.3438 912.2344,558.3438 C911.9375,558.3438 911.7344,558.4375 911.5156,558.75 L911.3438,558.6719 Z " fill="#000000"/><text fill="#000000" font-family="sans-serif" font-size="12" lengthAdjust="spacing" textLength="33" x="923" y="567.1543">Static</text><line style="stroke:#A80036;stroke-width:1.5;" x1="895" x2="958" y1="579" y2="579"/><line style="stroke:#A80036;stroke-width:1.5;" x1="895" x2="958" y1="587" y2="587"/><ellipse cx="50.5" cy="247" fill="#000000" rx="2" ry="2" style="stroke:none;stroke-width:1.0;"/><!--MD5=[fcaf1c22447a0c95c61e6a3e6e03957a]
class Extend--><rect fill="#FEFECE" filter="url(#f1uo95se2nurdm)" height="48" id="Extend" style="stroke:#A80036;stroke-width:1.5;" width="73" x="1255" y="439"/><ellipse cx="1270" cy="455" fill="#ADD1B2" rx="11" ry="11" style="stroke:#A80036;stroke-width:1.0;"/><path d="M1272.3438,450.6719 C1271.4063,450.2344 1270.8125,450.0938 1269.9375,450.0938 C1267.3125,450.0938 1265.3125,452.1719 1265.3125,454.8906 L1265.3125,456.0156 C1265.3125,458.5938 1267.4219,460.4844 1270.3125,460.4844 C1271.5313,460.4844 1272.6875,460.1875 1273.4375,459.6406 C1274.0156,459.2344 1274.3438,458.7813 1274.3438,458.3906 C1274.3438,457.9375 1273.9531,457.5469 1273.4844,457.5469 C1273.2656,457.5469 1273.0625,457.625 1272.875,457.8125 C1272.4219,458.2969 1272.4219,458.2969 1272.2344,458.3906 C1271.8125,458.6563 1271.125,458.7813 1270.3594,458.7813 C1268.3125,458.7813 1267.0156,457.6875 1267.0156,455.9844 L1267.0156,454.8906 C1267.0156,453.1094 1268.2656,451.7969 1270,451.7969 C1270.5781,451.7969 1271.1875,451.9531 1271.6563,452.2031 C1272.1406,452.4844 1272.3125,452.7031 1272.4063,453.1094 C1272.4688,453.5156 1272.5,453.6406 1272.6406,453.7656 C1272.7813,453.9063 1273.0156,454.0156 1273.2344,454.0156 C1273.5,454.0156 1273.7656,453.875 1273.9375,453.6563 C1274.0469,453.5 1274.0781,453.3125 1274.0781,452.8906 L1274.0781,451.4688 C1274.0781,451.0313 1274.0625,450.9063 1273.9688,450.75 C1273.8125,450.4844 1273.5313,450.3438 1273.2344,450.3438 C1272.9375,450.3438 1272.7344,450.4375 1272.5156,450.75 L1272.3438,450.6719 Z " fill="#000000"/><text fill="#000000" font-family="sans-serif" font-size="12" lengthAdjust="spacing" textLength="41" x="1284" y="459.1543">Extend</text><line style="stroke:#A80036;stroke-width:1.5;" x1="1256" x2="1327" y1="471" y2="471"/><line style="stroke:#A80036;stroke-width:1.5;" x1="1256" x2="1327" y1="479" y2="479"/><!--MD5=[4d505052dca89cc19b77c0e333fe60aa]
class Include--><rect fill="#FEFECE" filter="url(#f1uo95se2nurdm)" height="48" id="Include" style="stroke:#A80036;stroke-width:1.5;" width="75" x="1363" y="439"/><ellipse cx="1378" cy="455" fill="#ADD1B2" rx="11" ry="11" style="stroke:#A80036;stroke-width:1.0;"/><path d="M1380.3438,450.6719 C1379.4063,450.2344 1378.8125,450.0938 1377.9375,450.0938 C1375.3125,450.0938 1373.3125,452.1719 1373.3125,454.8906 L1373.3125,456.0156 C1373.3125,458.5938 1375.4219,460.4844 1378.3125,460.4844 C1379.5313,460.4844 1380.6875,460.1875 1381.4375,459.6406 C1382.0156,459.2344 1382.3438,458.7813 1382.3438,458.3906 C1382.3438,457.9375 1381.9531,457.5469 1381.4844,457.5469 C1381.2656,457.5469 1381.0625,457.625 1380.875,457.8125 C1380.4219,458.2969 1380.4219,458.2969 1380.2344,458.3906 C1379.8125,458.6563 1379.125,458.7813 1378.3594,458.7813 C1376.3125,458.7813 1375.0156,457.6875 1375.0156,455.9844 L1375.0156,454.8906 C1375.0156,453.1094 1376.2656,451.7969 1378,451.7969 C1378.5781,451.7969 1379.1875,451.9531 1379.6563,452.2031 C1380.1406,452.4844 1380.3125,452.7031 1380.4063,453.1094 C1380.4688,453.5156 1380.5,453.6406 1380.6406,453.7656 C1380.7813,453.9063 1381.0156,454.0156 1381.2344,454.0156 C1381.5,454.0156 1381.7656,453.875 1381.9375,453.6563 C1382.0469,453.5 1382.0781,453.3125 1382.0781,452.8906 L1382.0781,451.4688 C1382.0781,451.0313 1382.0625,450.9063 1381.9688,450.75 C1381.8125,450.4844 1381.5313,450.3438 1381.2344,450.3438 C1380.9375,450.3438 1380.7344,450.4375 1380.5156,450.75 L1380.3438,450.6719 Z " fill="#000000"/><text fill="#000000" font-family="sans-serif" font-size="12" lengthAdjust="spacing" textLength="43" x="1392" y="459.1543">Include</text><line style="stroke:#A80036;stroke-width:1.5;" x1="1364" x2="1437" y1="471" y2="471"/><line style="stroke:#A80036;stroke-width:1.5;" x1="1364" x2="1437" y1="479" y2="479"/><!--MD5=[d0aa25cc2b7b72a400feec2887a21f59]
link UST_UML to User--><path codeLine="37" d="M50.5,67 C50.5,67 50.5,90.677 50.5,101.364 " fill="none" id="UST_UML-User" style="stroke:#A80036;stroke-width:1.0;"/><polygon fill="#A80036" points="50.5,114.678,54.5,105.678,50.5,109.678,46.5,105.678,50.5,114.678" style="stroke:#A80036;stroke-width:1.0;"/><line style="stroke:#A80036;stroke-width:1.0;" x1="50.5" x2="50.5001" y1="109.678" y2="101.678"/><polygon fill="#A80036" points="50.5,55,46.5,61,50.5,67,54.5,61,50.5,55" style="stroke:#A80036;stroke-width:1.0;"/><text fill="#000000" font-family="sans-serif" font-size="13" lengthAdjust="spacing" textLength="24" x="23.575" y="104.0045">0..n</text><!--MD5=[d1402769e6d6e49ea3a20738b563204c]
reverse link User to apoint107137--><path d="M50.5,176.151 C50.5,203.55 50.5,237.654 50.5,244.693 " fill="none" id="User-backto-apoint107137" style="stroke:#A80036;stroke-width:1.0;"/><polygon fill="#A80036" points="50.5,163,46.5,169,50.5,175,54.5,169,50.5,163" style="stroke:#A80036;stroke-width:1.0;"/><text fill="#000000" font-family="sans-serif" font-size="13" lengthAdjust="spacing" textLength="24" x="23.425" y="183.1558">1..n</text><!--MD5=[41756ae0357092a91929c142d2534c93]
link apoint107137 to Project--><path d="M50.6235,249.19 C51.3924,256.599 55.585,297.001 58.5339,325.418 " fill="none" id="apoint107137-to-Project" style="stroke:#A80036;stroke-width:1.0;"/><polygon fill="#A80036" points="59.069,330.574,62.1194,321.2094,58.5533,325.6007,54.162,322.0346,59.069,330.574" style="stroke:#A80036;stroke-width:1.0;"/><text fill="#000000" font-family="sans-serif" font-size="13" lengthAdjust="spacing" textLength="24" x="31.5514" y="319.8751">0..n</text><!--MD5=[286b1508d1454325b8dbe4c94eae2582]
link apoint107137 to Privilege--><path d="M52.6602,247 C64.3662,247 76.0723,247 87.7784,247 " fill="none" id="apoint107137-Privilege" style="stroke:#A80036;stroke-width:1.0;stroke-dasharray:7.0,7.0;"/><!--MD5=[29e22fa5f73f52dca915711cfe80ecfb]
reverse link Package to Project--><path codeLine="40" d="M189.457,281.078 C159.68,298.048 124.308,318.206 98.3084,333.023 " fill="none" id="Package-backto-Project" style="stroke:#A80036;stroke-width:1.0;"/><polygon fill="none" points="186.298,274.821,207.141,271,193.23,286.985,186.298,274.821" style="stroke:#A80036;stroke-width:1.0;"/><!--MD5=[22e421874de4e53630ce7003e19627e8]
reverse link Member to Package--><path codeLine="41" d="M613.653,148.613 C536.465,161.57 401.063,188.288 288.86,222.889 " fill="none" id="Member-backto-Package" style="stroke:#A80036;stroke-width:1.0;"/><polygon fill="none" points="612.947,141.636,633.813,145.329,615.199,155.454,612.947,141.636" style="stroke:#A80036;stroke-width:1.0;"/><!--MD5=[87b8b8c56d4ac355f36a7f23a7a27ce0]
link Member to Package--><path codeLine="42" d="M621.222,151.689 C551.607,165.554 427.535,190.888 323.5,223 C316.251,225.237 299.948,231.1535 299.948,231.1535 " fill="none" id="Member-Package" style="stroke:#A80036;stroke-width:1.0;"/><polygon fill="#A80036" points="288.682,235.286,295.6925,236.9751,299.948,231.1535,292.9375,229.4644,288.682,235.286" style="stroke:#A80036;stroke-width:1.0;"/><polygon fill="#A80036" points="633.984,149.152,624.3769,146.9831,629.0799,150.1267,625.9364,154.8297,633.984,149.152" style="stroke:#A80036;stroke-width:1.0;"/><line style="stroke:#A80036;stroke-width:1.0;" x1="629.0799" x2="621.233" y1="150.1267" y2="151.687"/><text fill="#000000" font-family="sans-serif" font-size="13" lengthAdjust="spacing" textLength="24" x="601.9425" y="146.6352">0..n</text><!--MD5=[f47290a6757b8f085894cdaa33540e6d]
reverse link Member to Class--><path codeLine="43" d="M614.295,155.886 C559.028,171.083 475.238,195.681 404.5,223 C398.977,225.133 393.205,227.609 387.641,230.13 " fill="none" id="Member-backto-Class" style="stroke:#A80036;stroke-width:1.0;"/><polygon fill="none" points="612.506,149.118,633.641,150.63,616.176,162.629,612.506,149.118" style="stroke:#A80036;stroke-width:1.0;"/><!--MD5=[be5c69f8367982ed815c524b90bcf346]
reverse link Member to Actor--><path codeLine="44" d="M615.858,168.255 C574.431,188.215 520.474,214.212 486.655,230.507 " fill="none" id="Member-backto-Actor" style="stroke:#A80036;stroke-width:1.0;"/><polygon fill="none" points="612.836,161.941,633.892,159.566,618.913,174.553,612.836,161.941" style="stroke:#A80036;stroke-width:1.0;"/><!--MD5=[4dc19407d79580b8fcc3e77227a0c447]
reverse link Member to UseCase--><path codeLine="45" d="M635.813,177.28 C620.132,192.391 602.507,209.375 588.702,222.678 " fill="none" id="Member-backto-UseCase" style="stroke:#A80036;stroke-width:1.0;"/><polygon fill="none" points="631.373,171.838,650.632,163,641.087,181.919,631.373,171.838" style="stroke:#A80036;stroke-width:1.0;"/><!--MD5=[1339d7f3f4f2c72348561bb137ee48c1]
reverse link Member to State--><path codeLine="46" d="M674.5,183.024 C674.5,196.579 674.5,211.038 674.5,222.678 " fill="none" id="Member-backto-State" style="stroke:#A80036;stroke-width:1.0;"/><polygon fill="none" points="667.5,183,674.5,163,681.5,183,667.5,183" style="stroke:#A80036;stroke-width:1.0;"/><!--MD5=[7cb31429bfcdc0ca2df669ce4a1a75a1]
reverse link Member to Object--><path codeLine="47" d="M711.185,177.753 C725.751,192.744 742.046,209.514 754.838,222.678 " fill="none" id="Member-backto-Object" style="stroke:#A80036;stroke-width:1.0;"/><polygon fill="none" points="705.767,182.222,696.849,163,715.807,172.466,705.767,182.222" style="stroke:#A80036;stroke-width:1.0;"/><!--MD5=[555e4105f7e5288837a31aafc8c7e411]
reverse link Member to Component--><path codeLine="48" d="M733.539,167.814 C769.932,184.959 816.052,206.687 850.431,222.883 " fill="none" id="Member-backto-Component" style="stroke:#A80036;stroke-width:1.0;"/><polygon fill="none" points="730.355,174.052,715.246,159.196,736.322,161.387,730.355,174.052" style="stroke:#A80036;stroke-width:1.0;"/><!--MD5=[2972735702142ffc580d694ae5c06d35]
reverse link Member to Node--><path codeLine="49" d="M735.103,154.243 C794.971,168.993 888.747,193.932 967.5,223 C973.326,225.151 979.418,227.692 985.263,230.287 " fill="none" id="Member-backto-Node" style="stroke:#A80036;stroke-width:1.0;"/><polygon fill="none" points="733.202,160.985,715.421,149.46,736.508,147.381,733.202,160.985" style="stroke:#A80036;stroke-width:1.0;"/><!--MD5=[e1a2b7fd29b52792c8e9f69637c5b72f]
reverse link Member to Activity--><path codeLine="50" d="M734.962,149.303 C812.707,162.058 951.415,187.503 1066.5,223 C1072.53,224.859 1078.8,227.11 1084.88,229.467 " fill="none" id="Member-backto-Activity" style="stroke:#A80036;stroke-width:1.0;"/><polygon fill="none" points="733.813,156.208,715.18,146.117,736.039,142.386,733.813,156.208" style="stroke:#A80036;stroke-width:1.0;"/><!--MD5=[8b2d4b67d176dd527e48b13fda5770ed]
reverse link Class to Enum--><path codeLine="51" d="M306.701,281.373 C282.509,297.917 253.972,317.432 232.575,332.065 " fill="none" id="Class-backto-Enum" style="stroke:#A80036;stroke-width:1.0;"/><polygon fill="none" points="302.924,275.475,323.384,269.963,310.827,287.031,302.924,275.475" style="stroke:#A80036;stroke-width:1.0;"/><!--MD5=[d3ff0915147c3a163c3e990d23593e66]
reverse link Class to Interface--><path codeLine="52" d="M337.85,289.575 C331.921,303.543 325.519,318.622 320.401,330.678 " fill="none" id="Class-backto-Interface" style="stroke:#A80036;stroke-width:1.0;"/><polygon fill="none" points="331.477,286.675,345.736,271,344.364,292.146,331.477,286.675" style="stroke:#A80036;stroke-width:1.0;"/><!--MD5=[c431c88d3b3da536555b00649ca60643]
link Member to Relation--><path codeLine="53" d="M727.1982,144.8427 C727.1982,144.8427 1017.29,178.051 1177.5,223 C1179.09,223.446 1180.69,223.922 1182.31,224.423 " fill="none" id="Member-Relation" style="stroke:#A80036;stroke-width:1.0;"/><polygon fill="#A80036" points="1194.71,228.661,1187.485,221.9678,1189.9781,227.0456,1184.9003,229.5388,1194.71,228.661" style="stroke:#A80036;stroke-width:1.0;"/><line style="stroke:#A80036;stroke-width:1.0;" x1="1189.9781" x2="1182.41" y1="227.0456" y2="224.458"/><polygon fill="#A80036" points="715.257,143.656,720.832,148.2298,727.1982,144.8427,721.6232,140.269,715.257,143.656" style="stroke:#A80036;stroke-width:1.0;"/><text fill="#000000" font-family="sans-serif" font-size="13" lengthAdjust="spacing" textLength="24" x="723.0057" y="140.3149">1..2</text><text fill="#000000" font-family="sans-serif" font-size="13" lengthAdjust="spacing" textLength="24" x="1163.1033" y="221.9425">0..n</text><!--MD5=[2808e28b8a676ac21318e0bb1f106b25]
link Class to Definition--><path codeLine="54" d="M379.2607,280.7087 C379.2607,280.7087 398.821,307.636 407.747,319.924 " fill="none" id="Class-Definition" style="stroke:#A80036;stroke-width:1.0;"/><polygon fill="#A80036" points="415.559,330.678,413.5055,321.0456,412.6203,326.6328,407.0331,325.7476,415.559,330.678" style="stroke:#A80036;stroke-width:1.0;"/><line style="stroke:#A80036;stroke-width:1.0;" x1="412.6203" x2="407.9185" y1="326.6328" y2="320.1605"/><polygon fill="#A80036" points="372.208,271,372.4981,278.2053,379.2607,280.7087,378.9706,273.5034,372.208,271" style="stroke:#A80036;stroke-width:1.0;"/><text fill="#000000" font-family="sans-serif" font-size="13" lengthAdjust="spacing" textLength="24" x="384.5046" y="320.0045">0..n</text><!--MD5=[bbd7cde5e0bf48ae3f8245ce7262a635]
reverse link Definition to Attribute--><path codeLine="55" d="M370.105,383.217 C326.456,402.258 269.351,427.168 231.149,443.832 " fill="none" id="Definition-backto-Attribute" style="stroke:#A80036;stroke-width:1.0;"/><polygon fill="none" points="367.364,376.776,388.495,375.196,372.962,389.609,367.364,376.776" style="stroke:#A80036;stroke-width:1.0;"/><!--MD5=[3984abe552088c41f0061493ffb1022e]
reverse link Definition to Method--><path codeLine="56" d="M389.186,391.869 C370.522,407.325 349.228,424.959 332.662,438.678 " fill="none" id="Definition-backto-Method" style="stroke:#A80036;stroke-width:1.0;"/><polygon fill="none" points="384.857,386.365,404.726,379,393.787,397.148,384.857,386.365" style="stroke:#A80036;stroke-width:1.0;"/><!--MD5=[c1f9a4355d9d486ad757d1074f567aa3]
reverse link Definition to EnumObject--><path codeLine="57" d="M466.76,394.227 C480.087,409.097 494.924,425.652 506.599,438.678 " fill="none" id="Definition-backto-EnumObject" style="stroke:#A80036;stroke-width:1.0;"/><polygon fill="none" points="461.249,398.566,453.114,379,471.675,389.222,461.249,398.566" style="stroke:#A80036;stroke-width:1.0;"/><!--MD5=[8821b951374342c6cb2c135eb1779cbf]
link Definition to Type--><path codeLine="58" d="M424.964,390.727 C424.964,390.727 419.71,414.947 417.323,425.947 " fill="none" id="Definition-Type" style="stroke:#A80036;stroke-width:1.0;"/><polygon fill="#A80036" points="414.56,438.678,420.3776,430.731,415.6203,433.7917,412.5596,429.0344,414.56,438.678" style="stroke:#A80036;stroke-width:1.0;"/><line style="stroke:#A80036;stroke-width:1.0;" x1="415.6203" x2="417.317" y1="433.7917" y2="425.974"/><polygon fill="#A80036" points="427.509,379,422.3275,384.0152,424.964,390.727,430.1455,385.7119,427.509,379" style="stroke:#A80036;stroke-width:1.0;"/><!--MD5=[cf0aff3de8a3a7a6fab9c29f3c83f9d2]
link Definition to Modifier--><path codeLine="59" d="M487.3958,382.0939 C487.3958,382.0939 568.29,420.546 602.734,436.918 " fill="none" id="Definition-Modifier" style="stroke:#A80036;stroke-width:1.0;"/><polygon fill="#A80036" points="614.912,442.707,608.5009,435.2305,610.3962,440.5604,605.0663,442.4557,614.912,442.707" style="stroke:#A80036;stroke-width:1.0;"/><line style="stroke:#A80036;stroke-width:1.0;" x1="610.3962" x2="603.1715" y1="440.5604" y2="437.1265"/><polygon fill="#A80036" points="476.558,376.942,480.2596,383.1305,487.3958,382.0939,483.6942,375.9053,476.558,376.942" style="stroke:#A80036;stroke-width:1.0;"/><text fill="#000000" font-family="sans-serif" font-size="13" lengthAdjust="spacing" textLength="24" x="587.5957" y="451.7933">1..3</text><!--MD5=[cd34d0d34e66afad119ba52289ec1240]
link Class to Modifier--><path codeLine="60" d="M397.9606,271.5055 C397.9606,271.5055 462.974,309.632 493.5,331 C538.358,362.401 586.813,402.475 618.925,429.983 " fill="none" id="Class-Modifier" style="stroke:#A80036;stroke-width:1.0;"/><polygon fill="#A80036" points="629.159,438.799,624.9504,429.8946,625.3706,435.5359,619.7294,435.9561,629.159,438.799" style="stroke:#A80036;stroke-width:1.0;"/><line style="stroke:#A80036;stroke-width:1.0;" x1="625.3706" x2="619.3095" y1="435.5359" y2="430.3145"/><polygon fill="#A80036" points="387.524,265.583,390.7681,272.0232,397.9606,271.5055,394.7165,265.0654,387.524,265.583" style="stroke:#A80036;stroke-width:1.0;"/><text fill="#000000" font-family="sans-serif" font-size="13" lengthAdjust="spacing" textLength="24" x="595.3341" y="427.7595">1..2</text><!--MD5=[94e3451dbcae9f84917a60bd609db367]
link Project to Visbility--><path codeLine="61" d="M61.5,391 C61.5,391 61.5,414.677 61.5,425.364 " fill="none" id="Project-Visbility" style="stroke:#A80036;stroke-width:1.0;"/><polygon fill="#A80036" points="61.5,438.678,65.5,429.678,61.5,433.678,57.5,429.678,61.5,438.678" style="stroke:#A80036;stroke-width:1.0;"/><line style="stroke:#A80036;stroke-width:1.0;" x1="61.5" x2="61.5001" y1="433.678" y2="425.678"/><polygon fill="#A80036" points="61.5,379,57.5,385,61.5,391,65.5,385,61.5,379" style="stroke:#A80036;stroke-width:1.0;"/><!--MD5=[aac130c8b5f905729b18e85e231f7b50]
reverse link Relation to Composition--><path codeLine="62" d="M1176.36,271.373 C1111.11,296.958 1054.31,318.593 1014.11,333.805 " fill="none" id="Relation-backto-Composition" style="stroke:#A80036;stroke-width:1.0;"/><polygon fill="none" points="1173.81,264.856,1194.98,264.054,1178.93,277.885,1173.81,264.856" style="stroke:#A80036;stroke-width:1.0;"/><!--MD5=[15e0ad4905dc9868f34dca2c9442a4ff]
reverse link Relation to Association--><path codeLine="63" d="M1189.41,283.402 C1169.59,298.969 1146.85,316.821 1129.2,330.678 " fill="none" id="Relation-backto-Association" style="stroke:#A80036;stroke-width:1.0;"/><polygon fill="none" points="1185.15,277.846,1205.21,271,1193.8,288.857,1185.15,277.846" style="stroke:#A80036;stroke-width:1.0;"/><!--MD5=[8216648bcbe7b92312920f9f9c591941]
reverse link Relation to Agregation--><path codeLine="64" d="M1234.5,291.024 C1234.5,304.579 1234.5,319.038 1234.5,330.678 " fill="none" id="Relation-backto-Agregation" style="stroke:#A80036;stroke-width:1.0;"/><polygon fill="none" points="1227.5,291,1234.5,271,1241.5,291,1227.5,291" style="stroke:#A80036;stroke-width:1.0;"/><!--MD5=[f560e3701e68eb886d2a798919f208f3]
reverse link Relation to Use--><path codeLine="65" d="M1273.39,284.809 C1289.48,300.036 1307.66,317.237 1321.86,330.678 " fill="none" id="Relation-backto-Use" style="stroke:#A80036;stroke-width:1.0;"/><polygon fill="none" points="1268.52,289.832,1258.8,271,1278.14,279.664,1268.52,289.832" style="stroke:#A80036;stroke-width:1.0;"/><!--MD5=[65e9dbff6bc51902aaf379ec11a59c03]
reverse link Relation to Base--><path codeLine="66" d="M1292.18,277.678 C1330.13,297.208 1378.34,322.015 1409.31,337.951 " fill="none" id="Relation-backto-Base" style="stroke:#A80036;stroke-width:1.0;"/><polygon fill="none" points="1288.8,283.813,1274.22,268.438,1295.21,271.364,1288.8,283.813" style="stroke:#A80036;stroke-width:1.0;"/><!--MD5=[60e6d250f2ac874fc7f4a2c7068b79f6]
reverse link Use to Extend--><path codeLine="67" d="M1325.18,397.094 C1317.86,411.196 1309.93,426.484 1303.6,438.678 " fill="none" id="Use-backto-Extend" style="stroke:#A80036;stroke-width:1.0;"/><polygon fill="none" points="1319.14,393.529,1334.57,379,1331.57,399.977,1319.14,393.529" style="stroke:#A80036;stroke-width:1.0;"/><!--MD5=[e47dd5340ca8d8fbd29955b886bbfb36]
reverse link Use to Include--><path codeLine="68" d="M1367.43,397.094 C1374.62,411.196 1382.41,426.484 1388.62,438.678 " fill="none" id="Use-backto-Include" style="stroke:#A80036;stroke-width:1.0;"/><polygon fill="none" points="1361.06,399.999,1358.22,379,1373.53,393.644,1361.06,399.999" style="stroke:#A80036;stroke-width:1.0;"/><!--MD5=[8aa254f8fe4c9f8b6a498e8b066bb85a]
reverse link Modifier to Public--><path codeLine="69" d="M595.774,486.866 C507.051,516.7415 480.225,516.6172 400.5,547 C394.964,549.1096 389.177,551.5464 383.585,554.0283 " fill="none" id="Modifier-backto-Public" style="stroke:#A80036;stroke-width:1.0;"/><polygon fill="none" points="593.514,480.241,614.703,480.359,598.065,493.48,593.514,480.241" style="stroke:#A80036;stroke-width:1.0;"/><!--MD5=[3c21ca1bf474c74ec8012dc87fcb3cae]
reverse link Modifier to Private--><path codeLine="70" d="M596.707,495.0055 C562.399,513.0981 520.208,535.3478 490.729,550.8943 " fill="none" id="Modifier-backto-Private" style="stroke:#A80036;stroke-width:1.0;"/><polygon fill="none" points="593.869,488.588,614.825,485.451,600.399,500.9719,593.869,488.588" style="stroke:#A80036;stroke-width:1.0;"/><!--MD5=[3bf4150d67582b1990f1aee9db45144f]
reverse link Modifier to PackagePrivate--><path codeLine="71" d="M629.375,504.134 C620.024,518.4992 609.799,534.2066 601.681,546.6784 " fill="none" id="Modifier-backto-PackagePrivate" style="stroke:#A80036;stroke-width:1.0;"/><polygon fill="none" points="623.751,499.9433,640.528,487,635.484,507.5809,623.751,499.9433" style="stroke:#A80036;stroke-width:1.0;"/><!--MD5=[47f9a018644e2ecdfa822053f41dafe0]
reverse link Modifier to Abstract--><path codeLine="72" d="M681.246,504.134 C690.462,518.4992 700.538,534.2066 708.539,546.6784 " fill="none" id="Modifier-backto-Abstract" style="stroke:#A80036;stroke-width:1.0;"/><polygon fill="none" points="675.162,507.614,670.255,487,686.946,500.0546,675.162,507.614" style="stroke:#A80036;stroke-width:1.0;"/><!--MD5=[832677d9fdae96840974fdeeabb666f7]
reverse link Modifier to Final--><path codeLine="73" d="M710.355,497.4177 C739.986,515.4687 775.406,537.0461 799.885,551.9585 " fill="none" id="Modifier-backto-Final" style="stroke:#A80036;stroke-width:1.0;"/><polygon fill="none" points="706.694,503.3837,693.255,487,713.977,491.428,706.694,503.3837" style="stroke:#A80036;stroke-width:1.0;"/><!--MD5=[7b7af81ae39d3bc46b0a0e7edabc7b23]
reverse link Modifier to Static--><path codeLine="74" d="M715.073,485.058 C759.813,501.1907 822.419,524.4403 876.5,547 C882.144,549.3543 888.091,551.969 893.836,554.5666 " fill="none" id="Modifier-backto-Static" style="stroke:#A80036;stroke-width:1.0;"/><polygon fill="none" points="712.634,491.62,696.169,478.282,717.358,478.442,712.634,491.62" style="stroke:#A80036;stroke-width:1.0;"/><!--MD5=[f921f21315f9a9345f667b140a465d3f]
@startuml
Class UST_UML
Class User
Class Project
Class Visbility
Class Package
abstract Member
Class Class
Class Actor
Class UseCase
Class State
Class Object
Class Component
Class Node
Class Activity
Class Enum
Class Interface
Class Definition
Class Attribute
Class Method
Class Type
Class Modifier
Class Relation
Class Composition
Class Association
Class Agregation
Class Use
Class Base
Class EnumObject
Class Privilege
Class Public
Class Private
Class PackagePrivate
Class Abstract
Class Final
Class Static

UST_UML *-down-> "0..n" User
User "1..n" *-down-> "0..n" Project
(User, Project) .. Privilege
Package <|-down- Project 
Member <|-down- Package 
Package *-up-> "0..n" Member
Member <|-down- Class 
Member <|-down- Actor 
Member <|-down- UseCase 
Member <|-down- State 
Member <|-down- Object 
Member <|-down- Component 
Member <|-down- Node 
Member <|-down- Activity 
Class <|-down- Enum 
Class <|-down- Interface
Member "1..2" *-down-> "0..n" Relation 
Class *-down-> "0..n" Definition
Definition <|-down- Attribute 
Definition <|-down- Method
Definition <|-down- EnumObject
Definition *-down-> Type 
Definition *-down-> "1..3" Modifier
Class *-down-> "1..2" Modifier
Project *-down-> Visbility
Relation <|-down- Composition 
Relation <|-down- Association 
Relation <|-down- Agregation 
Relation <|-down- Use 
Relation <|-down- Base 
Use <|-down- Extend 
Use <|-down- Include
Modifier <|-down- Public
Modifier <|-down- Private
Modifier <|-down- PackagePrivate
Modifier <|-down- Abstract
Modifier <|-down- Final
Modifier <|-down- Static
@enduml

PlantUML version 1.2021.6beta6(Unknown compile time)
(GPL source distribution)
Java Runtime: Java(TM) SE Runtime Environment
JVM: Java HotSpot(TM) 64-Bit Server VM
Default Encoding: UTF-8
Language: en
Country: US
--></g></svg>