<?xml version="1.0" encoding="UTF-8" standalone="no"?><svg xmlns="http://www.w3.org/2000/svg" xmlns:xlink="http://www.w3.org/1999/xlink" contentScriptType="application/ecmascript" contentStyleType="text/css" height="562px" preserveAspectRatio="none" style="width:420px;height:562px;background:#FFFFFF;" version="1.1" viewBox="0 0 420 562" width="420px" zoomAndPan="magnify"><defs><filter height="300%" id="f1xzf6e3lh28t0" width="300%" x="-1" y="-1"><feGaussianBlur result="blurOut" stdDeviation="2.0"/><feColorMatrix in="blurOut" result="blurOut2" type="matrix" values="0 0 0 0 0 0 0 0 0 0 0 0 0 0 0 0 0 0 .4 0"/><feOffset dx="4.0" dy="4.0" in="blurOut2" result="blurOut3"/><feBlend in="SourceGraphic" in2="blurOut3" mode="normal"/></filter></defs><g><rect fill="#FEFECE" filter="url(#f1xzf6e3lh28t0)" height="35.0938" style="stroke:#A80036;stroke-width:1.5;" width="110" x="181.5" y="7"/><text fill="#000000" font-family="sans-serif" font-size="12" lengthAdjust="spacing" textLength="96" x="188.5" y="21.457">:InterpretersStack</text><line style="stroke:#A80036;stroke-width:1.5;" x1="182.5" x2="290.5" y1="26.0938" y2="26.0938"/><rect fill="#FEFECE" filter="url(#f1xzf6e3lh28t0)" height="35.0938" style="stroke:#A80036;stroke-width:1.5;" width="116" x="43.5" y="102"/><text fill="#000000" font-family="sans-serif" font-size="12" lengthAdjust="spacing" textLength="102" x="50.5" y="116.457">:AccountInterpreter</text><line style="stroke:#A80036;stroke-width:1.5;" x1="44.5" x2="158.5" y1="121.0938" y2="121.0938"/><rect fill="#FEFECE" filter="url(#f1xzf6e3lh28t0)" height="35.0938" style="stroke:#A80036;stroke-width:1.5;" width="111" x="181" y="205.5"/><text fill="#000000" font-family="sans-serif" font-size="12" lengthAdjust="spacing" textLength="97" x="188" y="219.957">:ProjectInterpreter</text><line style="stroke:#A80036;stroke-width:1.5;" x1="182" x2="291" y1="224.5938" y2="224.5938"/><rect fill="#FEFECE" filter="url(#f1xzf6e3lh28t0)" height="35.0938" style="stroke:#A80036;stroke-width:1.5;" width="121" x="285" y="311.5"/><text fill="#000000" font-family="sans-serif" font-size="12" lengthAdjust="spacing" textLength="107" x="292" y="325.957">:PackageInterpreter</text><line style="stroke:#A80036;stroke-width:1.5;" x1="286" x2="405" y1="330.5938" y2="330.5938"/><rect fill="#FEFECE" filter="url(#f1xzf6e3lh28t0)" height="35.0938" style="stroke:#A80036;stroke-width:1.5;" width="87" x="302" y="411.5"/><text fill="#000000" font-family="sans-serif" font-size="12" lengthAdjust="spacing" textLength="73" x="309" y="425.957">:ClassParser</text><line style="stroke:#A80036;stroke-width:1.5;" x1="303" x2="388" y1="430.5938" y2="430.5938"/><rect fill="#FEFECE" filter="url(#f1xzf6e3lh28t0)" height="52.25" style="stroke:#A80036;stroke-width:1.5;" width="139" x="7" y="197"/><text fill="#000000" font-family="sans-serif" font-size="12" lengthAdjust="spacing" textLength="46" x="53.5" y="211.457">:Account</text><line style="stroke:#A80036;stroke-width:1.5;" x1="8" x2="145" y1="216.0938" y2="216.0938"/><text fill="#000000" font-family="sans-serif" font-size="10" lengthAdjust="spacing" textLength="78" x="13" y="230.4746">name = accaunt</text><text fill="#000000" font-family="sans-serif" font-size="10" lengthAdjust="spacing" textLength="127" x="13" y="243.0527">email = name@email.com</text><rect fill="#FEFECE" filter="url(#f1xzf6e3lh28t0)" height="39.6719" style="stroke:#A80036;stroke-width:1.5;" width="84" x="165.5" y="309"/><text fill="#000000" font-family="sans-serif" font-size="12" lengthAdjust="spacing" textLength="41" x="187" y="323.457">:Project</text><line style="stroke:#A80036;stroke-width:1.5;" x1="166.5" x2="248.5" y1="328.0938" y2="328.0938"/><text fill="#000000" font-family="sans-serif" font-size="10" lengthAdjust="spacing" textLength="72" x="171.5" y="342.4746">name = project</text><rect fill="#FEFECE" filter="url(#f1xzf6e3lh28t0)" height="39.6719" style="stroke:#A80036;stroke-width:1.5;" width="91" x="176" y="409"/><text fill="#000000" font-family="sans-serif" font-size="12" lengthAdjust="spacing" textLength="51" x="196" y="423.457">:Package</text><line style="stroke:#A80036;stroke-width:1.5;" x1="177" x2="266" y1="428.0938" y2="428.0938"/><text fill="#000000" font-family="sans-serif" font-size="10" lengthAdjust="spacing" textLength="79" x="182" y="442.4746">name = package</text><rect fill="#FEFECE" filter="url(#f1xzf6e3lh28t0)" height="39.6719" style="stroke:#A80036;stroke-width:1.5;" width="74" x="246.5" y="509"/><text fill="#000000" font-family="sans-serif" font-size="12" lengthAdjust="spacing" textLength="36" x="265.5" y="523.457">:Class</text><line style="stroke:#A80036;stroke-width:1.5;" x1="247.5" x2="319.5" y1="528.0938" y2="528.0938"/><text fill="#000000" font-family="sans-serif" font-size="10" lengthAdjust="spacing" textLength="62" x="252.5" y="542.4746">name = class</text><!--MD5=[e815d0aa71f89fc60c07b956d145abcd]
link InterpretersStack to AccountInterpreter--><path codeLine="6" d="M212.36,42.13 C189.28,58.03 154.46,82.02 130.02,98.86 " fill="none" id="InterpretersStack-to-AccountInterpreter" style="stroke:#A80036;stroke-width:1.0;"/><polygon fill="#A80036" points="125.88,101.7,135.5625,99.8974,130.0002,98.8674,131.0303,93.3051,125.88,101.7" style="stroke:#A80036;stroke-width:1.0;"/><!--MD5=[c3e6df0c1fd893a32cc86766ec7705d7]
link InterpretersStack to ProjectInterpreter--><path codeLine="7" d="M236.5,42.25 C236.5,77.78 236.5,160.67 236.5,200.23 " fill="none" id="InterpretersStack-to-ProjectInterpreter" style="stroke:#A80036;stroke-width:1.0;"/><polygon fill="#A80036" points="236.5,205.29,240.5,196.29,236.5,200.29,232.5,196.29,236.5,205.29" style="stroke:#A80036;stroke-width:1.0;"/><!--MD5=[162e41f5dab8dd4e1efd4028a0aa6d74]
link InterpretersStack to PackageInterpreter--><path codeLine="8" d="M244.52,42.24 C258.86,72.59 289.27,138.94 309.5,197 C322.67,234.79 334.2,280.04 340.47,306.26 " fill="none" id="InterpretersStack-to-PackageInterpreter" style="stroke:#A80036;stroke-width:1.0;"/><polygon fill="#A80036" points="341.66,311.24,343.4654,301.558,340.5013,306.3761,335.6832,303.412,341.66,311.24" style="stroke:#A80036;stroke-width:1.0;"/><!--MD5=[1975761e37f725cf3adbdb19d83d2e3e]
link PackageInterpreter to ClassParser--><path codeLine="12" d="M345.5,346.62 C345.5,362.96 345.5,387.97 345.5,405.96 " fill="none" id="PackageInterpreter-to-ClassParser" style="stroke:#A80036;stroke-width:1.0;stroke-dasharray:7.0,7.0;"/><polygon fill="#A80036" points="345.5,411.29,349.5,402.29,345.5,406.29,341.5,402.29,345.5,411.29" style="stroke:#A80036;stroke-width:1.0;"/><!--MD5=[a1a4cfa532728efa24278c706b9245e3]
link Account to Project--><path codeLine="28" d="M108.21,249.18 C129.93,266.42 158.48,289.09 179.39,305.69 " fill="none" id="Account-to-Project" style="stroke:#A80036;stroke-width:1.0;"/><polygon fill="#A80036" points="183.47,308.92,178.9176,300.1864,179.5573,305.807,173.9367,306.4467,183.47,308.92" style="stroke:#A80036;stroke-width:1.0;"/><!--MD5=[9ab6b7b79e26e86c2ee810fbd67a17e0]
link Project to Package--><path codeLine="29" d="M210.27,349.36 C212.49,364.93 215.63,386.9 218.02,403.66 " fill="none" id="Project-to-Package" style="stroke:#A80036;stroke-width:1.0;"/><polygon fill="#A80036" points="218.74,408.68,221.4155,399.2015,218.0269,403.7311,213.4973,400.3425,218.74,408.68" style="stroke:#A80036;stroke-width:1.0;"/><!--MD5=[432d4007a8ad8ce028b03ca0161ee1f2]
link Package to Class--><path codeLine="30" d="M233.75,449.36 C243.68,465.07 257.74,487.28 268.37,504.09 " fill="none" id="Package-to-Class" style="stroke:#A80036;stroke-width:1.0;"/><polygon fill="#A80036" points="271.28,508.68,269.8548,498.9348,268.6095,504.4529,263.0914,503.2076,271.28,508.68" style="stroke:#A80036;stroke-width:1.0;"/><!--MD5=[38ed06532fc109675ebe836065e1b0c8]
link ClassParser to Class--><path codeLine="31" d="M334.98,446.62 C324.92,462.53 309.64,486.68 298.34,504.54 " fill="none" id="ClassParser-to-Class" style="stroke:#A80036;stroke-width:1.0;stroke-dasharray:7.0,7.0;"/><polygon fill="#A80036" points="295.56,508.94,303.7486,503.4676,298.2305,504.7129,296.9852,499.1948,295.56,508.94" style="stroke:#A80036;stroke-width:1.0;"/><!--MD5=[eb8d159f93e85e12ec628d3020b99bc1]
link AccountInterpreter to Account--><path codeLine="33" d="M97.37,137.26 C93.72,152.08 88.31,174.07 83.91,191.93 " fill="none" id="AccountInterpreter-to-Account" style="stroke:#A80036;stroke-width:1.0;"/><polygon fill="#A80036" points="82.7,196.84,88.7419,189.0621,83.8992,191.9859,80.9754,187.1433,82.7,196.84" style="stroke:#A80036;stroke-width:1.0;"/><!--MD5=[b57043d1081888c71847aee3ce32108b]
link ProjectInterpreter to Project--><path codeLine="34" d="M231.84,240.71 C227.1,257.71 219.7,284.25 214.3,303.61 " fill="none" id="ProjectInterpreter-to-Project" style="stroke:#A80036;stroke-width:1.0;"/><polygon fill="#A80036" points="212.84,308.86,219.1052,301.2608,214.1797,304.0428,211.3977,299.1173,212.84,308.86" style="stroke:#A80036;stroke-width:1.0;"/><!--MD5=[ce2914b44a031735a95958fa2b0e2d60]
link PackageInterpreter to Package--><path codeLine="35" d="M324.47,346.62 C303.91,362.87 272.48,387.71 249.75,405.67 " fill="none" id="PackageInterpreter-to-Package" style="stroke:#A80036;stroke-width:1.0;"/><polygon fill="#A80036" points="245.62,408.94,255.1588,406.4881,249.5396,405.8358,250.192,400.2166,245.62,408.94" style="stroke:#A80036;stroke-width:1.0;"/><!--MD5=[58cb2e197536adcc973897ae208226c3]
@startuml addClassInterpreters_design
object ":InterpretersStack" as InterpretersStack
object ":AccountInterpreter" as AccountInterpreter
object ":ProjectInterpreter" as ProjectInterpreter
object ":PackageInterpreter" as PackageInterpreter

InterpretersStack -down-> AccountInterpreter
InterpretersStack -down-> ProjectInterpreter
InterpretersStack -down-> PackageInterpreter

object ":ClassParser" as ClassParser

PackageInterpreter .down.> ClassParser

object ":Account" as Account {
    name = accaunt
    email = name@email.com
}
object ":Project" as Project {
    name = project
}
object ":Package" as Package {
    name = package
}
object ":Class" as Class {
    name = class
}

Account -down-> Project
Project -down-> Package
Package -down-> Class
ClassParser .down.> Class

AccountInterpreter -down-> Account
ProjectInterpreter -down-> Project
PackageInterpreter -down-> Package
@enduml

PlantUML version 1.2021.7(Sun May 23 14:40:07 CEST 2021)
(GPL source distribution)
Java Runtime: Java(TM) SE Runtime Environment
JVM: Java HotSpot(TM) 64-Bit Server VM
Default Encoding: Cp1252
Language: es
Country: ES
--></g></svg>