<?xml version="1.0" encoding="UTF-8" standalone="no"?><svg xmlns="http://www.w3.org/2000/svg" xmlns:xlink="http://www.w3.org/1999/xlink" contentScriptType="application/ecmascript" contentStyleType="text/css" height="490px" preserveAspectRatio="none" style="width:1617px;height:490px;background:#FFFFFF;" version="1.1" viewBox="0 0 1617 490" width="1617px" zoomAndPan="magnify"><defs><filter height="300%" id="f19mdj4l9tl1ao" width="300%" x="-1" y="-1"><feGaussianBlur result="blurOut" stdDeviation="2.0"/><feColorMatrix in="blurOut" result="blurOut2" type="matrix" values="0 0 0 0 0 0 0 0 0 0 0 0 0 0 0 0 0 0 .4 0"/><feOffset dx="4.0" dy="4.0" in="blurOut2" result="blurOut3"/><feBlend in="SourceGraphic" in2="blurOut3" mode="normal"/></filter></defs><g><!--MD5=[aa2f05b2676d7d34ffa7e771fb7634f3]
cluster client--><polygon fill="#FFFFFF" filter="url(#f19mdj4l9tl1ao)" points="499,16,509,6,658,6,658,117,648,127,499,127,499,16" style="stroke:#000000;stroke-width:1.5;"/><line style="stroke:#000000;stroke-width:1.5;" x1="648" x2="658" y1="16" y2="6"/><line style="stroke:#000000;stroke-width:1.5;" x1="499" x2="648" y1="16" y2="16"/><line style="stroke:#000000;stroke-width:1.5;" x1="648" x2="648" y1="16" y2="127"/><text fill="#000000" font-family="sans-serif" font-size="14" font-weight="bold" lengthAdjust="spacing" textLength="39" x="555" y="33.5332">client</text><!--MD5=[6e627c32d62dd5ea8dad20bbffc9adef]
cluster frontServer--><polygon fill="#FFFFFF" filter="url(#f19mdj4l9tl1ao)" points="16,203,26,193,927,193,927,473,917,483,16,483,16,203" style="stroke:#000000;stroke-width:1.5;"/><line style="stroke:#000000;stroke-width:1.5;" x1="917" x2="927" y1="203" y2="193"/><line style="stroke:#000000;stroke-width:1.5;" x1="16" x2="917" y1="203" y2="203"/><line style="stroke:#000000;stroke-width:1.5;" x1="917" x2="917" y1="203" y2="483"/><text fill="#000000" font-family="sans-serif" font-size="14" font-weight="bold" lengthAdjust="spacing" textLength="82" x="426.5" y="220.5332">frontServer</text><!--MD5=[440f90faedf9aeb94dd554eba7f4e8c4]
cluster backServer--><polygon fill="#FFFFFF" filter="url(#f19mdj4l9tl1ao)" points="967,203,977,193,1372,193,1372,473,1362,483,967,483,967,203" style="stroke:#000000;stroke-width:1.5;"/><line style="stroke:#000000;stroke-width:1.5;" x1="1362" x2="1372" y1="203" y2="193"/><line style="stroke:#000000;stroke-width:1.5;" x1="967" x2="1362" y1="203" y2="203"/><line style="stroke:#000000;stroke-width:1.5;" x1="1362" x2="1362" y1="203" y2="483"/><text fill="#000000" font-family="sans-serif" font-size="14" font-weight="bold" lengthAdjust="spacing" textLength="81" x="1125" y="220.5332">backServer</text><!--MD5=[50e9ef68a0d1a1ed0d5b6e48d4e262f2]
cluster databaseServer--><polygon fill="#FFFFFF" filter="url(#f19mdj4l9tl1ao)" points="1412,372,1422,362,1600,362,1600,473,1590,483,1412,483,1412,372" style="stroke:#000000;stroke-width:1.5;"/><line style="stroke:#000000;stroke-width:1.5;" x1="1590" x2="1600" y1="372" y2="362"/><line style="stroke:#000000;stroke-width:1.5;" x1="1412" x2="1590" y1="372" y2="372"/><line style="stroke:#000000;stroke-width:1.5;" x1="1590" x2="1590" y1="372" y2="483"/><text fill="#000000" font-family="sans-serif" font-size="14" font-weight="bold" lengthAdjust="spacing" textLength="112" x="1446" y="389.5332">databaseServer</text><!--MD5=[e9dede37b31fdda9664526f66258b036]
entity Browser--><rect fill="#FEFECE" filter="url(#f19mdj4l9tl1ao)" height="47.6094" style="stroke:#A80036;stroke-width:1.5;" width="91" x="542.5" y="55"/><rect fill="#FEFECE" height="10" style="stroke:#A80036;stroke-width:1.5;" width="15" x="613.5" y="60"/><rect fill="#FEFECE" height="2" style="stroke:#A80036;stroke-width:1.5;" width="4" x="611.5" y="62"/><rect fill="#FEFECE" height="2" style="stroke:#A80036;stroke-width:1.5;" width="4" x="611.5" y="66"/><text fill="#000000" font-family="sans-serif" font-size="14" lengthAdjust="spacing" textLength="51" x="557.5" y="89.5332">Browser</text><!--MD5=[eae7271b97cd89b1036f59bc0af90589]
entity front--><rect fill="#FEFECE" filter="url(#f19mdj4l9tl1ao)" height="47.6094" style="stroke:#A80036;stroke-width:1.5;" width="119" x="466.5" y="242"/><rect fill="#FEFECE" height="10" style="stroke:#A80036;stroke-width:1.5;" width="15" x="565.5" y="247"/><rect fill="#FEFECE" height="2" style="stroke:#A80036;stroke-width:1.5;" width="4" x="563.5" y="249"/><rect fill="#FEFECE" height="2" style="stroke:#A80036;stroke-width:1.5;" width="4" x="563.5" y="253"/><text fill="#000000" font-family="sans-serif" font-size="14" lengthAdjust="spacing" textLength="79" x="481.5" y="276.5332">ust-uml:front</text><!--MD5=[a540e78612a372e5cadf164e954960e5]
entity Angular--><rect fill="#FEFECE" filter="url(#f19mdj4l9tl1ao)" height="47.6094" style="stroke:#A80036;stroke-width:1.5;" width="89" x="813.5" y="411"/><rect fill="#FEFECE" height="10" style="stroke:#A80036;stroke-width:1.5;" width="15" x="882.5" y="416"/><rect fill="#FEFECE" height="2" style="stroke:#A80036;stroke-width:1.5;" width="4" x="880.5" y="418"/><rect fill="#FEFECE" height="2" style="stroke:#A80036;stroke-width:1.5;" width="4" x="880.5" y="422"/><text fill="#000000" font-family="sans-serif" font-size="14" lengthAdjust="spacing" textLength="49" x="828.5" y="445.5332">Angular</text><!--MD5=[cb1ced428456c15a31b461cefcc7d823]
entity pako--><rect fill="#FEFECE" filter="url(#f19mdj4l9tl1ao)" height="47.6094" style="stroke:#A80036;stroke-width:1.5;" width="71" x="48.5" y="411"/><rect fill="#FEFECE" height="10" style="stroke:#A80036;stroke-width:1.5;" width="15" x="99.5" y="416"/><rect fill="#FEFECE" height="2" style="stroke:#A80036;stroke-width:1.5;" width="4" x="97.5" y="418"/><rect fill="#FEFECE" height="2" style="stroke:#A80036;stroke-width:1.5;" width="4" x="97.5" y="422"/><text fill="#000000" font-family="sans-serif" font-size="14" lengthAdjust="spacing" textLength="31" x="63.5" y="445.5332">pako</text><!--MD5=[be6155fad3a4ee2585d9196117651dd6]
entity yaml--><rect fill="#FEFECE" filter="url(#f19mdj4l9tl1ao)" height="47.6094" style="stroke:#A80036;stroke-width:1.5;" width="84" x="155" y="411"/><rect fill="#FEFECE" height="10" style="stroke:#A80036;stroke-width:1.5;" width="15" x="219" y="416"/><rect fill="#FEFECE" height="2" style="stroke:#A80036;stroke-width:1.5;" width="4" x="217" y="418"/><rect fill="#FEFECE" height="2" style="stroke:#A80036;stroke-width:1.5;" width="4" x="217" y="422"/><text fill="#000000" font-family="sans-serif" font-size="14" lengthAdjust="spacing" textLength="44" x="170" y="445.5332">js-yaml</text><!--MD5=[7a199650d090603358194377cd2d7296]
entity bootstrap--><rect fill="#FEFECE" filter="url(#f19mdj4l9tl1ao)" height="47.6094" style="stroke:#A80036;stroke-width:1.5;" width="100" x="274" y="411"/><rect fill="#FEFECE" height="10" style="stroke:#A80036;stroke-width:1.5;" width="15" x="354" y="416"/><rect fill="#FEFECE" height="2" style="stroke:#A80036;stroke-width:1.5;" width="4" x="352" y="418"/><rect fill="#FEFECE" height="2" style="stroke:#A80036;stroke-width:1.5;" width="4" x="352" y="422"/><text fill="#000000" font-family="sans-serif" font-size="14" lengthAdjust="spacing" textLength="60" x="289" y="445.5332">bootstrap</text><!--MD5=[397b296eedc2e51237f0291481916692]
entity jquery--><rect fill="#FEFECE" filter="url(#f19mdj4l9tl1ao)" height="47.6094" style="stroke:#A80036;stroke-width:1.5;" width="79" x="409.5" y="411"/><rect fill="#FEFECE" height="10" style="stroke:#A80036;stroke-width:1.5;" width="15" x="468.5" y="416"/><rect fill="#FEFECE" height="2" style="stroke:#A80036;stroke-width:1.5;" width="4" x="466.5" y="418"/><rect fill="#FEFECE" height="2" style="stroke:#A80036;stroke-width:1.5;" width="4" x="466.5" y="422"/><text fill="#000000" font-family="sans-serif" font-size="14" lengthAdjust="spacing" textLength="39" x="424.5" y="445.5332">jquery</text><!--MD5=[b44cc162cb34fa4d8a5cc9c40e996166]
entity monaco--><rect fill="#FEFECE" filter="url(#f19mdj4l9tl1ao)" height="47.6094" style="stroke:#A80036;stroke-width:1.5;" width="158" x="524" y="411"/><rect fill="#FEFECE" height="10" style="stroke:#A80036;stroke-width:1.5;" width="15" x="662" y="416"/><rect fill="#FEFECE" height="2" style="stroke:#A80036;stroke-width:1.5;" width="4" x="660" y="418"/><rect fill="#FEFECE" height="2" style="stroke:#A80036;stroke-width:1.5;" width="4" x="660" y="422"/><text fill="#000000" font-family="sans-serif" font-size="14" lengthAdjust="spacing" textLength="118" x="539" y="445.5332">ngx-monaco-editor</text><!--MD5=[1bae4deff1ee615d07cc2681d55105ab]
entity rxjs--><rect fill="#FEFECE" filter="url(#f19mdj4l9tl1ao)" height="47.6094" style="stroke:#A80036;stroke-width:1.5;" width="61" x="717.5" y="411"/><rect fill="#FEFECE" height="10" style="stroke:#A80036;stroke-width:1.5;" width="15" x="758.5" y="416"/><rect fill="#FEFECE" height="2" style="stroke:#A80036;stroke-width:1.5;" width="4" x="756.5" y="418"/><rect fill="#FEFECE" height="2" style="stroke:#A80036;stroke-width:1.5;" width="4" x="756.5" y="422"/><text fill="#000000" font-family="sans-serif" font-size="14" lengthAdjust="spacing" textLength="21" x="732.5" y="445.5332">rxjs</text><!--MD5=[6217af0d48b18cf331178f0810d9ee1e]
entity back--><rect fill="#FEFECE" filter="url(#f19mdj4l9tl1ao)" height="47.6094" style="stroke:#A80036;stroke-width:1.5;" width="120" x="1041" y="242"/><rect fill="#FEFECE" height="10" style="stroke:#A80036;stroke-width:1.5;" width="15" x="1141" y="247"/><rect fill="#FEFECE" height="2" style="stroke:#A80036;stroke-width:1.5;" width="4" x="1139" y="249"/><rect fill="#FEFECE" height="2" style="stroke:#A80036;stroke-width:1.5;" width="4" x="1139" y="253"/><text fill="#000000" font-family="sans-serif" font-size="14" lengthAdjust="spacing" textLength="80" x="1056" y="276.5332">ust-uml:back</text><!--MD5=[a6bee6a27156e36ba3c523a51fc6dcbb]
entity spring--><rect fill="#FEFECE" filter="url(#f19mdj4l9tl1ao)" height="47.6094" style="stroke:#A80036;stroke-width:1.5;" width="112" x="1228" y="411"/><rect fill="#FEFECE" height="10" style="stroke:#A80036;stroke-width:1.5;" width="15" x="1320" y="416"/><rect fill="#FEFECE" height="2" style="stroke:#A80036;stroke-width:1.5;" width="4" x="1318" y="418"/><rect fill="#FEFECE" height="2" style="stroke:#A80036;stroke-width:1.5;" width="4" x="1318" y="422"/><text fill="#000000" font-family="sans-serif" font-size="14" lengthAdjust="spacing" textLength="72" x="1243" y="445.5332">spring-boot</text><!--MD5=[2eafaeb20c7be665049ce8c5fabde8e9]
entity lombok--><rect fill="#FEFECE" filter="url(#f19mdj4l9tl1ao)" height="47.6094" style="stroke:#A80036;stroke-width:1.5;" width="85" x="991.5" y="411"/><rect fill="#FEFECE" height="10" style="stroke:#A80036;stroke-width:1.5;" width="15" x="1056.5" y="416"/><rect fill="#FEFECE" height="2" style="stroke:#A80036;stroke-width:1.5;" width="4" x="1054.5" y="418"/><rect fill="#FEFECE" height="2" style="stroke:#A80036;stroke-width:1.5;" width="4" x="1054.5" y="422"/><text fill="#000000" font-family="sans-serif" font-size="14" lengthAdjust="spacing" textLength="45" x="1006.5" y="445.5332">lombok</text><!--MD5=[de87cc794444d9fc8725f7d1792e90f5]
entity jacoco--><rect fill="#FEFECE" filter="url(#f19mdj4l9tl1ao)" height="47.6094" style="stroke:#A80036;stroke-width:1.5;" width="81" x="1111.5" y="411"/><rect fill="#FEFECE" height="10" style="stroke:#A80036;stroke-width:1.5;" width="15" x="1172.5" y="416"/><rect fill="#FEFECE" height="2" style="stroke:#A80036;stroke-width:1.5;" width="4" x="1170.5" y="418"/><rect fill="#FEFECE" height="2" style="stroke:#A80036;stroke-width:1.5;" width="4" x="1170.5" y="422"/><text fill="#000000" font-family="sans-serif" font-size="14" lengthAdjust="spacing" textLength="41" x="1126.5" y="445.5332">jacoco</text><!--MD5=[ba72416187da2a396e219ea5b5d73a26]
entity MongoDB--><rect fill="#FEFECE" filter="url(#f19mdj4l9tl1ao)" height="47.6094" style="stroke:#A80036;stroke-width:1.5;" width="102" x="1464" y="411"/><rect fill="#FEFECE" height="10" style="stroke:#A80036;stroke-width:1.5;" width="15" x="1546" y="416"/><rect fill="#FEFECE" height="2" style="stroke:#A80036;stroke-width:1.5;" width="4" x="1544" y="418"/><rect fill="#FEFECE" height="2" style="stroke:#A80036;stroke-width:1.5;" width="4" x="1544" y="422"/><text fill="#000000" font-family="sans-serif" font-size="14" lengthAdjust="spacing" textLength="62" x="1479" y="445.5332">MongoDB</text><!--MD5=[e5d358a9f76f1194f05db9ee1d8bd149]
link front to Angular--><path d="M585.71,272.97 C643.98,281.29 732.84,300.83 796,346 C817.44,361.33 834.08,386.48 844.69,405.98 " fill="none" id="front-to-Angular" style="stroke:#A80036;stroke-width:1.0;stroke-dasharray:7.0,7.0;"/><polygon fill="#A80036" points="847.26,410.8,846.5739,400.9751,844.916,406.3835,839.5075,404.7255,847.26,410.8" style="stroke:#A80036;stroke-width:1.0;"/><!--MD5=[30de2ae012d6dc1d0beb62c74180b8b1]
link front to pako--><path d="M466.41,289.1 C465.26,289.41 464.13,289.71 463,290 C320.53,326.24 256.91,260.95 137,346 C116.26,360.71 102.18,386.33 93.78,406.14 " fill="none" id="front-to-pako" style="stroke:#A80036;stroke-width:1.0;stroke-dasharray:7.0,7.0;"/><polygon fill="#A80036" points="91.87,410.79,98.9881,403.9832,93.7687,406.1645,91.5873,400.9452,91.87,410.79" style="stroke:#A80036;stroke-width:1.0;"/><!--MD5=[5855889c92227ca910dd857320f81fc9]
link front to yaml--><path d="M466.35,288.92 C465.23,289.29 464.11,289.65 463,290 C372.58,318.74 334.28,290.96 257,346 C235.76,361.13 219.71,386.3 209.58,405.86 " fill="none" id="front-to-yaml" style="stroke:#A80036;stroke-width:1.0;stroke-dasharray:7.0,7.0;"/><polygon fill="#A80036" points="207.13,410.7,214.7486,404.4585,209.3775,406.2336,207.6024,400.8625,207.13,410.7" style="stroke:#A80036;stroke-width:1.0;"/><!--MD5=[d2c2a3c8a18c406121b7f8e23abca13c]
link front to bootstrap--><path d="M477.17,290.01 C450.38,304 417.52,323.49 392,346 C372.11,363.54 353.99,387.6 341.46,406.12 " fill="none" id="front-to-bootstrap" style="stroke:#A80036;stroke-width:1.0;stroke-dasharray:7.0,7.0;"/><polygon fill="#A80036" points="338.4,410.7,346.733,405.4501,341.1834,406.5463,340.0872,400.9967,338.4,410.7" style="stroke:#A80036;stroke-width:1.0;"/><!--MD5=[5329b35bdfd35dadbb95077ff1298acf]
link front to jquery--><path d="M515.29,290.22 C501.27,320.63 476.72,373.88 461.75,406.34 " fill="none" id="front-to-jquery" style="stroke:#A80036;stroke-width:1.0;stroke-dasharray:7.0,7.0;"/><polygon fill="#A80036" points="459.62,410.98,467.0272,404.489,461.718,406.4415,459.7656,401.1322,459.62,410.98" style="stroke:#A80036;stroke-width:1.0;"/><!--MD5=[ae8230482b45fd6f337171b9ec747a04]
link front to monaco--><path d="M536.71,290.22 C550.73,320.63 575.28,373.88 590.25,406.34 " fill="none" id="front-to-monaco" style="stroke:#A80036;stroke-width:1.0;stroke-dasharray:7.0,7.0;"/><polygon fill="#A80036" points="592.38,410.98,592.2344,401.1322,590.282,406.4415,584.9728,404.489,592.38,410.98" style="stroke:#A80036;stroke-width:1.0;"/><!--MD5=[aa1d2e76b8f98c4cd472887bd441db5c]
link front to rxjs--><path d="M585.52,283.38 C621.98,295.81 667.68,315.96 700,346 C717.74,362.49 730.38,387.07 738.22,406.06 " fill="none" id="front-to-rxjs" style="stroke:#A80036;stroke-width:1.0;stroke-dasharray:7.0,7.0;"/><polygon fill="#A80036" points="740.11,410.76,740.4814,400.9181,738.253,406.1176,733.0536,403.8893,740.11,410.76" style="stroke:#A80036;stroke-width:1.0;"/><!--MD5=[d0c97444d9fbf094a179622f1cd792b9]
link back to spring--><path d="M1137.3,290.03 C1159.35,304.79 1187.5,325.07 1210,346 C1230.11,364.71 1249.98,388.73 1264.06,406.94 " fill="none" id="back-to-spring" style="stroke:#A80036;stroke-width:1.0;stroke-dasharray:7.0,7.0;"/><polygon fill="#A80036" points="1267.15,410.97,1264.8348,401.3971,1264.1021,407.0063,1258.4929,406.2737,1267.15,410.97" style="stroke:#A80036;stroke-width:1.0;"/><!--MD5=[daaac2a2945361efd2830732c6d52b97]
link back to lombok--><path d="M1091.68,290.22 C1079.53,320.51 1058.29,373.45 1045.26,405.94 " fill="none" id="back-to-lombok" style="stroke:#A80036;stroke-width:1.0;stroke-dasharray:7.0,7.0;"/><polygon fill="#A80036" points="1043.24,410.98,1050.3146,404.128,1045.1092,406.3426,1042.8947,401.1372,1043.24,410.98" style="stroke:#A80036;stroke-width:1.0;"/><!--MD5=[23b78d92e969e615866d40f6c904e1fb]
link back to jacoco--><path d="M1108.09,290.22 C1117.34,320.51 1133.51,373.45 1143.43,405.94 " fill="none" id="back-to-jacoco" style="stroke:#A80036;stroke-width:1.0;stroke-dasharray:7.0,7.0;"/><polygon fill="#A80036" points="1144.97,410.98,1146.1484,401.2019,1143.5006,406.2008,1138.5017,403.553,1144.97,410.98" style="stroke:#A80036;stroke-width:1.0;"/><!--MD5=[beff7851b3cc18ecca768e416c5bc513]
link client to backServer--><path d="M514.2228,127.2837 C514.4088,127.6867 514.5994,128.0873 514.7946,128.4854 C515.1849,129.2814 515.5938,130.0671 516.022,130.8404 C516.8783,132.3871 517.812,133.8843 518.8298,135.3164 C520.8655,138.1805 523.2375,140.7838 526,143 C533.54,149.05 863.34,168.56 873,169 C886.4,169.61 1346.17,167.87 1356,177 C1359.5413,180.2875 1362.3322,184.0983 1364.5038,188.2538 C1365.0467,189.2927 1365.5509,190.3531 1366.0185,191.4323 C1366.1354,191.7021 1366.25,191.9731 1366.3623,192.2452 C1366.4185,192.3812 1366.4741,192.5175 1366.5291,192.6542 " fill="none" id="client-backServer" style="stroke:#A80036;stroke-width:1.0;"/><text fill="#000000" font-family="sans-serif" font-size="13" lengthAdjust="spacing" textLength="32" x="874" y="165.4951">tcp/ip</text><!--MD5=[cff5a5d495c2da1c38eb5cd7b0654309]
link client to frontServer--><path d="M498.653,80.3929 C497.6692,80.4425 496.6036,80.4971 495.4589,80.5569 C493.1695,80.6764 490.5638,80.8165 487.6635,80.9786 C476.0625,81.627 459.7496,82.6275 440.1261,84.0694 C400.8791,86.9531 348.3894,91.6025 293.8663,98.7325 C184.82,112.9925 67.64,137.175 32,177 C28.8288,180.5438 26.3083,184.5197 24.3275,188.7712 C23.8323,189.834 23.3708,190.9141 22.9413,192.009 C22.834,192.2827 22.7286,192.5574 22.6252,192.8329 " fill="none" id="client-frontServer" style="stroke:#A80036;stroke-width:1.0;"/><text fill="#000000" font-family="sans-serif" font-size="13" lengthAdjust="spacing" textLength="32" x="64" y="165.4951">tcp/ip</text><!--MD5=[e245512d8ee3f252722116633eaf00e6]
link Browser to back--><path d="M633.57,84.99 C698.09,93.14 818.91,112.41 915,151 C973.7,174.57 1034.96,215.9 1070.47,241.79 " fill="none" id="Browser-back" style="stroke:#A80036;stroke-width:1.0;"/><text fill="#000000" font-family="sans-serif" font-size="13" lengthAdjust="spacing" textLength="22" x="953" y="165.4951">http</text><!--MD5=[c5ad98a3a0beba0e020089c741202f13]
link Browser to front--><path d="M580.27,103.06 C568.36,138.6 545.64,206.4 533.73,241.94 " fill="none" id="Browser-front" style="stroke:#A80036;stroke-width:1.0;"/><text fill="#000000" font-family="sans-serif" font-size="13" lengthAdjust="spacing" textLength="22" x="563" y="165.4951">http</text><!--MD5=[5b86e11b07a593d5c5b430181637c5e4]
link backServer to databaseServer--><path d="M1372.0643,291.0481 C1372.1414,291.278 1372.2189,291.5092 1372.2968,291.7416 C1372.6085,292.6711 1372.9269,293.6204 1373.2514,294.5881 C1378.4441,310.0725 1385.2281,330.3025 1392.0113,350.53 C1398.7944,370.7575 1405.5766,390.9825 1410.7655,406.4569 C1411.0898,407.424 1411.4079,408.3726 1411.7193,409.3015 C1411.7972,409.5337 1411.8747,409.7647 1411.9517,409.9944 " fill="none" id="backServer-databaseServer" style="stroke:#A80036;stroke-width:1.0;"/><text fill="#000000" font-family="sans-serif" font-size="13" lengthAdjust="spacing" textLength="57" x="1387" y="334.4951">mongoDB</text><!--MD5=[1adfa6dce1952b9a6a7f4aa03efb8b56]
@startuml deployView

node client { 
    component Browser
}

node frontServer {
    component front as "ust-uml:front"
    component Angular
    component pako
    component yaml as "js-yaml"
    component bootstrap
    component jquery
    component monaco as "ngx-monaco-editor"
    component rxjs
}

node backServer {
    component back as "ust-uml:back"
    component spring as "spring-boot"
    component lombok
    component jacoco
}

front .down.> Angular
front .down.> pako
front .down.> yaml
front .down.> bootstrap
front .down.> jquery
front .down.> monaco
front .down.> rxjs
back .down.> spring
back .down.> lombok
back .down.> jacoco

node databaseServer {
    component MongoDB
}

client -down- backServer: tcp/ip
client -down- frontServer: tcp/ip
Browser -down- back: http
Browser -down- front: http
backServer -down- databaseServer: mongoDB
@enduml

PlantUML version 1.2021.7(Sun May 23 14:40:07 CEST 2021)
(GPL source distribution)
Java Runtime: Java(TM) SE Runtime Environment
JVM: Java HotSpot(TM) 64-Bit Server VM
Default Encoding: Cp1252
Language: es
Country: ES
--></g></svg>