<?xml version="1.0" encoding="UTF-8" standalone="no"?><svg xmlns="http://www.w3.org/2000/svg" xmlns:xlink="http://www.w3.org/1999/xlink" contentScriptType="application/ecmascript" contentStyleType="text/css" height="497px" preserveAspectRatio="none" style="width:210px;height:497px;background:#FFFFFF;" version="1.1" viewBox="0 0 210 497" width="210px" zoomAndPan="magnify"><defs><filter height="300%" id="f1f5j8iewzfvqj" width="300%" x="-1" y="-1"><feGaussianBlur result="blurOut" stdDeviation="2.0"/><feColorMatrix in="blurOut" result="blurOut2" type="matrix" values="0 0 0 0 0 0 0 0 0 0 0 0 0 0 0 0 0 0 .4 0"/><feOffset dx="4.0" dy="4.0" in="blurOut2" result="blurOut3"/><feBlend in="SourceGraphic" in2="blurOut3" mode="normal"/></filter></defs><g><!--MD5=[aa2f05b2676d7d34ffa7e771fb7634f3]
cluster client--><polygon fill="#FFFFFF" filter="url(#f1f5j8iewzfvqj)" points="16,16,26,6,177,6,177,114,167,124,16,124,16,16" style="stroke:#000000;stroke-width:1.5;"/><line style="stroke:#000000;stroke-width:1.5;" x1="167" x2="177" y1="16" y2="6"/><line style="stroke:#000000;stroke-width:1.5;" x1="16" x2="167" y1="16" y2="16"/><line style="stroke:#000000;stroke-width:1.5;" x1="167" x2="167" y1="16" y2="124"/><text fill="#000000" font-family="sans-serif" font-size="14" font-weight="bold" lengthAdjust="spacing" textLength="46" x="69.5" y="31.9951">client</text><!--MD5=[4ef80439e1ef409f8f3a0ec422262701]
cluster server--><polygon fill="#FFFFFF" filter="url(#f1f5j8iewzfvqj)" points="16,199,26,189,171,189,171,297,161,307,16,307,16,199" style="stroke:#000000;stroke-width:1.5;"/><line style="stroke:#000000;stroke-width:1.5;" x1="161" x2="171" y1="199" y2="189"/><line style="stroke:#000000;stroke-width:1.5;" x1="16" x2="161" y1="199" y2="199"/><line style="stroke:#000000;stroke-width:1.5;" x1="161" x2="161" y1="199" y2="307"/><text fill="#000000" font-family="sans-serif" font-size="14" font-weight="bold" lengthAdjust="spacing" textLength="50" x="64.5" y="214.9951">server</text><!--MD5=[db65ce44d5e360fb4ec835f941dc7573]
cluster database--><polygon fill="#FFFFFF" filter="url(#f1f5j8iewzfvqj)" points="16,382,26,372,193,372,193,480,183,490,16,490,16,382" style="stroke:#000000;stroke-width:1.5;"/><line style="stroke:#000000;stroke-width:1.5;" x1="183" x2="193" y1="382" y2="372"/><line style="stroke:#000000;stroke-width:1.5;" x1="16" x2="183" y1="382" y2="382"/><line style="stroke:#000000;stroke-width:1.5;" x1="183" x2="183" y1="382" y2="490"/><text fill="#000000" font-family="sans-serif" font-size="14" font-weight="bold" lengthAdjust="spacing" textLength="76" x="62.5" y="397.9951">database</text><!--MD5=[a540e78612a372e5cadf164e954960e5]
entity Angular--><rect fill="#FEFECE" filter="url(#f1f5j8iewzfvqj)" height="46.2969" style="stroke:#A80036;stroke-width:1.5;" width="94" x="59" y="54"/><rect fill="#FEFECE" height="10" style="stroke:#A80036;stroke-width:1.5;" width="15" x="133" y="59"/><rect fill="#FEFECE" height="2" style="stroke:#A80036;stroke-width:1.5;" width="4" x="131" y="61"/><rect fill="#FEFECE" height="2" style="stroke:#A80036;stroke-width:1.5;" width="4" x="131" y="65"/><text fill="#000000" font-family="sans-serif" font-size="14" lengthAdjust="spacing" textLength="54" x="74" y="86.9951">Angular</text><!--MD5=[d9d71d4211840a16622e2146ed655e13]
entity Spring--><rect fill="#FEFECE" filter="url(#f1f5j8iewzfvqj)" height="46.2969" style="stroke:#A80036;stroke-width:1.5;" width="87" x="59.5" y="237"/><rect fill="#FEFECE" height="10" style="stroke:#A80036;stroke-width:1.5;" width="15" x="126.5" y="242"/><rect fill="#FEFECE" height="2" style="stroke:#A80036;stroke-width:1.5;" width="4" x="124.5" y="244"/><rect fill="#FEFECE" height="2" style="stroke:#A80036;stroke-width:1.5;" width="4" x="124.5" y="248"/><text fill="#000000" font-family="sans-serif" font-size="14" lengthAdjust="spacing" textLength="47" x="74.5" y="269.9951">Spring</text><!--MD5=[ba72416187da2a396e219ea5b5d73a26]
entity MongoDB--><rect fill="#FEFECE" filter="url(#f1f5j8iewzfvqj)" height="46.2969" style="stroke:#A80036;stroke-width:1.5;" width="109" x="59.5" y="420"/><rect fill="#FEFECE" height="10" style="stroke:#A80036;stroke-width:1.5;" width="15" x="148.5" y="425"/><rect fill="#FEFECE" height="2" style="stroke:#A80036;stroke-width:1.5;" width="4" x="146.5" y="427"/><rect fill="#FEFECE" height="2" style="stroke:#A80036;stroke-width:1.5;" width="4" x="146.5" y="431"/><text fill="#000000" font-family="sans-serif" font-size="14" lengthAdjust="spacing" textLength="69" x="74.5" y="452.9951">MongoDB</text><!--MD5=[6e668341980b2b6f3174a2b130bbe9df]
link client to server--><path d="M24,124.0732 C24,124.376 24,124.6798 24,124.9844 C24,126.2028 24,127.435 24,128.6798 C24,131.1694 24,133.7092 24,136.2891 C24,146.6089 24,157.5713 24,168.5331 C24,174.014 24,179.4947 24,184.8949 C24,186.2449 24,187.5899 24,188.9287 " fill="none" id="client-server" style="stroke:#A80036;stroke-width:1.0;"/><text fill="#000000" font-family="sans-serif" font-size="13" lengthAdjust="spacing" textLength="26" x="25" y="161.0669">http</text><!--MD5=[159ab89cb9974f6adccb009df31e100d]
link server to database--><path d="M24,307.0731 C24,307.376 24,307.6797 24,307.9843 C24,309.2027 24,310.4349 24,311.6797 C24,314.1693 24,316.7091 24,319.289 C24,329.6088 24,340.5712 24,351.533 C24,357.0138 24,362.4946 24,367.8947 C24,369.2448 24,370.5898 24,371.9285 " fill="none" id="server-database" style="stroke:#A80036;stroke-width:1.0;"/><text fill="#000000" font-family="sans-serif" font-size="13" lengthAdjust="spacing" textLength="63" x="25" y="344.0669">mongoDB</text><!--MD5=[9ea2e6c043275f74db267be858cf645d]
@startuml
node client { 
    component Angular
}

node server {
    component Spring
}

node database {
    component MongoDB
}

client -down- server: http
server -down- database: mongoDB
@enduml

PlantUML version 1.2021.6beta6(Unknown compile time)
(GPL source distribution)
Java Runtime: Java(TM) SE Runtime Environment
JVM: Java HotSpot(TM) 64-Bit Server VM
Default Encoding: UTF-8
Language: en
Country: US
--></g></svg>