<?xml version="1.0" encoding="UTF-8" standalone="no"?><svg xmlns="http://www.w3.org/2000/svg" xmlns:xlink="http://www.w3.org/1999/xlink" contentScriptType="application/ecmascript" contentStyleType="text/css" height="479px" preserveAspectRatio="none" style="width:1720px;height:479px;background:#FFFFFF;" version="1.1" viewBox="0 0 1720 479" width="1720px" zoomAndPan="magnify"><defs><filter height="300%" id="f1obkhejvijnz5" width="300%" x="-1" y="-1"><feGaussianBlur result="blurOut" stdDeviation="2.0"/><feColorMatrix in="blurOut" result="blurOut2" type="matrix" values="0 0 0 0 0 0 0 0 0 0 0 0 0 0 0 0 0 0 .4 0"/><feOffset dx="4.0" dy="4.0" in="blurOut2" result="blurOut3"/><feBlend in="SourceGraphic" in2="blurOut3" mode="normal"/></filter></defs><g><!--MD5=[aa2f05b2676d7d34ffa7e771fb7634f3]
cluster client--><polygon fill="#FFFFFF" filter="url(#f1obkhejvijnz5)" points="528,16,538,6,693,6,693,114,683,124,528,124,528,16" style="stroke:#000000;stroke-width:1.5;"/><line style="stroke:#000000;stroke-width:1.5;" x1="683" x2="693" y1="16" y2="6"/><line style="stroke:#000000;stroke-width:1.5;" x1="528" x2="683" y1="16" y2="16"/><line style="stroke:#000000;stroke-width:1.5;" x1="683" x2="683" y1="16" y2="124"/><text fill="#000000" font-family="sans-serif" font-size="14" font-weight="bold" lengthAdjust="spacing" textLength="46" x="583.5" y="31.9951">client</text><!--MD5=[6e627c32d62dd5ea8dad20bbffc9adef]
cluster frontServer--><polygon fill="#FFFFFF" filter="url(#f1obkhejvijnz5)" points="16,199,26,189,986,189,986,462,976,472,16,472,16,199" style="stroke:#000000;stroke-width:1.5;"/><line style="stroke:#000000;stroke-width:1.5;" x1="976" x2="986" y1="199" y2="189"/><line style="stroke:#000000;stroke-width:1.5;" x1="16" x2="976" y1="199" y2="199"/><line style="stroke:#000000;stroke-width:1.5;" x1="976" x2="976" y1="199" y2="472"/><text fill="#000000" font-family="sans-serif" font-size="14" font-weight="bold" lengthAdjust="spacing" textLength="93" x="450.5" y="214.9951">frontServer</text><!--MD5=[440f90faedf9aeb94dd554eba7f4e8c4]
cluster backServer--><polygon fill="#FFFFFF" filter="url(#f1obkhejvijnz5)" points="1026,199,1036,189,1460,189,1460,462,1450,472,1026,472,1026,199" style="stroke:#000000;stroke-width:1.5;"/><line style="stroke:#000000;stroke-width:1.5;" x1="1450" x2="1460" y1="199" y2="189"/><line style="stroke:#000000;stroke-width:1.5;" x1="1026" x2="1450" y1="199" y2="199"/><line style="stroke:#000000;stroke-width:1.5;" x1="1450" x2="1450" y1="199" y2="472"/><text fill="#000000" font-family="sans-serif" font-size="14" font-weight="bold" lengthAdjust="spacing" textLength="89" x="1194.5" y="214.9951">backServer</text><!--MD5=[50e9ef68a0d1a1ed0d5b6e48d4e262f2]
cluster databaseServer--><polygon fill="#FFFFFF" filter="url(#f1obkhejvijnz5)" points="1500,364,1510,354,1703,354,1703,462,1693,472,1500,472,1500,364" style="stroke:#000000;stroke-width:1.5;"/><line style="stroke:#000000;stroke-width:1.5;" x1="1693" x2="1703" y1="364" y2="354"/><line style="stroke:#000000;stroke-width:1.5;" x1="1500" x2="1693" y1="364" y2="364"/><line style="stroke:#000000;stroke-width:1.5;" x1="1693" x2="1693" y1="364" y2="472"/><text fill="#000000" font-family="sans-serif" font-size="14" font-weight="bold" lengthAdjust="spacing" textLength="127" x="1534" y="379.9951">databaseServer</text><!--MD5=[e9dede37b31fdda9664526f66258b036]
entity Browser--><rect fill="#FEFECE" filter="url(#f1obkhejvijnz5)" height="46.2969" style="stroke:#A80036;stroke-width:1.5;" width="98" x="571" y="54"/><rect fill="#FEFECE" height="10" style="stroke:#A80036;stroke-width:1.5;" width="15" x="649" y="59"/><rect fill="#FEFECE" height="2" style="stroke:#A80036;stroke-width:1.5;" width="4" x="647" y="61"/><rect fill="#FEFECE" height="2" style="stroke:#A80036;stroke-width:1.5;" width="4" x="647" y="65"/><text fill="#000000" font-family="sans-serif" font-size="14" lengthAdjust="spacing" textLength="58" x="586" y="86.9951">Browser</text><!--MD5=[eae7271b97cd89b1036f59bc0af90589]
entity front--><rect fill="#FEFECE" filter="url(#f1obkhejvijnz5)" height="46.2969" style="stroke:#A80036;stroke-width:1.5;" width="136" x="491" y="237"/><rect fill="#FEFECE" height="10" style="stroke:#A80036;stroke-width:1.5;" width="15" x="607" y="242"/><rect fill="#FEFECE" height="2" style="stroke:#A80036;stroke-width:1.5;" width="4" x="605" y="244"/><rect fill="#FEFECE" height="2" style="stroke:#A80036;stroke-width:1.5;" width="4" x="605" y="248"/><text fill="#000000" font-family="sans-serif" font-size="14" lengthAdjust="spacing" textLength="96" x="506" y="269.9951">ust-uml:front</text><!--MD5=[a540e78612a372e5cadf164e954960e5]
entity Angular--><rect fill="#FEFECE" filter="url(#f1obkhejvijnz5)" height="46.2969" style="stroke:#A80036;stroke-width:1.5;" width="94" x="868" y="402"/><rect fill="#FEFECE" height="10" style="stroke:#A80036;stroke-width:1.5;" width="15" x="942" y="407"/><rect fill="#FEFECE" height="2" style="stroke:#A80036;stroke-width:1.5;" width="4" x="940" y="409"/><rect fill="#FEFECE" height="2" style="stroke:#A80036;stroke-width:1.5;" width="4" x="940" y="413"/><text fill="#000000" font-family="sans-serif" font-size="14" lengthAdjust="spacing" textLength="54" x="883" y="434.9951">Angular</text><!--MD5=[cb1ced428456c15a31b461cefcc7d823]
entity pako--><rect fill="#FEFECE" filter="url(#f1obkhejvijnz5)" height="46.2969" style="stroke:#A80036;stroke-width:1.5;" width="76" x="48" y="402"/><rect fill="#FEFECE" height="10" style="stroke:#A80036;stroke-width:1.5;" width="15" x="104" y="407"/><rect fill="#FEFECE" height="2" style="stroke:#A80036;stroke-width:1.5;" width="4" x="102" y="409"/><rect fill="#FEFECE" height="2" style="stroke:#A80036;stroke-width:1.5;" width="4" x="102" y="413"/><text fill="#000000" font-family="sans-serif" font-size="14" lengthAdjust="spacing" textLength="36" x="63" y="434.9951">pako</text><!--MD5=[be6155fad3a4ee2585d9196117651dd6]
entity yaml--><rect fill="#FEFECE" filter="url(#f1obkhejvijnz5)" height="46.2969" style="stroke:#A80036;stroke-width:1.5;" width="91" x="159.5" y="402"/><rect fill="#FEFECE" height="10" style="stroke:#A80036;stroke-width:1.5;" width="15" x="230.5" y="407"/><rect fill="#FEFECE" height="2" style="stroke:#A80036;stroke-width:1.5;" width="4" x="228.5" y="409"/><rect fill="#FEFECE" height="2" style="stroke:#A80036;stroke-width:1.5;" width="4" x="228.5" y="413"/><text fill="#000000" font-family="sans-serif" font-size="14" lengthAdjust="spacing" textLength="51" x="174.5" y="434.9951">js-yaml</text><!--MD5=[7a199650d090603358194377cd2d7296]
entity bootstrap--><rect fill="#FEFECE" filter="url(#f1obkhejvijnz5)" height="46.2969" style="stroke:#A80036;stroke-width:1.5;" width="113" x="285.5" y="402"/><rect fill="#FEFECE" height="10" style="stroke:#A80036;stroke-width:1.5;" width="15" x="378.5" y="407"/><rect fill="#FEFECE" height="2" style="stroke:#A80036;stroke-width:1.5;" width="4" x="376.5" y="409"/><rect fill="#FEFECE" height="2" style="stroke:#A80036;stroke-width:1.5;" width="4" x="376.5" y="413"/><text fill="#000000" font-family="sans-serif" font-size="14" lengthAdjust="spacing" textLength="73" x="300.5" y="434.9951">bootstrap</text><!--MD5=[397b296eedc2e51237f0291481916692]
entity jquery--><rect fill="#FEFECE" filter="url(#f1obkhejvijnz5)" height="46.2969" style="stroke:#A80036;stroke-width:1.5;" width="84" x="434" y="402"/><rect fill="#FEFECE" height="10" style="stroke:#A80036;stroke-width:1.5;" width="15" x="498" y="407"/><rect fill="#FEFECE" height="2" style="stroke:#A80036;stroke-width:1.5;" width="4" x="496" y="409"/><rect fill="#FEFECE" height="2" style="stroke:#A80036;stroke-width:1.5;" width="4" x="496" y="413"/><text fill="#000000" font-family="sans-serif" font-size="14" lengthAdjust="spacing" textLength="44" x="449" y="434.9951">jquery</text><!--MD5=[b44cc162cb34fa4d8a5cc9c40e996166]
entity monaco--><rect fill="#FEFECE" filter="url(#f1obkhejvijnz5)" height="46.2969" style="stroke:#A80036;stroke-width:1.5;" width="179" x="553.5" y="402"/><rect fill="#FEFECE" height="10" style="stroke:#A80036;stroke-width:1.5;" width="15" x="712.5" y="407"/><rect fill="#FEFECE" height="2" style="stroke:#A80036;stroke-width:1.5;" width="4" x="710.5" y="409"/><rect fill="#FEFECE" height="2" style="stroke:#A80036;stroke-width:1.5;" width="4" x="710.5" y="413"/><text fill="#000000" font-family="sans-serif" font-size="14" lengthAdjust="spacing" textLength="139" x="568.5" y="434.9951">ngx-monaco-editor</text><!--MD5=[1bae4deff1ee615d07cc2681d55105ab]
entity rxjs--><rect fill="#FEFECE" filter="url(#f1obkhejvijnz5)" height="46.2969" style="stroke:#A80036;stroke-width:1.5;" width="65" x="767.5" y="402"/><rect fill="#FEFECE" height="10" style="stroke:#A80036;stroke-width:1.5;" width="15" x="812.5" y="407"/><rect fill="#FEFECE" height="2" style="stroke:#A80036;stroke-width:1.5;" width="4" x="810.5" y="409"/><rect fill="#FEFECE" height="2" style="stroke:#A80036;stroke-width:1.5;" width="4" x="810.5" y="413"/><text fill="#000000" font-family="sans-serif" font-size="14" lengthAdjust="spacing" textLength="25" x="782.5" y="434.9951">rxjs</text><!--MD5=[6217af0d48b18cf331178f0810d9ee1e]
entity back--><rect fill="#FEFECE" filter="url(#f1obkhejvijnz5)" height="46.2969" style="stroke:#A80036;stroke-width:1.5;" width="134" x="1103" y="237"/><rect fill="#FEFECE" height="10" style="stroke:#A80036;stroke-width:1.5;" width="15" x="1217" y="242"/><rect fill="#FEFECE" height="2" style="stroke:#A80036;stroke-width:1.5;" width="4" x="1215" y="244"/><rect fill="#FEFECE" height="2" style="stroke:#A80036;stroke-width:1.5;" width="4" x="1215" y="248"/><text fill="#000000" font-family="sans-serif" font-size="14" lengthAdjust="spacing" textLength="94" x="1118" y="269.9951">ust-uml:back</text><!--MD5=[a6bee6a27156e36ba3c523a51fc6dcbb]
entity spring--><rect fill="#FEFECE" filter="url(#f1obkhejvijnz5)" height="46.2969" style="stroke:#A80036;stroke-width:1.5;" width="126" x="1302" y="402"/><rect fill="#FEFECE" height="10" style="stroke:#A80036;stroke-width:1.5;" width="15" x="1408" y="407"/><rect fill="#FEFECE" height="2" style="stroke:#A80036;stroke-width:1.5;" width="4" x="1406" y="409"/><rect fill="#FEFECE" height="2" style="stroke:#A80036;stroke-width:1.5;" width="4" x="1406" y="413"/><text fill="#000000" font-family="sans-serif" font-size="14" lengthAdjust="spacing" textLength="86" x="1317" y="434.9951">spring-boot</text><!--MD5=[2eafaeb20c7be665049ce8c5fabde8e9]
entity lombok--><rect fill="#FEFECE" filter="url(#f1obkhejvijnz5)" height="46.2969" style="stroke:#A80036;stroke-width:1.5;" width="95" x="1050.5" y="402"/><rect fill="#FEFECE" height="10" style="stroke:#A80036;stroke-width:1.5;" width="15" x="1125.5" y="407"/><rect fill="#FEFECE" height="2" style="stroke:#A80036;stroke-width:1.5;" width="4" x="1123.5" y="409"/><rect fill="#FEFECE" height="2" style="stroke:#A80036;stroke-width:1.5;" width="4" x="1123.5" y="413"/><text fill="#000000" font-family="sans-serif" font-size="14" lengthAdjust="spacing" textLength="55" x="1065.5" y="434.9951">lombok</text><!--MD5=[de87cc794444d9fc8725f7d1792e90f5]
entity jacoco--><rect fill="#FEFECE" filter="url(#f1obkhejvijnz5)" height="46.2969" style="stroke:#A80036;stroke-width:1.5;" width="86" x="1181" y="402"/><rect fill="#FEFECE" height="10" style="stroke:#A80036;stroke-width:1.5;" width="15" x="1247" y="407"/><rect fill="#FEFECE" height="2" style="stroke:#A80036;stroke-width:1.5;" width="4" x="1245" y="409"/><rect fill="#FEFECE" height="2" style="stroke:#A80036;stroke-width:1.5;" width="4" x="1245" y="413"/><text fill="#000000" font-family="sans-serif" font-size="14" lengthAdjust="spacing" textLength="46" x="1196" y="434.9951">jacoco</text><!--MD5=[ba72416187da2a396e219ea5b5d73a26]
entity MongoDB--><rect fill="#FEFECE" filter="url(#f1obkhejvijnz5)" height="46.2969" style="stroke:#A80036;stroke-width:1.5;" width="109" x="1556.5" y="402"/><rect fill="#FEFECE" height="10" style="stroke:#A80036;stroke-width:1.5;" width="15" x="1645.5" y="407"/><rect fill="#FEFECE" height="2" style="stroke:#A80036;stroke-width:1.5;" width="4" x="1643.5" y="409"/><rect fill="#FEFECE" height="2" style="stroke:#A80036;stroke-width:1.5;" width="4" x="1643.5" y="413"/><text fill="#000000" font-family="sans-serif" font-size="14" lengthAdjust="spacing" textLength="69" x="1571.5" y="434.9951">MongoDB</text><!--MD5=[e5d358a9f76f1194f05db9ee1d8bd149]
link front to Angular--><path d="M627.135,266.345 C689.655,274.032 782.526,292.712 850,338 C872.205,352.904 889.872,377.963 901.15,397.1979 " fill="none" id="front-to-Angular" style="stroke:#A80036;stroke-width:1.0;stroke-dasharray:7.0,7.0;"/><polygon fill="#A80036" points="903.878,401.9529,902.8686,392.1559,901.3897,397.616,895.9296,396.1371,903.878,401.9529" style="stroke:#A80036;stroke-width:1.0;"/><!--MD5=[30de2ae012d6dc1d0beb62c74180b8b1]
link front to pako--><path d="M490.856,282.117 C489.562,282.422 488.276,282.717 487,283 C335.424,316.666 271.045,251.652 142,338 C120.705,352.249 105.663,377.629 96.569,397.1371 " fill="none" id="front-to-pako" style="stroke:#A80036;stroke-width:1.0;stroke-dasharray:7.0,7.0;"/><polygon fill="#A80036" points="94.385,401.9599,101.7411,395.411,96.4473,397.405,94.4533,392.1113,94.385,401.9599" style="stroke:#A80036;stroke-width:1.0;"/><!--MD5=[5855889c92227ca910dd857320f81fc9]
link front to yaml--><path d="M490.809,281.932 C489.53,282.293 488.259,282.65 487,283 C390.315,309.894 351.261,281.974 268,338 C246.059,352.764 228.983,377.84 218.178,397.1163 " fill="none" id="front-to-yaml" style="stroke:#A80036;stroke-width:1.0;stroke-dasharray:7.0,7.0;"/><polygon fill="#A80036" points="215.567,401.8823,223.3998,395.9118,217.9697,397.4975,216.384,392.0674,215.567,401.8823" style="stroke:#A80036;stroke-width:1.0;"/><!--MD5=[d2c2a3c8a18c406121b7f8e23abca13c]
link front to bootstrap--><path d="M507.585,283.021 C479.043,296.589 443.8,315.652 416,338 C394.449,355.324 374.281,379.51 360.46,397.8213 " fill="none" id="front-to-bootstrap" style="stroke:#A80036;stroke-width:1.0;stroke-dasharray:7.0,7.0;"/><polygon fill="#A80036" points="357.436,401.8698,366.0271,397.0539,360.4286,397.8643,359.6182,392.2657,357.436,401.8698" style="stroke:#A80036;stroke-width:1.0;"/><!--MD5=[5329b35bdfd35dadbb95077ff1298acf]
link front to jquery--><path d="M547.633,283.323 C532.484,313.074 505.711,365.651 489.536,397.4165 " fill="none" id="front-to-jquery" style="stroke:#A80036;stroke-width:1.0;stroke-dasharray:7.0,7.0;"/><polygon fill="#A80036" points="487.229,401.9469,494.8773,395.7418,489.4978,397.4913,487.7484,392.1117,487.229,401.9469" style="stroke:#A80036;stroke-width:1.0;"/><!--MD5=[ae8230482b45fd6f337171b9ec747a04]
link front to monaco--><path d="M570.504,283.323 C585.836,313.074 612.931,365.651 629.301,397.4165 " fill="none" id="front-to-monaco" style="stroke:#A80036;stroke-width:1.0;stroke-dasharray:7.0,7.0;"/><polygon fill="#A80036" points="631.635,401.9469,631.0676,392.1144,629.3445,397.5024,623.9565,395.7792,631.635,401.9469" style="stroke:#A80036;stroke-width:1.0;"/><!--MD5=[aa1d2e76b8f98c4cd472887bd441db5c]
link front to rxjs--><path d="M627.183,276.621 C666.534,288.342 714.999,307.691 750,338 C768.415,353.946 781.716,378.427 789.948,397.1977 " fill="none" id="front-to-rxjs" style="stroke:#A80036;stroke-width:1.0;stroke-dasharray:7.0,7.0;"/><polygon fill="#A80036" points="791.932,401.838,792.0728,391.9901,789.9668,397.2404,784.7166,395.1344,791.932,401.838" style="stroke:#A80036;stroke-width:1.0;"/><!--MD5=[d0c97444d9fbf094a179622f1cd792b9]
link back to spring--><path d="M1207.16,283.158 C1230.2,297.594 1259.89,317.5 1284,338 C1305.64,356.405 1327.58,380.072 1343.16,397.9182 " fill="none" id="back-to-spring" style="stroke:#A80036;stroke-width:1.0;stroke-dasharray:7.0,7.0;"/><polygon fill="#A80036" points="1346.58,401.8626,1343.6968,392.4452,1343.3007,398.0882,1337.6577,397.6921,1346.58,401.8626" style="stroke:#A80036;stroke-width:1.0;"/><!--MD5=[daaac2a2945361efd2830732c6d52b97]
link back to lombok--><path d="M1160.14,283.323 C1147.05,312.952 1123.96,365.221 1109.92,397.0249 " fill="none" id="back-to-lombok" style="stroke:#A80036;stroke-width:1.0;stroke-dasharray:7.0,7.0;"/><polygon fill="#A80036" points="1107.74,401.9469,1115.0366,395.3318,1109.7611,397.3736,1107.7194,392.0981,1107.74,401.9469" style="stroke:#A80036;stroke-width:1.0;"/><!--MD5=[23b78d92e969e615866d40f6c904e1fb]
link back to jacoco--><path d="M1177.4,283.323 C1187.21,312.952 1204.53,365.221 1215.06,397.0249 " fill="none" id="back-to-jacoco" style="stroke:#A80036;stroke-width:1.0;stroke-dasharray:7.0,7.0;"/><polygon fill="#A80036" points="1216.69,401.9469,1217.6543,392.1454,1215.1164,397.201,1210.0608,394.6631,1216.69,401.9469" style="stroke:#A80036;stroke-width:1.0;"/><!--MD5=[beff7851b3cc18ecca768e416c5bc513]
link client to backServer--><path d="M543.1831,124.2716 C543.2289,124.3709 543.2749,124.4702 543.3212,124.5692 C543.5063,124.9655 543.6959,125.3594 543.89,125.7507 C544.2783,126.5334 544.6848,127.3058 545.1102,128.0658 C545.9612,129.586 546.8882,131.057 547.8978,132.4633 C549.9171,135.276 552.2669,137.8298 555,140 C562.915,146.285 907.902,164.576 918,165 C932.6,165.613 1433.27,163.076 1444,173 C1447.4675,176.208 1450.2028,179.9286 1452.3336,183.9871 C1452.8663,185.0017 1453.3612,186.0375 1453.8204,187.0916 C1454.0499,187.6187 1454.2705,188.1503 1454.4825,188.6863 " fill="none" id="client-backServer" style="stroke:#A80036;stroke-width:1.0;"/><text fill="#000000" font-family="sans-serif" font-size="13" lengthAdjust="spacing" textLength="35" x="919" y="161.0669">tcp/ip</text><!--MD5=[cff5a5d495c2da1c38eb5cd7b0654309]
link client to frontServer--><path d="M527.9163,78.2475 C527.6665,78.2559 527.4113,78.2645 527.1506,78.2734 C526.108,78.3088 524.9787,78.3482 523.7655,78.3916 C521.3391,78.4785 518.5774,78.5818 515.5035,78.7034 C503.2079,79.1896 485.9175,79.9683 465.116,81.1592 C423.5131,83.5411 367.866,87.5719 310.0453,94.2103 C194.4038,107.487 70.0675,131.194 32,173 C28.8703,176.437 26.3813,180.3027 24.4237,184.4428 C23.9343,185.4779 23.4781,186.5301 23.0534,187.597 C22.9473,187.8637 22.8431,188.1314 22.7408,188.3999 C22.6897,188.5342 22.639,188.6687 22.5889,188.8034 " fill="none" id="client-frontServer" style="stroke:#A80036;stroke-width:1.0;"/><text fill="#000000" font-family="sans-serif" font-size="13" lengthAdjust="spacing" textLength="35" x="66" y="161.0669">tcp/ip</text><!--MD5=[e245512d8ee3f252722116633eaf00e6]
link Browser to back--><path d="M669.216,83.476 C736.944,92.028 861.972,111.492 963,148 C1027.43,171.283 1096.44,211.811 1136.28,236.922 " fill="none" id="Browser-back" style="stroke:#A80036;stroke-width:1.0;"/><text fill="#000000" font-family="sans-serif" font-size="13" lengthAdjust="spacing" textLength="26" x="1006" y="161.0669">http</text><!--MD5=[c5ad98a3a0beba0e020089c741202f13]
link Browser to front--><path d="M612.52,100.194 C600.781,135.027 578.164,202.138 566.445,236.908 " fill="none" id="Browser-front" style="stroke:#A80036;stroke-width:1.0;"/><text fill="#000000" font-family="sans-serif" font-size="13" lengthAdjust="spacing" textLength="26" x="596" y="161.0669">http</text><!--MD5=[5b86e11b07a593d5c5b430181637c5e4]
link backServer to databaseServer--><path d="M1460.0643,284.4724 C1460.1414,284.6968 1460.2189,284.9224 1460.2968,285.1492 C1460.6085,286.0565 1460.9269,286.983 1461.2514,287.9276 C1466.4441,303.041 1473.2281,322.7866 1480.0113,342.5299 C1486.7944,362.2731 1493.5766,382.014 1498.7655,397.1181 C1499.0898,398.0621 1499.4079,398.988 1499.7193,399.8947 C1499.7972,400.1213 1499.8747,400.3468 1499.9517,400.571 " fill="none" id="backServer-databaseServer" style="stroke:#A80036;stroke-width:1.0;"/><text fill="#000000" font-family="sans-serif" font-size="13" lengthAdjust="spacing" textLength="63" x="1476" y="326.0669">mongoDB</text><!--MD5=[eddbf54990b670cbd66d1989c95ab6c8]
@startuml
node client { 
    component Browser
}

node frontServer {
    component front as "ust-uml:front"
    component Angular
    component pako
    component yaml as "js-yaml"
    component bootstrap
    component jquery
    component monaco as "ngx-monaco-editor"
    component rxjs
}

node backServer {
    component back as "ust-uml:back"
    component spring as "spring-boot"
    component lombok
    component jacoco
}

front .down.> Angular
front .down.> pako
front .down.> yaml
front .down.> bootstrap
front .down.> jquery
front .down.> monaco
front .down.> rxjs
back .down.> spring
back .down.> lombok
back .down.> jacoco

node databaseServer {
    component MongoDB
}

client -down- backServer: tcp/ip
client -down- frontServer: tcp/ip
Browser -down- back: http
Browser -down- front: http
backServer -down- databaseServer: mongoDB
@enduml

PlantUML version 1.2021.7beta1(Unknown compile time)
(GPL source distribution)
Java Runtime: Java(TM) SE Runtime Environment
JVM: Java HotSpot(TM) 64-Bit Server VM
Default Encoding: UTF-8
Language: en
Country: US
--></g></svg>