<?xml version="1.0" encoding="UTF-8" standalone="no"?><svg xmlns="http://www.w3.org/2000/svg" xmlns:xlink="http://www.w3.org/1999/xlink" contentScriptType="application/ecmascript" contentStyleType="text/css" height="473px" preserveAspectRatio="none" style="width:328px;height:473px;background:#FFFFFF;" version="1.1" viewBox="0 0 328 473" width="328px" zoomAndPan="magnify"><defs><filter height="300%" id="fhvy3h5t729v5" width="300%" x="-1" y="-1"><feGaussianBlur result="blurOut" stdDeviation="2.0"/><feColorMatrix in="blurOut" result="blurOut2" type="matrix" values="0 0 0 0 0 0 0 0 0 0 0 0 0 0 0 0 0 0 .4 0"/><feOffset dx="4.0" dy="4.0" in="blurOut2" result="blurOut3"/><feBlend in="SourceGraphic" in2="blurOut3" mode="normal"/></filter></defs><g><!--MD5=[aa2f05b2676d7d34ffa7e771fb7634f3]
cluster client--><polygon fill="#FFFFFF" filter="url(#fhvy3h5t729v5)" points="16,16,26,6,193,6,193,114,183,124,16,124,16,16" style="stroke:#000000;stroke-width:1.5;"/><line style="stroke:#000000;stroke-width:1.5;" x1="183" x2="193" y1="16" y2="6"/><line style="stroke:#000000;stroke-width:1.5;" x1="16" x2="183" y1="16" y2="16"/><line style="stroke:#000000;stroke-width:1.5;" x1="183" x2="183" y1="16" y2="124"/><text fill="#000000" font-family="sans-serif" font-size="14" font-weight="bold" lengthAdjust="spacing" textLength="46" x="77.5" y="31.9951">client</text><!--MD5=[4ef80439e1ef409f8f3a0ec422262701]
cluster server--><polygon fill="#FFFFFF" filter="url(#fhvy3h5t729v5)" points="16,199,26,189,300,189,300,297,290,307,16,307,16,199" style="stroke:#000000;stroke-width:1.5;"/><line style="stroke:#000000;stroke-width:1.5;" x1="290" x2="300" y1="199" y2="189"/><line style="stroke:#000000;stroke-width:1.5;" x1="16" x2="290" y1="199" y2="199"/><line style="stroke:#000000;stroke-width:1.5;" x1="290" x2="290" y1="199" y2="307"/><text fill="#000000" font-family="sans-serif" font-size="14" font-weight="bold" lengthAdjust="spacing" textLength="50" x="129" y="214.9951">server</text><!--MD5=[db65ce44d5e360fb4ec835f941dc7573]
cluster database--><polygon fill="#FFFFFF" filter="url(#fhvy3h5t729v5)" points="159,374,169,364,311,364,311,456,301,466,159,466,159,374" style="stroke:#000000;stroke-width:1.5;"/><line style="stroke:#000000;stroke-width:1.5;" x1="301" x2="311" y1="374" y2="364"/><line style="stroke:#000000;stroke-width:1.5;" x1="159" x2="301" y1="374" y2="374"/><line style="stroke:#000000;stroke-width:1.5;" x1="301" x2="301" y1="374" y2="466"/><text fill="#000000" font-family="sans-serif" font-size="14" font-weight="bold" lengthAdjust="spacing" textLength="76" x="193" y="389.9951">database</text><!--MD5=[903a81acaa10a8fce462370b77703bfc]
entity Navigator--><rect fill="#FEFECE" filter="url(#fhvy3h5t729v5)" height="46.2969" style="stroke:#A80036;stroke-width:1.5;" width="109" x="59.5" y="54"/><rect fill="#FEFECE" height="10" style="stroke:#A80036;stroke-width:1.5;" width="15" x="148.5" y="59"/><rect fill="#FEFECE" height="2" style="stroke:#A80036;stroke-width:1.5;" width="4" x="146.5" y="61"/><rect fill="#FEFECE" height="2" style="stroke:#A80036;stroke-width:1.5;" width="4" x="146.5" y="65"/><text fill="#000000" font-family="sans-serif" font-size="14" lengthAdjust="spacing" textLength="69" x="74.5" y="86.9951">Navigator</text><!--MD5=[a540e78612a372e5cadf164e954960e5]
entity Angular--><rect fill="#FEFECE" filter="url(#fhvy3h5t729v5)" height="46.2969" style="stroke:#A80036;stroke-width:1.5;" width="94" x="59" y="237"/><rect fill="#FEFECE" height="10" style="stroke:#A80036;stroke-width:1.5;" width="15" x="133" y="242"/><rect fill="#FEFECE" height="2" style="stroke:#A80036;stroke-width:1.5;" width="4" x="131" y="244"/><rect fill="#FEFECE" height="2" style="stroke:#A80036;stroke-width:1.5;" width="4" x="131" y="248"/><text fill="#000000" font-family="sans-serif" font-size="14" lengthAdjust="spacing" textLength="54" x="74" y="269.9951">Angular</text><!--MD5=[d9d71d4211840a16622e2146ed655e13]
entity Spring--><rect fill="#FEFECE" filter="url(#fhvy3h5t729v5)" height="46.2969" style="stroke:#A80036;stroke-width:1.5;" width="87" x="188.5" y="237"/><rect fill="#FEFECE" height="10" style="stroke:#A80036;stroke-width:1.5;" width="15" x="255.5" y="242"/><rect fill="#FEFECE" height="2" style="stroke:#A80036;stroke-width:1.5;" width="4" x="253.5" y="244"/><rect fill="#FEFECE" height="2" style="stroke:#A80036;stroke-width:1.5;" width="4" x="253.5" y="248"/><text fill="#000000" font-family="sans-serif" font-size="14" lengthAdjust="spacing" textLength="47" x="203.5" y="269.9951">Spring</text><!--MD5=[ba72416187da2a396e219ea5b5d73a26]
entity MongoDB--><rect fill="#FEFECE" filter="url(#fhvy3h5t729v5)" height="46.2969" style="stroke:#A80036;stroke-width:1.5;" width="109" x="177.5" y="404"/><rect fill="#FEFECE" height="10" style="stroke:#A80036;stroke-width:1.5;" width="15" x="266.5" y="409"/><rect fill="#FEFECE" height="2" style="stroke:#A80036;stroke-width:1.5;" width="4" x="264.5" y="411"/><rect fill="#FEFECE" height="2" style="stroke:#A80036;stroke-width:1.5;" width="4" x="264.5" y="415"/><text fill="#000000" font-family="sans-serif" font-size="14" lengthAdjust="spacing" textLength="69" x="192.5" y="436.9951">MongoDB</text><!--MD5=[6e668341980b2b6f3174a2b130bbe9df]
link client to server--><path d="M24,124.0732 C24,124.376 24,124.6798 24,124.9844 C24,126.2028 24,127.435 24,128.6798 C24,131.1694 24,133.7092 24,136.2891 C24,146.6089 24,157.5713 24,168.5331 C24,174.014 24,179.4947 24,184.8949 C24,186.2449 24,187.5899 24,188.9287 " fill="none" id="client-server" style="stroke:#A80036;stroke-width:1.0;"/><text fill="#000000" font-family="sans-serif" font-size="13" lengthAdjust="spacing" textLength="35" x="25" y="161.0669">tcp/ip</text><!--MD5=[413ae3785e31a438e06bda7e1c042eee]
link Navigator to Spring--><path d="M128.469,100.194 C151.178,135.027 194.929,202.138 217.597,236.908 " fill="none" id="Navigator-Spring" style="stroke:#A80036;stroke-width:1.0;"/><text fill="#000000" font-family="sans-serif" font-size="13" lengthAdjust="spacing" textLength="26" x="171" y="161.0669">http</text><!--MD5=[64ad772d1c40d6503c9682e4414d9e30]
link Navigator to Angular--><path d="M113.019,100.194 C111.479,135.027 108.513,202.138 106.976,236.908 " fill="none" id="Navigator-Angular" style="stroke:#A80036;stroke-width:1.0;"/><text fill="#000000" font-family="sans-serif" font-size="13" lengthAdjust="spacing" textLength="26" x="112" y="161.0669">http</text><!--MD5=[b9de11cb150e8d076ab22467c233aa25]
link Spring to MongoDB--><path d="M232,283.253 C232,314.832 232,372.307 232,403.837 " fill="none" id="Spring-MongoDB" style="stroke:#A80036;stroke-width:1.0;"/><text fill="#000000" font-family="sans-serif" font-size="13" lengthAdjust="spacing" textLength="63" x="233" y="344.0669">mongoDB</text><!--MD5=[0f5891242e110f19629ea1bde24bcecd]
@startuml
node client { 
    component Navigator
}

node server {
    component Angular
    component Spring
}

node database {
    component MongoDB
}

client -down- server: tcp/ip
Navigator -down- Spring: http
Navigator -down- Angular: http
Spring -down- MongoDB: mongoDB
@enduml

PlantUML version 1.2021.6beta6(Unknown compile time)
(GPL source distribution)
Java Runtime: Java(TM) SE Runtime Environment
JVM: Java HotSpot(TM) 64-Bit Server VM
Default Encoding: UTF-8
Language: en
Country: US
--></g></svg>