<?xml version="1.0" encoding="UTF-8" standalone="no"?><svg xmlns="http://www.w3.org/2000/svg" xmlns:xlink="http://www.w3.org/1999/xlink" contentScriptType="application/ecmascript" contentStyleType="text/css" height="827px" preserveAspectRatio="none" style="width:1439px;height:827px;background:#FFFFFF;" version="1.1" viewBox="0 0 1439 827" width="1439px" zoomAndPan="magnify"><defs><filter height="300%" id="fk0rw6sy3ztgh" width="300%" x="-1" y="-1"><feGaussianBlur result="blurOut" stdDeviation="2.0"/><feColorMatrix in="blurOut" result="blurOut2" type="matrix" values="0 0 0 0 0 0 0 0 0 0 0 0 0 0 0 0 0 0 .4 0"/><feOffset dx="4.0" dy="4.0" in="blurOut2" result="blurOut3"/><feBlend in="SourceGraphic" in2="blurOut3" mode="normal"/></filter></defs><g><!--MD5=[a77cfc48ea47f3fe9c99aa73d3608ffb]
cluster 60cb13181378a01d58d76103--><polygon fill="#FFFFFF" filter="url(#fk0rw6sy3ztgh)" points="30.4091,6,189.4091,6,196.4091,28.2969,1422.4091,28.2969,1422.4091,820,30.4091,820,30.4091,6" style="stroke:#000000;stroke-width:1.5;"/><line style="stroke:#000000;stroke-width:1.5;" x1="30.4091" x2="196.4091" y1="28.2969" y2="28.2969"/><text fill="#000000" font-family="sans-serif" font-size="14" font-weight="bold" lengthAdjust="spacing" textLength="153" x="34.4091" y="20.9951">reverseEngineering</text><!--MD5=[17f6808daede23aacc479ed279dd328d]
class 60cb13181378a01d58d76104--><rect codeLine="2" fill="#FEFECE" filter="url(#fk0rw6sy3ztgh)" height="124.8281" id="60cb13181378a01d58d76104" style="stroke:#A80036;stroke-width:1.5;" width="127" x="46.9091" y="532"/><ellipse cx="79.4591" cy="548" fill="#ADD1B2" rx="11" ry="11" style="stroke:#A80036;stroke-width:1.0;"/><path d="M81.8028,543.6719 C80.8653,543.2344 80.2716,543.0938 79.3966,543.0938 C76.7716,543.0938 74.7716,545.1719 74.7716,547.8906 L74.7716,549.0156 C74.7716,551.5938 76.8809,553.4844 79.7716,553.4844 C80.9903,553.4844 82.1466,553.1875 82.8966,552.6406 C83.4747,552.2344 83.8028,551.7813 83.8028,551.3906 C83.8028,550.9375 83.4122,550.5469 82.9434,550.5469 C82.7247,550.5469 82.5216,550.625 82.3341,550.8125 C81.8809,551.2969 81.8809,551.2969 81.6934,551.3906 C81.2716,551.6563 80.5841,551.7813 79.8184,551.7813 C77.7716,551.7813 76.4747,550.6875 76.4747,548.9844 L76.4747,547.8906 C76.4747,546.1094 77.7247,544.7969 79.4591,544.7969 C80.0372,544.7969 80.6466,544.9531 81.1153,545.2031 C81.5997,545.4844 81.7716,545.7031 81.8653,546.1094 C81.9278,546.5156 81.9591,546.6406 82.0997,546.7656 C82.2403,546.9063 82.4747,547.0156 82.6934,547.0156 C82.9591,547.0156 83.2247,546.875 83.3966,546.6563 C83.5059,546.5 83.5372,546.3125 83.5372,545.8906 L83.5372,544.4688 C83.5372,544.0313 83.5216,543.9063 83.4278,543.75 C83.2716,543.4844 82.9903,543.3438 82.6934,543.3438 C82.3966,543.3438 82.1934,543.4375 81.9747,543.75 L81.8028,543.6719 Z " fill="#000000"/><text fill="#000000" font-family="sans-serif" font-size="12" lengthAdjust="spacing" textLength="56" x="97.3591" y="552.1543">Directory</text><line style="stroke:#A80036;stroke-width:1.5;" x1="47.9091" x2="172.9091" y1="564" y2="564"/><rect fill="none" height="6" style="stroke:#C82930;stroke-width:1.0;" width="6" x="54.9091" y="572"/><text fill="#000000" font-family="sans-serif" font-size="11" lengthAdjust="spacing" textLength="45" x="66.9091" y="578.2104">file: File</text><line style="stroke:#A80036;stroke-width:1.5;" x1="47.9091" x2="172.9091" y1="584.8047" y2="584.8047"/><ellipse cx="57.9091" cy="595.8047" fill="#84BE84" rx="3" ry="3" style="stroke:#038048;stroke-width:1.0;"/><text fill="#000000" font-family="sans-serif" font-size="11" lengthAdjust="spacing" textLength="77" x="66.9091" y="599.0151">delete(): void</text><ellipse cx="57.9091" cy="608.6094" fill="#84BE84" rx="3" ry="3" style="stroke:#038048;stroke-width:1.0;"/><text fill="#000000" font-family="sans-serif" font-size="11" lengthAdjust="spacing" textLength="101" x="66.9091" y="611.8198">getName(): String</text><ellipse cx="57.9091" cy="621.4141" fill="#84BE84" rx="3" ry="3" style="stroke:#038048;stroke-width:1.0;"/><text fill="#000000" font-family="sans-serif" font-size="11" lengthAdjust="spacing" textLength="91" x="66.9091" y="624.6245">getPath(): String</text><ellipse cx="57.9091" cy="634.2188" fill="#84BE84" rx="3" ry="3" style="stroke:#038048;stroke-width:1.0;"/><text fill="#000000" font-family="sans-serif" font-size="11" lengthAdjust="spacing" textLength="85" x="66.9091" y="637.4292">listFiles(): File[]</text><ellipse cx="57.9091" cy="647.0234" fill="#84BE84" rx="3" ry="3" style="stroke:#038048;stroke-width:1.0;"/><text fill="#000000" font-family="sans-serif" font-size="11" lengthAdjust="spacing" textLength="74" x="66.9091" y="650.2339">getFile(): File</text><!--MD5=[eb6d0cf758a76fcd1f1cd4a0e7a56b2c]
class 60cb13181378a01d58d76105--><rect codeLine="10" fill="#FEFECE" filter="url(#fk0rw6sy3ztgh)" height="150.4375" id="60cb13181378a01d58d76105" style="stroke:#A80036;stroke-width:1.5;" width="544" x="209.4091" y="519.5"/><ellipse cx="431.6591" cy="535.5" fill="#ADD1B2" rx="11" ry="11" style="stroke:#A80036;stroke-width:1.0;"/><path d="M434.0028,531.1719 C433.0653,530.7344 432.4716,530.5938 431.5966,530.5938 C428.9716,530.5938 426.9716,532.6719 426.9716,535.3906 L426.9716,536.5156 C426.9716,539.0938 429.0809,540.9844 431.9716,540.9844 C433.1903,540.9844 434.3466,540.6875 435.0966,540.1406 C435.6747,539.7344 436.0028,539.2813 436.0028,538.8906 C436.0028,538.4375 435.6122,538.0469 435.1434,538.0469 C434.9247,538.0469 434.7216,538.125 434.5341,538.3125 C434.0809,538.7969 434.0809,538.7969 433.8934,538.8906 C433.4716,539.1563 432.7841,539.2813 432.0184,539.2813 C429.9716,539.2813 428.6747,538.1875 428.6747,536.4844 L428.6747,535.3906 C428.6747,533.6094 429.9247,532.2969 431.6591,532.2969 C432.2372,532.2969 432.8466,532.4531 433.3153,532.7031 C433.7997,532.9844 433.9716,533.2031 434.0653,533.6094 C434.1278,534.0156 434.1591,534.1406 434.2997,534.2656 C434.4403,534.4063 434.6747,534.5156 434.8934,534.5156 C435.1591,534.5156 435.4247,534.375 435.5966,534.1563 C435.7059,534 435.7372,533.8125 435.7372,533.3906 L435.7372,531.9688 C435.7372,531.5313 435.7216,531.4063 435.6278,531.25 C435.4716,530.9844 435.1903,530.8438 434.8934,530.8438 C434.5966,530.8438 434.3934,530.9375 434.1747,531.25 L434.0028,531.1719 Z " fill="#000000"/><text fill="#000000" font-family="sans-serif" font-size="12" lengthAdjust="spacing" textLength="91" x="452.1591" y="539.6543">FileClassParser</text><line style="stroke:#A80036;stroke-width:1.5;" x1="210.4091" x2="752.4091" y1="551.5" y2="551.5"/><rect fill="none" height="6" style="stroke:#C82930;stroke-width:1.0;" width="6" x="217.4091" y="559.5"/><text fill="#000000" font-family="sans-serif" font-size="11" lengthAdjust="spacing" textLength="67" x="229.4091" y="565.7104">clazz: Class</text><line style="stroke:#A80036;stroke-width:1.5;" x1="210.4091" x2="752.4091" y1="572.3047" y2="572.3047"/><ellipse cx="220.4091" cy="583.3047" fill="#84BE84" rx="3" ry="3" style="stroke:#038048;stroke-width:1.0;"/><text fill="#000000" font-family="sans-serif" font-size="11" lengthAdjust="spacing" textLength="109" x="229.4091" y="586.5151">get(file: File): Class</text><ellipse cx="220.4091" cy="596.1094" fill="#84BE84" rx="3" ry="3" style="stroke:#038048;stroke-width:1.0;"/><text fill="#000000" font-family="sans-serif" font-size="11" lengthAdjust="spacing" textLength="348" x="229.4091" y="599.3198">visit(declaration: ClassOrInterfaceDeclaration, arg: Void): void</text><ellipse cx="220.4091" cy="608.9141" fill="#84BE84" rx="3" ry="3" style="stroke:#038048;stroke-width:1.0;"/><text fill="#000000" font-family="sans-serif" font-size="11" lengthAdjust="spacing" textLength="286" x="229.4091" y="612.1245">visit(declaration: EnumDeclaration, arg: Void): void</text><ellipse cx="220.4091" cy="621.7188" fill="#84BE84" rx="3" ry="3" style="stroke:#038048;stroke-width:1.0;"/><text fill="#000000" font-family="sans-serif" font-size="11" lengthAdjust="spacing" textLength="315" x="229.4091" y="624.9292">visit(declaration: AnnotationDeclaration, arg: Void): void</text><rect fill="#F24D5C" height="6" style="stroke:#C82930;stroke-width:1.0;" width="6" x="217.4091" y="631.5234"/><text fill="#000000" font-family="sans-serif" font-size="11" lengthAdjust="spacing" textLength="342" x="229.4091" y="637.7339">getAttributes(fields: List&lt;FieldDeclaration&gt;): List&lt;Attribute&gt;</text><rect fill="#F24D5C" height="6" style="stroke:#C82930;stroke-width:1.0;" width="6" x="217.4091" y="644.3281"/><text fill="#000000" font-family="sans-serif" font-size="11" lengthAdjust="spacing" textLength="427" x="229.4091" y="650.5386">getMethods(methodDeclarations: List&lt;MethodDeclaration&gt;): List&lt;Method&gt;</text><rect fill="#F24D5C" height="6" style="stroke:#C82930;stroke-width:1.0;" width="6" x="217.4091" y="657.1328"/><text fill="#000000" font-family="sans-serif" font-size="11" lengthAdjust="spacing" textLength="518" x="229.4091" y="663.3433">getModifiers(declarationModifiers: List&lt;com.github.javaparser.ast.Modifier&gt;): List&lt;Modifier&gt;</text><!--MD5=[ffbc729594b1870f5bd72b6c4cd45719]
class 60cb13181378a01d58d76106--><rect codeLine="20" fill="#FEFECE" filter="url(#fk0rw6sy3ztgh)" height="60.8047" id="60cb13181378a01d58d76106" style="stroke:#A80036;stroke-width:1.5;" width="283" x="885.9091" y="219.5"/><ellipse cx="993.6591" cy="235.5" fill="#ADD1B2" rx="11" ry="11" style="stroke:#A80036;stroke-width:1.0;"/><path d="M996.0028,231.1719 C995.0653,230.7344 994.4716,230.5938 993.5966,230.5938 C990.9716,230.5938 988.9716,232.6719 988.9716,235.3906 L988.9716,236.5156 C988.9716,239.0938 991.0809,240.9844 993.9716,240.9844 C995.1903,240.9844 996.3466,240.6875 997.0966,240.1406 C997.6747,239.7344 998.0028,239.2813 998.0028,238.8906 C998.0028,238.4375 997.6122,238.0469 997.1434,238.0469 C996.9247,238.0469 996.7216,238.125 996.5341,238.3125 C996.0809,238.7969 996.0809,238.7969 995.8934,238.8906 C995.4716,239.1563 994.7841,239.2813 994.0184,239.2813 C991.9716,239.2813 990.6747,238.1875 990.6747,236.4844 L990.6747,235.3906 C990.6747,233.6094 991.9247,232.2969 993.6591,232.2969 C994.2372,232.2969 994.8466,232.4531 995.3153,232.7031 C995.7997,232.9844 995.9716,233.2031 996.0653,233.6094 C996.1278,234.0156 996.1591,234.1406 996.2997,234.2656 C996.4403,234.4063 996.6747,234.5156 996.8934,234.5156 C997.1591,234.5156 997.4247,234.375 997.5966,234.1563 C997.7059,234 997.7372,233.8125 997.7372,233.3906 L997.7372,231.9688 C997.7372,231.5313 997.7216,231.4063 997.6278,231.25 C997.4716,230.9844 997.1903,230.8438 996.8934,230.8438 C996.5966,230.8438 996.3934,230.9375 996.1747,231.25 L996.0028,231.1719 Z " fill="#000000"/><text fill="#000000" font-family="sans-serif" font-size="12" lengthAdjust="spacing" textLength="59" x="1014.1591" y="239.6543">FileParser</text><line style="stroke:#A80036;stroke-width:1.5;" x1="886.9091" x2="1167.9091" y1="251.5" y2="251.5"/><line style="stroke:#A80036;stroke-width:1.5;" x1="886.9091" x2="1167.9091" y1="259.5" y2="259.5"/><polygon fill="#FFFF44" points="896.9091,265.5,900.9091,269.5,896.9091,273.5,892.9091,269.5" style="stroke:#B38D22;stroke-width:1.0;"/><text fill="#000000" font-family="sans-serif" font-size="11" lengthAdjust="spacing" textLength="257" x="905.9091" y="273.7104">getCompilationUnit(file: File): CompilationUnit</text><!--MD5=[248e0b3ec385fd62c08bbe2757e58267]
class 60cb13181378a01d58d76107--><rect codeLine="23" fill="#FEFECE" filter="url(#fk0rw6sy3ztgh)" height="419.3359" id="60cb13181378a01d58d76107" style="stroke:#A80036;stroke-width:1.5;" width="618" x="788.4091" y="385"/><ellipse cx="1040.1591" cy="401" fill="#ADD1B2" rx="11" ry="11" style="stroke:#A80036;stroke-width:1.0;"/><path d="M1042.5028,396.6719 C1041.5653,396.2344 1040.9716,396.0938 1040.0966,396.0938 C1037.4716,396.0938 1035.4716,398.1719 1035.4716,400.8906 L1035.4716,402.0156 C1035.4716,404.5938 1037.5809,406.4844 1040.4716,406.4844 C1041.6903,406.4844 1042.8466,406.1875 1043.5966,405.6406 C1044.1747,405.2344 1044.5028,404.7813 1044.5028,404.3906 C1044.5028,403.9375 1044.1122,403.5469 1043.6434,403.5469 C1043.4247,403.5469 1043.2216,403.625 1043.0341,403.8125 C1042.5809,404.2969 1042.5809,404.2969 1042.3934,404.3906 C1041.9716,404.6563 1041.2841,404.7813 1040.5184,404.7813 C1038.4716,404.7813 1037.1747,403.6875 1037.1747,401.9844 L1037.1747,400.8906 C1037.1747,399.1094 1038.4247,397.7969 1040.1591,397.7969 C1040.7372,397.7969 1041.3466,397.9531 1041.8153,398.2031 C1042.2997,398.4844 1042.4716,398.7031 1042.5653,399.1094 C1042.6278,399.5156 1042.6591,399.6406 1042.7997,399.7656 C1042.9403,399.9063 1043.1747,400.0156 1043.3934,400.0156 C1043.6591,400.0156 1043.9247,399.875 1044.0966,399.6563 C1044.2059,399.5 1044.2372,399.3125 1044.2372,398.8906 L1044.2372,397.4688 C1044.2372,397.0313 1044.2216,396.9063 1044.1278,396.75 C1043.9716,396.4844 1043.6903,396.3438 1043.3934,396.3438 C1043.0966,396.3438 1042.8934,396.4375 1042.6747,396.75 L1042.5028,396.6719 Z " fill="#000000"/><text fill="#000000" font-family="sans-serif" font-size="12" lengthAdjust="spacing" textLength="106" x="1060.6591" y="405.1543">FileRelationParser</text><line style="stroke:#A80036;stroke-width:1.5;" x1="789.4091" x2="1405.4091" y1="417" y2="417"/><rect fill="none" height="6" style="stroke:#C82930;stroke-width:1.0;" width="6" x="796.4091" y="425"/><text fill="#000000" font-family="sans-serif" font-size="11" lengthAdjust="spacing" textLength="139" x="808.4091" y="431.2104">relations: List&lt;Relation&gt;</text><rect fill="none" height="6" style="stroke:#C82930;stroke-width:1.0;" width="6" x="796.4091" y="437.8047"/><text fill="#000000" font-family="sans-serif" font-size="11" lengthAdjust="spacing" textLength="228" x="808.4091" y="444.0151">useRelationsTargetNames: Set&lt;String&gt;</text><rect fill="none" height="6" style="stroke:#C82930;stroke-width:1.0;" width="6" x="796.4091" y="450.6094"/><text fill="#000000" font-family="sans-serif" font-size="11" lengthAdjust="spacing" textLength="119" x="808.4091" y="456.8198">imports: List&lt;String&gt;</text><rect fill="none" height="6" style="stroke:#C82930;stroke-width:1.0;" width="6" x="796.4091" y="463.4141"/><text fill="#000000" font-family="sans-serif" font-size="11" lengthAdjust="spacing" textLength="84" x="808.4091" y="469.6245">project: Project</text><rect fill="none" height="6" style="stroke:#C82930;stroke-width:1.0;" width="6" x="796.4091" y="476.2188"/><text fill="#000000" font-family="sans-serif" font-size="11" lengthAdjust="spacing" textLength="96" x="808.4091" y="482.4292">pakage: Package</text><rect fill="none" height="6" style="stroke:#C82930;stroke-width:1.0;" width="6" x="796.4091" y="489.0234"/><text fill="#000000" font-family="sans-serif" font-size="11" lengthAdjust="spacing" textLength="107" x="808.4091" y="495.2339">targetRoute: String</text><line style="stroke:#A80036;stroke-width:1.5;" x1="789.4091" x2="1405.4091" y1="501.8281" y2="501.8281"/><polygon fill="#4177AF" points="799.4091,508.8281,795.4091,514.8281,803.4091,514.8281" style="stroke:#1963A0;stroke-width:1.0;"/><text fill="#000000" font-family="sans-serif" font-size="11" lengthAdjust="spacing" textLength="253" x="808.4091" y="516.0386">get(project: Project, file: File): List&lt;Relation&gt;</text><rect fill="#F24D5C" height="6" style="stroke:#C82930;stroke-width:1.0;" width="6" x="796.4091" y="522.6328"/><text fill="#000000" font-family="sans-serif" font-size="11" lengthAdjust="spacing" textLength="320" x="808.4091" y="528.8433">setPackageRoute(compilationUnit: CompilationUnit): void</text><ellipse cx="799.4091" cy="538.4375" fill="#84BE84" rx="3" ry="3" style="stroke:#038048;stroke-width:1.0;"/><text fill="#000000" font-family="sans-serif" font-size="11" lengthAdjust="spacing" textLength="348" x="808.4091" y="541.6479">visit(declaration: ClassOrInterfaceDeclaration, arg: Void): void</text><ellipse cx="799.4091" cy="551.2422" fill="#84BE84" rx="3" ry="3" style="stroke:#038048;stroke-width:1.0;"/><text fill="#000000" font-family="sans-serif" font-size="11" lengthAdjust="spacing" textLength="286" x="808.4091" y="554.4526">visit(declaration: EnumDeclaration, arg: Void): void</text><rect fill="#F24D5C" height="6" style="stroke:#C82930;stroke-width:1.0;" width="6" x="796.4091" y="561.0469"/><text fill="#000000" font-family="sans-serif" font-size="11" lengthAdjust="spacing" textLength="448" x="808.4091" y="567.2573">addInheritanceRelations(targetDeclarations: List&lt;ClassOrInterfaceType&gt;): void</text><rect fill="#F24D5C" height="6" style="stroke:#C82930;stroke-width:1.0;" width="6" x="796.4091" y="573.8516"/><text fill="#000000" font-family="sans-serif" font-size="11" lengthAdjust="spacing" textLength="226" x="808.4091" y="580.062">getTarget(targetName: String): Member</text><rect fill="#F24D5C" height="6" style="stroke:#C82930;stroke-width:1.0;" width="6" x="796.4091" y="586.6563"/><text fill="#000000" font-family="sans-serif" font-size="11" lengthAdjust="spacing" textLength="176" x="808.4091" y="592.8667">getImport(name: String): String</text><rect fill="#F24D5C" height="6" style="stroke:#C82930;stroke-width:1.0;" width="6" x="796.4091" y="599.4609"/><text fill="#000000" font-family="sans-serif" font-size="11" lengthAdjust="spacing" textLength="262" x="808.4091" y="605.6714">getOutsideTarget(typeName: String): Member</text><rect fill="#F24D5C" height="6" style="stroke:#C82930;stroke-width:1.0;" width="6" x="796.4091" y="612.2656"/><text fill="#000000" font-family="sans-serif" font-size="11" lengthAdjust="spacing" textLength="300" x="808.4091" y="618.4761">addRelations(declaration: TypeDeclaration&lt;?&gt;): void</text><rect fill="#F24D5C" height="6" style="stroke:#C82930;stroke-width:1.0;" width="6" x="796.4091" y="625.0703"/><text fill="#000000" font-family="sans-serif" font-size="11" lengthAdjust="spacing" textLength="418" x="808.4091" y="631.2808">getVariables(declaration: TypeDeclaration&lt;?&gt;): List&lt;VariableDeclarator&gt;</text><rect fill="#F24D5C" height="6" style="stroke:#C82930;stroke-width:1.0;" width="6" x="796.4091" y="637.875"/><text fill="#000000" font-family="sans-serif" font-size="11" lengthAdjust="spacing" textLength="592" x="808.4091" y="644.0854">isInConstructorParams(variable: VariableDeclarator, constructors: List&lt;ConstructorDeclaration&gt;): boolean</text><rect fill="#F24D5C" height="6" style="stroke:#C82930;stroke-width:1.0;" width="6" x="796.4091" y="650.6797"/><text fill="#000000" font-family="sans-serif" font-size="11" lengthAdjust="spacing" textLength="479" x="808.4091" y="656.8901">isInitialized(declaration: TypeDeclaration&lt;?&gt;, variable: VariableDeclarator): boolean</text><rect fill="#F24D5C" height="6" style="stroke:#C82930;stroke-width:1.0;" width="6" x="796.4091" y="663.4844"/><text fill="#000000" font-family="sans-serif" font-size="11" lengthAdjust="spacing" textLength="341" x="808.4091" y="669.6948">addCompositionRelations(variable: VariableDeclarator): void</text><rect fill="#F24D5C" height="6" style="stroke:#C82930;stroke-width:1.0;" width="6" x="796.4091" y="676.2891"/><text fill="#000000" font-family="sans-serif" font-size="11" lengthAdjust="spacing" textLength="210" x="808.4091" y="682.4995">getListType(type: Type): List&lt;Type&gt;</text><rect fill="#F24D5C" height="6" style="stroke:#C82930;stroke-width:1.0;" width="6" x="796.4091" y="689.0938"/><text fill="#000000" font-family="sans-serif" font-size="11" lengthAdjust="spacing" textLength="238" x="808.4091" y="695.3042">addCompositionRelation(type: Type): void</text><rect fill="#F24D5C" height="6" style="stroke:#C82930;stroke-width:1.0;" width="6" x="796.4091" y="701.8984"/><text fill="#000000" font-family="sans-serif" font-size="11" lengthAdjust="spacing" textLength="323" x="808.4091" y="708.1089">addAggregationRelations(targetTypes: List&lt;Type&gt;): void</text><rect fill="#F24D5C" height="6" style="stroke:#C82930;stroke-width:1.0;" width="6" x="796.4091" y="714.7031"/><text fill="#000000" font-family="sans-serif" font-size="11" lengthAdjust="spacing" textLength="232" x="808.4091" y="720.9136">addAssociationRelation(type: Type): void</text><ellipse cx="799.4091" cy="730.5078" fill="#84BE84" rx="3" ry="3" style="stroke:#038048;stroke-width:1.0;"/><text fill="#000000" font-family="sans-serif" font-size="11" lengthAdjust="spacing" textLength="278" x="808.4091" y="733.7183">visit(variable: VariableDeclarator, arg: Void): void</text><ellipse cx="799.4091" cy="743.3125" fill="#84BE84" rx="3" ry="3" style="stroke:#038048;stroke-width:1.0;"/><text fill="#000000" font-family="sans-serif" font-size="11" lengthAdjust="spacing" textLength="245" x="808.4091" y="746.5229">visit(parameter: Parameter, arg: Void): void</text><ellipse cx="799.4091" cy="756.1172" fill="#84BE84" rx="3" ry="3" style="stroke:#038048;stroke-width:1.0;"/><text fill="#000000" font-family="sans-serif" font-size="11" lengthAdjust="spacing" textLength="271" x="808.4091" y="759.3276">visit(object: ObjectCreationExpr, arg: Void): void</text><rect fill="#F24D5C" height="6" style="stroke:#C82930;stroke-width:1.0;" width="6" x="796.4091" y="765.9219"/><text fill="#000000" font-family="sans-serif" font-size="11" lengthAdjust="spacing" textLength="273" x="808.4091" y="772.1323">addUseRelationsTargetNames(type: Type): void</text><rect fill="#F24D5C" height="6" style="stroke:#C82930;stroke-width:1.0;" width="6" x="796.4091" y="778.7266"/><text fill="#000000" font-family="sans-serif" font-size="11" lengthAdjust="spacing" textLength="134" x="808.4091" y="784.937">addUseRelations(): void</text><rect fill="#F24D5C" height="6" style="stroke:#C82930;stroke-width:1.0;" width="6" x="796.4091" y="791.5313"/><text fill="#000000" font-family="sans-serif" font-size="11" lengthAdjust="spacing" textLength="240" x="808.4091" y="797.7417">isInRelations(targetName: String): boolean</text><!--MD5=[4d4d1f0ea9bd25bce75b992201e1d785]
class 60cb13181378a01d58d76108--><rect codeLine="54" fill="#FEFECE" filter="url(#fk0rw6sy3ztgh)" height="73.6094" id="60cb13181378a01d58d76108" style="stroke:#A80036;stroke-width:1.5;" width="257" x="83.9091" y="213"/><ellipse cx="180.6591" cy="229" fill="#ADD1B2" rx="11" ry="11" style="stroke:#A80036;stroke-width:1.0;"/><path d="M183.0028,224.6719 C182.0653,224.2344 181.4716,224.0938 180.5966,224.0938 C177.9716,224.0938 175.9716,226.1719 175.9716,228.8906 L175.9716,230.0156 C175.9716,232.5938 178.0809,234.4844 180.9716,234.4844 C182.1903,234.4844 183.3466,234.1875 184.0966,233.6406 C184.6747,233.2344 185.0028,232.7813 185.0028,232.3906 C185.0028,231.9375 184.6122,231.5469 184.1434,231.5469 C183.9247,231.5469 183.7216,231.625 183.5341,231.8125 C183.0809,232.2969 183.0809,232.2969 182.8934,232.3906 C182.4716,232.6563 181.7841,232.7813 181.0184,232.7813 C178.9716,232.7813 177.6747,231.6875 177.6747,229.9844 L177.6747,228.8906 C177.6747,227.1094 178.9247,225.7969 180.6591,225.7969 C181.2372,225.7969 181.8466,225.9531 182.3153,226.2031 C182.7997,226.4844 182.9716,226.7031 183.0653,227.1094 C183.1278,227.5156 183.1591,227.6406 183.2997,227.7656 C183.4403,227.9063 183.6747,228.0156 183.8934,228.0156 C184.1591,228.0156 184.4247,227.875 184.5966,227.6563 C184.7059,227.5 184.7372,227.3125 184.7372,226.8906 L184.7372,225.4688 C184.7372,225.0313 184.7216,224.9063 184.6278,224.75 C184.4716,224.4844 184.1903,224.3438 183.8934,224.3438 C183.5966,224.3438 183.3934,224.4375 183.1747,224.75 L183.0028,224.6719 Z " fill="#000000"/><text fill="#000000" font-family="sans-serif" font-size="12" lengthAdjust="spacing" textLength="55" x="201.1591" y="233.1543">GitCloner</text><line style="stroke:#A80036;stroke-width:1.5;" x1="84.9091" x2="339.9091" y1="245" y2="245"/><rect fill="none" height="6" style="stroke:#C82930;stroke-width:1.0;" width="6" x="91.9091" y="253"/><text fill="#000000" font-family="sans-serif" font-size="11" lengthAdjust="spacing" text-decoration="underline" textLength="69" x="103.9091" y="259.2104">PATH: String</text><line style="stroke:#A80036;stroke-width:1.5;" x1="84.9091" x2="339.9091" y1="265.8047" y2="265.8047"/><ellipse cx="94.9091" cy="276.8047" fill="#84BE84" rx="3" ry="3" style="stroke:#038048;stroke-width:1.0;"/><text fill="#000000" font-family="sans-serif" font-size="11" lengthAdjust="spacing" textLength="231" x="103.9091" y="280.0151">clone(url: String, email: String): Directory</text><!--MD5=[7ec578dfc4c40baa1ecaee105854655e]
class 60cb13181378a01d58d76109--><rect codeLine="58" fill="#FEFECE" filter="url(#fk0rw6sy3ztgh)" height="73.6094" id="60cb13181378a01d58d76109" style="stroke:#A80036;stroke-width:1.5;" width="254" x="85.4091" y="41"/><ellipse cx="141.6591" cy="57" fill="#ADD1B2" rx="11" ry="11" style="stroke:#A80036;stroke-width:1.0;"/><path d="M144.0028,52.6719 C143.0653,52.2344 142.4716,52.0938 141.5966,52.0938 C138.9716,52.0938 136.9716,54.1719 136.9716,56.8906 L136.9716,58.0156 C136.9716,60.5938 139.0809,62.4844 141.9716,62.4844 C143.1903,62.4844 144.3466,62.1875 145.0966,61.6406 C145.6747,61.2344 146.0028,60.7813 146.0028,60.3906 C146.0028,59.9375 145.6122,59.5469 145.1434,59.5469 C144.9247,59.5469 144.7216,59.625 144.5341,59.8125 C144.0809,60.2969 144.0809,60.2969 143.8934,60.3906 C143.4716,60.6563 142.7841,60.7813 142.0184,60.7813 C139.9716,60.7813 138.6747,59.6875 138.6747,57.9844 L138.6747,56.8906 C138.6747,55.1094 139.9247,53.7969 141.6591,53.7969 C142.2372,53.7969 142.8466,53.9531 143.3153,54.2031 C143.7997,54.4844 143.9716,54.7031 144.0653,55.1094 C144.1278,55.5156 144.1591,55.6406 144.2997,55.7656 C144.4403,55.9063 144.6747,56.0156 144.8934,56.0156 C145.1591,56.0156 145.4247,55.875 145.5966,55.6563 C145.7059,55.5 145.7372,55.3125 145.7372,54.8906 L145.7372,53.4688 C145.7372,53.0313 145.7216,52.9063 145.6278,52.75 C145.4716,52.4844 145.1903,52.3438 144.8934,52.3438 C144.5966,52.3438 144.3934,52.4375 144.1747,52.75 L144.0028,52.6719 Z " fill="#000000"/><text fill="#000000" font-family="sans-serif" font-size="12" lengthAdjust="spacing" textLength="133" x="162.1591" y="61.1543">GitRepositoryImporter</text><line style="stroke:#A80036;stroke-width:1.5;" x1="86.4091" x2="338.4091" y1="73" y2="73"/><rect fill="none" height="6" style="stroke:#C82930;stroke-width:1.0;" width="6" x="93.4091" y="81"/><text fill="#000000" font-family="sans-serif" font-size="11" lengthAdjust="spacing" textLength="194" x="105.4091" y="87.2104">repositoryParser: RepositoryParser</text><line style="stroke:#A80036;stroke-width:1.5;" x1="86.4091" x2="338.4091" y1="93.8047" y2="93.8047"/><ellipse cx="96.4091" cy="104.8047" fill="#84BE84" rx="3" ry="3" style="stroke:#038048;stroke-width:1.0;"/><text fill="#000000" font-family="sans-serif" font-size="11" lengthAdjust="spacing" textLength="228" x="105.4091" y="108.0151">_import(url: String, email: String): Project</text><!--MD5=[dc49ba53fcd6a242f1f620631de83761]
class 60cb13181378a01d58d7610a--><rect codeLine="62" fill="#FEFECE" filter="url(#fk0rw6sy3ztgh)" height="150.4375" id="60cb13181378a01d58d7610a" style="stroke:#A80036;stroke-width:1.5;" width="405" x="375.9091" y="175"/><ellipse cx="522.6591" cy="191" fill="#ADD1B2" rx="11" ry="11" style="stroke:#A80036;stroke-width:1.0;"/><path d="M525.0028,186.6719 C524.0653,186.2344 523.4716,186.0938 522.5966,186.0938 C519.9716,186.0938 517.9716,188.1719 517.9716,190.8906 L517.9716,192.0156 C517.9716,194.5938 520.0809,196.4844 522.9716,196.4844 C524.1903,196.4844 525.3466,196.1875 526.0966,195.6406 C526.6747,195.2344 527.0028,194.7813 527.0028,194.3906 C527.0028,193.9375 526.6122,193.5469 526.1434,193.5469 C525.9247,193.5469 525.7216,193.625 525.5341,193.8125 C525.0809,194.2969 525.0809,194.2969 524.8934,194.3906 C524.4716,194.6563 523.7841,194.7813 523.0184,194.7813 C520.9716,194.7813 519.6747,193.6875 519.6747,191.9844 L519.6747,190.8906 C519.6747,189.1094 520.9247,187.7969 522.6591,187.7969 C523.2372,187.7969 523.8466,187.9531 524.3153,188.2031 C524.7997,188.4844 524.9716,188.7031 525.0653,189.1094 C525.1278,189.5156 525.1591,189.6406 525.2997,189.7656 C525.4403,189.9063 525.6747,190.0156 525.8934,190.0156 C526.1591,190.0156 526.4247,189.875 526.5966,189.6563 C526.7059,189.5 526.7372,189.3125 526.7372,188.8906 L526.7372,187.4688 C526.7372,187.0313 526.7216,186.9063 526.6278,186.75 C526.4716,186.4844 526.1903,186.3438 525.8934,186.3438 C525.5966,186.3438 525.3934,186.4375 525.1747,186.75 L525.0028,186.6719 Z " fill="#000000"/><text fill="#000000" font-family="sans-serif" font-size="12" lengthAdjust="spacing" textLength="103" x="543.1591" y="195.1543">RepositoryParser</text><line style="stroke:#A80036;stroke-width:1.5;" x1="376.9091" x2="779.9091" y1="207" y2="207"/><polygon fill="none" points="386.9091,214,382.9091,220,390.9091,220" style="stroke:#1963A0;stroke-width:1.0;"/><text fill="#000000" font-family="sans-serif" font-size="11" lengthAdjust="spacing" text-decoration="underline" textLength="69" x="395.9091" y="221.2104">PATH: String</text><polygon fill="none" points="386.9091,226.8047,382.9091,232.8047,390.9091,232.8047" style="stroke:#1963A0;stroke-width:1.0;"/><text fill="#000000" font-family="sans-serif" font-size="11" lengthAdjust="spacing" text-decoration="underline" textLength="138" x="395.9091" y="234.0151">JAVA_EXTENSION: String</text><rect fill="none" height="6" style="stroke:#C82930;stroke-width:1.0;" width="6" x="383.9091" y="240.6094"/><text fill="#000000" font-family="sans-serif" font-size="11" lengthAdjust="spacing" textLength="234" x="395.9091" y="246.8198">packagePersistence: PackagePersistence</text><rect fill="none" height="6" style="stroke:#C82930;stroke-width:1.0;" width="6" x="383.9091" y="253.4141"/><text fill="#000000" font-family="sans-serif" font-size="11" lengthAdjust="spacing" textLength="197" x="395.9091" y="259.6245">classPersistence: ClassPersistence</text><rect fill="none" height="6" style="stroke:#C82930;stroke-width:1.0;" width="6" x="383.9091" y="266.2188"/><text fill="#000000" font-family="sans-serif" font-size="11" lengthAdjust="spacing" textLength="152" x="395.9091" y="272.4292">classMap: Map&lt;File,Class&gt;</text><line style="stroke:#A80036;stroke-width:1.5;" x1="376.9091" x2="779.9091" y1="279.0234" y2="279.0234"/><polygon fill="#4177AF" points="386.9091,286.0234,382.9091,292.0234,390.9091,292.0234" style="stroke:#1963A0;stroke-width:1.0;"/><text fill="#000000" font-family="sans-serif" font-size="11" lengthAdjust="spacing" textLength="181" x="395.9091" y="293.2339">get(directory: Directory): Project</text><rect fill="#F24D5C" height="6" style="stroke:#C82930;stroke-width:1.0;" width="6" x="383.9091" y="299.8281"/><text fill="#000000" font-family="sans-serif" font-size="11" lengthAdjust="spacing" textLength="379" x="395.9091" y="306.0386">parseDirectoryClasses(pakage: Package, directory: Directory): void</text><rect fill="#F24D5C" height="6" style="stroke:#C82930;stroke-width:1.0;" width="6" x="383.9091" y="312.6328"/><text fill="#000000" font-family="sans-serif" font-size="11" lengthAdjust="spacing" textLength="259" x="395.9091" y="318.8433">parseDirectoryRelations(project: Project): void</text><!--MD5=[be9060d62aa1140a0cd60ac7fdc62b83]
reverse link 60cb13181378a01d58d76106 to 60cb13181378a01d58d76105--><path codeLine="73" d="M946.5671,289.401 C895.1081,314.754 827.6191,349.703 770.4091,385 C703.5391,426.256 631.8911,477.892 576.6631,519.456 " fill="none" id="60cb13181378a01d58d76106-backto-60cb13181378a01d58d76105" style="stroke:#A80036;stroke-width:1.0;"/><polygon fill="none" points="943.7091,283.007,964.7511,280.512,949.8571,295.585,943.7091,283.007" style="stroke:#A80036;stroke-width:1.0;"/><!--MD5=[a6dd1ad388069bc8fa5f3ded33a8bf66]
reverse link 60cb13181378a01d58d76106 to 60cb13181378a01d58d76107--><path codeLine="74" d="M1037.5591,300.682 C1042.3191,323.95 1048.3391,353.4 1054.7191,384.605 " fill="none" id="60cb13181378a01d58d76106-backto-60cb13181378a01d58d76107" style="stroke:#A80036;stroke-width:1.0;"/><polygon fill="none" points="1030.6491,301.792,1033.4991,280.795,1044.3591,298.989,1030.6491,301.792" style="stroke:#A80036;stroke-width:1.0;"/><!--MD5=[b772b5b6984879f7c1d37de21057cd91]
link 60cb13181378a01d58d76108 to 60cb13181378a01d58d76104--><path codeLine="75" d="M201.6861,287.006 C184.7781,343.781 151.6541,455.005 130.3021,526.703 " fill="none" id="60cb13181378a01d58d76108-to-60cb13181378a01d58d76104" style="stroke:#A80036;stroke-width:1.0;stroke-dasharray:7.0,7.0;"/><polygon fill="#A80036" points="128.7851,531.796,135.1872,524.3118,130.212,527.0039,127.5198,522.0287,128.7851,531.796" style="stroke:#A80036;stroke-width:1.0;"/><!--MD5=[7ef84c6a4f9c807b1108869b2b91b606]
link 60cb13181378a01d58d76109 to 60cb13181378a01d58d7610a--><path codeLine="76" d="M290.0281,115.053 C326.2681,131.885 370.8731,152.603 414.0751,172.67 " fill="none" id="60cb13181378a01d58d76109-to-60cb13181378a01d58d7610a" style="stroke:#A80036;stroke-width:1.0;"/><polygon fill="#A80036" points="418.7911,174.861,412.315,167.4407,414.2568,172.7538,408.9436,174.6956,418.7911,174.861" style="stroke:#A80036;stroke-width:1.0;"/><!--MD5=[f2d150669aa3d60b6e046bc1420324fb]
link 60cb13181378a01d58d76109 to 60cb13181378a01d58d76108--><path codeLine="77" d="M212.4091,115.053 C212.4091,142.212 212.4091,179.485 212.4091,207.817 " fill="none" id="60cb13181378a01d58d76109-to-60cb13181378a01d58d76108" style="stroke:#A80036;stroke-width:1.0;stroke-dasharray:7.0,7.0;"/><polygon fill="#A80036" points="212.4091,212.999,216.4091,203.999,212.4091,207.999,208.4091,203.999,212.4091,212.999" style="stroke:#A80036;stroke-width:1.0;"/><!--MD5=[250b2ac0713f89a66fe7d13b6358bda2]
link 60cb13181378a01d58d76109 to 60cb13181378a01d58d76104--><path codeLine="78" d="M128.0351,115.053 C103.7205,129.875 80.0882,149.634 66.4091,175 C6,287.019 48.1822,440.377 81.3039,526.94 " fill="none" id="60cb13181378a01d58d76109-to-60cb13181378a01d58d76104" style="stroke:#A80036;stroke-width:1.0;stroke-dasharray:7.0,7.0;"/><polygon fill="#A80036" points="83.172,531.777,83.6608,521.9403,81.3706,527.1128,76.1981,524.8225,83.172,531.777" style="stroke:#A80036;stroke-width:1.0;"/><!--MD5=[00d9cbcb13d081f47e9c0d39f6c92f35]
link 60cb13181378a01d58d7610a to 60cb13181378a01d58d76105--><path codeLine="79" d="M557.3611,325.317 C541.5681,381.083 519.9831,457.296 503.8601,514.227 " fill="none" id="60cb13181378a01d58d7610a-to-60cb13181378a01d58d76105" style="stroke:#A80036;stroke-width:1.0;stroke-dasharray:7.0,7.0;"/><polygon fill="#A80036" points="502.4151,519.328,508.7164,511.7588,503.7777,514.5173,501.0193,509.5786,502.4151,519.328" style="stroke:#A80036;stroke-width:1.0;"/><!--MD5=[6bb0ea92cc8ee2d9dec0bcf845fc3e1b]
link 60cb13181378a01d58d7610a to 60cb13181378a01d58d76104--><path codeLine="80" d="M375.6431,319.234 C284.1121,350.378 195.3291,381.223 191.4091,385 C152.2851,422.695 131.7321,481.46 121.1361,527.007 " fill="none" id="60cb13181378a01d58d7610a-to-60cb13181378a01d58d76104" style="stroke:#A80036;stroke-width:1.0;stroke-dasharray:7.0,7.0;"/><polygon fill="#A80036" points="120.0171,531.932,125.9129,524.0428,121.1256,527.0564,118.112,522.2692,120.0171,531.932" style="stroke:#A80036;stroke-width:1.0;"/><!--MD5=[ce9352d9fb63e136e26e619562cc14b6]
link 60cb13181378a01d58d7610a to 60cb13181378a01d58d76107--><path codeLine="81" d="M690.7051,325.106 C719.0161,343.79 750.8201,364.778 783.8471,386.574 " fill="none" id="60cb13181378a01d58d7610a-to-60cb13181378a01d58d76107" style="stroke:#A80036;stroke-width:1.0;stroke-dasharray:7.0,7.0;"/><polygon fill="#A80036" points="788.3031,389.514,782.9939,381.2186,784.1297,386.7603,778.588,387.8961,788.3031,389.514" style="stroke:#A80036;stroke-width:1.0;"/><!--MD5=[8491382546ee4a974a8c2c9222d14423]
@startuml
package "reverseEngineering" as 60cb13181378a01d58d76103 {
  class "Directory" as 60cb13181378a01d58d76104 {
      - file: File
      + delete(): void
      + getName(): String
      + getPath(): String
      + listFiles(): File[]
      + getFile(): File
    }
  class "FileClassParser" as 60cb13181378a01d58d76105 {
      - clazz: Class
      + get(file: File): Class
      + visit(declaration: ClassOrInterfaceDeclaration, arg: Void): void
      + visit(declaration: EnumDeclaration, arg: Void): void
      + visit(declaration: AnnotationDeclaration, arg: Void): void
      - getAttributes(fields: List<FieldDeclaration>): List<Attribute>
      - getMethods(methodDeclarations: List<MethodDeclaration>): List<Method>
      - getModifiers(declarationModifiers: List<com.github.javaparser.ast.Modifier>): List<Modifier>
    }
  class "FileParser" as 60cb13181378a01d58d76106 {
      # getCompilationUnit(file: File): CompilationUnit
    }
  class "FileRelationParser" as 60cb13181378a01d58d76107 {
      - relations: List<Relation>
      - useRelationsTargetNames: Set<String>
      - imports: List<String>
      - project: Project
      - pakage: Package
      - targetRoute: String
      ~ get(project: Project, file: File): List<Relation>
      - setPackageRoute(compilationUnit: CompilationUnit): void
      + visit(declaration: ClassOrInterfaceDeclaration, arg: Void): void
      + visit(declaration: EnumDeclaration, arg: Void): void
      - addInheritanceRelations(targetDeclarations: List<ClassOrInterfaceType>): void
      - getTarget(targetName: String): Member
      - getImport(name: String): String
      - getOutsideTarget(typeName: String): Member
      - addRelations(declaration: TypeDeclaration<?>): void
      - getVariables(declaration: TypeDeclaration<?>): List<VariableDeclarator>
      - isInConstructorParams(variable: VariableDeclarator, constructors: List<ConstructorDeclaration>): boolean
      - isInitialized(declaration: TypeDeclaration<?>, variable: VariableDeclarator): boolean
      - addCompositionRelations(variable: VariableDeclarator): void
      - getListType(type: Type): List<Type>
      - addCompositionRelation(type: Type): void
      - addAggregationRelations(targetTypes: List<Type>): void
      - addAssociationRelation(type: Type): void
      + visit(variable: VariableDeclarator, arg: Void): void
      + visit(parameter: Parameter, arg: Void): void
      + visit(object: ObjectCreationExpr, arg: Void): void
      - addUseRelationsTargetNames(type: Type): void
      - addUseRelations(): void
      - isInRelations(targetName: String): boolean
    }
  class "GitCloner" as 60cb13181378a01d58d76108 {
      - {static}  PATH: String
      + clone(url: String, email: String): Directory
    }
  class "GitRepositoryImporter" as 60cb13181378a01d58d76109 {
      - repositoryParser: RepositoryParser
      + _import(url: String, email: String): Project
    }
  class "RepositoryParser" as 60cb13181378a01d58d7610a {
      ~ {static}  PATH: String
      ~ {static}  JAVA_EXTENSION: String
      - packagePersistence: PackagePersistence
      - classPersistence: ClassPersistence
      - classMap: Map<File,Class>
      ~ get(directory: Directory): Project
      - parseDirectoryClasses(pakage: Package, directory: Directory): void
      - parseDirectoryRelations(project: Project): void
    }
}
60cb13181378a01d58d76105 -up-|> 60cb13181378a01d58d76106
60cb13181378a01d58d76107 -up-|> 60cb13181378a01d58d76106
60cb13181378a01d58d76108 .down.> 60cb13181378a01d58d76104
60cb13181378a01d58d76109 -down-> 60cb13181378a01d58d7610a
60cb13181378a01d58d76109 .down.> 60cb13181378a01d58d76108
60cb13181378a01d58d76109 .down.> 60cb13181378a01d58d76104
60cb13181378a01d58d7610a .down.> 60cb13181378a01d58d76105
60cb13181378a01d58d7610a .down.> 60cb13181378a01d58d76104
60cb13181378a01d58d7610a .down.> 60cb13181378a01d58d76107
@enduml

PlantUML version 1.2021.7(Sun May 23 12:40:07 UTC 2021)
(GPL source distribution)
Java Runtime: Java(TM) SE Runtime Environment
JVM: Java HotSpot(TM) 64-Bit Server VM
Default Encoding: UTF-8
Language: en
Country: US
--></g></svg>