<?xml version="1.0" encoding="UTF-8" standalone="no"?><svg xmlns="http://www.w3.org/2000/svg" xmlns:xlink="http://www.w3.org/1999/xlink" contentScriptType="application/ecmascript" contentStyleType="text/css" height="1900px" preserveAspectRatio="none" style="width:1029px;height:1900px;background:#FFFFFF;" version="1.1" viewBox="0 0 1029 1900" width="1029px" zoomAndPan="magnify"><defs><filter height="300%" id="fv9eccgiybzzg" width="300%" x="-1" y="-1"><feGaussianBlur result="blurOut" stdDeviation="2.0"/><feColorMatrix in="blurOut" result="blurOut2" type="matrix" values="0 0 0 0 0 0 0 0 0 0 0 0 0 0 0 0 0 0 .4 0"/><feOffset dx="4.0" dy="4.0" in="blurOut2" result="blurOut3"/><feBlend in="SourceGraphic" in2="blurOut3" mode="normal"/></filter></defs><g><!--MD5=[23cbaadc18b1780d966e07254adaec4d]
cluster frontend--><polygon fill="#FFFFFF" filter="url(#fv9eccgiybzzg)" points="565,397,632,397,639,420.6094,803,420.6094,803,965,565,965,565,397" style="stroke:#000000;stroke-width:1.5;"/><line style="stroke:#000000;stroke-width:1.5;" x1="565" x2="639" y1="420.6094" y2="420.6094"/><text fill="#000000" font-family="sans-serif" font-size="14" font-weight="bold" lengthAdjust="spacing" textLength="61" x="569" y="413.5332">frontend</text><text fill="#000000" font-family="sans-serif" font-size="14" font-style="italic" lengthAdjust="spacing" textLength="84" x="646" y="437.1426">«angular:11»</text><!--MD5=[64daa5a824998c700cfb188d1583c07e]
cluster analysis--><polygon fill="#FFFFFF" filter="url(#fv9eccgiybzzg)" points="334,6,396,6,403,29.6094,473,29.6094,473,347,334,347,334,6" style="stroke:#000000;stroke-width:1.5;"/><line style="stroke:#000000;stroke-width:1.5;" x1="334" x2="403" y1="29.6094" y2="29.6094"/><text fill="#000000" font-family="sans-serif" font-size="14" font-weight="bold" lengthAdjust="spacing" textLength="56" x="338" y="22.5332">analysis</text><!--MD5=[47c14c564e796a575e671c2b0469a7bb]
cluster backend--><polygon fill="#FFFFFF" filter="url(#fv9eccgiybzzg)" points="139,998,205,998,212,1021.6094,401,1021.6094,401,1893,139,1893,139,998" style="stroke:#000000;stroke-width:1.5;"/><line style="stroke:#000000;stroke-width:1.5;" x1="139" x2="212" y1="1021.6094" y2="1021.6094"/><text fill="#000000" font-family="sans-serif" font-size="14" font-weight="bold" lengthAdjust="spacing" textLength="60" x="143" y="1014.5332">backend</text><text fill="#000000" font-family="sans-serif" font-size="14" font-style="italic" lengthAdjust="spacing" textLength="124" x="212" y="1038.1426">«spring-boot:2.4.5»</text><!--MD5=[e1959f9d6eaaeb2bbab4621b2f4b0ce0]
entity XTemplate--><path d="M613.5,472.6094 L613.5,496.6094 M613.5,484.6094 L630.5,484.6094 " fill="none" filter="url(#fv9eccgiybzzg)" style="stroke:#A80036;stroke-width:1.5;"/><ellipse cx="642.5" cy="484.6094" fill="#FEFECE" filter="url(#fv9eccgiybzzg)" rx="12" ry="12" style="stroke:#A80036;stroke-width:1.5;"/><text fill="#000000" font-family="sans-serif" font-size="14" lengthAdjust="spacing" textLength="67" x="600.5" y="515.1426">XTemplate</text><text fill="#000000" font-family="sans-serif" font-size="14" font-style="italic" lengthAdjust="spacing" textLength="55" x="606.5" y="465.5332">«HTML»</text><!--MD5=[d6779ff0a6031e8b8264cc6b7087ee74]
entity XComponent--><path d="M724.5,472.6094 L724.5,496.6094 M724.5,484.6094 L741.5,484.6094 " fill="none" filter="url(#fv9eccgiybzzg)" style="stroke:#A80036;stroke-width:1.5;"/><ellipse cx="753.5" cy="484.6094" fill="#FEFECE" filter="url(#fv9eccgiybzzg)" rx="12" ry="12" style="stroke:#A80036;stroke-width:1.5;"/><text fill="#000000" font-family="sans-serif" font-size="14" lengthAdjust="spacing" textLength="81" x="704.5" y="515.1426">XComponent</text><text fill="#000000" font-family="sans-serif" font-size="14" font-style="italic" lengthAdjust="spacing" textLength="84" x="703" y="465.5332">«TypeScript»</text><!--MD5=[69e620827fd35227d329e8118e6b893e]
entity XStyle--><path d="M704.5,679.6094 L704.5,703.6094 M704.5,691.6094 L721.5,691.6094 " fill="none" filter="url(#fv9eccgiybzzg)" style="stroke:#A80036;stroke-width:1.5;"/><ellipse cx="733.5" cy="691.6094" fill="#FEFECE" filter="url(#fv9eccgiybzzg)" rx="12" ry="12" style="stroke:#A80036;stroke-width:1.5;"/><text fill="#000000" font-family="sans-serif" font-size="14" lengthAdjust="spacing" textLength="39" x="705.5" y="722.1426">XStyle</text><text fill="#000000" font-family="sans-serif" font-size="14" font-style="italic" lengthAdjust="spacing" textLength="44" x="703" y="672.5332">«CSS»</text><!--MD5=[57e56815b43a23c42a8080287d3beacb]
entity XService--><ellipse cx="623" cy="691.6094" fill="#FEFECE" filter="url(#fv9eccgiybzzg)" rx="12" ry="12" style="stroke:#A80036;stroke-width:1.5;"/><polygon fill="#A80036" points="619,679.6094,625,674.6094,623,679.6094,625,684.6094,619,679.6094" style="stroke:#A80036;stroke-width:1.0;"/><text fill="#000000" font-family="sans-serif" font-size="14" lengthAdjust="spacing" textLength="55" x="595.5" y="722.1426">XService</text><text fill="#000000" font-family="sans-serif" font-size="14" font-style="italic" lengthAdjust="spacing" textLength="84" x="581" y="672.5332">«TypeScript»</text><!--MD5=[11f4769666054cda26d2bc303b3df0b5]
entity HTTPService--><ellipse cx="623" cy="906.5" fill="#FEFECE" filter="url(#fv9eccgiybzzg)" rx="12" ry="12" style="stroke:#A80036;stroke-width:1.5;"/><line style="stroke:#A80036;stroke-width:1.5;" x1="611" x2="635" y1="920.5" y2="920.5"/><text fill="#000000" font-family="sans-serif" font-size="14" lengthAdjust="spacing" textLength="83" x="581.5" y="937.0332">HTTPService</text><!--MD5=[69e49715a4c359aea4a800f263690fc5]
entity XDto--><ellipse cx="743" cy="915.6094" fill="#FEFECE" filter="url(#fv9eccgiybzzg)" rx="12" ry="12" style="stroke:#A80036;stroke-width:1.5;"/><line style="stroke:#A80036;stroke-width:1.5;" x1="731" x2="755" y1="929.6094" y2="929.6094"/><text fill="#000000" font-family="sans-serif" font-size="14" lengthAdjust="spacing" textLength="30" x="728" y="946.1426">XDto</text><text fill="#000000" font-family="sans-serif" font-size="14" font-style="italic" lengthAdjust="spacing" textLength="41" x="722.5" y="896.5332">«java»</text><!--MD5=[b843a707a9d29bfe6172f1502199d263]
entity XView--><path d="M411.5,46 L411.5,70 M411.5,58 L428.5,58 " fill="none" filter="url(#fv9eccgiybzzg)" style="stroke:#A80036;stroke-width:1.5;"/><ellipse cx="440.5" cy="58" fill="#FEFECE" filter="url(#fv9eccgiybzzg)" rx="12" ry="12" style="stroke:#A80036;stroke-width:1.5;"/><text fill="#000000" font-family="sans-serif" font-size="14" lengthAdjust="spacing" textLength="37" x="413.5" y="88.5332">XView</text><!--MD5=[a91319e7cfad8d66707571e19cb9c3d9]
entity XController--><ellipse cx="422" cy="169" fill="#FEFECE" filter="url(#fv9eccgiybzzg)" rx="12" ry="12" style="stroke:#A80036;stroke-width:1.5;"/><polygon fill="#A80036" points="418,157,424,152,422,157,424,162,418,157" style="stroke:#A80036;stroke-width:1.0;"/><text fill="#000000" font-family="sans-serif" font-size="14" lengthAdjust="spacing" textLength="70" x="387" y="199.5332">XController</text><!--MD5=[fd32a81c2404801ffd3250cd88dc7b13]
entity XModel--><ellipse cx="373" cy="297" fill="#FEFECE" filter="url(#fv9eccgiybzzg)" rx="12" ry="12" style="stroke:#A80036;stroke-width:1.5;"/><line style="stroke:#A80036;stroke-width:1.5;" x1="361" x2="385" y1="311" y2="311"/><text fill="#000000" font-family="sans-serif" font-size="14" lengthAdjust="spacing" textLength="46" x="350" y="327.5332">XModel</text><!--MD5=[6fe366b877eb09b1d122747c4a2b3f70]
entity XServiceJava--><ellipse cx="223" cy="1275" fill="#FEFECE" filter="url(#fv9eccgiybzzg)" rx="12" ry="12" style="stroke:#A80036;stroke-width:1.5;"/><polygon fill="#A80036" points="219,1263,225,1258,223,1263,225,1268,219,1263" style="stroke:#A80036;stroke-width:1.0;"/><text fill="#000000" font-family="sans-serif" font-size="14" lengthAdjust="spacing" textLength="94" x="176" y="1305.5332">XService - java</text><!--MD5=[fd4eb8c32c74988c465af29763f92287]
entity XResourceJava--><ellipse cx="309" cy="1068" fill="#FEFECE" filter="url(#fv9eccgiybzzg)" rx="12" ry="12" style="stroke:#A80036;stroke-width:1.5;"/><polygon fill="#A80036" points="305,1056,311,1051,309,1056,311,1061,305,1056" style="stroke:#A80036;stroke-width:1.0;"/><text fill="#000000" font-family="sans-serif" font-size="14" lengthAdjust="spacing" textLength="108" x="255" y="1098.5332">XResource - java</text><!--MD5=[378c654bb0a2595421c2172d382d7c6b]
entity XRepositoryJava--><ellipse cx="214" cy="1497" fill="#FEFECE" filter="url(#fv9eccgiybzzg)" rx="12" ry="12" style="stroke:#A80036;stroke-width:1.5;"/><line style="stroke:#A80036;stroke-width:1.5;" x1="202" x2="226" y1="1511" y2="1511"/><text fill="#000000" font-family="sans-serif" font-size="14" lengthAdjust="spacing" textLength="115" x="156.5" y="1527.5332">XRepository - java</text><!--MD5=[dea703900e66ce9b48be40831b28a31d]
entity XEntityJava--><ellipse cx="196" cy="1670" fill="#FEFECE" filter="url(#fv9eccgiybzzg)" rx="12" ry="12" style="stroke:#A80036;stroke-width:1.5;"/><line style="stroke:#A80036;stroke-width:1.5;" x1="184" x2="208" y1="1684" y2="1684"/><text fill="#000000" font-family="sans-serif" font-size="14" lengthAdjust="spacing" textLength="82" x="155" y="1700.5332">XEntity - java</text><!--MD5=[d17c588b74c4d133a71fdca167744654]
entity XDtoJava--><ellipse cx="350" cy="1355" fill="#FEFECE" filter="url(#fv9eccgiybzzg)" rx="12" ry="12" style="stroke:#A80036;stroke-width:1.5;"/><line style="stroke:#A80036;stroke-width:1.5;" x1="338" x2="362" y1="1369" y2="1369"/><text fill="#000000" font-family="sans-serif" font-size="14" lengthAdjust="spacing" textLength="69" x="315.5" y="1385.5332">XDto - java</text><!--MD5=[38adb8be7016d1071522b8768eed49ad]
entity XModelJava--><ellipse cx="326" cy="1843" fill="#FEFECE" filter="url(#fv9eccgiybzzg)" rx="12" ry="12" style="stroke:#A80036;stroke-width:1.5;"/><line style="stroke:#A80036;stroke-width:1.5;" x1="314" x2="338" y1="1857" y2="1857"/><text fill="#000000" font-family="sans-serif" font-size="14" lengthAdjust="spacing" textLength="85" x="283.5" y="1873.5332">XModel - java</text><!--MD5=[5aef620dee1ae3a93a53b2d083bdaa97]
reverse link XTemplate to XComponent--><path d="M673.01,484.5 C682.94,484.5 692.87,484.5 702.79,484.5 " fill="none" id="XTemplate-backto-XComponent" style="stroke:#A80036;stroke-width:1.0;"/><polygon fill="#A80036" points="667.82,484.5,676.82,488.5,672.82,484.5,676.82,480.5,667.82,484.5" style="stroke:#A80036;stroke-width:1.0;"/><!--MD5=[b1aa15fe805f807fb1c54f8641e054c3]
link XTemplate to XStyle--><path d="M648.62,518.44 C664.99,555.31 691.45,614.91 708.53,653.4 " fill="none" id="XTemplate-to-XStyle" style="stroke:#A80036;stroke-width:1.0;"/><polygon fill="#A80036" points="710.57,657.98,710.5757,648.1311,708.542,653.4098,703.2633,651.376,710.57,657.98" style="stroke:#A80036;stroke-width:1.0;"/><!--MD5=[e020d5ea92ccc5aa14ca7a1b3a17e42f]
link XComponent to XService--><path d="M725.4,518.44 C703.46,555.31 667.98,614.91 645.08,653.4 " fill="none" id="XComponent-to-XService" style="stroke:#A80036;stroke-width:1.0;"/><polygon fill="#A80036" points="642.35,657.98,650.3882,652.289,644.9057,653.6825,643.5122,648.2,642.35,657.98" style="stroke:#A80036;stroke-width:1.0;"/><!--MD5=[5e7348a3050e3df932f8b6256484bbea]
link XComponent to XDto--><path d="M767.18,518.19 C776.84,535.49 786,557.55 786,579 C786,579 786,579 786,796 C786,824.4 774.95,854.46 764.05,877.19 " fill="none" id="XComponent-to-XDto" style="stroke:#A80036;stroke-width:1.0;"/><polygon fill="#A80036" points="761.74,881.93,769.2864,875.6014,763.9361,877.4381,762.0994,872.0877,761.74,881.93" style="stroke:#A80036;stroke-width:1.0;"/><!--MD5=[ae77c14ac2f86e5b3c12cdc482e8e762]
reverse link XService to HTTPService--><path d="M623,738.51 C623,784.75 623,854.22 623,890.5 " fill="none" id="XService-backto-HTTPService" style="stroke:#A80036;stroke-width:1.0;"/><polygon fill="#FFFFFF" points="623,725.26,619,731.26,623,737.26,627,731.26,623,725.26" style="stroke:#A80036;stroke-width:1.0;"/><!--MD5=[598ea00f6505793b20c4da7f776856fa]
link XService to XDto--><path d="M640.71,725.26 C662.66,765.87 699.98,834.92 722.96,877.43 " fill="none" id="XService-to-XDto" style="stroke:#A80036;stroke-width:1.0;"/><polygon fill="#A80036" points="725.42,881.97,724.6712,872.1496,723.0478,877.5686,717.6289,875.9452,725.42,881.97" style="stroke:#A80036;stroke-width:1.0;"/><!--MD5=[50a2f9fbc7f4e317ae9a157602683354]
link XView to XController--><path d="M429.78,92.19 C428.28,108.56 426.29,130.28 424.69,147.64 " fill="none" id="XView-to-XController" style="stroke:#A80036;stroke-width:1.0;"/><polygon fill="#A80036" points="424.21,152.88,429.0173,144.2841,424.6678,147.901,421.0509,143.5515,424.21,152.88" style="stroke:#A80036;stroke-width:1.0;"/><!--MD5=[ec381c4eec30df59611508dbe01cdcf3]
link XView to XModel--><path d="M408.03,92.02 C393.97,107.86 377.53,129.9 370,153 C356.66,193.92 361.53,244.38 366.83,275.63 " fill="none" id="XView-to-XModel" style="stroke:#A80036;stroke-width:1.0;"/><polygon fill="#A80036" points="367.75,280.85,370.1171,271.2898,366.877,275.9268,362.24,272.6867,367.75,280.85" style="stroke:#A80036;stroke-width:1.0;"/><!--MD5=[b87fd9631df6affa7e778aa25e2c6d03]
link XController to XModel--><path d="M412.55,203.29 C404.49,224.04 392.86,253.92 384.31,275.93 " fill="none" id="XController-to-XModel" style="stroke:#A80036;stroke-width:1.0;"/><polygon fill="#A80036" points="382.42,280.78,389.3956,273.8273,384.2226,276.1162,381.9336,270.9432,382.42,280.78" style="stroke:#A80036;stroke-width:1.0;"/><!--MD5=[d128288b978e1930b74c6549e29f4f76]
link XServiceJava to XRepositoryJava--><path d="M222,1309.38 C220.34,1350.13 216.99,1431.89 215.2,1475.69 " fill="none" id="XServiceJava-to-XRepositoryJava" style="stroke:#A80036;stroke-width:1.0;"/><polygon fill="#A80036" points="214.99,1480.84,219.3717,1472.0195,215.2041,1475.8446,211.379,1471.677,214.99,1480.84" style="stroke:#A80036;stroke-width:1.0;"/><!--MD5=[8d47b55a0e054d5743b414c63231438b]
link XServiceJava to XModelJava--><path d="M233.67,1309.05 C256.9,1363.68 310,1501.81 310,1623 C310,1623 310,1623 310,1766 C310,1784.78 313.82,1805.5 317.72,1821.78 " fill="none" id="XServiceJava-to-XModelJava" style="stroke:#A80036;stroke-width:1.0;"/><polygon fill="#A80036" points="318.94,1826.68,320.6646,1816.9833,317.7408,1821.8259,312.8981,1818.9021,318.94,1826.68" style="stroke:#A80036;stroke-width:1.0;"/><!--MD5=[03d20437e28212b9debf901d7e885e8b]
link XRepositoryJava to XEntityJava--><path d="M211.46,1531.14 C208.2,1562.07 202.56,1615.66 199.07,1648.84 " fill="none" id="XRepositoryJava-to-XEntityJava" style="stroke:#A80036;stroke-width:1.0;"/><polygon fill="#A80036" points="198.53,1653.99,203.4591,1645.4633,199.0586,1649.018,195.504,1644.6175,198.53,1653.99" style="stroke:#A80036;stroke-width:1.0;"/><!--MD5=[c6390ee0ff609d27475a23eb943bc6f9]
link XRepositoryJava to XModelJava--><path d="M242.46,1531.17 C257.55,1546.76 273,1568.47 273,1592 C273,1592 273,1592 273,1766 C273,1786.98 284.77,1807.07 297.22,1822.44 " fill="none" id="XRepositoryJava-to-XModelJava" style="stroke:#A80036;stroke-width:1.0;"/><polygon fill="#A80036" points="300.74,1826.65,298.0339,1817.1802,297.5321,1822.8147,291.8975,1822.3129,300.74,1826.65" style="stroke:#A80036;stroke-width:1.0;"/><!--MD5=[e9643956bddd55238250bfc3e7cd5c56]
link XResourceJava to XDtoJava--><path d="M313.17,1102.17 C314.74,1111.48 316.51,1122.23 318,1132 C329.03,1204.31 340.43,1289.6 346.18,1333.54 " fill="none" id="XResourceJava-to-XDtoJava" style="stroke:#A80036;stroke-width:1.0;"/><polygon fill="#A80036" points="346.86,1338.69,349.6693,1329.2503,346.217,1333.7315,341.7358,1330.2792,346.86,1338.69" style="stroke:#A80036;stroke-width:1.0;"/><!--MD5=[5cab4af40a25f6c8b275baddc140894f]
link XResourceJava to XServiceJava--><path d="M298.8,1102.32 C282.89,1140.23 252.25,1213.28 235.2,1253.92 " fill="none" id="XResourceJava-to-XServiceJava" style="stroke:#A80036;stroke-width:1.0;"/><polygon fill="#A80036" points="233.19,1258.71,240.3691,1251.9675,235.1303,1254.1018,232.996,1248.8631,233.19,1258.71" style="stroke:#A80036;stroke-width:1.0;"/><!--MD5=[e6ef747c4271a696dd8ae960ae254eab]
link XResourceJava to XModelJava--><path d="M307.96,1102.28 C306.04,1154.77 303.03,1282.64 314,1389 C321.99,1466.43 347,1483.16 347,1561 C347,1561 347,1561 347,1766 C347,1785.01 341.99,1805.73 336.86,1821.96 " fill="none" id="XResourceJava-to-XModelJava" style="stroke:#A80036;stroke-width:1.0;"/><polygon fill="#A80036" points="335.27,1826.84,341.8778,1819.5368,336.8297,1822.0895,334.277,1817.0413,335.27,1826.84" style="stroke:#A80036;stroke-width:1.0;"/><!--MD5=[bdbe93197ed84e3ddb8e0633dedb26c2]
link XDtoJava to XModelJava--><path d="M365.41,1389.27 C374.4,1405.75 384,1428.38 384,1450 C384,1450 384,1450 384,1766 C384,1787.57 371.09,1807.71 357.46,1822.96 " fill="none" id="XDtoJava-to-XModelJava" style="stroke:#A80036;stroke-width:1.0;"/><polygon fill="#A80036" points="353.98,1826.73,363.0143,1822.808,357.3625,1823.0478,357.1227,1817.396,353.98,1826.73" style="stroke:#A80036;stroke-width:1.0;"/><!--MD5=[e617508e8286a748d67c941929fa1863]
link XEntityJava to XModelJava--><path d="M207.19,1704.33 C219.23,1729.08 239.91,1767.84 264,1797 C271.72,1806.34 281.13,1815.42 290.27,1823.39 " fill="none" id="XEntityJava-to-XModelJava" style="stroke:#A80036;stroke-width:1.0;"/><polygon fill="#A80036" points="294.16,1826.74,289.9299,1817.8459,290.3637,1823.486,284.7235,1823.9199,294.16,1826.74" style="stroke:#A80036;stroke-width:1.0;"/><!--MD5=[023e3757eaf73a76d4f4c73ef91fd637]
reverse link XView to XComponent--><path d="M461.85,72.71 C493,79.02 541.61,92.98 573,122 C674.17,215.54 721.8,381 738.14,450.89 " fill="none" id="XView-backto-XComponent" style="stroke:#A80036;stroke-width:1.0;stroke-dasharray:7.0,7.0;"/><polygon fill="#A80036" points="456.62,71.69,464.6893,77.3368,461.5278,72.6459,466.2187,69.4844,456.62,71.69" style="stroke:#A80036;stroke-width:1.0;"/><text fill="#000000" font-family="sans-serif" font-size="13" lengthAdjust="spacing" textLength="43" x="666" y="247.4951">«trace»</text><!--MD5=[434ae80786ffddc1adc857a584c1c241]
reverse link XView to XTemplate--><path d="M461.66,69.06 C566.06,73.06 912.18,88.74 948,122 C990.51,161.48 998.71,201.78 968,251 C894.14,369.38 787,292.73 686,389 C667.97,406.18 654.64,431.02 645.99,450.92 " fill="none" id="XView-backto-XTemplate" style="stroke:#A80036;stroke-width:1.0;stroke-dasharray:7.0,7.0;"/><polygon fill="#A80036" points="456.58,68.87,465.4124,73.2275,461.576,69.0704,465.7331,65.234,456.58,68.87" style="stroke:#A80036;stroke-width:1.0;"/><text fill="#000000" font-family="sans-serif" font-size="13" lengthAdjust="spacing" textLength="43" x="978" y="247.4951">«trace»</text><!--MD5=[dd13b8f21bdf94be4093cbad622a6385]
reverse link XView to XStyle--><path d="M461.56,80.49 C495.64,97.1 547,129.94 547,177 C547,177 547,177 547,580 C547,649.68 625.09,619.25 683,658 C688.67,661.79 694.57,666.11 700.1,670.33 " fill="none" id="XView-backto-XStyle" style="stroke:#A80036;stroke-width:1.0;stroke-dasharray:7.0,7.0;"/><polygon fill="#A80036" points="456.67,78.16,463.0659,85.6495,461.1814,80.3158,466.5151,78.4313,456.67,78.16" style="stroke:#A80036;stroke-width:1.0;"/><text fill="#000000" font-family="sans-serif" font-size="13" lengthAdjust="spacing" textLength="43" x="548" y="377.4951">«trace»</text><!--MD5=[eaa25494c005b94527eb46c51b73df1a]
reverse link XController to XService--><path d="M431.91,208.18 C439.61,233.48 449,271.23 449,305 C449,305 449,305 449,580 C449,642.27 529.38,670.94 580.88,682.92 " fill="none" id="XController-backto-XService" style="stroke:#A80036;stroke-width:1.0;stroke-dasharray:7.0,7.0;"/><polygon fill="#A80036" points="430.39,203.3,429.2383,213.0813,431.8724,208.0752,436.8785,210.7094,430.39,203.3" style="stroke:#A80036;stroke-width:1.0;"/><text fill="#000000" font-family="sans-serif" font-size="13" lengthAdjust="spacing" textLength="43" x="450" y="489.9951">«trace»</text><!--MD5=[76c06874a1071f6aa567666d93d14413]
reverse link XModel to XDto--><path d="M401.35,308.8 C487.35,314.79 743.19,336.74 805,389 C839.2,417.92 840,438.71 840,483.5 C840,483.5 840,483.5 840,796 C840,843.86 792.04,883 763.57,902.02 " fill="none" id="XModel-backto-XDto" style="stroke:#A80036;stroke-width:1.0;stroke-dasharray:7.0,7.0;"/><polygon fill="#A80036" points="396.17,308.44,404.8744,313.048,401.1582,308.783,405.4232,305.0669,396.17,308.44" style="stroke:#A80036;stroke-width:1.0;"/><text fill="#000000" font-family="sans-serif" font-size="13" lengthAdjust="spacing" textLength="43" x="841" y="624.4951">«trace»</text><!--MD5=[576f0a9c90616e2fa44f7efce4201683]
link XDto to XDtoJava--><path d="M722.35,937.73 C688.76,973.21 626,1043.8 626,1076 C626,1076 626,1076 626,1229 C626,1332.64 466.55,1356.15 390.04,1361.46 " fill="none" id="XDto-to-XDtoJava" style="stroke:#A80036;stroke-width:1.0;stroke-dasharray:7.0,7.0;"/><polygon fill="#A80036" points="384.68,1361.81,393.9236,1365.2095,389.6692,1361.4812,393.3975,1357.2268,384.68,1361.81" style="stroke:#A80036;stroke-width:1.0;"/><text fill="#000000" font-family="sans-serif" font-size="13" lengthAdjust="spacing" textLength="43" x="627" y="1146.4951">«trace»</text><!--MD5=[75ef4e6bf3c15ae029da82b25e71a02a]
reverse link XModel to XRepositoryJava--><path d="M344.4,311.75 C275.12,325.05 104,369.45 104,483.5 C104,483.5 104,483.5 104,1420 C104,1449.93 129.81,1470.8 156.42,1484.38 " fill="none" id="XModel-backto-XRepositoryJava" style="stroke:#A80036;stroke-width:1.0;stroke-dasharray:7.0,7.0;"/><polygon fill="#A80036" points="349.6,310.77,340.0138,308.5106,344.6869,311.6983,341.4992,316.3715,349.6,310.77" style="stroke:#A80036;stroke-width:1.0;"/><text fill="#000000" font-family="sans-serif" font-size="13" lengthAdjust="spacing" textLength="43" x="105" y="920.9951">«trace»</text><!--MD5=[135337f1797dc7202bb1a5067c455e1f]
reverse link XModel to XResourceJava--><path d="M350.09,335.37 C325.52,368.74 290,426.79 290,483.5 C290,483.5 290,483.5 290,620 C290,785.21 302.6,983.79 307.28,1051.79 " fill="none" id="XModel-backto-XResourceJava" style="stroke:#A80036;stroke-width:1.0;stroke-dasharray:7.0,7.0;"/><polygon fill="#A80036" points="353.33,331.03,344.73,335.83,350.33,335.03,351.13,340.63,353.33,331.03" style="stroke:#A80036;stroke-width:1.0;"/><text fill="#000000" font-family="sans-serif" font-size="13" lengthAdjust="spacing" textLength="43" x="292" y="696.9951">«trace»</text><!--MD5=[62fc2822c1caf1166e99afe3c10182de]
reverse link XModel to XServiceJava--><path d="M345.41,319.66 C297.03,343.96 202,402.08 202,483.5 C202,483.5 202,483.5 202,1190 C202,1213.84 208.64,1240.28 214.46,1258.86 " fill="none" id="XModel-backto-XServiceJava" style="stroke:#A80036;stroke-width:1.0;stroke-dasharray:7.0,7.0;"/><polygon fill="#A80036" points="349.94,317.41,340.1002,317.8321,345.4622,319.6347,343.6596,324.9966,349.94,317.41" style="stroke:#A80036;stroke-width:1.0;"/><text fill="#000000" font-family="sans-serif" font-size="13" lengthAdjust="spacing" textLength="43" x="203" y="800.4951">«trace»</text><!--MD5=[a9b24c6fbb77499f6da947bf0cd10373]
reverse link XModel to XDtoJava--><path d="M375.84,336.46 C385.42,438.64 416,787.33 416,1076 C416,1076 416,1076 416,1229 C416,1270.75 389.9,1312.99 370.52,1338.58 " fill="none" id="XModel-backto-XDtoJava" style="stroke:#A80036;stroke-width:1.0;stroke-dasharray:7.0,7.0;"/><polygon fill="#A80036" points="375.34,331.22,372.2075,340.5574,375.812,336.1977,380.1718,339.8022,375.34,331.22" style="stroke:#A80036;stroke-width:1.0;"/><text fill="#000000" font-family="sans-serif" font-size="13" lengthAdjust="spacing" textLength="43" x="409" y="800.4951">«trace»</text><!--MD5=[a17d7b8c7496d2ecc7e802310f153b17]
reverse link XModel to XEntityJava--><path d="M344.57,307.55 C258.41,310.87 6,333.4 6,483.5 C6,483.5 6,483.5 6,1593 C6,1657.68 98.89,1673.47 154.77,1677.11 " fill="none" id="XModel-backto-XEntityJava" style="stroke:#A80036;stroke-width:1.0;stroke-dasharray:7.0,7.0;"/><polygon fill="#A80036" points="349.76,307.37,340.6279,303.6816,344.763,307.5418,340.9028,311.6769,349.76,307.37" style="stroke:#A80036;stroke-width:1.0;"/><text fill="#000000" font-family="sans-serif" font-size="13" lengthAdjust="spacing" textLength="43" x="7" y="1082.4951">«trace»</text><!--MD5=[254f5117401054a967d42eb00d606032]
link XService to XResourceJava--><path d="M596.23,725.2 C535.74,799.08 389.34,977.87 332.3,1047.54 " fill="none" id="XService-to-XResourceJava" style="stroke:#A80036;stroke-width:1.0;stroke-dasharray:7.0,7.0;"/><polygon fill="#A80036" points="329,1051.57,337.7878,1047.1232,332.16,1047.6951,331.588,1042.0673,329,1051.57" style="stroke:#A80036;stroke-width:1.0;"/><text fill="#000000" font-family="sans-serif" font-size="13" lengthAdjust="spacing" textLength="43" x="506" y="848.4951">«trace»</text><!--MD5=[3fe2fba336bda9984ae738917476f961]
reverse link XModel to XModelJava--><path d="M401.46,307.28 C471.03,308.69 654.61,316.86 799,363 C890.56,392.25 911,451.88 911,548 C911,548 911,548 911,1766 C911,1820.84 503.16,1843.36 368.54,1849.3 " fill="none" id="XModel-backto-XModelJava" style="stroke:#A80036;stroke-width:1.0;stroke-dasharray:7.0,7.0;"/><polygon fill="#A80036" points="396.25,307.18,405.1682,311.3592,401.249,307.28,405.3282,303.3608,396.25,307.18" style="stroke:#A80036;stroke-width:1.0;"/><text fill="#000000" font-family="sans-serif" font-size="13" lengthAdjust="spacing" textLength="43" x="912" y="1194.4951">«trace»</text><!--MD5=[2bab3845a2bcc3a47c2d272a3f4863dc]
@startuml usecase_design
package frontend <<angular:11>>{
    boundary XTemplate <<HTML>>
    boundary XComponent <<TypeScript>>
    boundary XStyle <<CSS>>
    control XService <<TypeScript>>
    entity HTTPService
    entity XDto <<java>>
}
XComponent - -left-> XTemplate
XTemplate - -down-> XStyle
XComponent - -down-> XService
XComponent - -down-> XDto
XService o- -down- HTTPService
XService - -down-> XDto

package analysis{
    boundary XView
    control XController
    entity XModel 
}

XView -down-> XController
XView -down-> XModel
XController -down-> XModel

package backend <<spring-boot:2.4.5>>{
    control "XService - java" as XServiceJava
    control "XResource - java" as XResourceJava
    entity "XRepository - java" as XRepositoryJava
    entity "XEntity - java" as XEntityJava
    entity "XDto - java" as XDtoJava
    entity "XModel - java" as XModelJava
}

XServiceJava - -down-> XRepositoryJava
XServiceJava - -down-> XModelJava
XRepositoryJava - -down-> XEntityJava
XRepositoryJava - -down-> XModelJava
XResourceJava - -down-> XDtoJava
XResourceJava - -down-> XServiceJava
XResourceJava - -down-> XModelJava
XDtoJava - -down-> XModelJava
XEntityJava - -down-> XModelJava

XComponent ...up.> XView : <<trace>>
XTemplate ...up.> XView : <<trace>>
XStyle ...up.> XView : <<trace>>
XService ...up.> XController : <<trace>>
XDto ...up.> XModel : <<trace>>
XDto ...down.> XDtoJava : <<trace>>
XRepositoryJava ...up.> XModel : <<trace>>
XResourceJava ...up.>  XModel : <<trace>>
XServiceJava ...up.>  XModel : <<trace>>
XDtoJava ...up.>  XModel : <<trace>>
XEntityJava ...up.>  XModel : <<trace>>
XService ...down.>  XResourceJava : <<trace>>
XModelJava ...up.>  XModel : <<trace>>
@enduml

PlantUML version 1.2021.7(Sun May 23 14:40:07 CEST 2021)
(GPL source distribution)
Java Runtime: Java(TM) SE Runtime Environment
JVM: Java HotSpot(TM) 64-Bit Server VM
Default Encoding: Cp1252
Language: es
Country: ES
--></g></svg>