<?xml version="1.0" encoding="UTF-8" standalone="no"?><svg xmlns="http://www.w3.org/2000/svg" xmlns:xlink="http://www.w3.org/1999/xlink" contentScriptType="application/ecmascript" contentStyleType="text/css" height="1862px" preserveAspectRatio="none" style="width:1082px;height:1862px;background:#FFFFFF;" version="1.1" viewBox="0 0 1082 1862" width="1082px" zoomAndPan="magnify"><defs><filter height="300%" id="fieg9h9jk3ybk" width="300%" x="-1" y="-1"><feGaussianBlur result="blurOut" stdDeviation="2.0"/><feColorMatrix in="blurOut" result="blurOut2" type="matrix" values="0 0 0 0 0 0 0 0 0 0 0 0 0 0 0 0 0 0 .4 0"/><feOffset dx="4.0" dy="4.0" in="blurOut2" result="blurOut3"/><feBlend in="SourceGraphic" in2="blurOut3" mode="normal"/></filter></defs><g><!--MD5=[23cbaadc18b1780d966e07254adaec4d]
cluster frontend--><polygon fill="#FFFFFF" filter="url(#fieg9h9jk3ybk)" points="597,388,674,388,681,410.2969,845,410.2969,845,944,597,944,597,388" style="stroke:#000000;stroke-width:1.5;"/><line style="stroke:#000000;stroke-width:1.5;" x1="597" x2="681" y1="410.2969" y2="410.2969"/><text fill="#000000" font-family="sans-serif" font-size="14" font-weight="bold" lengthAdjust="spacing" textLength="71" x="601" y="402.9951">frontend</text><text fill="#000000" font-family="sans-serif" font-size="14" font-style="italic" lengthAdjust="spacing" textLength="96" x="677" y="425.292">«angular:11»</text><!--MD5=[64daa5a824998c700cfb188d1583c07e]
cluster analysis--><polygon fill="#FFFFFF" filter="url(#fieg9h9jk3ybk)" points="338,6,411,6,418,28.2969,491,28.2969,491,339,338,339,338,6" style="stroke:#000000;stroke-width:1.5;"/><line style="stroke:#000000;stroke-width:1.5;" x1="338" x2="418" y1="28.2969" y2="28.2969"/><text fill="#000000" font-family="sans-serif" font-size="14" font-weight="bold" lengthAdjust="spacing" textLength="67" x="342" y="20.9951">analysis</text><!--MD5=[47c14c564e796a575e671c2b0469a7bb]
cluster backend--><polygon fill="#FFFFFF" filter="url(#fieg9h9jk3ybk)" points="152,977,225,977,232,999.2969,428,999.2969,428,1855,152,1855,152,977" style="stroke:#000000;stroke-width:1.5;"/><line style="stroke:#000000;stroke-width:1.5;" x1="152" x2="232" y1="999.2969" y2="999.2969"/><text fill="#000000" font-family="sans-serif" font-size="14" font-weight="bold" lengthAdjust="spacing" textLength="67" x="156" y="991.9951">backend</text><text fill="#000000" font-family="sans-serif" font-size="14" font-style="italic" lengthAdjust="spacing" textLength="139" x="224.5" y="1014.292">«spring-boot:2.4.5»</text><!--MD5=[e1959f9d6eaaeb2bbab4621b2f4b0ce0]
entity XTemplate--><path d="M637.5,459.2969 L637.5,483.2969 M637.5,471.2969 L654.5,471.2969 " fill="none" filter="url(#fieg9h9jk3ybk)" style="stroke:#A80036;stroke-width:1.5;"/><ellipse cx="666.5" cy="471.2969" fill="#FEFECE" filter="url(#fieg9h9jk3ybk)" rx="12" ry="12" style="stroke:#A80036;stroke-width:1.5;"/><text fill="#000000" font-family="sans-serif" font-size="14" lengthAdjust="spacing" textLength="80" x="618" y="500.292">XTemplate</text><text fill="#000000" font-family="sans-serif" font-size="14" font-style="italic" lengthAdjust="spacing" textLength="58" x="629" y="451.9951">«HTML»</text><!--MD5=[d6779ff0a6031e8b8264cc6b7087ee74]
entity XComponent--><path d="M760.5,459.2969 L760.5,483.2969 M760.5,471.2969 L777.5,471.2969 " fill="none" filter="url(#fieg9h9jk3ybk)" style="stroke:#A80036;stroke-width:1.5;"/><ellipse cx="789.5" cy="471.2969" fill="#FEFECE" filter="url(#fieg9h9jk3ybk)" rx="12" ry="12" style="stroke:#A80036;stroke-width:1.5;"/><text fill="#000000" font-family="sans-serif" font-size="14" lengthAdjust="spacing" textLength="96" x="733" y="500.292">XComponent</text><text fill="#000000" font-family="sans-serif" font-size="14" font-style="italic" lengthAdjust="spacing" textLength="94" x="734" y="451.9951">«TypeScript»</text><!--MD5=[69e620827fd35227d329e8118e6b893e]
entity XStyle--><path d="M746.5,663.2969 L746.5,687.2969 M746.5,675.2969 L763.5,675.2969 " fill="none" filter="url(#fieg9h9jk3ybk)" style="stroke:#A80036;stroke-width:1.5;"/><ellipse cx="775.5" cy="675.2969" fill="#FEFECE" filter="url(#fieg9h9jk3ybk)" rx="12" ry="12" style="stroke:#A80036;stroke-width:1.5;"/><text fill="#000000" font-family="sans-serif" font-size="14" lengthAdjust="spacing" textLength="47" x="743.5" y="704.292">XStyle</text><text fill="#000000" font-family="sans-serif" font-size="14" font-style="italic" lengthAdjust="spacing" textLength="46" x="744" y="655.9951">«CSS»</text><!--MD5=[57e56815b43a23c42a8080287d3beacb]
entity XService--><ellipse cx="660" cy="675.2969" fill="#FEFECE" filter="url(#fieg9h9jk3ybk)" rx="12" ry="12" style="stroke:#A80036;stroke-width:1.5;"/><polygon fill="#A80036" points="656,663.2969,662,658.2969,660,663.2969,662,668.2969,656,663.2969" style="stroke:#A80036;stroke-width:1.0;"/><text fill="#000000" font-family="sans-serif" font-size="14" lengthAdjust="spacing" textLength="63" x="628.5" y="704.292">XService</text><text fill="#000000" font-family="sans-serif" font-size="14" font-style="italic" lengthAdjust="spacing" textLength="94" x="613" y="655.9951">«TypeScript»</text><!--MD5=[11f4769666054cda26d2bc303b3df0b5]
entity HTTPService--><ellipse cx="660" cy="887.5" fill="#FEFECE" filter="url(#fieg9h9jk3ybk)" rx="12" ry="12" style="stroke:#A80036;stroke-width:1.5;"/><line style="stroke:#A80036;stroke-width:1.5;" x1="648" x2="672" y1="901.5" y2="901.5"/><text fill="#000000" font-family="sans-serif" font-size="14" lengthAdjust="spacing" textLength="90" x="615" y="916.4951">HTTPService</text><!--MD5=[69e49715a4c359aea4a800f263690fc5]
entity XDto--><ellipse cx="798" cy="895.2969" fill="#FEFECE" filter="url(#fieg9h9jk3ybk)" rx="12" ry="12" style="stroke:#A80036;stroke-width:1.5;"/><line style="stroke:#A80036;stroke-width:1.5;" x1="786" x2="810" y1="909.2969" y2="909.2969"/><text fill="#000000" font-family="sans-serif" font-size="14" lengthAdjust="spacing" textLength="37" x="779.5" y="924.292">XDto</text><text fill="#000000" font-family="sans-serif" font-size="14" font-style="italic" lengthAdjust="spacing" textLength="48" x="774" y="875.9951">«java»</text><!--MD5=[b843a707a9d29bfe6172f1502199d263]
entity XView--><path d="M429.5,45 L429.5,69 M429.5,57 L446.5,57 " fill="none" filter="url(#fieg9h9jk3ybk)" style="stroke:#A80036;stroke-width:1.5;"/><ellipse cx="458.5" cy="57" fill="#FEFECE" filter="url(#fieg9h9jk3ybk)" rx="12" ry="12" style="stroke:#A80036;stroke-width:1.5;"/><text fill="#000000" font-family="sans-serif" font-size="14" lengthAdjust="spacing" textLength="44" x="428" y="85.9951">XView</text><!--MD5=[a91319e7cfad8d66707571e19cb9c3d9]
entity XController--><ellipse cx="433" cy="166" fill="#FEFECE" filter="url(#fieg9h9jk3ybk)" rx="12" ry="12" style="stroke:#A80036;stroke-width:1.5;"/><polygon fill="#A80036" points="429,154,435,149,433,154,435,159,429,154" style="stroke:#A80036;stroke-width:1.0;"/><text fill="#000000" font-family="sans-serif" font-size="14" lengthAdjust="spacing" textLength="83" x="391.5" y="194.9951">XController</text><!--MD5=[fd32a81c2404801ffd3250cd88dc7b13]
entity XModel--><ellipse cx="381" cy="291" fill="#FEFECE" filter="url(#fieg9h9jk3ybk)" rx="12" ry="12" style="stroke:#A80036;stroke-width:1.5;"/><line style="stroke:#A80036;stroke-width:1.5;" x1="369" x2="393" y1="305" y2="305"/><text fill="#000000" font-family="sans-serif" font-size="14" lengthAdjust="spacing" textLength="53" x="354.5" y="319.9951">XModel</text><!--MD5=[6fe366b877eb09b1d122747c4a2b3f70]
entity XServiceJava--><ellipse cx="236" cy="1247" fill="#FEFECE" filter="url(#fieg9h9jk3ybk)" rx="12" ry="12" style="stroke:#A80036;stroke-width:1.5;"/><polygon fill="#A80036" points="232,1235,238,1230,236,1235,238,1240,232,1235" style="stroke:#A80036;stroke-width:1.0;"/><text fill="#000000" font-family="sans-serif" font-size="14" lengthAdjust="spacing" textLength="105" x="183.5" y="1275.9951">XService - java</text><!--MD5=[fd4eb8c32c74988c465af29763f92287]
entity XResourceJava--><ellipse cx="326" cy="1044" fill="#FEFECE" filter="url(#fieg9h9jk3ybk)" rx="12" ry="12" style="stroke:#A80036;stroke-width:1.5;"/><polygon fill="#A80036" points="322,1032,328,1027,326,1032,328,1037,322,1032" style="stroke:#A80036;stroke-width:1.0;"/><text fill="#000000" font-family="sans-serif" font-size="14" lengthAdjust="spacing" textLength="118" x="267" y="1072.9951">XResource - java</text><!--MD5=[378c654bb0a2595421c2172d382d7c6b]
entity XRepositoryJava--><ellipse cx="234" cy="1465" fill="#FEFECE" filter="url(#fieg9h9jk3ybk)" rx="12" ry="12" style="stroke:#A80036;stroke-width:1.5;"/><line style="stroke:#A80036;stroke-width:1.5;" x1="222" x2="246" y1="1479" y2="1479"/><text fill="#000000" font-family="sans-serif" font-size="14" lengthAdjust="spacing" textLength="131" x="168.5" y="1493.9951">XRepository - java</text><!--MD5=[dea703900e66ce9b48be40831b28a31d]
entity XEntityJava--><ellipse cx="216" cy="1636" fill="#FEFECE" filter="url(#fieg9h9jk3ybk)" rx="12" ry="12" style="stroke:#A80036;stroke-width:1.5;"/><line style="stroke:#A80036;stroke-width:1.5;" x1="204" x2="228" y1="1650" y2="1650"/><text fill="#000000" font-family="sans-serif" font-size="14" lengthAdjust="spacing" textLength="96" x="168" y="1664.9951">XEntity - java</text><!--MD5=[d17c588b74c4d133a71fdca167744654]
entity XDtoJava--><ellipse cx="372" cy="1325" fill="#FEFECE" filter="url(#fieg9h9jk3ybk)" rx="12" ry="12" style="stroke:#A80036;stroke-width:1.5;"/><line style="stroke:#A80036;stroke-width:1.5;" x1="360" x2="384" y1="1339" y2="1339"/><text fill="#000000" font-family="sans-serif" font-size="14" lengthAdjust="spacing" textLength="79" x="332.5" y="1353.9951">XDto - java</text><!--MD5=[38adb8be7016d1071522b8768eed49ad]
entity XModelJava--><ellipse cx="350" cy="1807" fill="#FEFECE" filter="url(#fieg9h9jk3ybk)" rx="12" ry="12" style="stroke:#A80036;stroke-width:1.5;"/><line style="stroke:#A80036;stroke-width:1.5;" x1="338" x2="362" y1="1821" y2="1821"/><text fill="#000000" font-family="sans-serif" font-size="14" lengthAdjust="spacing" textLength="95" x="302.5" y="1835.9951">XModel - java</text><!--MD5=[5aef620dee1ae3a93a53b2d083bdaa97]
reverse link XTemplate to XComponent--><path d="M703.487,471.5 C713.291,471.5 723.096,471.5 732.901,471.5 " fill="none" id="XTemplate-backto-XComponent" style="stroke:#A80036;stroke-width:1.0;"/><polygon fill="#A80036" points="698.359,471.5,707.359,475.5,703.359,471.5,707.359,467.5,698.359,471.5" style="stroke:#A80036;stroke-width:1.0;"/><!--MD5=[b1aa15fe805f807fb1c54f8641e054c3]
link XTemplate to XStyle--><path d="M675.031,504.06 C694.651,540.42 726.828,600.05 747.453,638.27 " fill="none" id="XTemplate-to-XStyle" style="stroke:#A80036;stroke-width:1.0;"/><polygon fill="#A80036" points="749.909,642.83,749.1602,633.0096,747.5368,638.4286,742.1179,636.8052,749.909,642.83" style="stroke:#A80036;stroke-width:1.0;"/><!--MD5=[e020d5ea92ccc5aa14ca7a1b3a17e42f]
link XComponent to XService--><path d="M762.094,504.06 C740.314,540.42 704.595,600.05 681.699,638.27 " fill="none" id="XComponent-to-XService" style="stroke:#A80036;stroke-width:1.0;"/><polygon fill="#A80036" points="678.973,642.83,687.0318,637.1682,681.5442,638.5418,680.1706,633.0542,678.973,642.83" style="stroke:#A80036;stroke-width:1.0;"/><!--MD5=[5e7348a3050e3df932f8b6256484bbea]
link XComponent to XDto--><path d="M806.426,504.36 C817.5,521.35 828,543.2 828,565 C828,565 828,565 828,778.5 C828,805.57 820.245,835.1 812.621,857.59 " fill="none" id="XComponent-to-XDto" style="stroke:#A80036;stroke-width:1.0;"/><polygon fill="#A80036" points="810.897,862.57,817.6312,855.3831,812.5393,857.8474,810.075,852.7555,810.897,862.57" style="stroke:#A80036;stroke-width:1.0;"/><!--MD5=[ae77c14ac2f86e5b3c12cdc482e8e762]
reverse link XService to HTTPService--><path d="M660,721.26 C660,766.88 660,835.86 660,871.447 " fill="none" id="XService-backto-HTTPService" style="stroke:#A80036;stroke-width:1.0;"/><polygon fill="#FFFFFF" points="660,708.2,656,714.2,660,720.2,664,714.2,660,708.2" style="stroke:#A80036;stroke-width:1.0;"/><!--MD5=[598ea00f6505793b20c4da7f776856fa]
link XService to XDto--><path d="M680.066,708.2 C705.31,748.08 748.558,816.4 775.079,858.29 " fill="none" id="XService-to-XDto" style="stroke:#A80036;stroke-width:1.0;"/><polygon fill="#A80036" points="777.909,862.76,776.4808,853.0152,775.2372,858.5337,769.7187,857.2901,777.909,862.76" style="stroke:#A80036;stroke-width:1.0;"/><!--MD5=[50a2f9fbc7f4e317ae9a157602683354]
link XView to XController--><path d="M446.311,89.22 C443.727,105.48 440.258,127.32 437.51,144.62 " fill="none" id="XView-to-XController" style="stroke:#A80036;stroke-width:1.0;"/><polygon fill="#A80036" points="436.682,149.83,442.0231,141.5552,437.4537,144.8899,434.1189,140.3205,436.682,149.83" style="stroke:#A80036;stroke-width:1.0;"/><!--MD5=[ec381c4eec30df59611508dbe01cdcf3]
link XView to XModel--><path d="M425.308,84.67 C407.272,99.98 384.251,123.39 374,150 C358.834,189.37 365.974,239.04 373.063,269.65 " fill="none" id="XView-to-XModel" style="stroke:#A80036;stroke-width:1.0;"/><polygon fill="#A80036" points="374.289,274.77,376.07,265.0835,373.118,269.9091,368.2925,266.9571,374.289,274.77" style="stroke:#A80036;stroke-width:1.0;"/><!--MD5=[b87fd9631df6affa7e778aa25e2c6d03]
link XController to XModel--><path d="M423.219,198.14 C414.576,218.58 401.952,248.44 392.76,270.18 " fill="none" id="XController-to-XModel" style="stroke:#A80036;stroke-width:1.0;"/><polygon fill="#A80036" points="390.737,274.97,397.9205,268.2323,392.6804,270.3631,390.5495,265.1229,390.737,274.97" style="stroke:#A80036;stroke-width:1.0;"/><!--MD5=[d128288b978e1930b74c6549e29f4f76]
link XServiceJava to XRepositoryJava--><path d="M235.786,1279.116 C235.417,1318.961 234.663,1400.449 234.262,1443.651 " fill="none" id="XServiceJava-to-XRepositoryJava" style="stroke:#A80036;stroke-width:1.0;"/><polygon fill="#A80036" points="234.216,1448.724,238.2981,1439.7609,234.2617,1443.7242,230.2984,1439.6878,234.216,1448.724" style="stroke:#A80036;stroke-width:1.0;"/><!--MD5=[8d47b55a0e054d5743b414c63231438b]
link XServiceJava to XModelJava--><path d="M251.121,1279.199 C279.296,1324.732 337,1429.844 337,1527 C337,1527 337,1527 337,1730 C337,1748.694 340.183,1769.456 343.399,1785.6615 " fill="none" id="XServiceJava-to-XModelJava" style="stroke:#A80036;stroke-width:1.0;"/><polygon fill="#A80036" points="344.487,1790.973,346.6006,1781.3536,343.4842,1786.0746,338.7632,1782.9581,344.487,1790.973" style="stroke:#A80036;stroke-width:1.0;"/><!--MD5=[03d20437e28212b9debf901d7e885e8b]
link XRepositoryJava to XEntityJava--><path d="M231.535,1497.144 C228.272,1527.778 222.523,1581.755 219.008,1614.755 " fill="none" id="XRepositoryJava-to-XEntityJava" style="stroke:#A80036;stroke-width:1.0;"/><polygon fill="#A80036" points="218.464,1619.865,223.3955,1611.3397,218.994,1614.8932,215.4406,1610.4917,218.464,1619.865" style="stroke:#A80036;stroke-width:1.0;"/><!--MD5=[c6390ee0ff609d27475a23eb943bc6f9]
link XRepositoryJava to XModelJava--><path d="M265.84,1497.146 C282.717,1512.278 300,1533.704 300,1558 C300,1558 300,1558 300,1730 C300,1750.942 311.617,1771.2125 323.652,1786.5925 " fill="none" id="XRepositoryJava-to-XModelJava" style="stroke:#A80036;stroke-width:1.0;"/><polygon fill="#A80036" points="327.049,1790.7973,324.5043,1781.2829,323.9067,1786.9081,318.2815,1786.3105,327.049,1790.7973" style="stroke:#A80036;stroke-width:1.0;"/><!--MD5=[e9643956bddd55238250bfc3e7cd5c56]
link XResourceJava to XDtoJava--><path d="M329.973,1076.214 C331.55,1085.478 333.373,1096.242 335,1106 C346.878,1177.225 360.525,1261.137 367.452,1303.887 " fill="none" id="XResourceJava-to-XDtoJava" style="stroke:#A80036;stroke-width:1.0;"/><polygon fill="#A80036" points="368.263,1308.893,370.7742,1299.3697,367.4644,1303.9572,362.8769,1300.6474,368.263,1308.893" style="stroke:#A80036;stroke-width:1.0;"/><!--MD5=[5cab4af40a25f6c8b275baddc140894f]
link XResourceJava to XServiceJava--><path d="M315.676,1076.057 C299.038,1113.216 266.352,1186.213 248.45,1226.195 " fill="none" id="XResourceJava-to-XServiceJava" style="stroke:#A80036;stroke-width:1.0;"/><polygon fill="#A80036" points="246.342,1230.903,253.6714,1224.3243,248.3858,1226.3398,246.3703,1221.0542,246.342,1230.903" style="stroke:#A80036;stroke-width:1.0;"/><!--MD5=[e6ef747c4271a696dd8ae960ae254eab]
link XResourceJava to XModelJava--><path d="M324.576,1076.015 C321.818,1126.935 317.165,1252.873 331,1357 C341.265,1434.256 374,1449.065 374,1527 C374,1527 374,1527 374,1730 C374,1749.243 368.105,1770.045 362.158,1786.1334 " fill="none" id="XResourceJava-to-XModelJava" style="stroke:#A80036;stroke-width:1.0;"/><polygon fill="#A80036" points="360.317,1790.9682,367.2576,1783.9805,362.0961,1786.2954,359.7812,1781.1339,360.317,1790.9682" style="stroke:#A80036;stroke-width:1.0;"/><!--MD5=[bdbe93197ed84e3ddb8e0633dedb26c2]
link XDtoJava to XModelJava--><path d="M389.447,1357.299 C399.831,1373.464 411,1395.972 411,1418 C411,1418 411,1418 411,1730 C411,1751.932 397.217,1771.9931 382.754,1787.0068 " fill="none" id="XDtoJava-to-XModelJava" style="stroke:#A80036;stroke-width:1.0;"/><polygon fill="#A80036" points="379.071,1790.7131,388.2521,1787.1482,382.5952,1787.1663,382.5772,1781.5095,379.071,1790.7131" style="stroke:#A80036;stroke-width:1.0;"/><!--MD5=[e617508e8286a748d67c941929fa1863]
link XEntityJava to XModelJava--><path d="M228.456,1668.031 C242.158,1692.368 265.626,1731.265 291,1761 C298.899,1770.256 308.375,1779.4379 317.399,1787.4934 " fill="none" id="XEntityJava-to-XModelJava" style="stroke:#A80036;stroke-width:1.0;"/><polygon fill="#A80036" points="321.232,1790.8737,317.1254,1781.9218,317.4811,1787.5675,311.8355,1787.9232,321.232,1790.8737" style="stroke:#A80036;stroke-width:1.0;"/><!--MD5=[023e3757eaf73a76d4f4c73ef91fd637]
reverse link XView to XComponent--><path d="M479.819,70.85 C510.741,77.22 558.96,91.05 591,119 C694.758,209.53 751.844,371 772.253,438.97 " fill="none" id="XView-backto-XComponent" style="stroke:#A80036;stroke-width:1.0;stroke-dasharray:7.0,7.0;"/><polygon fill="#A80036" points="474.633,69.82,482.6785,75.5006,479.5367,70.7965,484.2409,67.6546,474.633,69.82" style="stroke:#A80036;stroke-width:1.0;"/><text fill="#000000" font-family="sans-serif" font-size="13" lengthAdjust="spacing" textLength="49" x="690" y="241.0669">«trace»</text><!--MD5=[434ae80786ffddc1adc857a584c1c241]
reverse link XView to XTemplate--><path d="M479.867,66.93 C587.52,70.57 951.341,85.28 990,119 C1033.09,156.58 1047.08,197 1016,245 C936.315,368.07 825.693,283.86 715,380 C696.495,396.07 681.919,419.63 672.14,438.68 " fill="none" id="XView-backto-XTemplate" style="stroke:#A80036;stroke-width:1.0;stroke-dasharray:7.0,7.0;"/><polygon fill="#A80036" points="474.637,66.76,483.4996,71.0559,479.6343,66.9256,483.7646,63.0603,474.637,66.76" style="stroke:#A80036;stroke-width:1.0;"/><text fill="#000000" font-family="sans-serif" font-size="13" lengthAdjust="spacing" textLength="49" x="1025" y="241.0669">«trace»</text><!--MD5=[dd13b8f21bdf94be4093cbad622a6385]
reverse link XView to XStyle--><path d="M479.564,78.11 C513.637,94.26 565,126.34 565,173 C565,173 565,173 565,566 C565,644.52 656.721,602.52 724,643 C730.026,646.63 736.265,650.87 742.057,655.06 " fill="none" id="XView-backto-XStyle" style="stroke:#A80036;stroke-width:1.0;stroke-dasharray:7.0,7.0;"/><polygon fill="#A80036" points="474.67,75.84,481.1571,83.2506,479.2075,77.9404,484.5177,75.9907,474.67,75.84" style="stroke:#A80036;stroke-width:1.0;"/><text fill="#000000" font-family="sans-serif" font-size="13" lengthAdjust="spacing" textLength="49" x="566" y="368.0669">«trace»</text><!--MD5=[eaa25494c005b94527eb46c51b73df1a]
reverse link XController to XService--><path d="M443.128,202.98 C451.145,227.65 461,264.74 461,298 C461,298 461,298 461,566 C461,634.86 553.993,660.28 612.84,669.47 " fill="none" id="XController-backto-XService" style="stroke:#A80036;stroke-width:1.0;stroke-dasharray:7.0,7.0;"/><polygon fill="#A80036" points="441.553,198.22,440.5839,208.0211,443.1243,202.9667,448.1787,205.507,441.553,198.22" style="stroke:#A80036;stroke-width:1.0;"/><text fill="#000000" font-family="sans-serif" font-size="13" lengthAdjust="spacing" textLength="49" x="462" y="476.0669">«trace»</text><!--MD5=[76c06874a1071f6aa567666d93d14413]
reverse link XModel to XDto--><path d="M412.816,301.5 C506.481,306.52 778.868,325.57 846,380 C879.624,407.26 882,427.21 882,470.5 C882,470.5 882,470.5 882,778.5 C882,819.53 847.105,855.86 822.296,876.5 " fill="none" id="XModel-backto-XDto" style="stroke:#A80036;stroke-width:1.0;stroke-dasharray:7.0,7.0;"/><polygon fill="#A80036" points="407.698,301.23,416.4749,305.6983,412.6911,301.4932,416.8961,297.7094,407.698,301.23" style="stroke:#A80036;stroke-width:1.0;"/><text fill="#000000" font-family="sans-serif" font-size="13" lengthAdjust="spacing" textLength="49" x="883" y="609.0669">«trace»</text><!--MD5=[576f0a9c90616e2fa44f7efce4201683]
link XDto to XDtoJava--><path d="M773.898,915.327 C732.904,948.293 654,1016.258 654,1051 C654,1051 654,1051 654,1201 C654,1304.401 496.127,1326.407 416.628,1330.933 " fill="none" id="XDto-to-XDtoJava" style="stroke:#A80036;stroke-width:1.0;stroke-dasharray:7.0,7.0;"/><polygon fill="#A80036" points="411.508,1331.207,420.7089,1334.7204,416.5009,1330.9399,420.2814,1326.7319,411.508,1331.207" style="stroke:#A80036;stroke-width:1.0;"/><text fill="#000000" font-family="sans-serif" font-size="13" lengthAdjust="spacing" textLength="49" x="655" y="1119.0669">«trace»</text><!--MD5=[75ef4e6bf3c15ae029da82b25e71a02a]
reverse link XModel to XRepositoryJava--><path d="M349.032,304.72 C277.349,317.31 110,358.68 110,470.5 C110,470.5 110,470.5 110,1388 C110,1419.983 138.625,1440.624 168.369,1453.438 " fill="none" id="XModel-backto-XRepositoryJava" style="stroke:#A80036;stroke-width:1.0;stroke-dasharray:7.0,7.0;"/><polygon fill="#A80036" points="354.025,303.87,344.4782,301.4497,349.097,304.7156,345.8311,309.3345,354.025,303.87" style="stroke:#A80036;stroke-width:1.0;"/><text fill="#000000" font-family="sans-serif" font-size="13" lengthAdjust="spacing" textLength="49" x="111" y="900.0669">«trace»</text><!--MD5=[135337f1797dc7202bb1a5067c455e1f]
reverse link XModel to XResourceJava--><path d="M359.196,327.46 C335.812,359.74 302,415.86 302,470.5 C302,470.5 302,470.5 302,605.5 C302,767.38 317.996,961.876 323.87,1027.834 " fill="none" id="XModel-backto-XResourceJava" style="stroke:#A80036;stroke-width:1.0;stroke-dasharray:7.0,7.0;"/><polygon fill="#A80036" points="362.278,323.26,353.7295,328.1511,359.3207,327.2917,360.1802,332.8828,362.278,323.26" style="stroke:#A80036;stroke-width:1.0;"/><text fill="#000000" font-family="sans-serif" font-size="13" lengthAdjust="spacing" textLength="49" x="305" y="680.0669">«trace»</text><!--MD5=[62fc2822c1caf1166e99afe3c10182de]
reverse link XModel to XServiceJava--><path d="M349.613,314.37 C301.242,338.92 214,393.83 214,470.5 C214,470.5 214,470.5 214,1162.5 C214,1186.19 221.058,1212.399 227.179,1230.672 " fill="none" id="XModel-backto-XServiceJava" style="stroke:#A80036;stroke-width:1.0;stroke-dasharray:7.0,7.0;"/><polygon fill="#A80036" points="354.169,312.09,344.3305,312.5422,349.698,314.3284,347.9119,319.6958,354.169,312.09" style="stroke:#A80036;stroke-width:1.0;"/><text fill="#000000" font-family="sans-serif" font-size="13" lengthAdjust="spacing" textLength="49" x="215" y="782.0669">«trace»</text><!--MD5=[a9b24c6fbb77499f6da947bf0cd10373]
reverse link XModel to XDtoJava--><path d="M384.717,328.41 C397.371,427.67 438,768.39 438,1051 C438,1051 438,1051 438,1201 C438,1242.256 411.57,1283.756 392.161,1308.671 " fill="none" id="XModel-backto-XDtoJava" style="stroke:#A80036;stroke-width:1.0;stroke-dasharray:7.0,7.0;"/><polygon fill="#A80036" points="384.065,323.31,381.2282,332.7415,384.6936,328.2703,389.1648,331.7357,384.065,323.31" style="stroke:#A80036;stroke-width:1.0;"/><text fill="#000000" font-family="sans-serif" font-size="13" lengthAdjust="spacing" textLength="49" x="430" y="782.0669">«trace»</text><!--MD5=[a17d7b8c7496d2ecc7e802310f153b17]
reverse link XModel to XEntityJava--><path d="M349.112,299.99 C258.499,301.78 6,320.27 6,470.5 C6,470.5 6,470.5 6,1559 C6,1593.653 105.8226,1620.452 167.822,1633.754 " fill="none" id="XModel-backto-XEntityJava" style="stroke:#A80036;stroke-width:1.0;stroke-dasharray:7.0,7.0;"/><polygon fill="#A80036" points="354.332,299.9,345.2659,296.0523,349.3327,299.9843,345.4007,304.0511,354.332,299.9" style="stroke:#A80036;stroke-width:1.0;"/><text fill="#000000" font-family="sans-serif" font-size="13" lengthAdjust="spacing" textLength="49" x="7" y="1056.5669">«trace»</text><!--MD5=[254f5117401054a967d42eb00d606032]
link XService to XResourceJava--><path d="M631.811,708.11 C567.51,780.21 410.895,955.81 350.404,1023.637 " fill="none" id="XService-to-XResourceJava" style="stroke:#A80036;stroke-width:1.0;stroke-dasharray:7.0,7.0;"/><polygon fill="#A80036" points="346.905,1027.561,355.881,1023.5075,350.2334,1023.8298,349.9111,1018.1821,346.905,1027.561" style="stroke:#A80036;stroke-width:1.0;"/><text fill="#000000" font-family="sans-serif" font-size="13" lengthAdjust="spacing" textLength="49" x="536" y="829.0669">«trace»</text><!--MD5=[3fe2fba336bda9984ae738917476f961]
reverse link XModel to XModelJava--><path d="M412.931,299.68 C515.097,299.44 830.753,304.87 890,380 C973.059,485.33 956,540.36 956,674.5 C956,674.5 956,674.5 956,1730 C956,1786.2936 540.411,1806.9574 397.552,1812.3976 " fill="none" id="XModel-backto-XModelJava" style="stroke:#A80036;stroke-width:1.0;stroke-dasharray:7.0,7.0;"/><polygon fill="#A80036" points="407.655,299.7,416.6687,303.6691,412.655,299.6829,416.6412,295.6692,407.655,299.7" style="stroke:#A80036;stroke-width:1.0;"/><text fill="#000000" font-family="sans-serif" font-size="13" lengthAdjust="spacing" textLength="49" x="957" y="1166.0669">«trace»</text><!--MD5=[a265c4048bdc4a4d04d0e2053039913a]
@startuml
package frontend <<angular:11>>{
    boundary XTemplate <<HTML>>
    boundary XComponent <<TypeScript>>
    boundary XStyle <<CSS>>
    control XService <<TypeScript>>
    entity HTTPService
    entity XDto <<java>>
}
XComponent - -left-> XTemplate
XTemplate - -down-> XStyle
XComponent - -down-> XService
XComponent - -down-> XDto
XService o- -down- HTTPService
XService - -down-> XDto

package analysis{
    boundary XView
    control XController
    entity XModel 
}

XView -down-> XController
XView -down-> XModel
XController -down-> XModel

package backend <<spring-boot:2.4.5>>{
    control "XService - java" as XServiceJava
    control "XResource - java" as XResourceJava
    entity "XRepository - java" as XRepositoryJava
    entity "XEntity - java" as XEntityJava
    entity "XDto - java" as XDtoJava
    entity "XModel - java" as XModelJava
}

XServiceJava - -down-> XRepositoryJava
XServiceJava - -down-> XModelJava
XRepositoryJava - -down-> XEntityJava
XRepositoryJava - -down-> XModelJava
XResourceJava - -down-> XDtoJava
XResourceJava - -down-> XServiceJava
XResourceJava - -down-> XModelJava
XDtoJava - -down-> XModelJava
XEntityJava - -down-> XModelJava

XComponent ...up.> XView : <<trace>>
XTemplate ...up.> XView : <<trace>>
XStyle ...up.> XView : <<trace>>
XService ...up.> XController : <<trace>>
XDto ...up.> XModel : <<trace>>
XDto ...down.> XDtoJava : <<trace>>
XRepositoryJava ...up.> XModel : <<trace>>
XResourceJava ...up.>  XModel : <<trace>>
XServiceJava ...up.>  XModel : <<trace>>
XDtoJava ...up.>  XModel : <<trace>>
XEntityJava ...up.>  XModel : <<trace>>
XService ...down.>  XResourceJava : <<trace>>
XModelJava ...up.>  XModel : <<trace>>
@enduml

PlantUML version 1.2021.6beta6(Unknown compile time)
(GPL source distribution)
Java Runtime: Java(TM) SE Runtime Environment
JVM: Java HotSpot(TM) 64-Bit Server VM
Default Encoding: UTF-8
Language: en
Country: US
--></g></svg>